<?xml version='1.0' encoding='utf-8'?>
<svg xmlns:xlink="http://www.w3.org/1999/xlink" xmlns="http://www.w3.org/2000/svg" version="1.1" id="Layer_1" x="0px" y="0px" viewBox="0 0 360 576" style="enable-background:new 0 0 360 576;"> <style type="text/css"> .st0{clip-path:url(#SVGID_2_);fill:url(#SVGID_3_);} .st1{clip-path:url(#SVGID_2_);fill:url(#SVGID_4_);} .st2{clip-path:url(#SVGID_2_);fill:url(#SVGID_5_);} .st3{clip-path:url(#SVGID_2_);fill:url(#SVGID_6_);} .st4{clip-path:url(#SVGID_2_);fill:url(#SVGID_7_);} .st5{clip-path:url(#SVGID_2_);fill:url(#SVGID_8_);} .st6{clip-path:url(#SVGID_2_);fill:url(#SVGID_9_);} .st7{clip-path:url(#SVGID_2_);fill:url(#SVGID_10_);} .st8{clip-path:url(#SVGID_2_);fill:url(#SVGID_11_);} .st9{clip-path:url(#SVGID_2_);fill:url(#SVGID_12_);} .st10{clip-path:url(#SVGID_2_);fill:url(#SVGID_13_);} .st11{clip-path:url(#SVGID_2_);fill:url(#SVGID_14_);} .st12{clip-path:url(#SVGID_2_);fill:url(#SVGID_15_);} .st13{clip-path:url(#SVGID_2_);fill:url(#SVGID_16_);} .st14{clip-path:url(#SVGID_2_);fill:url(#SVGID_17_);} .st15{clip-path:url(#SVGID_2_);fill:url(#SVGID_18_);} .st16{clip-path:url(#SVGID_2_);fill:url(#SVGID_19_);} .st17{clip-path:url(#SVGID_2_);fill:url(#SVGID_20_);} .st18{clip-path:url(#SVGID_2_);fill:url(#SVGID_21_);} .st19{clip-path:url(#SVGID_2_);fill:url(#SVGID_22_);} .st20{clip-path:url(#SVGID_2_);fill:url(#SVGID_23_);} .st21{clip-path:url(#SVGID_2_);fill:url(#SVGID_24_);} .st22{clip-path:url(#SVGID_2_);fill:url(#SVGID_25_);} .st23{clip-path:url(#SVGID_2_);fill:url(#SVGID_26_);} .st24{clip-path:url(#SVGID_2_);fill:url(#SVGID_27_);} .st25{clip-path:url(#SVGID_2_);fill:url(#SVGID_28_);} .st26{clip-path:url(#SVGID_2_);fill:url(#SVGID_29_);} .st27{clip-path:url(#SVGID_2_);fill:url(#SVGID_30_);} .st28{clip-path:url(#SVGID_2_);fill:url(#SVGID_31_);} .st29{clip-path:url(#SVGID_2_);fill:url(#SVGID_32_);} .st30{clip-path:url(#SVGID_2_);fill:url(#SVGID_33_);} .st31{clip-path:url(#SVGID_2_);fill:url(#SVGID_34_);} .st32{clip-path:url(#SVGID_2_);fill:url(#SVGID_35_);} .st33{clip-path:url(#SVGID_2_);fill:url(#SVGID_36_);} .st34{clip-path:url(#SVGID_2_);fill:url(#SVGID_37_);} .st35{clip-path:url(#SVGID_2_);fill:url(#SVGID_38_);} .st36{clip-path:url(#SVGID_2_);fill:url(#SVGID_39_);} .st37{clip-path:url(#SVGID_2_);fill:url(#SVGID_40_);} .st38{clip-path:url(#SVGID_2_);fill:url(#SVGID_41_);} .st39{clip-path:url(#SVGID_2_);fill:url(#SVGID_42_);} .st40{clip-path:url(#SVGID_2_);fill:url(#SVGID_43_);} .st41{clip-path:url(#SVGID_2_);fill:url(#SVGID_44_);} .st42{clip-path:url(#SVGID_2_);fill:url(#SVGID_45_);} .st43{clip-path:url(#SVGID_2_);fill:url(#SVGID_46_);} .st44{clip-path:url(#SVGID_2_);fill:url(#SVGID_47_);} .st45{clip-path:url(#SVGID_2_);fill:url(#SVGID_48_);} </style> <g> <defs> <rect id="SVGID_1_" y="-1.2" width="360" height="577.2"/> </defs> <clipPath id="SVGID_2_"> <use xlink:href="#SVGID_1_" style="overflow:visible;"/> </clipPath> <radialGradient id="SVGID_3_" cx="263.9836" cy="149.5607" r="835.0132" gradientUnits="userSpaceOnUse"> <stop offset="0" style="stop-color:#FFFFFF"/> <stop offset="1" style="stop-color:#000000"/> </radialGradient> <polygon class="st0" points="-508.4,720.1 -256.1,182.4 -556.1,-330.2 33.3,-256.5 428.1,-700.2 540.1,-116.9 1084,121.5 563.9,408.3 505.3,999.3 71.8,593.2 "/> <radialGradient id="SVGID_4_" cx="263.9836" cy="149.5607" r="835.0132" gradientTransform="matrix(0.8457 -0.3078 0.3078 0.8457 -5.2918 104.3587)" gradientUnits="userSpaceOnUse"> <stop offset="0" style="stop-color:#FFFFFF"/> <stop offset="1" style="stop-color:#000000"/> </radialGradient> <polygon class="st1" points="-213.6,869.8 -165.8,337.4 -577.2,-3.8 -56.1,-122.8 141.2,-619.6 415.5,-160.7 948.9,-126.5 597.3,276.1 729.6,793.9 238.1,583.9 "/> <radialGradient id="SVGID_5_" cx="263.9836" cy="149.5607" r="835.0132" gradientTransform="matrix(0.6205 -0.5207 0.5207 0.6205 17.8209 166.3779)" gradientUnits="userSpaceOnUse"> <stop offset="0" style="stop-color:#FFFFFF"/> <stop offset="1" style="stop-color:#000000"/> </radialGradient> <polygon class="st2" points="77.3,877.9 -46.1,412.9 -499.2,251 -95.1,-10.1 -81.1,-491 292.1,-187.3 753.7,-322.6 580.3,126.1 851.6,523.4 371.3,497.1 "/> <radialGradient id="SVGID_6_" cx="263.9836" cy="149.5607" r="835.0132" gradientTransform="matrix(0.3645 -0.6313 0.6313 0.3645 33.9017 219.3013)" gradientUnits="userSpaceOnUse"> <stop offset="0" style="stop-color:#FFFFFF"/> <stop offset="1" style="stop-color:#000000"/> </radialGradient> <polygon class="st3" points="303.2,802.7 55.7,447.5 -377.3,450 -115.9,104.8 -252.1,-306.2 157,-164.3 505.8,-420.8 497.2,12.1 848.9,264.5 434.6,390.2 "/> <radialGradient id="SVGID_7_" cx="263.9836" cy="149.5607" r="835.0132" gradientTransform="matrix(0.1139 -0.6461 0.6461 0.1139 73.7677 277.1138)" gradientUnits="userSpaceOnUse"> <stop offset="0" style="stop-color:#FFFFFF"/> <stop offset="1" style="stop-color:#000000"/> </radialGradient> <polygon class="st4" points="481.1,687.6 162.4,463.4 -203,598.8 -88.2,226.4 -329.9,-79.3 59.8,-85.2 275.8,-409.5 401.8,-40.7 777,64.5 465.3,298.3 "/> <radialGradient id="SVGID_8_" cx="263.9836" cy="149.5607" r="835.0132" gradientTransform="matrix(-0.1025 -0.5815 0.5815 -0.1025 139.3951 301.9351)" gradientUnits="userSpaceOnUse"> <stop offset="0" style="stop-color:#FFFFFF"/> <stop offset="1" style="stop-color:#000000"/> </radialGradient> <polygon class="st5" points="610.3,523.7 271.7,432.2 4.4,659.2 -13.2,308.9 -311.7,124.8 16,-0.1 98.9,-340.9 319,-67.9 668.7,-94.3 477,199.3 "/> <radialGradient id="SVGID_9_" cx="263.9836" cy="149.5607" r="835.0132" gradientTransform="matrix(-0.2657 -0.4602 0.4602 -0.2657 189.3887 291.916)" gradientUnits="userSpaceOnUse"> <stop offset="0" style="stop-color:#FFFFFF"/> <stop offset="1" style="stop-color:#000000"/> </radialGradient> <polygon class="st6" points="655.9,334.6 341.4,361.3 185.2,635.6 62.5,344.8 -246.6,280.9 -7.9,74.4 -42.7,-239.3 227.4,-76.1 515,-206.2 443.3,101.2 "/> <radialGradient id="SVGID_10_" cx="263.9836" cy="149.5607" r="835.0132" gradientTransform="matrix(-0.3664 -0.3074 0.3074 -0.3664 220.5742 282.1509)" gradientUnits="userSpaceOnUse"> <stop offset="0" style="stop-color:#FFFFFF"/> <stop offset="1" style="stop-color:#000000"/> </radialGradient> <polygon class="st7" points="628.2,174.6 370.5,294.1 322.8,574.1 129.5,365.9 -151.5,407.1 -13.2,158.9 -139.2,-95.7 139.5,-40.8 342.7,-239.3 376.6,42.7 "/> <radialGradient id="SVGID_11_" cx="263.9836" cy="149.5607" r="835.0132" gradientTransform="matrix(-0.4045 -0.1472 0.1472 -0.4045 258.6526 269.948)" gradientUnits="userSpaceOnUse"> <stop offset="0" style="stop-color:#FFFFFF"/> <stop offset="1" style="stop-color:#000000"/> </radialGradient> <polygon class="st8" points="570.3,53.5 389.1,233.9 435,485.4 207.4,368.8 -17.6,490.1 23,237.7 -162,61.2 90.7,21.8 201.4,-208.7 316.9,19.4 "/> <radialGradient id="SVGID_12_" cx="263.9836" cy="149.5607" r="835.0132" gradientTransform="matrix(-0.3874 0 0 -0.3874 290.0521 233.2288)" gradientUnits="userSpaceOnUse"> <stop offset="0" style="stop-color:#FFFFFF"/> <stop offset="1" style="stop-color:#000000"/> </radialGradient> <polygon class="st9" points="487,-45.7 389.3,162.6 505.5,361.2 277.2,332.6 124.2,504.5 80.8,278.5 -129.9,186.1 71.6,75.1 94.3,-153.9 262.2,3.4 "/> <radialGradient id="SVGID_13_" cx="263.9836" cy="149.5607" r="835.0132" gradientTransform="matrix(-0.3277 0.1193 -0.1193 -0.3277 292.0905 192.7821)" gradientUnits="userSpaceOnUse"> <stop offset="0" style="stop-color:#FFFFFF"/> <stop offset="1" style="stop-color:#000000"/> </radialGradient> <polygon class="st10" points="372.8,-103.8 354.3,102.5 513.7,234.7 311.8,280.8 235.3,473.2 129.1,295.5 -77.6,282.2 58.6,126.3 7.4,-74.4 197.8,7 "/> <radialGradient id="SVGID_14_" cx="263.9836" cy="149.5607" r="835.0132" gradientTransform="matrix(-0.2404 0.2017 -0.2017 -0.2404 283.1235 168.7675)" gradientUnits="userSpaceOnUse"> <stop offset="0" style="stop-color:#FFFFFF"/> <stop offset="1" style="stop-color:#000000"/> </radialGradient> <polygon class="st11" points="260.1,-106.9 307.9,73.3 483.4,136 326.9,237.1 321.4,423.4 176.9,305.8 -2,358.2 65.2,184.4 -39.9,30.5 146.2,40.7 "/> <radialGradient id="SVGID_15_" cx="263.9836" cy="149.5607" r="835.0132" gradientTransform="matrix(-0.1412 0.2446 -0.2446 -0.1412 276.9076 148.2731)" gradientUnits="userSpaceOnUse"> <stop offset="0" style="stop-color:#FFFFFF"/> <stop offset="1" style="stop-color:#000000"/> </radialGradient> <polygon class="st12" points="172.6,-77.8 268.5,59.9 436.2,58.9 334.9,192.6 387.7,351.9 229.2,296.9 94.1,396.3 97.4,228.5 -38.9,130.7 121.7,82.1 "/> <radialGradient id="SVGID_16_" cx="263.9836" cy="149.5607" r="835.0132" gradientTransform="matrix(-4.413904e-02 0.2503 -0.2503 -4.413904e-02 261.4685 125.8602)" gradientUnits="userSpaceOnUse"> <stop offset="0" style="stop-color:#FFFFFF"/> <stop offset="1" style="stop-color:#000000"/> </radialGradient> <polygon class="st13" points="103.7,-33.2 227.1,53.7 368.7,1.2 324.2,145.5 417.8,263.9 266.9,266.2 183.2,391.9 134.4,249 -11,208.2 109.8,117.7 "/> <radialGradient id="SVGID_17_" cx="263.9836" cy="149.5607" r="835.0132" gradientTransform="matrix(3.972513e-02 0.2253 -0.2253 3.972513e-02 236.0268 116.2415)" gradientUnits="userSpaceOnUse"> <stop offset="0" style="stop-color:#FFFFFF"/> <stop offset="1" style="stop-color:#000000"/> </radialGradient> <polygon class="st14" points="53.6,30.3 184.8,65.8 288.3,-22.2 295.1,113.5 410.8,184.9 283.8,233.3 251.7,365.3 166.4,259.5 31,269.8 105.2,156 "/> <radialGradient id="SVGID_18_" cx="263.9836" cy="149.5607" r="835.0132" gradientTransform="matrix(0.1029 0.1783 -0.1783 0.1029 216.6592 120.1405)" gradientUnits="userSpaceOnUse"> <stop offset="0" style="stop-color:#FFFFFF"/> <stop offset="1" style="stop-color:#000000"/> </radialGradient> <polygon class="st15" points="35.9,103.6 157.8,93.2 218.3,-13 265.8,99.7 385.6,124.4 293.1,204.4 306.6,325.9 201.9,262.7 90.5,313.1 118.3,194 "/> <radialGradient id="SVGID_19_" cx="263.9836" cy="149.5607" r="835.0132" gradientTransform="matrix(0.1419 0.1191 -0.1191 0.1419 204.5958 123.9193)" gradientUnits="userSpaceOnUse"> <stop offset="0" style="stop-color:#FFFFFF"/> <stop offset="1" style="stop-color:#000000"/> </radialGradient> <polygon class="st16" points="46.7,165.6 146.5,119.3 165,10.8 239.9,91.5 348.8,75.5 295.2,171.7 344,270.3 236,249 157.3,325.9 144.1,216.7 "/> <radialGradient id="SVGID_20_" cx="263.9836" cy="149.5607" r="835.0132" gradientTransform="matrix(0.1567 5.703932e-02 -5.703932e-02 0.1567 189.8357 128.6274)" gradientUnits="userSpaceOnUse"> <stop offset="0" style="stop-color:#FFFFFF"/> <stop offset="1" style="stop-color:#000000"/> </radialGradient> <polygon class="st17" points="69.1,212.5 139.3,142.6 121.5,45.2 209.7,90.3 296.9,43.3 281.1,141.1 352.8,209.5 254.9,224.8 212,314 167.3,225.7 "/> <radialGradient id="SVGID_21_" cx="263.9836" cy="149.5607" r="835.0132" gradientTransform="matrix(0.1501 0 0 0.1501 177.6516 142.8637)" gradientUnits="userSpaceOnUse"> <stop offset="0" style="stop-color:#FFFFFF"/> <stop offset="1" style="stop-color:#000000"/> </radialGradient> <polygon class="st18" points="101.3,250.9 139.2,170.2 94.2,93.3 182.6,104.4 241.9,37.8 258.7,125.3 340.4,161.1 262.3,204.1 253.5,292.8 188.4,231.9 "/> <radialGradient id="SVGID_22_" cx="263.9836" cy="149.5607" r="835.0132" gradientTransform="matrix(0.1269 -4.620185e-02 4.620185e-02 0.1269 176.8736 158.5496)" gradientUnits="userSpaceOnUse"> <stop offset="0" style="stop-color:#FFFFFF"/> <stop offset="1" style="stop-color:#000000"/> </radialGradient> <polygon class="st19" points="145.6,273.4 152.8,193.5 91,142.3 169.2,124.5 198.9,49.9 240,118.8 320.1,123.9 267.3,184.3 287.2,262.1 213.4,230.5 "/> <radialGradient id="SVGID_23_" cx="263.9836" cy="149.5607" r="835.0132" gradientTransform="matrix(9.313312e-02 -7.814797e-02 7.814797e-02 9.313312e-02 180.3602 167.8404)" gradientUnits="userSpaceOnUse"> <stop offset="0" style="stop-color:#FFFFFF"/> <stop offset="1" style="stop-color:#000000"/> </radialGradient> <polygon class="st20" points="189.3,274.6 170.8,204.8 102.8,180.5 163.4,141.4 165.5,69.2 221.5,114.7 290.8,94.4 264.8,161.8 305.5,221.4 233.4,217.5 "/> <radialGradient id="SVGID_24_" cx="263.9836" cy="149.5607" r="835.0132" gradientTransform="matrix(5.470949e-02 -9.475962e-02 9.475962e-02 5.470949e-02 182.7543 175.7711)" gradientUnits="userSpaceOnUse"> <stop offset="0" style="stop-color:#FFFFFF"/> <stop offset="1" style="stop-color:#000000"/> </radialGradient> <polygon class="st21" points="223.2,263.3 186,210 121,210.4 160.3,158.6 139.8,96.9 201.2,118.2 253.6,79.7 252.3,144.7 305.1,182.6 242.9,201.4 "/> <radialGradient id="SVGID_25_" cx="263.9836" cy="149.5607" r="835.0132" gradientTransform="matrix(1.710037e-02 -9.698100e-02 9.698100e-02 1.710037e-02 188.7299 184.4696)" gradientUnits="userSpaceOnUse"> <stop offset="0" style="stop-color:#FFFFFF"/> <stop offset="1" style="stop-color:#000000"/> </radialGradient> <polygon class="st22" points="249.9,246.1 202,212.4 147.2,232.8 164.4,176.9 128.1,131 186.6,130.1 219.1,81.4 238,136.8 294.3,152.6 247.5,187.6 "/> <radialGradient id="SVGID_26_" cx="263.9836" cy="149.5607" r="835.0132" gradientTransform="matrix(-1.539033e-02 -8.728290e-02 8.728290e-02 -1.539033e-02 198.6029 188.1985)" gradientUnits="userSpaceOnUse"> <stop offset="0" style="stop-color:#FFFFFF"/> <stop offset="1" style="stop-color:#000000"/> </radialGradient> <polygon class="st23" points="269.3,221.5 218.5,207.7 178.3,241.8 175.7,189.2 130.9,161.6 180.1,142.9 192.5,91.7 225.6,132.7 278,128.7 249.3,172.8 "/> <radialGradient id="SVGID_27_" cx="263.9836" cy="149.5607" r="835.0132" gradientTransform="matrix(-3.988322e-02 -6.907976e-02 6.907976e-02 -3.988322e-02 206.1053 186.6704)" gradientUnits="userSpaceOnUse"> <stop offset="0" style="stop-color:#FFFFFF"/> <stop offset="1" style="stop-color:#000000"/> </radialGradient> <polygon class="st24" points="276.1,193.1 228.9,197.1 205.5,238.3 187.1,194.6 140.7,185 176.5,154 171.3,106.9 211.8,131.4 255,111.9 244.2,158 "/> <radialGradient id="SVGID_28_" cx="263.9836" cy="149.5607" r="835.0132" gradientTransform="matrix(-5.499418e-02 -4.614559e-02 4.614559e-02 -5.499418e-02 210.7603 185.2109)" gradientUnits="userSpaceOnUse"> <stop offset="0" style="stop-color:#FFFFFF"/> <stop offset="1" style="stop-color:#000000"/> </radialGradient> <polygon class="st25" points="271.9,169.1 233.3,187 226.1,229 197.1,197.8 154.9,204 175.7,166.7 156.8,128.5 198.6,136.7 229.1,106.9 234.2,149.3 "/> <radialGradient id="SVGID_29_" cx="263.9836" cy="149.5607" r="835.0132" gradientTransform="matrix(-6.071431e-02 -2.209820e-02 2.209820e-02 -6.071431e-02 216.4865 183.4065)" gradientUnits="userSpaceOnUse"> <stop offset="0" style="stop-color:#FFFFFF"/> <stop offset="1" style="stop-color:#000000"/> </radialGradient> <polygon class="st26" points="263.3,150.9 236.1,178 242.9,215.7 208.8,198.2 175,216.5 181.1,178.6 153.4,152.1 191.3,146.2 207.9,111.6 225.2,145.8 "/> <radialGradient id="SVGID_30_" cx="263.9836" cy="149.5607" r="835.0132" gradientTransform="matrix(-5.814974e-02 0 0 -5.814974e-02 221.2262 177.8805)" gradientUnits="userSpaceOnUse"> <stop offset="0" style="stop-color:#FFFFFF"/> <stop offset="1" style="stop-color:#000000"/> </radialGradient> <polygon class="st27" points="250.8,136 236.1,167.3 253.6,197.1 219.3,192.8 196.3,218.6 189.8,184.7 158.2,170.8 188.4,154.1 191.8,119.8 217,143.4 "/> <radialGradient id="SVGID_31_" cx="263.9836" cy="149.5607" r="835.0132" gradientTransform="matrix(-4.917859e-02 1.789954e-02 -1.789954e-02 -4.917859e-02 221.5159 171.7875)" gradientUnits="userSpaceOnUse"> <stop offset="0" style="stop-color:#FFFFFF"/> <stop offset="1" style="stop-color:#000000"/> </radialGradient> <polygon class="st28" points="233.6,127.3 230.8,158.2 254.8,178.1 224.5,185 213,213.9 197,187.2 166,185.2 186.5,161.8 178.8,131.7 207.4,143.9 "/> <radialGradient id="SVGID_32_" cx="263.9836" cy="149.5607" r="835.0132" gradientTransform="matrix(-3.608168e-02 3.027612e-02 -3.027612e-02 -3.608168e-02 220.1525 168.2009)" gradientUnits="userSpaceOnUse"> <stop offset="0" style="stop-color:#FFFFFF"/> <stop offset="1" style="stop-color:#000000"/> </radialGradient> <polygon class="st29" points="216.7,126.8 223.9,153.9 250.2,163.3 226.7,178.5 225.9,206.4 204.2,188.8 177.4,196.6 187.4,170.5 171.7,147.4 199.6,149 "/> <radialGradient id="SVGID_33_" cx="263.9836" cy="149.5607" r="835.0132" gradientTransform="matrix(-2.119558e-02 3.671182e-02 -3.671182e-02 -2.119558e-02 219.2391 165.1376)" gradientUnits="userSpaceOnUse"> <stop offset="0" style="stop-color:#FFFFFF"/> <stop offset="1" style="stop-color:#000000"/> </radialGradient> <polygon class="st30" points="203.6,131.2 218,151.9 243.1,151.7 228,171.8 235.9,195.7 212.1,187.4 191.8,202.4 192.3,177.2 171.8,162.5 195.9,155.2 "/> <radialGradient id="SVGID_34_" cx="263.9836" cy="149.5607" r="835.0132" gradientTransform="matrix(-6.625033e-03 3.757243e-02 -3.757243e-02 -6.625033e-03 216.9298 161.7524)" gradientUnits="userSpaceOnUse"> <stop offset="0" style="stop-color:#FFFFFF"/> <stop offset="1" style="stop-color:#000000"/> </radialGradient> <polygon class="st31" points="193.2,137.9 211.8,150.9 233,143 226.3,164.7 240.4,182.5 217.7,182.8 205.2,201.7 197.9,180.2 176,174.1 194.2,160.5 "/> <radialGradient id="SVGID_35_" cx="263.9836" cy="149.5607" r="835.0132" gradientTransform="matrix(5.962529e-03 3.381518e-02 -3.381518e-02 5.962529e-03 213.0885 160.3054)" gradientUnits="userSpaceOnUse"> <stop offset="0" style="stop-color:#FFFFFF"/> <stop offset="1" style="stop-color:#000000"/> </radialGradient> <polygon class="st32" points="185.7,147.4 205.4,152.7 220.9,139.5 222,159.9 239.3,170.6 220.3,177.9 215.4,197.7 202.6,181.8 182.3,183.3 193.5,166.3 "/> <radialGradient id="SVGID_36_" cx="263.9836" cy="149.5607" r="835.0132" gradientTransform="matrix(1.545158e-02 2.676292e-02 -2.676292e-02 1.545158e-02 210.1829 160.9148)" gradientUnits="userSpaceOnUse"> <stop offset="0" style="stop-color:#FFFFFF"/> <stop offset="1" style="stop-color:#000000"/> </radialGradient> <polygon class="st33" points="183.1,158.4 201.3,156.9 210.4,140.9 217.6,157.8 235.5,161.6 221.7,173.6 223.7,191.8 208,182.3 191.2,189.9 195.4,172 "/> <radialGradient id="SVGID_37_" cx="263.9836" cy="149.5607" r="835.0132" gradientTransform="matrix(2.130587e-02 1.787775e-02 -1.787775e-02 2.130587e-02 208.398 161.4759)" gradientUnits="userSpaceOnUse"> <stop offset="0" style="stop-color:#FFFFFF"/> <stop offset="1" style="stop-color:#000000"/> </radialGradient> <polygon class="st34" points="184.7,167.7 199.7,160.8 202.5,144.5 213.7,156.6 230,154.2 222,168.6 229.3,183.4 213.1,180.3 201.3,191.8 199.3,175.4 "/> <radialGradient id="SVGID_38_" cx="263.9836" cy="149.5607" r="835.0132" gradientTransform="matrix(2.352197e-02 8.561296e-03 -8.561296e-03 2.352197e-02 206.1717 162.1553)" gradientUnits="userSpaceOnUse"> <stop offset="0" style="stop-color:#FFFFFF"/> <stop offset="1" style="stop-color:#000000"/> </radialGradient> <polygon class="st35" points="188,174.7 198.6,164.3 195.9,149.6 209.1,156.4 222.2,149.4 219.9,164 230.6,174.3 215.9,176.6 209.5,190 202.8,176.7 "/> <radialGradient id="SVGID_39_" cx="263.9836" cy="149.5607" r="835.0132" gradientTransform="matrix(2.252840e-02 0 0 2.252840e-02 204.3161 164.3068)" gradientUnits="userSpaceOnUse"> <stop offset="0" style="stop-color:#FFFFFF"/> <stop offset="1" style="stop-color:#000000"/> </radialGradient> <polygon class="st36" points="192.9,180.5 198.5,168.4 191.8,156.9 205.1,158.5 214,148.5 216.5,161.7 228.7,167 217,173.5 215.7,186.8 205.9,177.7 "/> <radialGradient id="SVGID_40_" cx="263.9836" cy="149.5607" r="835.0132" gradientTransform="matrix(1.905279e-02 -6.934650e-03 6.934650e-03 1.905279e-02 204.2156 166.6833)" gradientUnits="userSpaceOnUse"> <stop offset="0" style="stop-color:#FFFFFF"/> <stop offset="1" style="stop-color:#000000"/> </radialGradient> <polygon class="st37" points="199.5,183.9 200.6,171.9 191.3,164.2 203.1,161.6 207.5,150.4 213.7,160.7 225.7,161.5 217.8,170.6 220.8,182.2 209.7,177.5 "/> <radialGradient id="SVGID_41_" cx="263.9836" cy="149.5607" r="835.0132" gradientTransform="matrix(1.397878e-02 -1.172959e-02 1.172959e-02 1.397878e-02 204.7564 168.0599)" gradientUnits="userSpaceOnUse"> <stop offset="0" style="stop-color:#FFFFFF"/> <stop offset="1" style="stop-color:#000000"/> </radialGradient> <polygon class="st38" points="206.1,184.1 203.3,173.6 193.1,170 202.2,164.1 202.5,153.3 210.9,160.1 221.3,157 217.4,167.2 223.5,176.1 212.7,175.5 "/> <radialGradient id="SVGID_42_" cx="263.9836" cy="149.5607" r="835.0132" gradientTransform="matrix(8.211602e-03 -1.422291e-02 1.422291e-02 8.211602e-03 205.0962 169.2375)" gradientUnits="userSpaceOnUse"> <stop offset="0" style="stop-color:#FFFFFF"/> <stop offset="1" style="stop-color:#000000"/> </radialGradient> <polygon class="st39" points="211.2,182.4 205.6,174.4 195.8,174.4 201.7,166.7 198.7,157.4 207.9,160.6 215.7,154.8 215.5,164.6 223.5,170.3 214.1,173.1 "/> <radialGradient id="SVGID_43_" cx="263.9836" cy="149.5607" r="835.0132" gradientTransform="matrix(2.566673e-03 -1.455633e-02 1.455633e-02 2.566673e-03 205.9851 170.5642)" gradientUnits="userSpaceOnUse"> <stop offset="0" style="stop-color:#FFFFFF"/> <stop offset="1" style="stop-color:#000000"/> </radialGradient> <polygon class="st40" points="215.2,179.8 208,174.8 199.8,177.8 202.3,169.4 196.9,162.5 205.7,162.4 210.5,155.1 213.4,163.4 221.8,165.8 214.8,171 "/> <radialGradient id="SVGID_44_" cx="263.9836" cy="149.5607" r="835.0132" gradientTransform="matrix(-2.310006e-03 -1.310069e-02 1.310069e-02 -2.310006e-03 207.4896 171.1272)" gradientUnits="userSpaceOnUse"> <stop offset="0" style="stop-color:#FFFFFF"/> <stop offset="1" style="stop-color:#000000"/> </radialGradient> <polygon class="st41" points="218.1,176.1 210.5,174.1 204.4,179.2 204.1,171.3 197.3,167.1 204.7,164.3 206.6,156.6 211.5,162.8 219.4,162.2 215.1,168.8 "/> <radialGradient id="SVGID_45_" cx="263.9836" cy="149.5607" r="835.0132" gradientTransform="matrix(-5.986257e-03 -1.036850e-02 1.036850e-02 -5.986257e-03 208.6143 170.8736)" gradientUnits="userSpaceOnUse"> <stop offset="0" style="stop-color:#FFFFFF"/> <stop offset="1" style="stop-color:#000000"/> </radialGradient> <polygon class="st42" points="219.1,171.8 212,172.4 208.5,178.6 205.8,172.1 198.8,170.6 204.2,166 203.4,158.9 209.5,162.6 216,159.7 214.3,166.6 "/> <radialGradient id="SVGID_46_" cx="263.9836" cy="149.5607" r="835.0132" gradientTransform="matrix(-8.254331e-03 -6.926206e-03 6.926206e-03 -8.254331e-03 209.2873 170.6607)" gradientUnits="userSpaceOnUse"> <stop offset="0" style="stop-color:#FFFFFF"/> <stop offset="1" style="stop-color:#000000"/> </radialGradient> <polygon class="st43" points="218.5,168.2 212.7,170.9 211.6,177.2 207.2,172.5 200.9,173.5 204,167.9 201.2,162.1 207.5,163.4 212,158.9 212.8,165.3 "/> <radialGradient id="SVGID_47_" cx="208.9304" cy="167.5062" r="8.062" gradientTransform="matrix(-9.112892e-03 -3.316822e-03 3.316822e-03 -9.112892e-03 210.1576 170.4171)" gradientUnits="userSpaceOnUse"> <stop offset="0" style="stop-color:#FFFFFF"/> <stop offset="1" style="stop-color:#000000"/> </radialGradient> <polygon class="st44" points="217.2,165.5 213.1,169.6 214.1,175.3 209,172.6 203.9,175.4 204.8,169.7 200.7,165.7 206.4,164.8 208.9,159.6 211.5,164.8 "/> <radialGradient id="SVGID_48_" cx="208.5918" cy="168.2676" r="7.288" gradientTransform="matrix(-8.727964e-03 0 0 -8.727964e-03 210.8958 169.573)" gradientUnits="userSpaceOnUse"> <stop offset="0" style="stop-color:#FFFFFF"/> <stop offset="1" style="stop-color:#000000"/> </radialGradient> <polygon class="st45" points="215.3,163.3 213.1,168 215.7,172.5 210.6,171.8 207.2,175.7 206.2,170.6 201.4,168.5 206,166 206.5,160.9 210.3,164.4 "/> </g> </svg>