<?xml version="1.0" encoding="utf-8"?>

<!DOCTYPE svg PUBLIC "-//W3C//DTD SVG 1.1//EN" "http://www.w3.org/Graphics/SVG/1.1/DTD/svg11.dtd">
<svg version="1.1" id="Layer_1" xmlns="http://www.w3.org/2000/svg" xmlns:xlink="http://www.w3.org/1999/xlink" x="0px" y="0px"
	 viewBox="0 0 1650.026 1650.026" enable-background="new 0 0 1650.026 1650.026" xml:space="preserve">
<g>
	<g>
		<path fill="none" stroke="#000000" stroke-width="4" stroke-miterlimit="10" d="M825.013,825.013
			c29.433-29.433,51.718-60.77,67.38-92.74C866.827,757.047,843.911,787.925,825.013,825.013
			c18.897-37.088,30.408-73.777,35.424-109.023C843.778,747.453,831.525,783.9,825.013,825.013c6.512-41.113,6.121-79.563,0-114.633
			C818.892,745.45,818.501,783.9,825.013,825.013c-6.512-41.113-18.765-77.56-35.424-109.023
			C794.605,751.236,806.116,787.925,825.013,825.013c-18.897-37.088-41.814-67.966-67.38-92.74
			C773.295,764.243,795.58,795.58,825.013,825.013c-29.433-29.433-60.77-51.718-92.74-67.38
			C757.047,783.199,787.925,806.116,825.013,825.013c-37.088-18.897-73.777-30.408-109.023-35.424
			C747.453,806.248,783.9,818.501,825.013,825.013c-41.113-6.512-79.563-6.121-114.633,0
			C745.45,831.134,783.9,831.525,825.013,825.013c-41.113,6.512-77.56,18.765-109.023,35.424
			C751.236,855.421,787.925,843.911,825.013,825.013c-37.088,18.897-67.966,41.814-92.74,67.38
			C764.243,876.731,795.58,854.447,825.013,825.013c-29.433,29.433-51.718,60.77-67.38,92.74
			C783.199,892.979,806.116,862.101,825.013,825.013c-18.897,37.088-30.408,73.777-35.424,109.023
			C806.248,902.573,818.501,866.126,825.013,825.013c-6.512,41.113-6.121,79.563,0,114.633
			C831.134,904.576,831.525,866.126,825.013,825.013c6.512,41.113,18.765,77.56,35.424,109.023
			C855.421,898.79,843.911,862.101,825.013,825.013c18.897,37.088,41.814,67.966,67.38,92.74
			C876.731,885.783,854.447,854.447,825.013,825.013c29.433,29.433,60.77,51.718,92.74,67.38
			C892.979,866.827,862.101,843.911,825.013,825.013c37.088,18.897,73.777,30.408,109.023,35.424
			C902.573,843.778,866.126,831.525,825.013,825.013c41.113,6.512,79.563,6.121,114.633,0
			C904.576,818.892,866.126,818.501,825.013,825.013c41.113-6.512,77.56-18.765,109.023-35.424
			C898.79,794.605,862.101,806.116,825.013,825.013c37.088-18.897,67.966-41.814,92.74-67.38
			C885.783,773.295,854.447,795.58,825.013,825.013z"/>
	</g>
	<g>
		<path fill="none" stroke="#000000" stroke-width="4" stroke-miterlimit="10" d="M855.074,794.952
			c35.88-35.88,60.405-74.782,74.664-114.08c-32.969,25.705-62.388,61.051-85.424,106.262
			c23.036-45.211,34.34-89.788,35.757-131.569c-23.412,34.635-40.469,77.342-48.407,127.459c7.938-50.117,4.913-96.005-6.65-136.179
			c-11.564,40.174-14.588,86.062-6.65,136.179c-7.938-50.117-24.995-92.825-48.407-127.459
			c1.417,41.781,12.721,86.358,35.757,131.569c-23.036-45.211-52.456-80.558-85.424-106.262
			c14.259,39.299,38.784,78.201,74.664,114.08c-35.88-35.88-74.782-60.405-114.08-74.664
			c25.705,32.969,61.051,62.388,106.262,85.424c-45.211-23.036-89.788-34.34-131.569-35.757
			c34.635,23.412,77.342,40.469,127.459,48.407c-50.117-7.938-96.005-4.913-136.179,6.65c40.174,11.564,86.062,14.588,136.179,6.65
			c-50.117,7.938-92.825,24.994-127.459,48.407c41.781-1.417,86.358-12.721,131.569-35.757
			c-45.211,23.036-80.558,52.456-106.262,85.424c39.299-14.259,78.201-38.784,114.08-74.664
			c-35.88,35.88-60.405,74.782-74.664,114.08c32.969-25.705,62.388-61.051,85.424-106.262
			c-23.036,45.211-34.34,89.788-35.757,131.569c23.412-34.635,40.469-77.342,48.407-127.459
			c-7.938,50.117-4.913,96.005,6.65,136.179c11.564-40.174,14.588-86.062,6.65-136.179c7.938,50.117,24.994,92.825,48.407,127.459
			c-1.417-41.781-12.721-86.358-35.757-131.569c23.036,45.211,52.456,80.558,85.424,106.262
			c-14.259-39.299-38.784-78.201-74.664-114.08c35.88,35.88,74.782,60.405,114.08,74.664
			c-25.705-32.969-61.051-62.388-106.262-85.424c45.211,23.036,89.788,34.34,131.569,35.757
			c-34.635-23.412-77.342-40.469-127.459-48.407c50.117,7.938,96.005,4.913,136.179-6.65c-40.174-11.564-86.062-14.588-136.179-6.65
			c50.117-7.938,92.825-24.995,127.459-48.407c-41.781,1.417-86.358,12.721-131.569,35.757
			c45.211-23.036,80.558-52.456,106.262-85.424C929.856,734.547,890.953,759.073,855.074,794.952z"/>
	</g>
	<g>
		<path fill="none" stroke="#000000" stroke-width="4" stroke-miterlimit="10" d="M885.134,764.892
			c39.859-39.859,64.67-83.724,76.152-127.442c-38.031,24.43-72.081,61.581-97.673,111.806
			c25.591-50.225,35.633-99.61,33.043-144.737c-28.62,34.986-49.524,80.841-58.342,136.517
			c8.818-55.675,3.107-105.746-13.301-147.864c-16.408,42.118-22.119,92.188-13.301,147.864
			c-8.818-55.675-29.722-101.53-58.342-136.517c-2.59,45.127,7.452,94.511,33.043,144.737
			c-25.591-50.225-59.642-87.377-97.673-111.806c11.482,43.718,36.293,87.583,76.152,127.442
			c-39.859-39.859-83.724-64.67-127.442-76.152c24.43,38.031,61.581,72.082,111.806,97.673
			c-50.225-25.591-99.61-35.633-144.737-33.043c34.986,28.62,80.841,49.524,136.517,58.342
			c-55.675-8.818-105.746-3.107-147.864,13.301c42.118,16.408,92.188,22.119,147.864,13.301
			c-55.675,8.818-101.53,29.722-136.517,58.342c45.127,2.59,94.511-7.452,144.737-33.043
			c-50.225,25.591-87.377,59.642-111.806,97.673c43.718-11.482,87.583-36.292,127.442-76.152
			c-39.859,39.859-64.67,83.724-76.152,127.442c38.031-24.43,72.082-61.581,97.673-111.806
			c-25.591,50.225-35.633,99.61-33.043,144.737c28.62-34.986,49.524-80.841,58.342-136.517
			c-8.818,55.675-3.107,105.746,13.301,147.864c16.408-42.118,22.119-92.188,13.301-147.864
			c8.818,55.675,29.722,101.53,58.342,136.517c2.59-45.127-7.452-94.511-33.043-144.737c25.591,50.225,59.642,87.377,97.673,111.806
			c-11.482-43.719-36.292-87.583-76.152-127.442c39.859,39.859,83.724,64.67,127.442,76.152
			c-24.43-38.031-61.581-72.081-111.806-97.673c50.225,25.591,99.61,35.633,144.737,33.043
			c-34.986-28.62-80.841-49.524-136.517-58.342c55.675,8.818,105.746,3.107,147.864-13.301
			c-42.118-16.408-92.188-22.119-147.864-13.301c55.675-8.818,101.53-29.722,136.517-58.342
			c-45.127-2.59-94.511,7.452-144.737,33.043c50.225-25.591,87.377-59.642,111.806-97.673
			C968.858,700.222,924.993,725.033,885.134,764.892z"/>
	</g>
	<g>
		<path fill="none" stroke="#000000" stroke-width="4" stroke-miterlimit="10" d="M915.195,734.831
			c42.544-42.544,66.575-90.015,74.532-136.527c-41.777,21.941-79.499,59.465-106.814,113.074
			c27.315-53.608,35.5-106.182,28.695-152.877c-32.952,33.777-57.232,81.121-66.644,140.547
			c9.412-59.425,0.951-111.956-19.951-154.262c-20.902,42.306-29.363,94.837-19.951,154.262
			c-9.412-59.425-33.692-106.77-66.644-140.547c-6.805,46.695,1.38,99.269,28.695,152.877
			c-27.315-53.608-65.037-91.133-106.814-113.074c7.957,46.512,31.988,93.984,74.532,136.527
			c-42.544-42.544-90.015-66.575-136.527-74.532c21.941,41.777,59.465,79.499,113.074,106.814
			c-53.608-27.315-106.182-35.5-152.877-28.695c33.777,32.952,81.121,57.232,140.547,66.644
			c-59.425-9.412-111.956-0.951-154.262,19.951c42.306,20.902,94.837,29.363,154.262,19.951
			c-59.425,9.412-106.77,33.692-140.547,66.644c46.695,6.805,99.269-1.38,152.877-28.695
			c-53.608,27.315-91.133,65.037-113.074,106.814c46.512-7.957,93.984-31.988,136.527-74.532
			c-42.544,42.544-66.575,90.015-74.532,136.527c41.777-21.941,79.499-59.465,106.814-113.074
			c-27.315,53.608-35.5,106.182-28.695,152.877c32.952-33.777,57.232-81.121,66.644-140.546
			c-9.412,59.425-0.951,111.956,19.951,154.262c20.902-42.306,29.363-94.837,19.951-154.262
			c9.412,59.425,33.692,106.77,66.644,140.546c6.805-46.695-1.38-99.269-28.695-152.877
			c27.315,53.608,65.037,91.133,106.814,113.074c-7.957-46.512-31.988-93.984-74.532-136.527
			c42.544,42.544,90.015,66.575,136.527,74.532c-21.941-41.777-59.465-79.499-113.074-106.814
			c53.608,27.315,106.182,35.5,152.877,28.695c-33.777-32.952-81.121-57.232-140.546-66.644
			c59.425,9.412,111.956,0.951,154.262-19.951c-42.306-20.902-94.837-29.363-154.262-19.951
			c59.425-9.412,106.77-33.692,140.546-66.644c-46.695-6.805-99.269,1.38-152.877,28.695
			c53.608-27.315,91.133-65.037,113.074-106.814C1005.21,668.256,957.739,692.287,915.195,734.831z"/>
	</g>
	<g>
		<path fill="none" stroke="#000000" stroke-width="4" stroke-miterlimit="10" d="M945.256,704.771
			c44.338-44.338,66.825-94.493,70.72-142.594c-44.544,18.568-85.295,55.453-113.762,111.323
			c28.467-55.87,34.354-110.518,23.194-157.469c-36.626,31.424-63.984,79.097-73.793,141.028
			c9.809-61.932-1.479-115.725-26.601-156.929c-25.122,41.204-36.41,94.997-26.601,156.929
			c-9.809-61.932-37.168-109.604-73.793-141.028c-11.16,46.951-5.273,101.599,23.194,157.469
			c-28.467-55.87-69.218-92.754-113.762-111.323c3.895,48.101,26.381,98.256,70.72,142.594
			c-44.338-44.338-94.493-66.825-142.594-70.72c18.568,44.544,55.453,85.295,111.323,113.762
			c-55.87-28.467-110.518-34.354-157.469-23.194c31.424,36.626,79.097,63.984,141.028,73.793
			c-61.932-9.809-115.725,1.479-156.929,26.601c41.204,25.122,94.997,36.411,156.929,26.601
			c-61.932,9.809-109.604,37.168-141.028,73.793c46.951,11.16,101.599,5.273,157.469-23.194
			c-55.87,28.467-92.754,69.218-111.323,113.762c48.101-3.895,98.256-26.381,142.594-70.72
			c-44.338,44.338-66.825,94.493-70.72,142.594c44.544-18.568,85.295-55.453,113.762-111.323
			c-28.467,55.87-34.354,110.518-23.194,157.469c36.626-31.424,63.984-79.096,73.793-141.028
			c-9.809,61.932,1.479,115.725,26.601,156.929c25.122-41.204,36.411-94.997,26.601-156.929
			c9.809,61.932,37.168,109.604,73.793,141.028c11.16-46.951,5.273-101.599-23.194-157.469
			c28.467,55.87,69.218,92.754,113.762,111.323c-3.895-48.101-26.381-98.256-70.72-142.594
			c44.338,44.338,94.493,66.825,142.594,70.72c-18.568-44.544-55.453-85.295-111.323-113.762
			c55.87,28.467,110.518,34.354,157.469,23.194c-31.424-36.626-79.096-63.984-141.028-73.793
			c61.932,9.809,115.725-1.479,156.929-26.601c-41.204-25.122-94.997-36.41-156.929-26.601
			c61.932-9.809,109.604-37.168,141.028-73.793c-46.951-11.16-101.599-5.273-157.469,23.194
			c55.87-28.467,92.754-69.218,111.323-113.762C1039.749,637.946,989.594,660.432,945.256,704.771z"/>
	</g>
	<g>
		<path fill="none" stroke="#000000" stroke-width="4" stroke-miterlimit="10" d="M975.316,674.71
			c45.436-45.436,65.745-97.561,65.133-146.219c-46.466,14.454-89.764,49.876-118.936,107.13
			c29.172-57.253,32.38-113.102,16.761-159.19c-39.725,28.105-69.958,75.174-80.01,138.639
			c10.052-63.466-4.156-117.573-33.252-156.578c-29.096,39.006-43.304,93.113-33.252,156.578
			c-10.052-63.466-40.284-110.534-80.01-138.639c-15.618,46.088-12.411,101.937,16.761,159.19
			c-29.172-57.253-72.47-92.675-118.936-107.13c-0.612,48.658,19.697,100.783,65.133,146.219
			c-45.436-45.436-97.561-65.745-146.219-65.133c14.454,46.466,49.876,89.764,107.13,118.936
			c-57.253-29.172-113.102-32.38-159.19-16.761c28.105,39.725,75.174,69.958,138.639,80.01
			c-63.466-10.052-117.573,4.156-156.578,33.252c39.006,29.096,93.113,43.304,156.578,33.252
			c-63.466,10.052-110.534,40.284-138.639,80.01c46.088,15.619,101.937,12.411,159.19-16.761
			c-57.253,29.172-92.675,72.47-107.13,118.936c48.658,0.612,100.783-19.697,146.219-65.133
			c-45.436,45.436-65.745,97.561-65.133,146.219c46.466-14.454,89.764-49.876,118.936-107.13
			c-29.172,57.253-32.38,113.102-16.761,159.19c39.725-28.105,69.958-75.174,80.01-138.639
			c-10.052,63.466,4.156,117.573,33.252,156.578c29.096-39.006,43.304-93.113,33.252-156.578
			c10.052,63.466,40.284,110.534,80.01,138.639c15.619-46.088,12.411-101.937-16.761-159.19
			c29.172,57.253,72.47,92.676,118.936,107.13c0.612-48.658-19.697-100.783-65.133-146.219
			c45.436,45.436,97.561,65.745,146.219,65.133c-14.454-46.466-49.876-89.764-107.13-118.936
			c57.253,29.172,113.102,32.38,159.19,16.761c-28.105-39.725-75.174-69.958-138.639-80.01
			c63.466,10.052,117.573-4.156,156.578-33.252c-39.006-29.096-93.113-43.304-156.578-33.252
			c63.466-10.052,110.534-40.284,138.639-80.01c-46.088-15.618-101.937-12.411-159.19,16.761
			c57.253-29.172,92.676-72.47,107.13-118.936C1072.877,608.965,1020.753,629.274,975.316,674.71z"/>
	</g>
	<g>
		<path fill="none" stroke="#000000" stroke-width="4" stroke-miterlimit="10" d="M1005.377,644.649
			c45.944-45.944,63.499-99.443,57.975-147.681c-47.584,9.653-93.041,42.881-122.538,100.774
			c29.498-57.892,29.661-114.199,9.501-158.369c-42.272,23.885-75.236,69.534-85.4,133.708
			c10.164-64.174-7.08-117.775-39.902-153.554c-32.822,35.779-50.066,89.38-39.902,153.554
			c-10.164-64.174-43.128-109.823-85.4-133.708c-20.16,44.17-19.996,100.476,9.501,158.369
			c-29.498-57.892-74.954-91.121-122.538-100.774c-5.524,48.238,12.031,101.738,57.975,147.681
			c-45.944-45.944-99.443-63.499-147.681-57.975c9.653,47.584,42.881,93.041,100.774,122.538
			c-57.892-29.498-114.199-29.661-158.369-9.501c23.885,42.272,69.534,75.236,133.708,85.4
			c-64.174-10.164-117.775,7.08-153.554,39.902c35.779,32.822,89.38,50.066,153.554,39.902
			c-64.174,10.164-109.823,43.128-133.708,85.4c44.17,20.16,100.476,19.996,158.369-9.501
			c-57.892,29.498-91.121,74.954-100.774,122.538c48.238,5.524,101.738-12.031,147.681-57.975
			c-45.944,45.944-63.499,99.443-57.975,147.681c47.584-9.653,93.041-42.881,122.538-100.774
			c-29.498,57.892-29.661,114.198-9.501,158.369c42.272-23.885,75.236-69.534,85.4-133.708
			c-10.164,64.174,7.08,117.775,39.902,153.554c32.822-35.779,50.066-89.38,39.902-153.554
			c10.164,64.174,43.128,109.823,85.4,133.708c20.16-44.17,19.996-100.476-9.501-158.369
			c29.498,57.892,74.954,91.121,122.538,100.774c5.524-48.238-12.031-101.738-57.975-147.681
			c45.944,45.944,99.443,63.499,147.681,57.975c-9.653-47.584-42.881-93.041-100.774-122.538
			c57.892,29.498,114.198,29.661,158.369,9.501c-23.885-42.272-69.534-75.236-133.708-85.4
			c64.174,10.164,117.775-7.08,153.554-39.902c-35.779-32.822-89.38-50.066-153.554-39.902
			c64.174-10.164,109.823-43.128,133.708-85.4c-44.17-20.16-100.476-19.996-158.369,9.501
			c57.892-29.498,91.121-74.954,100.774-122.538C1104.82,581.151,1051.32,598.706,1005.377,644.649z"/>
	</g>
	<g>
		<path fill="none" stroke="#000000" stroke-width="4" stroke-miterlimit="10" d="M1035.437,614.589
			c45.92-45.92,60.155-100.274,49.322-147.085c-47.868,4.163-95.163,34.497-124.645,92.36
			c29.483-57.863,26.224-113.955,1.456-155.128c-44.239,18.751-79.845,62.215-90.004,126.357
			c10.159-64.141-10.273-116.482-46.553-147.985c-36.279,31.504-56.711,83.844-46.553,147.985
			c-10.159-64.141-45.765-107.606-90.004-126.357c-24.768,41.173-28.027,97.265,1.456,155.128
			c-29.483-57.863-76.778-88.197-124.645-92.36c-10.833,46.811,3.402,101.165,49.322,147.085
			c-45.92-45.92-100.274-60.155-147.085-49.322c4.163,47.868,34.497,95.163,92.36,124.645
			C502,660.43,445.908,663.688,404.735,688.457c18.751,44.239,62.215,79.845,126.357,90.004
			c-64.141-10.159-116.482,10.273-147.985,46.553c31.504,36.279,83.844,56.712,147.985,46.553
			c-64.141,10.159-107.606,45.765-126.357,90.004c41.173,24.768,97.265,28.027,155.128-1.456
			c-57.863,29.483-88.197,76.778-92.36,124.645c46.811,10.833,101.165-3.402,147.085-49.322
			c-45.92,45.92-60.155,100.274-49.322,147.085c47.868-4.163,95.163-34.497,124.645-92.359
			c-29.483,57.863-26.224,113.955-1.456,155.128c44.239-18.751,79.845-62.215,90.004-126.357
			c-10.159,64.141,10.273,116.482,46.553,147.985c36.279-31.504,56.712-83.844,46.553-147.985
			c10.159,64.141,45.765,107.606,90.004,126.357c24.768-41.172,28.027-97.265-1.456-155.128
			c29.483,57.863,76.778,88.197,124.645,92.359c10.833-46.811-3.402-101.165-49.322-147.085
			c45.92,45.92,100.274,60.155,147.085,49.322c-4.163-47.868-34.497-95.163-92.359-124.645
			c57.863,29.483,113.955,26.224,155.128,1.456c-18.751-44.239-62.215-79.845-126.357-90.004
			c64.141,10.159,116.482-10.273,147.985-46.553c-31.504-36.279-83.844-56.711-147.985-46.553
			c64.141-10.159,107.606-45.765,126.357-90.004c-41.172-24.768-97.265-28.027-155.128,1.456
			c57.863-29.483,88.197-76.778,92.359-124.645C1135.712,554.434,1081.357,568.669,1035.437,614.589z"/>
	</g>
	<g>
		<path fill="none" stroke="#000000" stroke-width="4" stroke-miterlimit="10" d="M1065.498,584.528
			c45.398-45.398,55.712-100.136,39.149-144.398c-47.214-2.075-96.085,24.649-125.233,81.854
			c29.148-57.205,22.042-112.451-7.389-149.428c-45.545,12.617-83.766,53.134-93.809,116.547
			c10.044-63.413-13.786-113.758-53.203-139.832c-39.417,26.073-63.246,76.419-53.203,139.832
			c-10.044-63.413-48.264-103.931-93.809-116.547c-29.431,36.978-36.536,92.223-7.389,149.428
			c-29.148-57.205-78.018-83.929-125.233-81.854c-16.564,44.262-6.25,99,39.149,144.398
			c-45.398-45.398-100.136-55.712-144.398-39.149c-2.075,47.214,24.649,96.085,81.854,125.233
			c-57.205-29.148-112.451-22.042-149.428,7.389c12.617,45.545,53.134,83.766,116.547,93.809
			c-63.413-10.044-113.758,13.786-139.832,53.203c26.073,39.417,76.419,63.246,139.832,53.203
			c-63.413,10.044-103.931,48.264-116.547,93.809c36.978,29.431,92.223,36.536,149.428,7.389
			c-57.205,29.148-83.929,78.018-81.854,125.233c44.262,16.564,99,6.25,144.398-39.149
			c-45.398,45.398-55.712,100.135-39.149,144.398c47.214,2.075,96.085-24.649,125.233-81.854
			c-29.148,57.205-22.042,112.451,7.389,149.428c45.545-12.617,83.766-53.135,93.809-116.547
			c-10.044,63.413,13.786,113.758,53.203,139.832c39.417-26.073,63.246-76.419,53.203-139.832
			c10.044,63.413,48.264,103.931,93.809,116.547c29.431-36.978,36.536-92.223,7.389-149.428
			c29.148,57.205,78.018,83.929,125.233,81.854c16.564-44.262,6.25-99-39.149-144.398c45.398,45.398,100.135,55.712,144.398,39.149
			c2.075-47.214-24.649-96.085-81.854-125.233c57.205,29.148,112.451,22.042,149.428-7.389
			c-12.617-45.545-53.135-83.766-116.547-93.809c63.413,10.044,113.758-13.786,139.832-53.203
			c-26.073-39.417-76.419-63.246-139.832-53.203c63.413-10.044,103.931-48.264,116.547-93.809
			c-36.978-29.431-92.223-36.536-149.428-7.389c57.205-29.148,83.929-78.018,81.854-125.233
			C1165.634,528.816,1110.896,539.13,1065.498,584.528z"/>
	</g>
	<g>
		<path fill="none" stroke="#000000" stroke-width="4" stroke-miterlimit="10" d="M1095.559,554.468
			c44.392-44.392,50.098-99.083,27.321-139.433c-45.414-9.193-95.664,13.133-124.166,69.071
			c28.502-55.938,17.028-109.714-17.103-141.051c-46.032,5.291-86.924,42.053-96.745,104.06
			c9.821-62.008-17.709-109.606-59.853-128.863c-42.144,19.256-69.674,66.855-59.853,128.863
			c-9.821-62.008-50.713-98.769-96.745-104.06c-34.131,31.337-45.605,85.114-17.103,141.051
			c-28.502-55.938-78.752-78.264-124.166-69.071c-22.777,40.35-17.071,95.041,27.321,139.433
			c-44.392-44.392-99.083-50.098-139.433-27.321c-9.193,45.414,13.133,95.664,69.071,124.166
			c-55.938-28.502-109.714-17.028-141.051,17.103c5.291,46.032,42.053,86.924,104.06,96.745
			c-62.008-9.821-109.606,17.709-128.863,59.853c19.256,42.144,66.855,69.674,128.863,59.853
			c-62.008,9.821-98.769,50.713-104.06,96.745c31.337,34.131,85.114,45.605,141.051,17.103
			c-55.938,28.502-78.264,78.752-69.071,124.166c40.35,22.777,95.041,17.071,139.433-27.321
			c-44.392,44.392-50.098,99.083-27.321,139.433c45.414,9.193,95.664-13.133,124.166-69.071
			c-28.502,55.938-17.028,109.714,17.103,141.052c46.032-5.291,86.924-42.053,96.745-104.06
			c-9.821,62.007,17.709,109.606,59.853,128.863c42.144-19.256,69.674-66.855,59.853-128.863
			c9.821,62.007,50.713,98.769,96.745,104.06c34.131-31.337,45.605-85.114,17.103-141.052
			c28.502,55.938,78.752,78.264,124.166,69.071c22.777-40.35,17.071-95.041-27.321-139.433
			c44.392,44.392,99.083,50.098,139.433,27.321c9.193-45.414-13.133-95.664-69.071-124.166
			c55.938,28.502,109.714,17.028,141.052-17.103c-5.291-46.032-42.053-86.924-104.06-96.745
			c62.007,9.821,109.606-17.709,128.863-59.853c-19.256-42.144-66.855-69.674-128.863-59.853
			c62.007-9.821,98.769-50.713,104.06-96.745c-31.337-34.131-85.114-45.605-141.052-17.103
			c55.938-28.502,78.264-78.752,69.071-124.166C1194.641,504.37,1139.951,510.075,1095.559,554.468z"/>
	</g>
	<g>
		<path fill="none" stroke="#000000" stroke-width="4" stroke-miterlimit="10" d="M1125.619,524.407
			c42.904-42.904,43.133-97.168,13.535-131.771c-42.057-17.457-93.594-0.471-121.14,53.592
			c27.546-54.063,10.995-105.741-27.847-129.504c-45.393-3.606-89.158,28.474-98.65,88.403
			c9.492-59.929-22.219-103.963-66.504-114.561c-44.285,10.598-75.995,54.632-66.504,114.561
			c-9.492-59.929-53.257-92.009-98.65-88.403c-38.843,23.764-55.394,75.442-27.847,129.504
			c-27.546-54.063-79.083-71.048-121.14-53.592c-29.598,34.604-29.37,88.867,13.535,131.771
			c-42.904-42.904-97.168-43.133-131.771-13.535c-17.457,42.056-0.471,93.593,53.592,121.14
			c-54.063-27.546-105.741-10.995-129.504,27.847c-3.606,45.393,28.474,89.158,88.403,98.65
			c-59.929-9.492-103.963,22.218-114.561,66.504c10.598,44.285,54.632,75.995,114.561,66.504
			c-59.929,9.492-92.009,53.257-88.403,98.65c23.764,38.843,75.442,55.394,129.504,27.847
			c-54.063,27.546-71.048,79.083-53.592,121.14c34.604,29.598,88.867,29.37,131.771-13.535
			c-42.904,42.904-43.133,97.168-13.535,131.771c42.056,17.457,93.593,0.471,121.14-53.592
			c-27.546,54.063-10.995,105.741,27.847,129.505c45.393,3.606,89.158-28.474,98.65-88.403
			c-9.492,59.929,22.218,103.963,66.504,114.561c44.285-10.598,75.995-54.632,66.504-114.561
			c9.492,59.929,53.257,92.009,98.65,88.403c38.843-23.764,55.394-75.442,27.847-129.505c27.546,54.063,79.083,71.048,121.14,53.592
			c29.598-34.604,29.37-88.867-13.535-131.771c42.904,42.904,97.168,43.133,131.771,13.535
			c17.457-42.057,0.471-93.594-53.592-121.14c54.063,27.546,105.741,10.995,129.505-27.847c3.606-45.393-28.474-89.158-88.403-98.65
			c59.929,9.492,103.963-22.219,114.561-66.504c-10.598-44.285-54.632-75.995-114.561-66.504
			c59.929-9.492,92.009-53.257,88.403-98.65c-23.764-38.843-75.442-55.394-129.505-27.847
			c54.063-27.546,71.048-79.083,53.592-121.14C1222.787,481.274,1168.523,481.503,1125.619,524.407z"/>
	</g>
	<g>
		<path fill="none" stroke="#000000" stroke-width="4" stroke-miterlimit="10" d="M1155.68,494.346
			c40.937-40.937,34.439-94.5-2.858-120.524c-36.275-27.429-89.225-17.057-115.508,34.526
			c26.283-51.584,3.551-100.517-39.962-113.742c-42.976-14.877-90.129,11.349-99.185,68.53
			c9.057-57.181-27.684-96.695-73.154-95.826c-45.47-0.869-82.211,38.645-73.154,95.826c-9.057-57.181-56.21-83.407-99.185-68.53
			c-43.513,13.225-66.245,62.158-39.962,113.742c-26.283-51.584-79.233-61.955-115.508-34.526
			c-37.296,26.024-43.795,79.587-2.858,120.524c-40.937-40.937-94.5-34.439-120.524,2.858
			c-27.429,36.275-17.057,89.225,34.526,115.508c-51.584-26.283-100.517-3.551-113.742,39.962
			c-14.877,42.976,11.349,90.129,68.53,99.185c-57.181-9.057-96.695,27.684-95.826,73.154c-0.869,45.47,38.645,82.211,95.826,73.154
			c-57.181,9.057-83.407,56.21-68.53,99.185c13.225,43.513,62.158,66.245,113.742,39.962
			c-51.584,26.283-61.955,79.233-34.526,115.508c26.024,37.296,79.587,43.795,120.524,2.858
			c-40.937,40.937-34.439,94.5,2.858,120.524c36.275,27.429,89.225,17.057,115.508-34.526
			c-26.283,51.584-3.551,100.517,39.962,113.742c42.976,14.877,90.129-11.349,99.185-68.53
			c-9.057,57.181,27.684,96.695,73.154,95.826c45.47,0.869,82.211-38.645,73.154-95.826c9.057,57.181,56.21,83.407,99.185,68.53
			c43.513-13.225,66.245-62.158,39.962-113.742c26.283,51.584,79.233,61.955,115.508,34.526
			c37.296-26.024,43.795-79.587,2.858-120.524c40.937,40.937,94.5,34.439,120.524-2.858c27.429-36.275,17.057-89.225-34.526-115.508
			c51.584,26.283,100.517,3.551,113.742-39.962c14.877-42.976-11.349-90.129-68.53-99.185c57.181,9.057,96.695-27.684,95.826-73.154
			c0.869-45.47-38.645-82.211-95.826-73.154c57.181-9.057,83.407-56.21,68.53-99.185c-13.225-43.513-62.158-66.245-113.742-39.962
			c51.584-26.283,61.955-79.233,34.526-115.508C1250.18,459.908,1196.617,453.409,1155.68,494.346z M1247.32,243.757
			c21.24-9.807,37.719-30.359,42.797-58.904C1264.537,198.503,1250.083,220.527,1247.32,243.757z M1047.033,141.706
			c17.169-15.89,26.492-40.529,22.499-69.246C1049.423,93.346,1042.483,118.759,1047.033,141.706z M825.013,106.541
			c11.419-20.418,12.671-46.732,0-72.81C812.342,59.81,813.594,86.123,825.013,106.541z M602.993,141.706
			c4.55-22.947-2.39-48.36-22.499-69.246C576.501,101.177,585.824,125.816,602.993,141.706z M402.706,243.757
			c-2.763-23.23-17.217-45.255-42.796-58.904C364.987,213.399,381.466,233.951,402.706,243.757z M243.757,402.706
			c-9.807-21.239-30.359-37.719-58.904-42.796C198.503,385.489,220.527,399.943,243.757,402.706z M141.706,602.993
			c-15.89-17.169-40.529-26.492-69.246-22.499C93.346,600.603,118.759,607.544,141.706,602.993z M106.541,825.013
			c-20.418-11.419-46.732-12.671-72.81,0C59.81,837.684,86.123,836.432,106.541,825.013z M141.706,1047.033
			c-22.947-4.551-48.36,2.39-69.246,22.499C101.177,1073.525,125.816,1064.203,141.706,1047.033z M243.757,1247.32
			c-23.23,2.763-45.255,17.217-58.904,42.797C213.399,1285.04,233.951,1268.56,243.757,1247.32z M402.706,1406.269
			c-21.239,9.807-37.719,30.359-42.796,58.904C385.489,1451.524,399.943,1429.499,402.706,1406.269z M602.993,1508.32
			c-17.169,15.89-26.492,40.529-22.499,69.246C600.603,1556.68,607.544,1531.268,602.993,1508.32z M825.013,1543.485
			c-11.419,20.418-12.671,46.732,0,72.81C837.684,1590.216,836.432,1563.903,825.013,1543.485z M1047.033,1508.32
			c-4.551,22.947,2.39,48.36,22.499,69.246C1073.525,1548.849,1064.203,1524.21,1047.033,1508.32z M1247.32,1406.269
			c2.763,23.23,17.217,45.255,42.797,58.904C1285.04,1436.628,1268.56,1416.076,1247.32,1406.269z M1406.269,1247.32
			c9.807,21.24,30.359,37.719,58.904,42.797C1451.524,1264.537,1429.499,1250.083,1406.269,1247.32z M1508.32,1047.033
			c15.89,17.169,40.529,26.492,69.246,22.499C1556.68,1049.423,1531.268,1042.483,1508.32,1047.033z M1543.485,825.013
			c20.418,11.419,46.732,12.671,72.81,0C1590.216,812.342,1563.903,813.594,1543.485,825.013z M1508.32,602.993
			c22.947,4.55,48.36-2.39,69.246-22.499C1548.849,576.501,1524.21,585.824,1508.32,602.993z M1406.269,402.706
			c23.23-2.763,45.255-17.217,58.904-42.796C1436.628,364.987,1416.076,381.466,1406.269,402.706z"/>
	</g>
	<g>
		<path fill="none" stroke="#000000" stroke-width="4" stroke-miterlimit="10" d="M1185.74,464.286
			c38.551-38.551,23.106-91.474-23.443-103.504c-25.826-40.553-80.932-38.888-105.683,9.689
			c24.751-48.577-6.292-94.138-54.28-91.194c-37.093-30.588-88.988-11.976-97.516,41.872c8.529-53.848-35.074-87.586-79.804-69.957
			c-44.73-17.629-88.333,16.109-79.804,69.957c-8.529-53.848-60.423-72.46-97.516-41.872c-47.988-2.943-79.032,42.617-54.281,91.194
			c-24.751-48.577-79.857-50.242-105.683-9.689c-46.549,12.03-61.994,64.953-23.443,103.504
			c-38.551-38.551-91.474-23.106-103.504,23.443c-40.553,25.826-38.888,80.932,9.689,105.683
			c-48.577-24.751-94.138,6.292-91.194,54.281c-30.588,37.093-11.976,88.988,41.872,97.516
			c-53.848-8.529-87.586,35.074-69.957,79.804c-17.629,44.73,16.109,88.333,69.957,79.804c-53.848,8.529-72.46,60.423-41.872,97.516
			c-2.943,47.988,42.617,79.032,91.194,54.28c-48.577,24.751-50.242,79.857-9.689,105.683
			c12.03,46.549,64.953,61.994,103.504,23.443c-38.551,38.551-23.106,91.474,23.443,103.504
			c25.826,40.553,80.932,38.888,105.683-9.689c-24.751,48.577,6.292,94.137,54.281,91.194
			c37.093,30.588,88.988,11.976,97.516-41.872c-8.529,53.848,35.074,87.586,79.804,69.957c44.73,17.629,88.333-16.109,79.804-69.957
			c8.529,53.848,60.423,72.46,97.516,41.872c47.988,2.943,79.032-42.617,54.28-91.194c24.751,48.577,79.857,50.242,105.683,9.689
			c46.549-12.03,61.994-64.953,23.443-103.504c38.551,38.551,91.474,23.106,103.504-23.443
			c40.553-25.826,38.888-80.932-9.689-105.683c48.577,24.751,94.137-6.292,91.194-54.28c30.588-37.093,11.976-88.988-41.872-97.516
			c53.848,8.529,87.586-35.074,69.957-79.804c17.629-44.73-16.109-88.333-69.957-79.804c53.848-8.529,72.46-60.423,41.872-97.516
			c2.943-47.988-42.617-79.032-91.194-54.281c48.577-24.751,50.242-79.857,9.689-105.683
			C1277.215,441.18,1224.292,425.735,1185.74,464.286z M1166.919,354.42c26.352-8.743,41.482-31.222,40.61-55.895
			C1183.794,305.32,1167.091,326.656,1166.919,354.42z M1004.764,271.797c22.36-16.458,29.804-42.513,21.35-65.708
			C1005.64,219.886,996.348,245.339,1004.764,271.797z M825.013,243.328c16.18-22.563,15.208-49.642,0-69.09
			C809.805,193.686,808.833,220.765,825.013,243.328z M645.262,271.797c8.416-26.458-0.877-51.911-21.35-65.708
			C615.459,229.285,622.902,255.339,645.262,271.797z M483.107,354.42c-0.172-27.764-16.875-49.1-40.61-55.895
			C441.625,323.198,456.755,345.677,483.107,354.42z M354.42,483.107c-8.743-26.352-31.222-41.482-55.895-40.61
			C305.32,466.232,326.656,482.935,354.42,483.107z M271.797,645.262c-16.458-22.36-42.513-29.804-65.708-21.35
			C219.886,644.386,245.339,653.678,271.797,645.262z M243.328,825.013c-22.563-16.18-49.642-15.208-69.09,0
			C193.686,840.221,220.765,841.193,243.328,825.013z M271.797,1004.764c-26.458-8.416-51.911,0.877-65.708,21.35
			C229.285,1034.567,255.339,1027.124,271.797,1004.764z M354.42,1166.919c-27.764,0.172-49.1,16.875-55.895,40.61
			C323.198,1208.401,345.677,1193.271,354.42,1166.919z M483.107,1295.606c-26.352,8.743-41.482,31.222-40.61,55.895
			C466.232,1344.706,482.935,1323.37,483.107,1295.606z M645.262,1378.229c-22.36,16.458-29.804,42.512-21.35,65.708
			C644.386,1430.14,653.678,1404.687,645.262,1378.229z M825.013,1406.698c-16.18,22.563-15.208,49.642,0,69.09
			C840.221,1456.34,841.193,1429.261,825.013,1406.698z M1004.764,1378.229c-8.416,26.458,0.877,51.911,21.35,65.708
			C1034.567,1420.741,1027.124,1394.687,1004.764,1378.229z M1166.919,1295.606c0.172,27.764,16.875,49.1,40.61,55.895
			C1208.401,1326.828,1193.271,1304.35,1166.919,1295.606z M1295.606,1166.919c8.743,26.352,31.222,41.482,55.895,40.61
			C1344.706,1183.794,1323.37,1167.091,1295.606,1166.919z M1378.229,1004.764c16.458,22.36,42.512,29.804,65.708,21.35
			C1430.14,1005.64,1404.687,996.348,1378.229,1004.764z M1406.698,825.013c22.563,16.18,49.642,15.208,69.09,0
			C1456.34,809.805,1429.261,808.833,1406.698,825.013z M1378.229,645.262c26.458,8.416,51.911-0.877,65.708-21.35
			C1420.741,615.459,1394.687,622.902,1378.229,645.262z M1295.606,483.107c27.764-0.172,49.1-16.875,55.895-40.61
			C1326.828,441.625,1304.35,456.755,1295.606,483.107z M1225.71,273.5c34.161,4.932,66.035-20.864,66.035-65.133
			c0,61.869,62.257,87.657,106.005,43.909c-43.748,43.748-17.96,106.005,43.909,106.005c-44.269,0-70.065,31.874-65.133,66.035
			c30.965,15.247,69.25,0.563,82.93-41.539c-19.119,58.841,32.122,102.605,87.248,74.517
			c-55.126,28.088-49.839,95.266,9.002,114.385c-42.102-13.68-76.485,8.663-82.351,42.676
			c24.738,24.069,65.687,21.935,91.707-13.879c-36.366,50.053-1.156,107.509,59.951,97.831
			c-61.107,9.678-76.838,75.203-26.785,111.568c-35.814-26.02-75.418-15.396-91.508,15.139
			c16.089,30.536,55.693,41.16,91.508,15.139c-50.053,36.366-34.322,101.89,26.785,111.568
			c-61.107-9.678-96.316,47.778-59.951,97.831c-26.021-35.814-66.969-37.949-91.707-13.879
			c5.866,34.013,40.249,56.355,82.351,42.676c-58.841,19.119-64.128,86.297-9.002,114.385
			c-55.126-28.088-106.366,15.676-87.248,74.517c-13.68-42.102-51.965-56.786-82.93-41.539
			c-4.932,34.161,20.864,66.035,65.133,66.035c-61.869,0-87.657,62.257-43.909,106.005c-43.748-43.748-106.005-17.96-106.005,43.909
			c0-44.269-31.874-70.065-66.035-65.133c-15.247,30.965-0.563,69.25,41.539,82.93c-58.841-19.119-102.605,32.122-74.517,87.248
			c-28.088-55.126-95.266-49.839-114.385,9.002c13.68-42.102-8.663-76.485-42.676-82.351
			c-24.069,24.738-21.935,65.687,13.879,91.707c-50.053-36.366-107.509-1.156-97.831,59.951
			c-9.678-61.107-75.203-76.838-111.568-26.785c26.021-35.814,15.397-75.418-15.139-91.508
			c-30.536,16.089-41.16,55.693-15.139,91.508c-36.366-50.053-101.89-34.322-111.568,26.785
			c9.678-61.107-47.778-96.316-97.831-59.951c35.814-26.021,37.949-66.969,13.879-91.707c-34.013,5.866-56.355,40.249-42.676,82.351
			c-19.119-58.841-86.297-64.128-114.385-9.002c28.088-55.126-15.676-106.366-74.517-87.248
			c42.102-13.68,56.786-51.965,41.539-82.93c-34.161-4.932-66.035,20.864-66.035,65.133c0-61.869-62.257-87.657-106.005-43.909
			c43.748-43.748,17.96-106.005-43.909-106.005c44.269,0,70.065-31.874,65.133-66.035c-30.965-15.247-69.25-0.563-82.93,41.539
			c19.119-58.841-32.122-102.605-87.248-74.517c55.126-28.088,49.839-95.266-9.002-114.385c42.102,13.68,76.485-8.663,82.351-42.676
			c-24.738-24.069-65.687-21.935-91.707,13.879c36.366-50.053,1.156-107.509-59.951-97.831
			c61.107-9.678,76.838-75.203,26.785-111.568c35.814,26.021,75.418,15.397,91.508-15.139
			c-16.089-30.536-55.694-41.16-91.508-15.139c50.053-36.366,34.322-101.89-26.785-111.568
			c61.107,9.678,96.316-47.778,59.951-97.831c26.02,35.814,66.969,37.949,91.707,13.879c-5.866-34.013-40.249-56.355-82.351-42.676
			c58.841-19.119,64.128-86.297,9.002-114.385c55.126,28.088,106.367-15.676,87.248-74.517c13.68,42.102,51.965,56.786,82.93,41.539
			c4.932-34.161-20.864-66.035-65.133-66.035c61.869,0,87.657-62.257,43.909-106.005c43.748,43.748,106.005,17.96,106.005-43.909
			c0,44.269,31.874,70.065,66.035,65.133c15.247-30.965,0.563-69.25-41.539-82.93c58.841,19.119,102.605-32.122,74.517-87.248
			c28.088,55.126,95.266,49.839,114.385-9.002c-13.68,42.102,8.663,76.485,42.676,82.351c24.069-24.738,21.935-65.687-13.879-91.707
			c50.053,36.366,107.509,1.156,97.831-59.951c9.678,61.107,75.203,76.838,111.568,26.785
			c-26.02,35.814-15.396,75.418,15.139,91.508c30.536-16.089,41.16-55.694,15.139-91.508
			c36.366,50.053,101.89,34.322,111.568-26.785c-9.678,61.107,47.778,96.316,97.831,59.951
			c-35.814,26.02-37.949,66.969-13.879,91.707c34.013-5.866,56.355-40.249,42.676-82.351c19.119,58.841,86.297,64.128,114.385,9.002
			c-28.088,55.126,15.676,106.367,74.517,87.248C1225.147,204.25,1210.464,242.536,1225.71,273.5z"/>
	</g>
	<g>
		<path fill="none" stroke="#000000" stroke-width="4" stroke-miterlimit="10" d="M1215.801,434.225
			c31.342-31.342,12.867-75.944-31.457-75.944c43.356,0,61.979-42.674,33.44-73.871c-38.489-17.502-73.32,13.397-59.922,54.631
			c-13.697-42.155-61.825-45.943-81.948-6.449c20.123-39.493-11.231-76.203-53.385-62.506c41.234-13.398,45.759-59.738,8.976-80.589
			c-42.014-4.751-65.591,35.399-40.107,70.474c-26.053-35.859-72.996-24.589-79.93,19.189c6.934-43.779-34.229-69.003-70.088-42.95
			c35.076-25.484,25.059-70.955-16.367-79.419c-41.426,8.464-51.442,53.935-16.367,79.419c-35.859-26.053-77.022-0.829-70.088,42.95
			c-6.934-43.779-53.877-55.049-79.93-19.189c25.484-35.076,1.906-75.226-40.107-70.474c-36.783,20.851-32.258,67.192,8.976,80.589
			c-42.155-13.697-73.508,23.013-53.385,62.506c-20.123-39.493-68.251-35.705-81.948,6.449
			c13.398-41.234-21.433-72.133-59.922-54.631c-28.539,31.197-9.915,73.871,33.44,73.871c-44.324,0-62.799,44.602-31.457,75.944
			c-31.342-31.342-75.944-12.867-75.944,31.457c0-43.356-42.674-61.979-73.871-33.44c-17.502,38.489,13.397,73.32,54.631,59.922
			c-42.155,13.697-45.943,61.825-6.449,81.948c-39.493-20.123-76.203,11.231-62.506,53.385
			c-13.398-41.234-59.738-45.759-80.589-8.976c-4.751,42.014,35.399,65.591,70.474,40.107
			c-35.859,26.053-24.589,72.996,19.189,79.93c-43.779-6.934-69.003,34.229-42.95,70.088
			c-25.484-35.076-70.955-25.059-79.419,16.367c8.464,41.426,53.935,51.442,79.419,16.367c-26.053,35.859-0.829,77.022,42.95,70.088
			c-43.779,6.934-55.049,53.877-19.189,79.93c-35.076-25.484-75.226-1.906-70.474,40.107c20.851,36.783,67.192,32.258,80.589-8.976
			c-13.697,42.155,23.013,73.508,62.506,53.385c-39.493,20.123-35.705,68.251,6.449,81.948
			c-41.234-13.398-72.133,21.433-54.631,59.922c31.197,28.539,73.871,9.915,73.871-33.44c0,44.324,44.602,62.799,75.944,31.457
			c-31.342,31.342-12.867,75.944,31.457,75.944c-43.356,0-61.979,42.674-33.44,73.871c38.489,17.502,73.32-13.397,59.922-54.631
			c13.697,42.155,61.825,45.943,81.948,6.449c-20.123,39.493,11.231,76.203,53.385,62.506
			c-41.234,13.398-45.759,59.738-8.976,80.589c42.014,4.751,65.591-35.399,40.107-70.474c26.053,35.859,72.996,24.589,79.93-19.189
			c-6.934,43.779,34.229,69.003,70.088,42.95c-35.076,25.484-25.059,70.955,16.367,79.419c41.426-8.464,51.442-53.935,16.367-79.419
			c35.859,26.053,77.022,0.829,70.088-42.95c6.934,43.779,53.877,55.049,79.93,19.189c-25.484,35.076-1.906,75.226,40.107,70.474
			c36.783-20.851,32.258-67.192-8.976-80.589c42.155,13.697,73.508-23.013,53.385-62.506c20.123,39.493,68.251,35.705,81.948-6.449
			c-13.398,41.234,21.433,72.133,59.922,54.631c28.539-31.197,9.915-73.871-33.44-73.871c44.324,0,62.799-44.602,31.457-75.944
			c31.342,31.342,75.944,12.867,75.944-31.457c0,43.356,42.674,61.979,73.871,33.44c17.502-38.489-13.397-73.32-54.631-59.922
			c42.155-13.697,45.943-61.825,6.449-81.948c39.493,20.123,76.203-11.231,62.506-53.385c13.398,41.234,59.738,45.759,80.589,8.976
			c4.751-42.014-35.399-65.591-70.474-40.107c35.859-26.053,24.589-72.996-19.189-79.93c43.779,6.934,69.003-34.229,42.95-70.088
			c25.484,35.076,70.955,25.059,79.419-16.367c-8.464-41.426-53.935-51.442-79.419-16.367c26.053-35.859,0.829-77.022-42.95-70.088
			c43.779-6.934,55.049-53.877,19.189-79.93c35.076,25.484,75.226,1.906,70.474-40.107c-20.851-36.783-67.192-32.258-80.589,8.976
			c13.697-42.155-23.013-73.508-62.506-53.385c39.493-20.123,35.705-68.251-6.449-81.948c41.234,13.398,72.133-21.433,54.631-59.922
			c-31.197-28.539-73.871-9.915-73.871,33.44C1291.745,421.358,1247.143,402.883,1215.801,434.225z M1217.859,284.307
			c31.198,28.558,73.886,9.936,73.886-33.427c0,44.324,44.602,62.799,75.944,31.457c-31.342,31.342-12.867,75.944,31.457,75.944
			c-43.363,0-61.985,42.688-33.427,73.886c20.846,36.801,67.199,32.281,80.599-8.959c-13.697,42.155,23.013,73.508,62.506,53.385
			c-39.493,20.123-35.705,68.251,6.449,81.948c-41.24-13.4-72.143,21.444-54.623,59.94c8.454,41.442,53.935,51.467,79.423,16.386
			c-26.053,35.859-0.829,77.022,42.95,70.088c-43.779,6.934-55.049,53.877-19.189,79.93c-35.081-25.488-75.238-1.899-70.472,40.127
			c-4.766,42.026,35.391,65.615,70.472,40.127c-35.859,26.053-24.589,72.996,19.189,79.93c-43.779-6.934-69.003,34.229-42.95,70.088
			c-25.488-35.081-70.969-25.056-79.423,16.386c-17.52,38.496,13.383,73.34,54.623,59.94c-42.155,13.697-45.943,61.825-6.449,81.948
			c-39.493-20.123-76.203,11.231-62.506,53.385c-13.4-41.24-59.753-45.76-80.599-8.959c-28.558,31.198-9.936,73.886,33.427,73.886
			c-44.324,0-62.799,44.602-31.457,75.944c-31.342-31.342-75.944-12.867-75.944,31.457c0-43.363-42.688-61.985-73.886-33.427
			c-36.801,20.846-32.281,67.199,8.959,80.599c-42.155-13.697-73.508,23.013-53.385,62.506
			c-20.123-39.493-68.251-35.705-81.948,6.449c13.4-41.24-21.444-72.143-59.94-54.623c-41.442,8.454-51.467,53.935-16.386,79.423
			c-35.859-26.053-77.022-0.829-70.088,42.95c-6.934-43.779-53.877-55.049-79.93-19.189c25.488-35.081,1.899-75.238-40.127-70.472
			c-42.026-4.766-65.615,35.391-40.127,70.472c-26.053-35.859-72.996-24.589-79.93,19.189c6.934-43.779-34.229-69.003-70.088-42.95
			c35.081-25.488,25.056-70.969-16.386-79.423c-38.496-17.52-73.34,13.383-59.94,54.623c-13.697-42.155-61.825-45.943-81.948-6.449
			c20.123-39.493-11.231-76.203-53.385-62.506c41.24-13.4,45.76-59.753,8.959-80.599c-31.198-28.558-73.886-9.936-73.886,33.427
			c0-44.324-44.602-62.799-75.944-31.457c31.342-31.342,12.867-75.944-31.457-75.944c43.363,0,61.985-42.688,33.427-73.886
			c-20.846-36.801-67.199-32.281-80.599,8.959c13.697-42.155-23.013-73.508-62.506-53.385c39.493-20.123,35.705-68.251-6.449-81.948
			c41.24,13.4,72.143-21.444,54.623-59.94c-8.454-41.442-53.935-51.467-79.423-16.386c26.053-35.859,0.829-77.022-42.95-70.088
			c43.779-6.934,55.049-53.877,19.189-79.93c35.081,25.488,75.238,1.899,70.472-40.127c4.766-42.026-35.391-65.615-70.472-40.127
			c35.859-26.053,24.589-72.996-19.189-79.93c43.779,6.934,69.003-34.229,42.95-70.088c25.488,35.081,70.969,25.056,79.423-16.386
			c17.52-38.496-13.383-73.34-54.623-59.94c42.155-13.697,45.943-61.825,6.449-81.948c39.493,20.123,76.203-11.231,62.506-53.385
			c13.4,41.24,59.753,45.76,80.599,8.959c28.558-31.198,9.936-73.886-33.427-73.886c44.324,0,62.799-44.602,31.457-75.944
			c31.342,31.342,75.944,12.867,75.944-31.457c0,43.363,42.688,61.985,73.886,33.427c36.801-20.846,32.281-67.199-8.959-80.599
			c42.155,13.697,73.508-23.013,53.385-62.506c20.123,39.493,68.251,35.705,81.948-6.449c-13.4,41.24,21.444,72.143,59.94,54.623
			c41.442-8.454,51.467-53.935,16.386-79.423c35.859,26.053,77.022,0.829,70.088-42.95c6.934,43.779,53.877,55.049,79.93,19.189
			c-25.488,35.081-1.899,75.238,40.127,70.472c42.026,4.766,65.615-35.391,40.127-70.472c26.053,35.859,72.996,24.589,79.93-19.189
			c-6.934,43.779,34.229,69.003,70.088,42.95c-35.081,25.488-25.056,70.969,16.386,79.423c38.496,17.52,73.34-13.383,59.94-54.623
			c13.697,42.155,61.825,45.943,81.948,6.449c-20.123,39.493,11.231,76.203,53.385,62.506
			C1185.578,217.107,1181.058,263.46,1217.859,284.307z"/>
	</g>
	<g>
		<path fill="none" stroke="#000000" stroke-width="4" stroke-miterlimit="10" d="M1245.862,404.164
			c18.936-18.936,7.774-45.883-19.005-45.883c26.78,0,37.942-26.947,19.005-45.883c18.936,18.936,45.883,7.774,45.883-19.006
			c0,26.78,26.948,37.942,45.884,19.006c-18.936,18.936-7.774,45.883,19.005,45.883c-26.78,0-37.942,26.947-19.005,45.883
			c-18.936-18.936-45.884-7.774-45.884,19.006C1291.745,396.39,1264.798,385.228,1245.862,404.164z"/>
		<path fill="none" stroke="#000000" stroke-width="4" stroke-miterlimit="10" d="M1355.313,554.812
			c23.861-12.158,21.572-41.235-3.896-49.511c25.469,8.275,44.412-13.904,32.254-37.765c12.158,23.861,41.235,21.572,49.511-3.897
			c-8.275,25.469,13.904,44.412,37.765,32.254c-23.861,12.158-21.572,41.235,3.897,49.511
			c-25.469-8.275-44.412,13.904-32.254,37.765c-12.158-23.861-41.235-21.572-49.511,3.897
			C1401.353,561.597,1379.174,542.654,1355.313,554.812z"/>
		<path fill="none" stroke="#000000" stroke-width="4" stroke-miterlimit="10" d="M1412.855,731.908
			c26.45-4.189,33.259-32.551,11.594-48.292c21.665,15.741,46.535,0.501,42.345-25.949c4.189,26.45,32.551,33.259,48.292,11.594
			c-15.741,21.665-0.501,46.535,25.949,42.345c-26.45,4.189-33.259,32.551-11.594,48.292c-21.665-15.741-46.535-0.501-42.345,25.949
			c-4.189-26.45-32.551-33.259-48.292-11.594C1454.545,752.588,1439.305,727.719,1412.855,731.908z"/>
		<path fill="none" stroke="#000000" stroke-width="4" stroke-miterlimit="10" d="M1412.855,918.118
			c26.45,4.189,41.69-20.68,25.949-42.345c15.741,21.665,44.102,14.856,48.292-11.594c-4.189,26.45,20.68,41.69,42.345,25.949
			c-21.665,15.741-14.856,44.102,11.594,48.292c-26.45-4.189-41.69,20.68-25.949,42.345c-15.741-21.665-44.102-14.856-48.292,11.594
			c4.189-26.45-20.68-41.69-42.345-25.949C1446.114,950.669,1439.305,922.307,1412.855,918.118z"/>
		<path fill="none" stroke="#000000" stroke-width="4" stroke-miterlimit="10" d="M1355.313,1095.214
			c23.861,12.158,46.04-6.785,37.765-32.254c8.275,25.469,37.353,27.757,49.511,3.896c-12.158,23.861,6.785,46.04,32.254,37.765
			c-25.469,8.275-27.757,37.353-3.897,49.511c-23.861-12.158-46.04,6.785-37.765,32.254c-8.275-25.469-37.353-27.757-49.511-3.897
			c12.158-23.861-6.785-46.04-32.254-37.765C1376.886,1136.45,1379.174,1107.372,1355.313,1095.214z"/>
		<path fill="none" stroke="#000000" stroke-width="4" stroke-miterlimit="10" d="M1245.862,1245.862
			c18.936,18.936,45.883,7.774,45.883-19.005c0,26.78,26.948,37.942,45.884,19.005c-18.936,18.936-7.774,45.883,19.005,45.883
			c-26.78,0-37.942,26.948-19.005,45.884c-18.936-18.936-45.884-7.774-45.884,19.005c0-26.78-26.947-37.942-45.883-19.005
			c18.936-18.936,7.774-45.884-19.005-45.884C1253.636,1291.745,1264.798,1264.798,1245.862,1245.862z"/>
		<path fill="none" stroke="#000000" stroke-width="4" stroke-miterlimit="10" d="M1095.214,1355.313
			c12.158,23.861,41.235,21.572,49.511-3.896c-8.275,25.469,13.904,44.412,37.765,32.254c-23.861,12.158-21.572,41.235,3.897,49.511
			c-25.469-8.275-44.412,13.904-32.254,37.765c-12.158-23.861-41.235-21.572-49.511,3.897c8.275-25.469-13.904-44.412-37.765-32.254
			c23.861-12.158,21.572-41.235-3.896-49.511C1088.429,1401.353,1107.372,1379.174,1095.214,1355.313z"/>
		<path fill="none" stroke="#000000" stroke-width="4" stroke-miterlimit="10" d="M918.118,1412.855
			c4.189,26.45,32.551,33.259,48.292,11.594c-15.741,21.665-0.501,46.535,25.949,42.345c-26.45,4.189-33.259,32.551-11.594,48.292
			c-21.665-15.741-46.535-0.501-42.345,25.949c-4.189-26.45-32.551-33.259-48.292-11.594c15.741-21.665,0.501-46.535-25.949-42.345
			c26.45-4.189,33.259-32.551,11.594-48.292C897.438,1454.545,922.307,1439.305,918.118,1412.855z"/>
		<path fill="none" stroke="#000000" stroke-width="4" stroke-miterlimit="10" d="M731.908,1412.855
			c-4.189,26.45,20.68,41.69,42.345,25.949c-21.665,15.741-14.856,44.102,11.594,48.292c-26.45-4.189-41.69,20.68-25.949,42.345
			c-15.741-21.665-44.102-14.856-48.292,11.594c4.189-26.45-20.68-41.69-42.345-25.949c21.665-15.741,14.856-44.102-11.594-48.292
			c26.45,4.189,41.69-20.68,25.949-42.345C699.357,1446.114,727.719,1439.305,731.908,1412.855z"/>
		<path fill="none" stroke="#000000" stroke-width="4" stroke-miterlimit="10" d="M554.812,1355.313
			c-12.158,23.861,6.785,46.04,32.254,37.765c-25.469,8.275-27.757,37.353-3.897,49.511c-23.861-12.158-46.04,6.785-37.765,32.254
			c-8.275-25.469-37.353-27.757-49.511-3.897c12.158-23.861-6.785-46.04-32.254-37.765c25.469-8.275,27.757-37.353,3.897-49.511
			c23.861,12.158,46.04-6.785,37.765-32.254C513.576,1376.886,542.654,1379.174,554.812,1355.313z"/>
		<path fill="none" stroke="#000000" stroke-width="4" stroke-miterlimit="10" d="M404.164,1245.862
			c-18.936,18.936-7.774,45.883,19.006,45.883c-26.78,0-37.942,26.948-19.006,45.884c-18.936-18.936-45.883-7.774-45.883,19.005
			c0-26.78-26.947-37.942-45.883-19.005c18.936-18.936,7.774-45.884-19.006-45.884c26.78,0,37.942-26.947,19.006-45.883
			c18.936,18.936,45.883,7.774,45.883-19.005C358.281,1253.636,385.228,1264.798,404.164,1245.862z"/>
		<path fill="none" stroke="#000000" stroke-width="4" stroke-miterlimit="10" d="M294.713,1095.214
			c-23.861,12.158-21.572,41.235,3.897,49.511c-25.469-8.275-44.412,13.904-32.254,37.765
			c-12.158-23.861-41.235-21.572-49.511,3.897c8.275-25.469-13.904-44.412-37.765-32.254c23.861-12.158,21.572-41.235-3.897-49.511
			c25.469,8.275,44.412-13.904,32.254-37.765c12.158,23.861,41.235,21.572,49.511-3.896
			C248.673,1088.429,270.852,1107.372,294.713,1095.214z"/>
		<path fill="none" stroke="#000000" stroke-width="4" stroke-miterlimit="10" d="M237.171,918.118
			c-26.45,4.189-33.259,32.551-11.594,48.292c-21.665-15.741-46.535-0.501-42.345,25.949c-4.189-26.45-32.551-33.259-48.292-11.594
			c15.741-21.665,0.501-46.535-25.949-42.345c26.45-4.189,33.259-32.551,11.594-48.292c21.665,15.741,46.535,0.501,42.345-25.949
			c4.189,26.45,32.551,33.259,48.292,11.594C195.481,897.438,210.721,922.307,237.171,918.118z"/>
		<path fill="none" stroke="#000000" stroke-width="4" stroke-miterlimit="10" d="M237.171,731.908
			c-26.45-4.189-41.69,20.68-25.949,42.345c-15.741-21.665-44.102-14.856-48.292,11.594c4.189-26.45-20.68-41.69-42.345-25.949
			c21.665-15.741,14.856-44.102-11.594-48.292c26.45,4.189,41.69-20.68,25.949-42.345c15.741,21.665,44.102,14.856,48.292-11.594
			c-4.189,26.45,20.68,41.69,42.345,25.949C203.912,699.357,210.721,727.719,237.171,731.908z"/>
		<path fill="none" stroke="#000000" stroke-width="4" stroke-miterlimit="10" d="M294.713,554.812
			c-23.861-12.158-46.04,6.785-37.765,32.254c-8.275-25.469-37.353-27.757-49.511-3.897c12.158-23.861-6.785-46.04-32.254-37.765
			c25.469-8.275,27.757-37.353,3.897-49.511c23.861,12.158,46.04-6.785,37.765-32.254c8.275,25.469,37.353,27.757,49.511,3.897
			c-12.158,23.861,6.785,46.04,32.254,37.765C273.141,513.576,270.852,542.654,294.713,554.812z"/>
		<path fill="none" stroke="#000000" stroke-width="4" stroke-miterlimit="10" d="M404.164,404.164
			c-18.936-18.936-45.883-7.774-45.883,19.006c0-26.78-26.947-37.942-45.883-19.006c18.936-18.936,7.774-45.883-19.006-45.883
			c26.78,0,37.942-26.947,19.006-45.883c18.936,18.936,45.883,7.774,45.883-19.006c0,26.78,26.947,37.942,45.883,19.006
			c-18.936,18.936-7.774,45.883,19.006,45.883C396.39,358.281,385.228,385.228,404.164,404.164z"/>
		<path fill="none" stroke="#000000" stroke-width="4" stroke-miterlimit="10" d="M554.812,294.713
			c-12.158-23.861-41.235-21.572-49.511,3.897c8.275-25.469-13.904-44.412-37.765-32.254c23.861-12.158,21.572-41.235-3.897-49.511
			c25.469,8.275,44.412-13.904,32.254-37.765c12.158,23.861,41.235,21.572,49.511-3.897c-8.275,25.469,13.904,44.412,37.765,32.254
			c-23.861,12.158-21.572,41.235,3.897,49.511C561.597,248.673,542.654,270.852,554.812,294.713z"/>
		<path fill="none" stroke="#000000" stroke-width="4" stroke-miterlimit="10" d="M731.908,237.171
			c-4.189-26.45-32.551-33.259-48.292-11.594c15.741-21.665,0.501-46.535-25.949-42.345c26.45-4.189,33.259-32.551,11.594-48.292
			c21.665,15.741,46.535,0.501,42.345-25.949c4.189,26.45,32.551,33.259,48.292,11.594c-15.741,21.665-0.501,46.535,25.949,42.345
			c-26.45,4.189-33.259,32.551-11.594,48.292C752.588,195.481,727.719,210.721,731.908,237.171z"/>
		<path fill="none" stroke="#000000" stroke-width="4" stroke-miterlimit="10" d="M918.118,237.171
			c4.189-26.45-20.68-41.69-42.345-25.949c21.665-15.741,14.856-44.102-11.594-48.292c26.45,4.189,41.69-20.68,25.949-42.345
			c15.741,21.665,44.102,14.856,48.292-11.594c-4.189,26.45,20.68,41.69,42.345,25.949c-21.665,15.741-14.856,44.102,11.594,48.292
			c-26.45-4.189-41.69,20.68-25.949,42.345C950.669,203.912,922.307,210.721,918.118,237.171z"/>
		<path fill="none" stroke="#000000" stroke-width="4" stroke-miterlimit="10" d="M1095.214,294.713
			c12.158-23.861-6.785-46.04-32.254-37.765c25.469-8.275,27.757-37.353,3.896-49.511c23.861,12.158,46.04-6.785,37.765-32.254
			c8.275,25.469,37.353,27.757,49.511,3.897c-12.158,23.861,6.785,46.04,32.254,37.765c-25.469,8.275-27.757,37.353-3.897,49.511
			c-23.861-12.158-46.04,6.785-37.765,32.254C1136.45,273.141,1107.372,270.852,1095.214,294.713z"/>
	</g>
	<g>
		<path fill="none" stroke="#000000" stroke-width="4" stroke-miterlimit="10" d="M1275.922,374.104
			c6.53-6.53,2.681-15.823-6.554-15.823c9.235,0,13.084-9.293,6.554-15.823c6.53,6.53,15.823,2.681,15.823-6.554
			c0,9.235,9.293,13.084,15.823,6.554c-6.53,6.53-2.681,15.823,6.554,15.823c-9.235,0-13.084,9.293-6.554,15.823
			c-6.53-6.53-15.823-2.681-15.823,6.554C1291.745,371.423,1282.452,367.574,1275.922,374.104z"/>
		<path fill="none" stroke="#000000" stroke-width="4" stroke-miterlimit="10" d="M1393.192,535.512
			c8.228-4.193,7.439-14.22-1.344-17.074c8.783,2.854,15.315-4.795,11.123-13.023c4.193,8.228,14.22,7.439,17.074-1.344
			c-2.854,8.783,4.795,15.315,13.023,11.123c-8.228,4.193-7.439,14.22,1.344,17.074c-8.783-2.854-15.315,4.795-11.123,13.023
			c-4.193-8.228-14.22-7.439-17.074,1.344C1409.069,537.851,1401.42,531.319,1393.192,535.512z"/>
		<path fill="none" stroke="#000000" stroke-width="4" stroke-miterlimit="10" d="M1454.844,725.258
			c9.121-1.445,11.469-11.225,3.998-16.653c7.471,5.428,16.047,0.173,14.603-8.949c1.445,9.121,11.225,11.469,16.653,3.998
			c-5.428,7.471-0.173,16.047,8.949,14.603c-9.121,1.445-11.469,11.225-3.998,16.653c-7.471-5.428-16.047-0.173-14.603,8.949
			c-1.445-9.121-11.225-11.469-16.653-3.998C1469.221,732.389,1463.965,723.813,1454.844,725.258z"/>
		<path fill="none" stroke="#000000" stroke-width="4" stroke-miterlimit="10" d="M1454.844,924.768
			c9.121,1.445,14.377-7.132,8.949-14.603c5.428,7.471,15.209,5.123,16.653-3.998c-1.445,9.121,7.131,14.377,14.603,8.949
			c-7.471,5.428-5.123,15.209,3.998,16.653c-9.121-1.445-14.377,7.132-8.949,14.603c-5.428-7.471-15.209-5.123-16.653,3.998
			c1.445-9.121-7.132-14.377-14.603-8.949C1466.313,935.994,1463.965,926.213,1454.844,924.768z"/>
		<path fill="none" stroke="#000000" stroke-width="4" stroke-miterlimit="10" d="M1393.192,1114.515
			c8.228,4.193,15.877-2.34,13.023-11.123c2.854,8.783,12.881,9.572,17.074,1.344c-4.193,8.228,2.34,15.877,11.123,13.023
			c-8.783,2.854-9.572,12.881-1.344,17.074c-8.228-4.193-15.877,2.34-13.023,11.123c-2.854-8.783-12.881-9.572-17.074-1.344
			c4.193-8.228-2.34-15.877-11.123-13.023C1400.631,1128.735,1401.42,1118.707,1393.192,1114.515z"/>
		<path fill="none" stroke="#000000" stroke-width="4" stroke-miterlimit="10" d="M1275.922,1275.922
			c6.53,6.53,15.823,2.681,15.823-6.554c0,9.235,9.293,13.084,15.823,6.554c-6.53,6.53-2.681,15.823,6.554,15.823
			c-9.235,0-13.084,9.293-6.554,15.823c-6.53-6.53-15.823-2.681-15.823,6.554c0-9.235-9.293-13.084-15.823-6.554
			c6.53-6.53,2.681-15.823-6.554-15.823C1278.603,1291.745,1282.452,1282.452,1275.922,1275.922z"/>
		<path fill="none" stroke="#000000" stroke-width="4" stroke-miterlimit="10" d="M1114.515,1393.192
			c4.193,8.228,14.22,7.439,17.074-1.344c-2.854,8.783,4.795,15.315,13.023,11.123c-8.228,4.193-7.439,14.22,1.344,17.074
			c-8.783-2.854-15.315,4.795-11.123,13.023c-4.193-8.228-14.22-7.439-17.074,1.344c2.854-8.783-4.795-15.315-13.023-11.123
			c8.228-4.193,7.439-14.22-1.344-17.074C1112.175,1409.069,1118.707,1401.42,1114.515,1393.192z"/>
		<path fill="none" stroke="#000000" stroke-width="4" stroke-miterlimit="10" d="M924.768,1454.844
			c1.445,9.121,11.225,11.469,16.653,3.998c-5.428,7.471-0.173,16.047,8.949,14.603c-9.121,1.445-11.469,11.225-3.998,16.653
			c-7.471-5.428-16.047-0.173-14.603,8.949c-1.445-9.121-11.225-11.469-16.653-3.998c5.428-7.471,0.173-16.047-8.949-14.603
			c9.121-1.445,11.469-11.225,3.998-16.653C917.637,1469.221,926.213,1463.965,924.768,1454.844z"/>
		<path fill="none" stroke="#000000" stroke-width="4" stroke-miterlimit="10" d="M725.258,1454.844
			c-1.445,9.121,7.132,14.377,14.603,8.949c-7.471,5.428-5.123,15.209,3.998,16.653c-9.121-1.445-14.377,7.131-8.949,14.603
			c-5.428-7.471-15.209-5.123-16.653,3.998c1.445-9.121-7.132-14.377-14.603-8.949c7.471-5.428,5.123-15.209-3.998-16.653
			c9.121,1.445,14.377-7.132,8.949-14.603C714.032,1466.313,723.813,1463.965,725.258,1454.844z"/>
		<path fill="none" stroke="#000000" stroke-width="4" stroke-miterlimit="10" d="M535.512,1393.192
			c-4.193,8.228,2.34,15.877,11.123,13.023c-8.783,2.854-9.572,12.881-1.344,17.074c-8.228-4.193-15.877,2.34-13.023,11.123
			c-2.854-8.783-12.881-9.572-17.074-1.344c4.193-8.228-2.34-15.877-11.123-13.023c8.783-2.854,9.572-12.881,1.344-17.074
			c8.228,4.193,15.877-2.34,13.023-11.123C521.292,1400.631,531.319,1401.42,535.512,1393.192z"/>
		<path fill="none" stroke="#000000" stroke-width="4" stroke-miterlimit="10" d="M374.104,1275.922
			c-6.53,6.53-2.681,15.823,6.554,15.823c-9.235,0-13.084,9.293-6.554,15.823c-6.53-6.53-15.823-2.681-15.823,6.554
			c0-9.235-9.293-13.084-15.823-6.554c6.53-6.53,2.681-15.823-6.554-15.823c9.235,0,13.084-9.293,6.554-15.823
			c6.53,6.53,15.823,2.681,15.823-6.554C358.281,1278.603,367.574,1282.452,374.104,1275.922z"/>
		<path fill="none" stroke="#000000" stroke-width="4" stroke-miterlimit="10" d="M256.834,1114.515
			c-8.228,4.193-7.439,14.22,1.344,17.074c-8.783-2.854-15.315,4.795-11.123,13.023c-4.193-8.228-14.22-7.439-17.074,1.344
			c2.854-8.783-4.795-15.315-13.023-11.123c8.228-4.193,7.439-14.22-1.344-17.074c8.783,2.854,15.315-4.795,11.123-13.023
			c4.193,8.228,14.22,7.439,17.074-1.344C240.957,1112.175,248.606,1118.707,256.834,1114.515z"/>
		<path fill="none" stroke="#000000" stroke-width="4" stroke-miterlimit="10" d="M195.182,924.768
			c-9.121,1.445-11.469,11.225-3.998,16.653c-7.471-5.428-16.047-0.173-14.603,8.949c-1.445-9.121-11.225-11.469-16.653-3.998
			c5.428-7.471,0.173-16.047-8.949-14.603c9.121-1.445,11.469-11.225,3.998-16.653c7.471,5.428,16.047,0.173,14.603-8.949
			c1.445,9.121,11.225,11.469,16.653,3.998C180.805,917.637,186.061,926.213,195.182,924.768z"/>
		<path fill="none" stroke="#000000" stroke-width="4" stroke-miterlimit="10" d="M195.182,725.258
			c-9.121-1.445-14.377,7.132-8.949,14.603c-5.428-7.471-15.209-5.123-16.653,3.998c1.445-9.121-7.132-14.377-14.603-8.949
			c7.471-5.428,5.123-15.209-3.998-16.653c9.121,1.445,14.377-7.132,8.949-14.603c5.428,7.471,15.209,5.123,16.653-3.998
			c-1.445,9.121,7.132,14.377,14.603,8.949C183.713,714.032,186.061,723.813,195.182,725.258z"/>
		<path fill="none" stroke="#000000" stroke-width="4" stroke-miterlimit="10" d="M256.834,535.512
			c-8.228-4.193-15.877,2.34-13.023,11.123c-2.854-8.783-12.881-9.572-17.074-1.344c4.193-8.228-2.34-15.877-11.123-13.023
			c8.783-2.854,9.572-12.881,1.344-17.074c8.228,4.193,15.877-2.34,13.023-11.123c2.854,8.783,12.881,9.572,17.074,1.344
			c-4.193,8.228,2.34,15.877,11.123,13.023C249.395,521.292,248.606,531.319,256.834,535.512z"/>
		<path fill="none" stroke="#000000" stroke-width="4" stroke-miterlimit="10" d="M374.104,374.104
			c-6.53-6.53-15.823-2.681-15.823,6.554c0-9.235-9.293-13.084-15.823-6.554c6.53-6.53,2.681-15.823-6.554-15.823
			c9.235,0,13.084-9.293,6.554-15.823c6.53,6.53,15.823,2.681,15.823-6.554c0,9.235,9.293,13.084,15.823,6.554
			c-6.53,6.53-2.681,15.823,6.554,15.823C371.423,358.281,367.574,367.574,374.104,374.104z"/>
		<path fill="none" stroke="#000000" stroke-width="4" stroke-miterlimit="10" d="M535.512,256.834
			c-4.193-8.228-14.22-7.439-17.074,1.344c2.854-8.783-4.795-15.315-13.023-11.123c8.228-4.193,7.439-14.22-1.344-17.074
			c8.783,2.854,15.315-4.795,11.123-13.023c4.193,8.228,14.22,7.439,17.074-1.344c-2.854,8.783,4.795,15.315,13.023,11.123
			c-8.228,4.193-7.439,14.22,1.344,17.074C537.851,240.957,531.319,248.606,535.512,256.834z"/>
		<path fill="none" stroke="#000000" stroke-width="4" stroke-miterlimit="10" d="M725.258,195.182
			c-1.445-9.121-11.225-11.469-16.653-3.998c5.428-7.471,0.173-16.047-8.949-14.603c9.121-1.445,11.469-11.225,3.998-16.653
			c7.471,5.428,16.047,0.173,14.603-8.949c1.445,9.121,11.225,11.469,16.653,3.998c-5.428,7.471-0.173,16.047,8.949,14.603
			c-9.121,1.445-11.469,11.225-3.998,16.653C732.389,180.805,723.813,186.061,725.258,195.182z"/>
		<path fill="none" stroke="#000000" stroke-width="4" stroke-miterlimit="10" d="M924.768,195.182
			c1.445-9.121-7.132-14.377-14.603-8.949c7.471-5.428,5.123-15.209-3.998-16.653c9.121,1.445,14.377-7.132,8.949-14.603
			c5.428,7.471,15.209,5.123,16.653-3.998c-1.445,9.121,7.132,14.377,14.603,8.949c-7.471,5.428-5.123,15.209,3.998,16.653
			c-9.121-1.445-14.377,7.132-8.949,14.603C935.994,183.713,926.213,186.061,924.768,195.182z"/>
		<path fill="none" stroke="#000000" stroke-width="4" stroke-miterlimit="10" d="M1114.515,256.834
			c4.193-8.228-2.34-15.877-11.123-13.023c8.783-2.854,9.572-12.881,1.344-17.074c8.228,4.193,15.877-2.34,13.023-11.123
			c2.854,8.783,12.881,9.572,17.074,1.344c-4.193,8.228,2.34,15.877,11.123,13.023c-8.783,2.854-9.572,12.881-1.344,17.074
			c-8.228-4.193-15.877,2.34-13.023,11.123C1128.735,249.395,1118.707,248.606,1114.515,256.834z"/>
	</g>
	<g>
		<path fill="none" stroke="#000000" stroke-width="4" stroke-miterlimit="10" d="M1291.745,182.611c0,58.063,0,116.866,0,175.67
			c58.803,0,117.606,0,175.67,0c-17.943,55.221-36.114,111.146-54.285,167.072c55.925,18.171,111.85,36.342,167.072,54.285
			c-34.129,46.974-68.692,94.547-103.256,142.12c47.573,34.564,95.146,69.127,142.12,103.256
			c-46.974,34.129-94.547,68.692-142.12,103.256c34.564,47.573,69.127,95.146,103.256,142.12
			c-55.221,17.943-111.146,36.114-167.072,54.285c18.171,55.925,36.342,111.85,54.285,167.072c-58.063,0-116.866,0-175.67,0
			c0,58.803,0,117.606,0,175.67c-55.221-17.943-111.146-36.114-167.072-54.285c-18.171,55.925-36.342,111.85-54.285,167.072
			c-46.974-34.129-94.547-68.692-142.12-103.256c-34.564,47.573-69.127,95.146-103.256,142.12
			c-34.129-46.974-68.692-94.547-103.256-142.12c-47.573,34.564-95.146,69.127-142.12,103.256
			c-17.943-55.221-36.114-111.146-54.285-167.072c-55.925,18.171-111.85,36.342-167.072,54.285c0-58.063,0-116.866,0-175.67
			c-58.803,0-117.606,0-175.67,0c17.942-55.221,36.114-111.146,54.285-167.072c-55.925-18.171-111.85-36.342-167.072-54.285
			c34.129-46.974,68.692-94.547,103.256-142.12c-47.573-34.564-95.146-69.127-142.12-103.256
			c46.974-34.129,94.547-68.692,142.12-103.256c-34.564-47.573-69.127-95.146-103.256-142.12
			c55.221-17.943,111.146-36.114,167.072-54.285c-18.171-55.925-36.342-111.85-54.285-167.072c58.063,0,116.866,0,175.67,0
			c0-58.803,0-117.606,0-175.67c55.221,17.942,111.146,36.114,167.072,54.285c18.171-55.925,36.342-111.85,54.285-167.072
			c46.974,34.129,94.547,68.692,142.12,103.256c34.564-47.573,69.127-95.146,103.256-142.12
			c34.129,46.974,68.692,94.547,103.256,142.12c47.573-34.564,95.146-69.127,142.12-103.256
			c17.943,55.221,36.114,111.146,54.285,167.072C1180.599,218.725,1236.524,200.554,1291.745,182.611z"/>
	</g>
	<g>
		<path fill="none" stroke="#000000" stroke-width="4" stroke-miterlimit="10" d="M1217.822,284.358
			c24.568,24.568,49.246,49.246,73.923,73.923c24.677,24.678,49.355,49.355,73.923,73.923
			c15.774,30.958,31.618,62.053,47.462,93.148c15.844,31.096,31.688,62.191,47.462,93.149
			c5.435,34.317,10.895,68.786,16.354,103.256c5.459,34.47,10.919,68.939,16.354,103.256
			c-5.435,34.317-10.895,68.786-16.354,103.256c-5.459,34.47-10.919,68.939-16.354,103.256
			c-15.774,30.958-31.618,62.053-47.462,93.148c-15.844,31.095-31.688,62.191-47.462,93.149
			c-24.568,24.568-49.246,49.246-73.923,73.923s-49.355,49.355-73.923,73.923c-30.958,15.774-62.053,31.618-93.149,47.462
			c-31.095,15.844-62.191,31.688-93.148,47.462c-34.317,5.435-68.786,10.895-103.256,16.354
			c-34.47,5.459-68.939,10.919-103.256,16.354c-34.317-5.435-68.786-10.895-103.256-16.354
			c-34.47-5.459-68.939-10.919-103.256-16.354c-30.958-15.774-62.053-31.618-93.149-47.462
			c-31.095-15.844-62.191-31.688-93.148-47.462c-24.568-24.568-49.246-49.246-73.923-73.923
			c-24.677-24.677-49.355-49.355-73.923-73.923c-15.774-30.958-31.618-62.053-47.462-93.149s-31.688-62.191-47.462-93.148
			c-5.435-34.317-10.895-68.786-16.354-103.256c-5.459-34.47-10.919-68.939-16.354-103.256
			c5.435-34.317,10.895-68.786,16.354-103.256c5.459-34.47,10.919-68.939,16.354-103.256c15.774-30.958,31.618-62.053,47.462-93.149
			c15.844-31.095,31.688-62.191,47.462-93.148c24.568-24.568,49.246-49.246,73.923-73.923
			c24.678-24.677,49.355-49.355,73.923-73.923c30.958-15.774,62.053-31.618,93.148-47.462
			c31.096-15.844,62.191-31.688,93.149-47.462c34.317-5.435,68.786-10.895,103.256-16.354c34.47-5.459,68.939-10.919,103.256-16.354
			c34.317,5.435,68.786,10.895,103.256,16.354c34.47,5.459,68.939,10.919,103.256,16.354c30.958,15.774,62.053,31.618,93.148,47.462
			S1186.864,268.584,1217.822,284.358z"/>
	</g>
	<g>
		<path fill="none" stroke="#000000" stroke-width="4" stroke-miterlimit="10" d="M1164.114,358.281c42.356,0,84.994,0,127.631,0
			c0,42.638,0,85.276,0,127.631c40.283,13.089,80.834,26.264,121.385,39.44c-13.176,40.551-26.352,81.102-39.44,121.385
			c34.266,24.896,68.761,49.958,103.256,75.02c-25.062,34.495-50.124,68.989-75.02,103.256
			c24.896,34.266,49.958,68.761,75.02,103.256c-34.495,25.062-68.989,50.124-103.256,75.02
			c13.089,40.283,26.264,80.834,39.44,121.385c-40.551,13.176-81.102,26.352-121.385,39.44c0,42.356,0,84.994,0,127.631
			c-42.638,0-85.276,0-127.631,0c-13.089,40.283-26.264,80.834-39.44,121.385c-40.551-13.176-81.102-26.352-121.385-39.44
			c-24.896,34.266-49.958,68.761-75.02,103.256c-34.495-25.062-68.99-50.124-103.256-75.02
			c-34.266,24.896-68.761,49.958-103.256,75.02c-25.062-34.495-50.124-68.989-75.02-103.256
			c-40.283,13.089-80.834,26.264-121.385,39.44c-13.176-40.551-26.352-81.102-39.44-121.385c-42.356,0-84.994,0-127.631,0
			c0-42.638,0-85.276,0-127.631c-40.283-13.089-80.834-26.264-121.385-39.44c13.176-40.551,26.352-81.102,39.44-121.385
			c-34.266-24.896-68.761-49.958-103.256-75.02c25.062-34.495,50.124-68.99,75.02-103.256
			c-24.896-34.266-49.958-68.761-75.02-103.256c34.495-25.062,68.989-50.124,103.256-75.02
			c-13.089-40.283-26.264-80.834-39.44-121.385c40.551-13.176,81.102-26.352,121.385-39.44c0-42.356,0-84.994,0-127.631
			c42.638,0,85.276,0,127.631,0c13.089-40.283,26.264-80.834,39.44-121.385c40.551,13.176,81.102,26.352,121.385,39.44
			c24.896-34.266,49.958-68.761,75.02-103.256c34.495,25.062,68.989,50.124,103.256,75.02
			c34.266-24.896,68.761-49.958,103.256-75.02c25.062,34.495,50.124,68.989,75.02,103.256
			c40.283-13.089,80.834-26.264,121.385-39.44C1137.849,277.447,1151.025,317.998,1164.114,358.281z"/>
	</g>
</g>
</svg>
