<?xml version="1.0" encoding="utf-8"?>

<!DOCTYPE svg PUBLIC "-//W3C//DTD SVG 1.1//EN" "http://www.w3.org/Graphics/SVG/1.1/DTD/svg11.dtd">
<svg version="1.1" id="Layer_1" xmlns="http://www.w3.org/2000/svg" xmlns:xlink="http://www.w3.org/1999/xlink" x="0px" y="0px"
	 viewBox="0 0 1678 1678" enable-background="new 0 0 1678 1678" xml:space="preserve">
<g>
	<g>
		<g>
			<g>
				<g>
					<g>
						<path d="M1330.731,347.269c42.92-54.536,55.656-136.168,22.144-199.298c-13.579-26.981-28.727-40.416-28.221-40.709
							c-1.098-2.213,54.549,59.504,40.344,140.273c-7.746,57.366-44.95,113.432-103.96,141.663
							c-47.365,21.222-76.248,18.641-76.331,23.065c-3.478,3.487,56.773,11.971,113.069-32.04
							c-44.011,56.295-35.527,116.546-32.04,113.069c4.424-0.083,1.843-28.966,23.065-76.331
							c28.231-59.01,84.297-96.214,141.663-103.96c80.769-14.205,142.486,41.442,140.273,40.344
							c-0.292,0.506-13.727-14.642-40.709-28.221C1466.899,291.613,1385.268,304.349,1330.731,347.269z"/>
						<path d="M1330.731,1330.731c54.536,42.92,136.168,55.656,199.298,22.144c26.981-13.579,40.416-28.727,40.709-28.221
							c2.213-1.098-59.504,54.549-140.273,40.344c-57.366-7.746-113.432-44.95-141.663-103.96
							c-21.222-47.365-18.641-76.248-23.065-76.331c-3.487-3.478-11.971,56.773,32.04,113.069
							c-56.295-44.011-116.546-35.527-113.069-32.04c0.083,4.424,28.966,1.843,76.331,23.065
							c59.01,28.231,96.214,84.297,103.96,141.663c14.205,80.769-41.442,142.486-40.344,140.273
							c-0.506-0.292,14.642-13.727,28.221-40.709C1386.387,1466.899,1373.651,1385.268,1330.731,1330.731z"/>
						<path d="M347.269,1330.731c-42.92,54.536-55.656,136.168-22.144,199.298c13.579,26.981,28.726,40.416,28.221,40.709
							c1.098,2.213-54.549-59.504-40.344-140.273c7.746-57.366,44.95-113.432,103.96-141.663
							c47.365-21.222,76.248-18.641,76.331-23.065c3.478-3.487-56.773-11.971-113.069,32.04
							c44.011-56.295,35.527-116.546,32.04-113.069c-4.424,0.083-1.843,28.966-23.065,76.331
							c-28.231,59.01-84.297,96.214-141.663,103.96c-80.769,14.205-142.486-41.442-140.273-40.344
							c0.292-0.506,13.727,14.642,40.709,28.221C211.101,1386.387,292.732,1373.651,347.269,1330.731z"/>
						<path d="M347.269,347.269c-54.536-42.92-136.168-55.656-199.298-22.144c-26.981,13.579-40.416,28.726-40.709,28.221
							c-2.213,1.098,59.504-54.549,140.273-40.344c57.366,7.746,113.432,44.95,141.663,103.96
							c21.222,47.365,18.641,76.248,23.065,76.331c3.487,3.478,11.971-56.773-32.04-113.069
							c56.295,44.011,116.546,35.527,113.069,32.04c-0.083-4.424-28.966-1.843-76.331-23.065
							c-59.01-28.231-96.214-84.297-103.96-141.663c-14.205-80.769,41.442-142.486,40.344-140.273
							c0.506,0.292-14.642,13.727-28.221,40.709C291.613,211.101,304.349,292.732,347.269,347.269z"/>
					</g>
				</g>
			</g>
		</g>
		<g>
			<g>
				<g>
					<g>
						<path d="M1356.722,321.278c12.839-29.275,20.926-57.027,22.334-81.016c3.827-44.418-14.179-68.252-12.846-68.143
							c-1.266-0.091,15.136,24.533,9.762,67.863c-3.16,33.167-15.326,63.814-30.219,92.265
							c28.451-14.893,59.098-27.059,92.265-30.219c43.331-5.374,67.954,11.028,67.863,9.762c0.11,1.332-23.725-16.673-68.143-12.846
							C1413.749,300.353,1385.996,308.439,1356.722,321.278z"/>
						<path d="M1356.722,1356.722c29.275,12.839,57.027,20.926,81.016,22.334c44.418,3.827,68.252-14.179,68.143-12.846
							c0.091-1.266-24.532,15.136-67.863,9.762c-33.167-3.16-63.813-15.326-92.265-30.219
							c14.893,28.451,27.059,59.098,30.219,92.265c5.374,43.331-11.028,67.954-9.762,67.863
							c-1.332,0.11,16.673-23.725,12.846-68.143C1377.647,1413.749,1369.561,1385.996,1356.722,1356.722z"/>
						<path d="M321.278,1356.722c-12.839,29.275-20.926,57.027-22.334,81.016c-3.827,44.418,14.179,68.252,12.846,68.143
							c1.266,0.091-15.136-24.532-9.762-67.863c3.16-33.167,15.326-63.813,30.219-92.265
							c-28.451,14.893-59.098,27.059-92.265,30.219c-43.331,5.374-67.954-11.028-67.863-9.762
							c-0.11-1.332,23.725,16.673,68.143,12.846C264.251,1377.647,292.004,1369.561,321.278,1356.722z"/>
						<path d="M321.278,321.278c-29.275-12.839-57.027-20.926-81.016-22.334c-44.418-3.827-68.252,14.179-68.143,12.846
							c-0.091,1.266,24.533-15.136,67.863-9.762c33.167,3.16,63.814,15.326,92.265,30.219
							c-14.893-28.451-27.059-59.098-30.219-92.265c-5.374-43.331,11.028-67.954,9.762-67.863
							c1.332-0.11-16.673,23.725-12.846,68.143C300.353,264.251,308.439,292.004,321.278,321.278z"/>
					</g>
				</g>
			</g>
		</g>
		<g>
			<path d="M839,145.121c97.243-50.581,304.853-150.648,437.291-64.363l0,0c50.596,32.968,80.885,83.822,80.873,135.736l0,0
				c-0.012,26.822-8.036,53.998-25.68,79.465l0,0c-17.817,25.804-50.084,41.702-80.392,41.652l0,0
				c-14.591,0-28.676-3.624-40.601-11.415l0,0l-4.339,6.631c41.14,26.865,103.184,8.877,131.844-32.359l0,0
				c18.521-26.704,27.095-55.557,27.085-83.973l0,0c-0.015-55.074-32.003-108.195-84.46-142.373l0,0
				C1241.789,48.821,1196.936,39,1150.602,39l0,0C1035.198,39.07,909.621,99.599,839,136.219
				C768.379,99.599,642.802,39.07,527.398,39l0,0c-46.334,0-91.186,9.821-130.018,35.121l0,0
				c-52.457,34.178-84.445,87.299-84.46,142.373l0,0c-0.009,28.416,8.564,57.269,27.085,83.973l0,0
				c28.661,41.236,90.704,59.224,131.844,32.359l-4.339-6.631l0,0c-11.926,7.791-26.01,11.415-40.601,11.415l0,0
				c-30.309,0.051-62.575-15.848-80.393-41.652l0,0c-17.644-25.467-25.668-52.643-25.68-79.465l0,0
				c-0.013-51.914,30.277-102.768,80.873-135.736l0,0C534.147-5.526,741.757,94.54,839,145.121z"/>
			<path d="M1532.879,839c50.581,97.243,150.648,304.853,64.363,437.291l0,0c-32.968,50.596-83.822,80.885-135.736,80.873l0,0
				c-26.822-0.012-53.998-8.036-79.465-25.68l0,0c-25.804-17.817-41.703-50.084-41.652-80.392l0,0
				c0-14.591,3.624-28.676,11.415-40.601l0,0l-6.631-4.339c-26.865,41.14-8.877,103.184,32.359,131.844l0,0
				c26.704,18.521,55.557,27.095,83.973,27.085l0,0c55.074-0.015,108.195-32.003,142.373-84.46l0,0
				c25.3-38.832,35.121-83.684,35.121-130.018l0,0c-0.07-115.404-60.599-240.981-97.219-311.602
				c36.62-70.621,97.149-196.198,97.219-311.602l0,0c0-46.334-9.821-91.186-35.121-130.018l0,0
				c-34.178-52.457-87.299-84.445-142.373-84.46l0,0c-28.416-0.009-57.269,8.564-83.973,27.085l0,0
				c-41.236,28.661-59.224,90.704-32.359,131.844l6.631-4.339l0,0c-7.791-11.926-11.415-26.01-11.415-40.601l0,0
				c-0.051-30.309,15.848-62.575,41.652-80.393l0,0c25.467-17.644,52.643-25.668,79.465-25.68l0,0
				c51.914-0.013,102.768,30.277,135.736,80.873l0,0C1683.526,534.147,1583.46,741.757,1532.879,839z"/>
			<path d="M839,1532.879c-97.243,50.581-304.853,150.648-437.291,64.363l0,0c-50.596-32.968-80.885-83.822-80.873-135.736l0,0
				c0.012-26.822,8.036-53.998,25.68-79.465l0,0c17.817-25.804,50.084-41.703,80.393-41.652l0,0
				c14.591,0,28.676,3.624,40.601,11.415l0,0l4.339-6.631c-41.14-26.865-103.184-8.877-131.844,32.359l0,0
				c-18.521,26.704-27.095,55.557-27.085,83.973l0,0c0.015,55.074,32.003,108.195,84.46,142.373l0,0
				c38.832,25.3,83.684,35.121,130.018,35.121l0,0c115.404-0.07,240.981-60.599,311.602-97.219
				c70.621,36.62,196.198,97.149,311.602,97.219l0,0c46.334,0,91.186-9.821,130.018-35.121l0,0
				c52.457-34.178,84.445-87.299,84.46-142.373l0,0c0.01-28.416-8.564-57.269-27.085-83.973l0,0
				c-28.661-41.236-90.704-59.224-131.844-32.359l4.339,6.631l0,0c11.926-7.791,26.01-11.415,40.601-11.415l0,0
				c30.308-0.051,62.575,15.848,80.392,41.652l0,0c17.644,25.467,25.668,52.643,25.68,79.465l0,0
				c0.013,51.914-30.277,102.768-80.873,135.736l0,0C1143.853,1683.526,936.243,1583.46,839,1532.879z"/>
			<path d="M145.121,839C94.54,741.757-5.526,534.147,80.758,401.709l0,0c32.968-50.596,83.822-80.885,135.736-80.873l0,0
				c26.822,0.012,53.998,8.036,79.465,25.68l0,0c25.804,17.817,41.702,50.084,41.652,80.393l0,0
				c0,14.591-3.624,28.676-11.415,40.601l0,0l6.631,4.339c26.865-41.14,8.877-103.184-32.359-131.844l0,0
				c-26.704-18.521-55.557-27.095-83.973-27.085l0,0c-55.074,0.015-108.195,32.003-142.373,84.46l0,0
				C48.821,436.211,39,481.064,39,527.398l0,0C39.07,642.802,99.599,768.379,136.219,839C99.599,909.621,39.07,1035.198,39,1150.602
				l0,0c0,46.334,9.821,91.186,35.121,130.018l0,0c34.178,52.457,87.299,84.445,142.373,84.46l0,0
				c28.416,0.01,57.269-8.564,83.973-27.085l0,0c41.236-28.661,59.224-90.704,32.359-131.844l-6.631,4.339l0,0
				c7.791,11.926,11.415,26.01,11.415,40.601l0,0c0.051,30.308-15.848,62.575-41.652,80.392l0,0
				c-25.467,17.644-52.643,25.668-79.465,25.68l0,0c-51.914,0.013-102.768-30.277-135.736-80.873l0,0
				C-5.526,1143.853,94.54,936.243,145.121,839z"/>
		</g>
		<g>
			<g>
				<g>
					<g>
						<path d="M839,161.589c15.129-7.088,30.695-14.539,46.632-21.759c54.903-25.346,108.384-60.898,164.538-48.867
							c45.01,9.2,60.171,38.898,59.853,37.558c0.69,4.086-31.106-68.178-138.479-34.974
							c-35.862,13.481-85.048,39.433-132.545,61.906c-47.496-22.473-96.683-48.425-132.545-61.906
							c-107.373-33.204-139.169,39.06-138.479,34.974c-0.317,1.339,14.843-28.358,59.853-37.558
							c56.154-12.031,109.635,23.521,164.538,48.867C808.305,147.05,823.871,154.501,839,161.589z"/>
						<path d="M1516.411,839c7.088,15.129,14.539,30.695,21.759,46.632c25.346,54.903,60.898,108.384,48.867,164.538
							c-9.2,45.01-38.898,60.171-37.558,59.853c-4.086,0.69,68.178-31.106,34.974-138.479
							c-13.481-35.862-39.433-85.048-61.906-132.545c22.473-47.496,48.425-96.683,61.906-132.545
							c33.204-107.373-39.06-139.169-34.974-138.479c-1.339-0.317,28.358,14.843,37.558,59.853
							c12.031,56.154-23.521,109.635-48.867,164.538C1530.95,808.305,1523.499,823.871,1516.411,839z"/>
						<path d="M839,1516.411c-15.129,7.088-30.695,14.539-46.632,21.759c-54.903,25.346-108.384,60.898-164.538,48.867
							c-45.01-9.2-60.171-38.898-59.853-37.558c-0.69-4.086,31.106,68.178,138.479,34.974
							c35.862-13.481,85.048-39.433,132.545-61.906c47.496,22.473,96.683,48.425,132.545,61.906
							c107.373,33.204,139.169-39.06,138.479-34.974c0.317-1.339-14.844,28.358-59.853,37.558
							c-56.154,12.031-109.635-23.521-164.538-48.867C869.695,1530.95,854.129,1523.499,839,1516.411z"/>
						<path d="M161.589,839c-7.088-15.129-14.539-30.695-21.759-46.632c-25.346-54.903-60.898-108.384-48.867-164.538
							c9.2-45.01,38.898-60.171,37.558-59.853c4.086-0.69-68.178,31.106-34.974,138.479c13.481,35.862,39.433,85.048,61.906,132.545
							c-22.473,47.496-48.425,96.683-61.906,132.545c-33.204,107.373,39.06,139.169,34.974,138.479
							c1.339,0.317-28.358-14.844-37.558-59.853c-12.031-56.154,23.521-109.635,48.867-164.538
							C147.05,869.695,154.501,854.129,161.589,839z"/>
					</g>
				</g>
			</g>
		</g>
		<g>
			<path d="M1280.451,282.937c5.565,5.181-2.235,13.62-7.845,8.447C1267.034,286.255,1274.816,277.741,1280.451,282.937z"/>
			<path d="M282.937,397.549c5.181-5.565,13.62,2.235,8.447,7.845C286.255,410.966,277.741,403.184,282.937,397.549z"/>
			<path d="M397.549,1395.063c-5.565-5.181,2.235-13.62,7.845-8.448C410.966,1391.745,403.184,1400.259,397.549,1395.063z"/>
			<path d="M1395.063,1280.451c-5.181,5.565-13.62-2.235-8.448-7.845C1391.745,1267.034,1400.259,1274.816,1395.063,1280.451z"/>
			<path d="M1395.063,397.549c-5.181-5.565-13.62,2.235-8.448,7.845C1391.745,410.966,1400.259,403.184,1395.063,397.549z"/>
			<path d="M397.549,282.937c-5.565,5.181,2.235,13.62,7.845,8.447C410.966,286.255,403.184,277.741,397.549,282.937z"/>
			<path d="M282.937,1280.451c5.181,5.565,13.62-2.235,8.447-7.845C286.255,1267.034,277.741,1274.816,282.937,1280.451z"/>
			<path d="M1280.451,1395.063c5.565-5.181-2.235-13.62-7.845-8.448C1267.034,1391.745,1274.816,1400.259,1280.451,1395.063z"/>
		</g>
		<g>
			<path d="M1254.782,252.547c-5.946,9.381-8.511,18.471-8.511,26.441l0,0c-0.028,13.079,7.002,23.265,16.996,26.014l0,0
				c8.441,2.356,19.46-0.085,23.578-8.222l0,0c0.783-1.577,1.16-3.264,1.16-4.92l0,0c0-4.088-2.283-8.008-6.195-9.97l0,0
				c-1.103-0.544-2.288-0.802-3.443-0.802l0,0c-2.882,0-5.659,1.603-7.027,4.354l0,0c-0.581,1.151-0.11,2.55,1.047,3.122l0,0
				c1.151,0.575,2.554,0.104,3.12-1.053l0,0c0.745-1.499,2.629-2.225,4.235-1.44l0,0c2.285,1.134,3.594,3.43,3.594,5.788l0,0
				c0,0.968-0.215,1.934-0.67,2.852l0,0c-1.978,4.146-7.417,6.489-13.039,6.473l0,0c-1.777,0-3.524-0.226-5.122-0.676l0,0
				c-7.577-2.065-13.541-10.026-13.569-21.52l0,0c-0.009-6.968,2.238-15.195,7.782-23.948c0.002,0,0.002,0,0.002,0
				c0.689-1.092,0.359-2.532-0.723-3.217l0,0c-0.39-0.245-0.82-0.362-1.245-0.362l0,0
				C1255.977,251.462,1255.222,251.843,1254.782,252.547L1254.782,252.547z"/>
			<path d="M252.547,423.218c9.381,5.946,18.471,8.511,26.441,8.511l0,0c13.079,0.028,23.265-7.002,26.014-16.996l0,0
				c2.356-8.441-0.085-19.46-8.222-23.578l0,0c-1.577-0.783-3.264-1.16-4.92-1.16l0,0c-4.088,0-8.008,2.283-9.97,6.195l0,0
				c-0.544,1.103-0.802,2.288-0.802,3.443l0,0c0,2.883,1.603,5.659,4.354,7.027l0,0c1.151,0.581,2.55,0.11,3.122-1.047l0,0
				c0.575-1.151,0.104-2.554-1.053-3.12l0,0c-1.499-0.746-2.225-2.629-1.44-4.235l0,0c1.134-2.285,3.43-3.594,5.788-3.594l0,0
				c0.968,0,1.934,0.215,2.852,0.67l0,0c4.146,1.978,6.489,7.417,6.473,13.039l0,0c0,1.777-0.226,3.524-0.676,5.122l0,0
				c-2.065,7.577-10.026,13.541-21.52,13.569l0,0c-6.968,0.009-15.195-2.238-23.948-7.782c0-0.002,0-0.002,0-0.002
				c-1.092-0.689-2.532-0.359-3.217,0.723l0,0c-0.245,0.39-0.362,0.82-0.362,1.245l0,0
				C251.462,422.023,251.843,422.778,252.547,423.218L252.547,423.218z"/>
			<path d="M423.218,1425.453c5.946-9.381,8.511-18.471,8.511-26.441l0,0c0.028-13.079-7.002-23.265-16.996-26.014l0,0
				c-8.441-2.356-19.46,0.085-23.578,8.222l0,0c-0.783,1.577-1.16,3.264-1.16,4.92l0,0c0,4.088,2.283,8.008,6.195,9.97l0,0
				c1.103,0.543,2.288,0.802,3.443,0.802l0,0c2.883,0,5.659-1.603,7.027-4.354l0,0c0.581-1.151,0.11-2.55-1.047-3.122l0,0
				c-1.151-0.575-2.554-0.104-3.12,1.053l0,0c-0.746,1.499-2.629,2.225-4.235,1.44l0,0c-2.285-1.134-3.594-3.43-3.594-5.788l0,0
				c0-0.968,0.215-1.934,0.67-2.852l0,0c1.978-4.146,7.417-6.489,13.039-6.473l0,0c1.777,0,3.524,0.226,5.122,0.676l0,0
				c7.577,2.065,13.541,10.026,13.569,21.52l0,0c0.009,6.968-2.238,15.195-7.782,23.948c-0.002,0-0.002,0-0.002,0
				c-0.689,1.092-0.359,2.531,0.723,3.217l0,0c0.39,0.245,0.82,0.362,1.245,0.362l0,0
				C422.023,1426.538,422.778,1426.157,423.218,1425.453L423.218,1425.453z"/>
			<path d="M1425.453,1254.782c-9.381-5.946-18.471-8.511-26.441-8.511l0,0c-13.079-0.028-23.265,7.002-26.014,16.996l0,0
				c-2.356,8.441,0.085,19.46,8.222,23.578l0,0c1.577,0.783,3.264,1.16,4.92,1.16l0,0c4.088,0,8.008-2.283,9.97-6.195l0,0
				c0.543-1.103,0.802-2.288,0.802-3.443l0,0c0-2.882-1.603-5.659-4.354-7.027l0,0c-1.151-0.581-2.55-0.11-3.122,1.047l0,0
				c-0.575,1.151-0.104,2.554,1.053,3.12l0,0c1.499,0.745,2.225,2.629,1.44,4.235l0,0c-1.134,2.285-3.43,3.594-5.788,3.594l0,0
				c-0.968,0-1.934-0.215-2.852-0.67l0,0c-4.146-1.978-6.489-7.417-6.473-13.039l0,0c0-1.777,0.226-3.524,0.676-5.122l0,0
				c2.065-7.577,10.026-13.541,21.52-13.569l0,0c6.968-0.009,15.195,2.238,23.948,7.782c0,0.002,0,0.002,0,0.002
				c1.092,0.689,2.531,0.359,3.217-0.723l0,0c0.245-0.39,0.362-0.82,0.362-1.245l0,0
				C1426.538,1255.977,1426.157,1255.222,1425.453,1254.782L1425.453,1254.782z"/>
			<path d="M1425.453,423.218c-9.381,5.946-18.471,8.511-26.441,8.511l0,0c-13.079,0.028-23.265-7.002-26.014-16.996l0,0
				c-2.356-8.441,0.085-19.46,8.222-23.578l0,0c1.577-0.783,3.264-1.16,4.92-1.16l0,0c4.088,0,8.008,2.283,9.97,6.195l0,0
				c0.543,1.103,0.802,2.288,0.802,3.443l0,0c0,2.883-1.603,5.659-4.354,7.027l0,0c-1.151,0.581-2.55,0.11-3.122-1.047l0,0
				c-0.575-1.151-0.104-2.554,1.053-3.12l0,0c1.499-0.746,2.225-2.629,1.44-4.235l0,0c-1.134-2.285-3.43-3.594-5.788-3.594l0,0
				c-0.968,0-1.934,0.215-2.852,0.67l0,0c-4.146,1.978-6.489,7.417-6.473,13.039l0,0c0,1.777,0.226,3.524,0.676,5.122l0,0
				c2.065,7.577,10.026,13.541,21.52,13.569l0,0c6.968,0.009,15.195-2.238,23.948-7.782c0-0.002,0-0.002,0-0.002
				c1.092-0.689,2.531-0.359,3.217,0.723l0,0c0.245,0.39,0.362,0.82,0.362,1.245l0,0
				C1426.538,422.023,1426.157,422.778,1425.453,423.218L1425.453,423.218z"/>
			<path d="M423.218,252.547c5.946,9.381,8.511,18.471,8.511,26.441l0,0c0.028,13.079-7.002,23.265-16.996,26.014l0,0
				c-8.441,2.356-19.46-0.085-23.578-8.222l0,0c-0.783-1.577-1.16-3.264-1.16-4.92l0,0c0-4.088,2.283-8.008,6.195-9.97l0,0
				c1.103-0.544,2.288-0.802,3.443-0.802l0,0c2.883,0,5.659,1.603,7.027,4.354l0,0c0.581,1.151,0.11,2.55-1.047,3.122l0,0
				c-1.151,0.575-2.554,0.104-3.12-1.053l0,0c-0.746-1.499-2.629-2.225-4.235-1.44l0,0c-2.285,1.134-3.594,3.43-3.594,5.788l0,0
				c0,0.968,0.215,1.934,0.67,2.852l0,0c1.978,4.146,7.417,6.489,13.039,6.473l0,0c1.777,0,3.524-0.226,5.122-0.676l0,0
				c7.577-2.065,13.541-10.026,13.569-21.52l0,0c0.009-6.968-2.238-15.195-7.782-23.948c-0.002,0-0.002,0-0.002,0
				c-0.689-1.092-0.359-2.532,0.723-3.217l0,0c0.39-0.245,0.82-0.362,1.245-0.362l0,0
				C422.023,251.462,422.778,251.843,423.218,252.547L423.218,252.547z"/>
			<path d="M252.547,1254.782c9.381-5.946,18.471-8.511,26.441-8.511l0,0c13.079-0.028,23.265,7.002,26.014,16.996l0,0
				c2.356,8.441-0.085,19.46-8.222,23.578l0,0c-1.577,0.783-3.264,1.16-4.92,1.16l0,0c-4.088,0-8.008-2.283-9.97-6.195l0,0
				c-0.544-1.103-0.802-2.288-0.802-3.443l0,0c0-2.882,1.603-5.659,4.354-7.027l0,0c1.151-0.581,2.55-0.11,3.122,1.047l0,0
				c0.575,1.151,0.104,2.554-1.053,3.12l0,0c-1.499,0.745-2.225,2.629-1.44,4.235l0,0c1.134,2.285,3.43,3.594,5.788,3.594l0,0
				c0.968,0,1.934-0.215,2.852-0.67l0,0c4.146-1.978,6.489-7.417,6.473-13.039l0,0c0-1.777-0.226-3.524-0.676-5.122l0,0
				c-2.065-7.577-10.026-13.541-21.52-13.569l0,0c-6.968-0.009-15.195,2.238-23.948,7.782c0,0.002,0,0.002,0,0.002
				c-1.092,0.689-2.532,0.359-3.217-0.723l0,0c-0.245-0.39-0.362-0.82-0.362-1.245l0,0
				C251.462,1255.977,251.843,1255.222,252.547,1254.782L252.547,1254.782z"/>
			<path d="M1254.782,1425.453c-5.946-9.381-8.511-18.471-8.511-26.441l0,0c-0.028-13.079,7.002-23.265,16.996-26.014l0,0
				c8.441-2.356,19.46,0.085,23.578,8.222l0,0c0.783,1.577,1.16,3.264,1.16,4.92l0,0c0,4.088-2.283,8.008-6.195,9.97l0,0
				c-1.103,0.543-2.288,0.802-3.443,0.802l0,0c-2.882,0-5.659-1.603-7.027-4.354l0,0c-0.581-1.151-0.11-2.55,1.047-3.122l0,0
				c1.151-0.575,2.554-0.104,3.12,1.053l0,0c0.745,1.499,2.629,2.225,4.235,1.44l0,0c2.285-1.134,3.594-3.43,3.594-5.788l0,0
				c0-0.968-0.215-1.934-0.67-2.852l0,0c-1.978-4.146-7.417-6.489-13.039-6.473l0,0c-1.777,0-3.524,0.226-5.122,0.676l0,0
				c-7.577,2.065-13.541,10.026-13.569,21.52l0,0c-0.009,6.968,2.238,15.195,7.782,23.948c0.002,0,0.002,0,0.002,0
				c0.689,1.092,0.359,2.531-0.723,3.217l0,0c-0.39,0.245-0.82,0.362-1.245,0.362l0,0
				C1255.977,1426.538,1255.222,1426.157,1254.782,1425.453L1254.782,1425.453z"/>
		</g>
		<g>
			<g>
				<g>
					<path d="M917.386,169.607c-46.71,15.953-62.465,87.885-18.826,115.291c19.65,12.265,50.857,9.117,62.066-13.045
						c12.841-22.816-5.712-53.634-30.988-43.711c10.96-4.018,24.014,0.632,29.884,10.501c17.973,34.258-24.727,66.523-59.416,43.714
						c-40.371-26.4-23.762-93.924,19.377-107.195L917.386,169.607z"/>
					<path d="M169.607,760.614c15.953,46.71,87.885,62.465,115.291,18.826c12.265-19.65,9.117-50.857-13.045-62.066
						c-22.816-12.841-53.634,5.712-43.711,30.988c-4.018-10.96,0.632-24.014,10.501-29.884
						c34.258-17.973,66.523,24.727,43.714,59.416c-26.4,40.371-93.924,23.762-107.195-19.377L169.607,760.614z"/>
					<path d="M760.614,1508.393c46.71-15.953,62.465-87.885,18.826-115.291c-19.65-12.265-50.857-9.117-62.066,13.045
						c-12.841,22.816,5.712,53.634,30.988,43.711c-10.96,4.018-24.014-0.632-29.884-10.501
						c-17.973-34.258,24.727-66.523,59.416-43.714c40.371,26.4,23.762,93.924-19.377,107.195L760.614,1508.393z"/>
					<path d="M1508.393,917.386c-15.953-46.71-87.885-62.465-115.291-18.826c-12.265,19.65-9.117,50.857,13.045,62.066
						c22.816,12.841,53.634-5.712,43.711-30.988c4.018,10.96-0.632,24.014-10.501,29.884
						c-34.258,17.973-66.523-24.727-43.714-59.416c26.4-40.371,93.924-23.762,107.195,19.377L1508.393,917.386z"/>
					<path d="M1508.393,760.614c-15.953,46.71-87.885,62.465-115.291,18.826c-12.265-19.65-9.117-50.857,13.045-62.066
						c22.816-12.841,53.634,5.712,43.711,30.988c4.018-10.96-0.632-24.014-10.501-29.884
						c-34.258-17.973-66.523,24.727-43.714,59.416c26.4,40.371,93.924,23.762,107.195-19.377L1508.393,760.614z"/>
					<path d="M760.614,169.607c46.71,15.953,62.465,87.885,18.826,115.291c-19.65,12.265-50.857,9.117-62.066-13.045
						c-12.841-22.816,5.712-53.634,30.988-43.711c-10.96-4.018-24.014,0.632-29.884,10.501
						c-17.973,34.258,24.727,66.523,59.416,43.714c40.371-26.4,23.762-93.924-19.377-107.195L760.614,169.607z"/>
					<path d="M169.607,917.386c15.953-46.71,87.885-62.465,115.291-18.826c12.265,19.65,9.117,50.857-13.045,62.066
						c-22.816,12.841-53.634-5.712-43.711-30.988c-4.018,10.96,0.632,24.014,10.501,29.884
						c34.258,17.973,66.523-24.727,43.714-59.416c-26.4-40.371-93.924-23.762-107.195,19.377L169.607,917.386z"/>
					<path d="M917.386,1508.393c-46.71-15.953-62.465-87.885-18.826-115.291c19.65-12.265,50.857-9.117,62.066,13.045
						c12.841,22.816-5.712,53.634-30.988,43.711c10.96,4.018,24.014-0.632,29.884-10.501c17.973-34.258-24.727-66.523-59.416-43.714
						c-40.371,26.4-23.762,93.924,19.377,107.195L917.386,1508.393z"/>
				</g>
			</g>
		</g>
		<g>
			<path d="M978.157,209.194c-3.397-1.572-0.415-9.691,7.068-8.121c10.032,2.046,10.966,17.966-0.972,23.084
				c-12.179,5.053-26.247-6.651-22.288-22.348c5.008-19.261,31.226-23.146,41.822-7.508c-9.172-9.589-26.234-10.932-35.106,0.236
				c-12.872,16.26,6.8,33.649,16.255,22.561c4.878-5.849-0.827-12.305-4.276-9.381C979.45,208.696,979.186,209.619,978.157,209.194z
				"/>
			<path d="M209.194,699.843c-1.572,3.397-9.691,0.415-8.121-7.068c2.046-10.032,17.966-10.966,23.084,0.972
				c5.053,12.179-6.651,26.247-22.348,22.288c-19.261-5.008-23.146-31.226-7.508-41.822c-9.589,9.172-10.932,26.234,0.236,35.106
				c16.26,12.872,33.649-6.8,22.561-16.255c-5.849-4.878-12.305,0.827-9.381,4.276C208.696,698.55,209.619,698.814,209.194,699.843z
				"/>
			<path d="M699.843,1468.806c3.397,1.572,0.415,9.691-7.068,8.121c-10.032-2.046-10.966-17.966,0.972-23.084
				c12.179-5.053,26.247,6.651,22.288,22.348c-5.008,19.261-31.226,23.146-41.822,7.508c9.172,9.589,26.234,10.932,35.106-0.236
				c12.872-16.26-6.8-33.649-16.255-22.561c-4.878,5.849,0.827,12.305,4.276,9.381
				C698.55,1469.304,698.814,1468.381,699.843,1468.806z"/>
			<path d="M1468.806,978.157c1.572-3.397,9.691-0.415,8.121,7.068c-2.046,10.032-17.966,10.966-23.084-0.972
				c-5.053-12.179,6.651-26.247,22.348-22.288c19.261,5.008,23.146,31.226,7.508,41.822c9.589-9.172,10.932-26.234-0.236-35.106
				c-16.26-12.872-33.649,6.8-22.561,16.255c5.849,4.878,12.305-0.827,9.381-4.276
				C1469.304,979.45,1468.381,979.186,1468.806,978.157z"/>
			<path d="M1468.806,699.843c1.572,3.397,9.691,0.415,8.121-7.068c-2.046-10.032-17.966-10.966-23.084,0.972
				c-5.053,12.179,6.651,26.247,22.348,22.288c19.261-5.008,23.146-31.226,7.508-41.822c9.589,9.172,10.932,26.234-0.236,35.106
				c-16.26,12.872-33.649-6.8-22.561-16.255c5.849-4.878,12.305,0.827,9.381,4.276
				C1469.304,698.55,1468.381,698.814,1468.806,699.843z"/>
			<path d="M699.843,209.194c3.397-1.572,0.415-9.691-7.068-8.121c-10.032,2.046-10.966,17.966,0.972,23.084
				c12.179,5.053,26.247-6.651,22.288-22.348c-5.008-19.261-31.226-23.146-41.822-7.508c9.172-9.589,26.234-10.932,35.106,0.236
				c12.872,16.26-6.8,33.649-16.255,22.561c-4.878-5.849,0.827-12.305,4.276-9.381C698.55,208.696,698.814,209.619,699.843,209.194z
				"/>
			<path d="M209.194,978.157c-1.572-3.397-9.691-0.415-8.121,7.068c2.046,10.032,17.966,10.966,23.084-0.972
				c5.053-12.179-6.651-26.247-22.348-22.288c-19.261,5.008-23.146,31.226-7.508,41.822c-9.589-9.172-10.932-26.234,0.236-35.106
				c16.26-12.872,33.649,6.8,22.561,16.255c-5.849,4.878-12.305-0.827-9.381-4.276C208.696,979.45,209.619,979.186,209.194,978.157z
				"/>
			<path d="M978.157,1468.806c-3.397,1.572-0.415,9.691,7.068,8.121c10.032-2.046,10.966-17.966-0.972-23.084
				c-12.179-5.053-26.247,6.651-22.288,22.348c5.008,19.261,31.226,23.146,41.822,7.508c-9.172,9.589-26.234,10.932-35.106-0.236
				c-12.872-16.26,6.8-33.649,16.255-22.561c4.878,5.849-0.827,12.305-4.276,9.381
				C979.45,1469.304,979.186,1468.381,978.157,1468.806z"/>
		</g>
		<g>
			<path d="M1202.816,315.279c-0.145,0.594-0.865,0.562-1.264,0.494c-5.327,0.198-10.451,2.175-12.335,7.539
				c-4.805,13.229,12.04,25.017,25.136,15.89c12.861-8.96,10.953-32.334-8.102-39.888c-19.709-7.99-41.154,8.808-38.357,32.005
				c2.805,23.764,27.44,35.185,40.592,30.248c-35.678-3.734-41.492-41.542-21.086-50.707c5.272-2.269,12.884-1.943,15.538,3.648
				C1202.988,314.817,1202.95,315.077,1202.816,315.279z"/>
			<path d="M315.279,475.185c0.594,0.145,0.562,0.865,0.494,1.264c0.198,5.327,2.175,10.451,7.539,12.335
				c13.229,4.805,25.017-12.04,15.89-25.136c-8.96-12.861-32.334-10.953-39.888,8.102c-7.99,19.709,8.808,41.154,32.005,38.357
				c23.764-2.805,35.185-27.44,30.248-40.592c-3.734,35.678-41.542,41.492-50.707,21.086c-2.269-5.273-1.943-12.884,3.648-15.538
				C314.817,475.012,315.077,475.05,315.279,475.185z"/>
			<path d="M475.185,1362.721c0.145-0.594,0.865-0.562,1.264-0.494c5.327-0.198,10.451-2.175,12.335-7.539
				c4.805-13.229-12.04-25.017-25.136-15.89c-12.861,8.96-10.953,32.333,8.102,39.888c19.709,7.99,41.154-8.808,38.357-32.005
				c-2.805-23.764-27.44-35.186-40.592-30.248c35.678,3.734,41.492,41.542,21.086,50.707c-5.273,2.269-12.884,1.943-15.538-3.648
				C475.012,1363.183,475.05,1362.922,475.185,1362.721z"/>
			<path d="M1362.721,1202.816c-0.594-0.145-0.562-0.865-0.494-1.264c-0.198-5.327-2.175-10.451-7.539-12.335
				c-13.229-4.805-25.017,12.04-15.89,25.136c8.96,12.861,32.333,10.953,39.888-8.102c7.99-19.709-8.808-41.154-32.005-38.357
				c-23.764,2.805-35.186,27.44-30.248,40.592c3.734-35.678,41.542-41.492,50.707-21.086c2.269,5.272,1.943,12.884-3.648,15.538
				C1363.183,1202.988,1362.922,1202.95,1362.721,1202.816z"/>
			<path d="M1362.721,475.185c-0.594,0.145-0.562,0.865-0.494,1.264c-0.198,5.327-2.175,10.451-7.539,12.335
				c-13.229,4.805-25.017-12.04-15.89-25.136c8.96-12.861,32.333-10.953,39.888,8.102c7.99,19.709-8.808,41.154-32.005,38.357
				c-23.764-2.805-35.186-27.44-30.248-40.592c3.734,35.678,41.542,41.492,50.707,21.086c2.269-5.273,1.943-12.884-3.648-15.538
				C1363.183,475.012,1362.922,475.05,1362.721,475.185z"/>
			<path d="M475.185,315.279c0.145,0.594,0.865,0.562,1.264,0.494c5.327,0.198,10.451,2.175,12.335,7.539
				c4.805,13.229-12.04,25.017-25.136,15.89c-12.861-8.96-10.953-32.334,8.102-39.888c19.709-7.99,41.154,8.808,38.357,32.005
				c-2.805,23.764-27.44,35.185-40.592,30.248c35.678-3.734,41.492-41.542,21.086-50.707c-5.273-2.269-12.884-1.943-15.538,3.648
				C475.012,314.817,475.05,315.077,475.185,315.279z"/>
			<path d="M315.279,1202.816c0.594-0.145,0.562-0.865,0.494-1.264c0.198-5.327,2.175-10.451,7.539-12.335
				c13.229-4.805,25.017,12.04,15.89,25.136c-8.96,12.861-32.334,10.953-39.888-8.102c-7.99-19.709,8.808-41.154,32.005-38.357
				c23.764,2.805,35.185,27.44,30.248,40.592c-3.734-35.678-41.542-41.492-50.707-21.086c-2.269,5.272-1.943,12.884,3.648,15.538
				C314.817,1202.988,315.077,1202.95,315.279,1202.816z"/>
			<path d="M1202.816,1362.721c-0.145-0.594-0.865-0.562-1.264-0.494c-5.327-0.198-10.451-2.175-12.335-7.539
				c-4.805-13.229,12.04-25.017,25.136-15.89c12.861,8.96,10.953,32.333-8.102,39.888c-19.709,7.99-41.154-8.808-38.357-32.005
				c2.805-23.764,27.44-35.186,40.592-30.248c-35.678,3.734-41.492,41.542-21.086,50.707c5.272,2.269,12.884,1.943,15.538-3.648
				C1202.988,1363.183,1202.95,1362.922,1202.816,1362.721z"/>
		</g>
		<g>
			<path d="M926.431,256.833c0.413-0.277,0.192-0.824,0.032-1.107c-6.259-19.823,27.113-17.583,21.369,3.418
				c-3.36,12.278-21.72,17.135-32.669,4.643c-11.436-12.85-4.491-33.8,14.029-37.992c19.148-4.346,32.98,9.69,34.527,22.81
				c-0.157-0.321-0.805-1.352-0.915-1.685c-7.627-22.588-42.318-20.642-43.938-0.673c-0.302,4.65,2.019,10.369,7.006,10.885
				C926.12,257.087,926.309,256.989,926.431,256.833z"/>
			<path d="M256.833,751.569c-0.277-0.413-0.824-0.192-1.107-0.032c-19.823,6.259-17.583-27.113,3.418-21.369
				c12.278,3.36,17.135,21.72,4.643,32.669c-12.85,11.436-33.8,4.491-37.992-14.029c-4.346-19.148,9.69-32.98,22.81-34.527
				c-0.321,0.157-1.352,0.805-1.685,0.915c-22.588,7.627-20.642,42.318-0.673,43.938c4.65,0.302,10.369-2.019,10.885-7.006
				C257.087,751.88,256.989,751.691,256.833,751.569z"/>
			<path d="M751.569,1421.167c-0.413,0.277-0.192,0.824-0.032,1.107c6.259,19.823-27.113,17.583-21.369-3.418
				c3.36-12.278,21.72-17.135,32.669-4.643c11.436,12.85,4.491,33.8-14.029,37.992c-19.148,4.346-32.98-9.69-34.527-22.81
				c0.157,0.321,0.805,1.352,0.915,1.685c7.627,22.588,42.318,20.642,43.938,0.673c0.302-4.65-2.019-10.369-7.006-10.885
				C751.88,1420.913,751.691,1421.011,751.569,1421.167z"/>
			<path d="M1421.167,926.431c0.277,0.413,0.824,0.192,1.107,0.032c19.823-6.259,17.583,27.113-3.418,21.369
				c-12.278-3.36-17.135-21.72-4.643-32.669c12.85-11.436,33.8-4.491,37.992,14.029c4.346,19.148-9.69,32.98-22.81,34.527
				c0.321-0.157,1.352-0.805,1.685-0.915c22.588-7.627,20.642-42.318,0.673-43.938c-4.65-0.302-10.369,2.019-10.885,7.006
				C1420.913,926.12,1421.011,926.309,1421.167,926.431z"/>
			<path d="M1421.167,751.569c0.277-0.413,0.824-0.192,1.107-0.032c19.823,6.259,17.583-27.113-3.418-21.369
				c-12.278,3.36-17.135,21.72-4.643,32.669c12.85,11.436,33.8,4.491,37.992-14.029c4.346-19.148-9.69-32.98-22.81-34.527
				c0.321,0.157,1.352,0.805,1.685,0.915c22.588,7.627,20.642,42.318,0.673,43.938c-4.65,0.302-10.369-2.019-10.885-7.006
				C1420.913,751.88,1421.011,751.691,1421.167,751.569z"/>
			<path d="M751.569,256.833c-0.413-0.277-0.192-0.824-0.032-1.107c6.259-19.823-27.113-17.583-21.369,3.418
				c3.36,12.278,21.72,17.135,32.669,4.643c11.436-12.85,4.491-33.8-14.029-37.992c-19.148-4.346-32.98,9.69-34.527,22.81
				c0.157-0.321,0.805-1.352,0.915-1.685c7.627-22.588,42.318-20.642,43.938-0.673c0.302,4.65-2.019,10.369-7.006,10.885
				C751.88,257.087,751.691,256.989,751.569,256.833z"/>
			<path d="M256.833,926.431c-0.277,0.413-0.824,0.192-1.107,0.032c-19.823-6.259-17.583,27.113,3.418,21.369
				c12.278-3.36,17.135-21.72,4.643-32.669c-12.85-11.436-33.8-4.491-37.992,14.029c-4.346,19.148,9.69,32.98,22.81,34.527
				c-0.321-0.157-1.352-0.805-1.685-0.915c-22.588-7.627-20.642-42.318-0.673-43.938c4.65-0.302,10.369,2.019,10.885,7.006
				C257.087,926.12,256.989,926.309,256.833,926.431z"/>
			<path d="M926.431,1421.167c0.413,0.277,0.192,0.824,0.032,1.107c-6.259,19.823,27.113,17.583,21.369-3.418
				c-3.36-12.278-21.72-17.135-32.669-4.643c-11.436,12.85-4.491,33.8,14.029,37.992c19.148,4.346,32.98-9.69,34.527-22.81
				c-0.157,0.321-0.805,1.352-0.915,1.685c-7.627,22.588-42.318,20.642-43.938,0.673c-0.302-4.65,2.019-10.369,7.006-10.885
				C926.12,1420.913,926.309,1421.011,926.431,1421.167z"/>
		</g>
		<g>
			<path d="M1196.04,221.698c2.495-4.542,11.514-8.734,17.732,1.26c6.618-1.185,6.769-6.404,6.795-9.721
				c5.03,7.187,4.49,16.836-1.969,23.127C1206.329,247.519,1188.803,234.199,1196.04,221.698z"/>
			<path d="M221.698,481.96c-4.542-2.495-8.734-11.514,1.26-17.732c-1.185-6.618-6.404-6.769-9.721-6.795
				c7.187-5.03,16.836-4.489,23.127,1.969C247.519,471.671,234.199,489.197,221.698,481.96z"/>
			<path d="M481.96,1456.302c-2.495,4.542-11.514,8.734-17.732-1.26c-6.618,1.185-6.769,6.404-6.795,9.721
				c-5.03-7.187-4.489-16.836,1.969-23.127C471.671,1430.481,489.197,1443.801,481.96,1456.302z"/>
			<path d="M1456.302,1196.04c4.542,2.495,8.734,11.514-1.26,17.732c1.185,6.618,6.404,6.769,9.721,6.795
				c-7.187,5.03-16.836,4.49-23.127-1.969C1430.481,1206.329,1443.801,1188.803,1456.302,1196.04z"/>
			<path d="M1456.302,481.96c4.542-2.495,8.734-11.514-1.26-17.732c1.185-6.618,6.404-6.769,9.721-6.795
				c-7.187-5.03-16.836-4.489-23.127,1.969C1430.481,471.671,1443.801,489.197,1456.302,481.96z"/>
			<path d="M481.96,221.698c-2.495-4.542-11.514-8.734-17.732,1.26c-6.618-1.185-6.769-6.404-6.795-9.721
				c-5.03,7.187-4.489,16.836,1.969,23.127C471.671,247.519,489.197,234.199,481.96,221.698z"/>
			<path d="M221.698,1196.04c-4.542,2.495-8.734,11.514,1.26,17.732c-1.185,6.618-6.404,6.769-9.721,6.795
				c7.187,5.03,16.836,4.49,23.127-1.969C247.519,1206.329,234.199,1188.803,221.698,1196.04z"/>
			<path d="M1196.04,1456.302c2.495,4.542,11.514,8.734,17.732-1.26c6.618,1.185,6.769,6.404,6.795,9.721
				c5.03-7.187,4.49-16.836-1.969-23.127C1206.329,1430.481,1188.803,1443.801,1196.04,1456.302z"/>
		</g>
		<g>
			<g>
				<g>
					<path d="M1206.494,282.289c-30.211,3.775-59.167-27.752-50.131-58.208c10.949-35.178,61.623-36.469,67.545-1.465
						c-4.842-35.916-57.635-36.265-70.365,0.535c-10.809,32.373,19.134,68.02,53.401,65.062L1206.494,282.289z"/>
					<path d="M282.289,471.506c3.775,30.211-27.752,59.167-58.208,50.131c-35.178-10.949-36.469-61.623-1.465-67.545
						c-35.916,4.842-36.265,57.634,0.535,70.365c32.373,10.809,68.02-19.134,65.062-53.4L282.289,471.506z"/>
					<path d="M471.506,1395.711c30.211-3.775,59.167,27.752,50.131,58.208c-10.949,35.178-61.623,36.469-67.545,1.465
						c4.842,35.916,57.634,36.265,70.365-0.535c10.809-32.373-19.134-68.02-53.4-65.062L471.506,1395.711z"/>
					<path d="M1395.711,1206.494c-3.775-30.211,27.752-59.167,58.208-50.131c35.178,10.949,36.469,61.623,1.465,67.545
						c35.916-4.842,36.265-57.635-0.535-70.365c-32.373-10.809-68.02,19.134-65.062,53.401L1395.711,1206.494z"/>
					<path d="M1395.711,471.506c-3.775,30.211,27.752,59.167,58.208,50.131c35.178-10.949,36.469-61.623,1.465-67.545
						c35.916,4.842,36.265,57.634-0.535,70.365c-32.373,10.809-68.02-19.134-65.062-53.4L1395.711,471.506z"/>
					<path d="M471.506,282.289c30.211,3.775,59.167-27.752,50.131-58.208c-10.949-35.178-61.623-36.469-67.545-1.465
						c4.842-35.916,57.634-36.265,70.365,0.535c10.809,32.373-19.134,68.02-53.4,65.062L471.506,282.289z"/>
					<path d="M282.289,1206.494c3.775-30.211-27.752-59.167-58.208-50.131c-35.178,10.949-36.469,61.623-1.465,67.545
						c-35.916-4.842-36.265-57.635,0.535-70.365c32.373-10.809,68.02,19.134,65.062,53.401L282.289,1206.494z"/>
					<path d="M1206.494,1395.711c-30.211-3.775-59.167,27.752-50.131,58.208c10.949,35.178,61.623,36.469,67.545,1.465
						c-4.842,35.916-57.635,36.265-70.365-0.535c-10.809-32.373,19.134-68.02,53.401-65.062L1206.494,1395.711z"/>
				</g>
			</g>
		</g>
		<g>
			<g>
				<g>
					<g>
						<path d="M1233.787,118.839c1.437-2.201,8.834-12.718,6.357-27.507c-6.025-56.727-90.268-46.885-89.987-47.719
							c-0.49,0.672,29.845-0.726,56.434,13.428c19.436,10.133,30.863,34.665,17.704,54.542
							c-10.941,12.086-23.733,11.054-23.571,15.167C1198.986,127.686,1214.134,138.322,1233.787,118.839z"/>
						<path d="M118.839,444.213c-2.201-1.437-12.718-8.834-27.507-6.357c-56.727,6.025-46.885,90.268-47.719,89.987
							c0.672,0.49-0.726-29.845,13.428-56.434c10.133-19.436,34.665-30.863,54.542-17.704
							c12.086,10.941,11.054,23.733,15.167,23.571C127.686,479.014,138.322,463.866,118.839,444.213z"/>
						<path d="M444.213,1559.161c-1.437,2.201-8.834,12.718-6.357,27.507c6.025,56.727,90.268,46.885,89.987,47.719
							c0.49-0.672-29.845,0.726-56.434-13.428c-19.436-10.133-30.863-34.665-17.704-54.542
							c10.941-12.086,23.733-11.054,23.571-15.167C479.014,1550.314,463.866,1539.678,444.213,1559.161z"/>
						<path d="M1559.161,1233.787c2.201,1.437,12.718,8.834,27.507,6.357c56.727-6.025,46.885-90.268,47.719-89.987
							c-0.672-0.49,0.726,29.845-13.428,56.434c-10.133,19.436-34.665,30.863-54.542,17.704
							c-12.086-10.941-11.054-23.733-15.167-23.571C1550.314,1198.986,1539.678,1214.134,1559.161,1233.787z"/>
						<path d="M1559.161,444.213c2.201-1.437,12.718-8.834,27.507-6.357c56.727,6.025,46.885,90.268,47.719,89.987
							c-0.672,0.49,0.726-29.845-13.428-56.434c-10.133-19.436-34.665-30.863-54.542-17.704
							c-12.086,10.941-11.054,23.733-15.167,23.571C1550.314,479.014,1539.678,463.866,1559.161,444.213z"/>
						<path d="M444.213,118.839c-1.437-2.201-8.834-12.718-6.357-27.507c6.025-56.727,90.268-46.885,89.987-47.719
							c0.49,0.672-29.845-0.726-56.434,13.428c-19.436,10.133-30.863,34.665-17.704,54.542
							c10.941,12.086,23.733,11.054,23.571,15.167C479.014,127.686,463.866,138.322,444.213,118.839z"/>
						<path d="M118.839,1233.787c-2.201,1.437-12.718,8.834-27.507,6.357c-56.727-6.025-46.885-90.268-47.719-89.987
							c0.672-0.49-0.726,29.845,13.428,56.434c10.133,19.436,34.665,30.863,54.542,17.704
							c12.086-10.941,11.054-23.733,15.167-23.571C127.686,1198.986,138.322,1214.134,118.839,1233.787z"/>
						<path d="M1233.787,1559.161c1.437,2.201,8.834,12.718,6.357,27.507c-6.025,56.727-90.268,46.885-89.987,47.719
							c-0.49-0.672,29.845,0.726,56.434-13.428c19.436-10.133,30.863-34.665,17.704-54.542
							c-10.941-12.086-23.733-11.054-23.571-15.167C1198.986,1550.314,1214.134,1539.678,1233.787,1559.161z"/>
					</g>
				</g>
			</g>
		</g>
		<g>
			<g>
				<path d="M1077.174,107.62c-8.115-0.014-8.116,11.633,0.007,11.627C1085.321,119.248,1085.268,107.598,1077.174,107.62z"/>
				<path d="M107.62,600.826c-0.014,8.115,11.633,8.116,11.627-0.007C119.248,592.679,107.598,592.732,107.62,600.826z"/>
				<path d="M600.826,1570.38c8.115,0.014,8.116-11.633-0.007-11.627C592.679,1558.752,592.732,1570.402,600.826,1570.38z"/>
				<path d="M1570.38,1077.174c0.014-8.115-11.633-8.116-11.627,0.007C1558.752,1085.321,1570.402,1085.268,1570.38,1077.174z"/>
				<path d="M1570.38,600.826c0.014,8.115-11.633,8.116-11.627-0.007C1558.752,592.679,1570.402,592.732,1570.38,600.826z"/>
				<path d="M600.826,107.62c8.115-0.014,8.116,11.633-0.007,11.627C592.679,119.248,592.732,107.598,600.826,107.62z"/>
				<path d="M107.62,1077.174c-0.014-8.115,11.633-8.116,11.627,0.007C119.248,1085.321,107.598,1085.268,107.62,1077.174z"/>
				<path d="M1077.174,1570.38c-8.115,0.014-8.116-11.633,0.007-11.627C1085.321,1558.752,1085.268,1570.402,1077.174,1570.38z"/>
			</g>
		</g>
		<g>
			<g>
				<path d="M1029.668,93.536c-11.578,0-11.579,16.597,0.013,16.597C1041.266,110.124,1041.26,93.527,1029.668,93.536z"/>
				<path d="M93.536,648.332c0,11.578,16.597,11.579,16.597-0.013C110.124,636.734,93.527,636.74,93.536,648.332z"/>
				<path d="M648.332,1584.464c11.578,0,11.579-16.597-0.013-16.597C636.734,1567.876,636.74,1584.473,648.332,1584.464z"/>
				<path d="M1584.464,1029.668c0-11.578-16.597-11.579-16.597,0.013C1567.876,1041.266,1584.473,1041.26,1584.464,1029.668z"/>
				<path d="M1584.464,648.332c0,11.578-16.597,11.579-16.597-0.013C1567.876,636.734,1584.473,636.74,1584.464,648.332z"/>
				<path d="M648.332,93.536c11.578,0,11.579,16.597-0.013,16.597C636.734,110.124,636.74,93.527,648.332,93.536z"/>
				<path d="M93.536,1029.668c0-11.578,16.597-11.579,16.597,0.013C110.124,1041.266,93.527,1041.26,93.536,1029.668z"/>
				<path d="M1029.668,1584.464c-11.578,0-11.579-16.597,0.013-16.597C1041.266,1567.876,1041.26,1584.473,1029.668,1584.464z"/>
			</g>
		</g>
		<g>
			<path d="M917.384,169.607l2.1,5.563c47.077-17.709,85.485,14.59,117.765,53.906l0,0c31.371,38.047,62.881,95.282,118.03,124.318
				l0,0l2.766-5.257c-53.146-27.84-84.381-84.036-116.205-122.833l0,0c-26.721-32.429-58.039-60.961-96.034-61.065l0,0
				C936.637,164.238,927.152,165.936,917.384,169.607L917.384,169.607z"/>
			<path d="M169.607,760.616l5.563-2.1c-17.709-47.077,14.59-85.485,53.906-117.765l0,0c38.047-31.371,95.282-62.881,124.318-118.03
				l0,0l-5.257-2.766c-27.84,53.146-84.036,84.381-122.833,116.205l0,0c-32.429,26.721-60.961,58.039-61.065,96.034l0,0
				C164.238,741.363,165.936,750.848,169.607,760.616L169.607,760.616z"/>
			<path d="M760.616,1508.393l-2.1-5.563c-47.077,17.709-85.485-14.59-117.765-53.906l0,0
				c-31.371-38.047-62.881-95.282-118.03-124.318l0,0l-2.766,5.257c53.146,27.84,84.381,84.036,116.205,122.833l0,0
				c26.721,32.429,58.039,60.961,96.034,61.065l0,0C741.363,1513.762,750.848,1512.064,760.616,1508.393L760.616,1508.393z"/>
			<path d="M1508.393,917.384l-5.563,2.1c17.709,47.077-14.59,85.485-53.906,117.765l0,0
				c-38.047,31.371-95.282,62.881-124.318,118.03l0,0l5.257,2.766c27.84-53.146,84.036-84.381,122.833-116.205l0,0
				c32.429-26.721,60.961-58.039,61.065-96.034l0,0C1513.762,936.637,1512.064,927.152,1508.393,917.384L1508.393,917.384z"/>
			<path d="M1508.393,760.616l-5.563-2.1c17.709-47.077-14.59-85.485-53.906-117.765l0,0
				c-38.047-31.371-95.282-62.881-124.318-118.03l0,0l5.257-2.766c27.84,53.146,84.036,84.381,122.833,116.205l0,0
				c32.429,26.721,60.961,58.039,61.065,96.034l0,0C1513.762,741.363,1512.064,750.848,1508.393,760.616L1508.393,760.616z"/>
			<path d="M760.616,169.607l-2.1,5.563c-47.077-17.709-85.485,14.59-117.765,53.906l0,0
				c-31.371,38.047-62.881,95.282-118.03,124.318l0,0l-2.766-5.257c53.146-27.84,84.381-84.036,116.205-122.833l0,0
				c26.721-32.429,58.039-60.961,96.034-61.065l0,0C741.363,164.238,750.848,165.936,760.616,169.607L760.616,169.607z"/>
			<path d="M169.607,917.384l5.563,2.1c-17.709,47.077,14.59,85.485,53.906,117.765l0,0c38.047,31.371,95.282,62.881,124.318,118.03
				l0,0l-5.257,2.766c-27.84-53.146-84.036-84.381-122.833-116.205l0,0c-32.429-26.721-60.961-58.039-61.065-96.034l0,0
				C164.238,936.637,165.936,927.152,169.607,917.384L169.607,917.384z"/>
			<path d="M917.384,1508.393l2.1-5.563c47.077,17.709,85.485-14.59,117.765-53.906l0,0c31.371-38.047,62.881-95.282,118.03-124.318
				l0,0l2.766,5.257c-53.146,27.84-84.381,84.036-116.205,122.833l0,0c-26.721,32.429-58.039,60.961-96.034,61.065l0,0
				C936.637,1513.762,927.152,1512.064,917.384,1508.393L917.384,1508.393z"/>
		</g>
		<g>
			<path d="M1180.275,143.154c-52.869,4.012-93.1,48.132-93.1,100.304l0,0c0,2.556,0.094,5.127,0.292,7.706l0,0
				c4.976,65.705,59.823,115.684,124.65,115.684c82.248,0,152.193-68.779,152.183-155.393l0,0c0-4.016-0.148-8.068-0.456-12.149l0,0
				l-5.927,0.449c0.296,3.929,0.441,7.834,0.441,11.699l0,0c-0.007,77.505-58.611,143.161-137.111,149.098l0,0
				c-3.068,0.239-6.112,0.355-9.13,0.355l0,0c-61.729,0-113.995-47.619-118.723-110.194l0,0c-0.189-2.436-0.281-4.854-0.281-7.256
				l0,0c0-49.634,40.206-94.588,93.386-94.588c38.939-0.006,71.913,30.047,74.894,69.514l0,0c0.117,1.541,0.17,3.056,0.17,4.569l0,0
				c0,30.852-23.803,56.985-55.068,59.337l0,0l0.441,5.923c34.405-2.607,60.569-31.314,60.569-65.26l0,0
				c0-1.658-0.056-3.333-0.188-5.018l0,0c-3.235-42.586-38.781-75.007-80.817-75.007l0,0c-0.104,0-0.204,0-0.311,0l0,0
				C1184.234,142.928,1182.26,143,1180.275,143.154L1180.275,143.154z"/>
			<path d="M143.154,497.725c4.012,52.869,48.132,93.1,100.304,93.1l0,0c2.556,0,5.127-0.094,7.706-0.292l0,0
				c65.705-4.976,115.684-59.823,115.684-124.65c0-82.248-68.779-152.193-155.393-152.183l0,0c-4.016,0-8.068,0.148-12.149,0.456
				l0,0l0.449,5.927c3.929-0.296,7.834-0.441,11.699-0.441l0,0c77.505,0.007,143.161,58.611,149.098,137.111l0,0
				c0.239,3.068,0.355,6.112,0.355,9.13l0,0c0,61.729-47.619,113.995-110.194,118.723l0,0c-2.436,0.189-4.854,0.281-7.256,0.281l0,0
				c-49.634,0-94.588-40.206-94.588-93.386c-0.006-38.939,30.047-71.913,69.514-74.894l0,0c1.541-0.117,3.056-0.17,4.569-0.17l0,0
				c30.852,0,56.985,23.803,59.337,55.068l0,0l5.923-0.441c-2.607-34.405-31.314-60.569-65.26-60.569l0,0
				c-1.658,0-3.333,0.057-5.018,0.189l0,0c-42.586,3.235-75.007,38.781-75.007,80.817l0,0c0,0.104,0,0.204,0,0.311l0,0
				C142.928,493.766,143,495.74,143.154,497.725L143.154,497.725z"/>
			<path d="M497.725,1534.846c52.869-4.012,93.1-48.132,93.1-100.304l0,0c0-2.556-0.094-5.127-0.292-7.706l0,0
				c-4.976-65.705-59.823-115.684-124.65-115.684c-82.248,0-152.193,68.779-152.183,155.393l0,0c0,4.016,0.148,8.068,0.456,12.149
				l0,0l5.927-0.449c-0.296-3.93-0.441-7.834-0.441-11.699l0,0c0.007-77.505,58.611-143.161,137.111-149.098l0,0
				c3.068-0.239,6.112-0.355,9.13-0.355l0,0c61.729,0,113.995,47.619,118.723,110.194l0,0c0.189,2.436,0.281,4.854,0.281,7.256l0,0
				c0,49.634-40.206,94.588-93.386,94.588c-38.939,0.006-71.913-30.047-74.894-69.514l0,0c-0.117-1.541-0.17-3.056-0.17-4.569l0,0
				c0-30.852,23.803-56.985,55.068-59.337l0,0l-0.441-5.923c-34.405,2.607-60.569,31.314-60.569,65.26l0,0
				c0,1.658,0.057,3.333,0.189,5.018l0,0c3.235,42.586,38.781,75.007,80.817,75.007l0,0c0.104,0,0.204,0,0.311,0l0,0
				C493.766,1535.072,495.74,1535,497.725,1534.846L497.725,1534.846z"/>
			<path d="M1534.846,1180.275c-4.012-52.869-48.132-93.1-100.304-93.1l0,0c-2.556,0-5.127,0.094-7.706,0.292l0,0
				c-65.705,4.976-115.684,59.823-115.684,124.65c0,82.248,68.779,152.193,155.393,152.183l0,0c4.016,0,8.068-0.148,12.149-0.456
				l0,0l-0.449-5.927c-3.93,0.296-7.834,0.441-11.699,0.441l0,0c-77.505-0.007-143.161-58.611-149.098-137.111l0,0
				c-0.239-3.068-0.355-6.112-0.355-9.13l0,0c0-61.729,47.619-113.995,110.194-118.723l0,0c2.436-0.189,4.854-0.281,7.256-0.281l0,0
				c49.634,0,94.588,40.206,94.588,93.386c0.006,38.939-30.047,71.913-69.514,74.894l0,0c-1.541,0.117-3.056,0.17-4.569,0.17l0,0
				c-30.852,0-56.985-23.803-59.337-55.068l0,0l-5.923,0.441c2.607,34.405,31.314,60.569,65.26,60.569l0,0
				c1.658,0,3.333-0.056,5.018-0.188l0,0c42.586-3.235,75.007-38.781,75.007-80.817l0,0c0-0.104,0-0.204,0-0.311l0,0
				C1535.072,1184.234,1535,1182.26,1534.846,1180.275L1534.846,1180.275z"/>
			<path d="M1534.846,497.725c-4.012,52.869-48.132,93.1-100.304,93.1l0,0c-2.556,0-5.127-0.094-7.706-0.292l0,0
				c-65.705-4.976-115.684-59.823-115.684-124.65c0-82.248,68.779-152.193,155.393-152.183l0,0c4.016,0,8.068,0.148,12.149,0.456
				l0,0l-0.449,5.927c-3.93-0.296-7.834-0.441-11.699-0.441l0,0c-77.505,0.007-143.161,58.611-149.098,137.111l0,0
				c-0.239,3.068-0.355,6.112-0.355,9.13l0,0c0,61.729,47.619,113.995,110.194,118.723l0,0c2.436,0.189,4.854,0.281,7.256,0.281l0,0
				c49.634,0,94.588-40.206,94.588-93.386c0.006-38.939-30.047-71.913-69.514-74.894l0,0c-1.541-0.117-3.056-0.17-4.569-0.17l0,0
				c-30.852,0-56.985,23.803-59.337,55.068l0,0l-5.923-0.441c2.607-34.405,31.314-60.569,65.26-60.569l0,0
				c1.658,0,3.333,0.057,5.018,0.189l0,0c42.586,3.235,75.007,38.781,75.007,80.817l0,0c0,0.104,0,0.204,0,0.311l0,0
				C1535.072,493.766,1535,495.74,1534.846,497.725L1534.846,497.725z"/>
			<path d="M497.725,143.154c52.869,4.012,93.1,48.132,93.1,100.304l0,0c0,2.556-0.094,5.127-0.292,7.706l0,0
				c-4.976,65.705-59.823,115.684-124.65,115.684c-82.248,0-152.193-68.779-152.183-155.393l0,0c0-4.016,0.148-8.068,0.456-12.149
				l0,0l5.927,0.449c-0.296,3.929-0.441,7.834-0.441,11.699l0,0c0.007,77.505,58.611,143.161,137.111,149.098l0,0
				c3.068,0.239,6.112,0.355,9.13,0.355l0,0c61.729,0,113.995-47.619,118.723-110.194l0,0c0.189-2.436,0.281-4.854,0.281-7.256l0,0
				c0-49.634-40.206-94.588-93.386-94.588c-38.939-0.006-71.913,30.047-74.894,69.514l0,0c-0.117,1.541-0.17,3.056-0.17,4.569l0,0
				c0,30.852,23.803,56.985,55.068,59.337l0,0l-0.441,5.923c-34.405-2.607-60.569-31.314-60.569-65.26l0,0
				c0-1.658,0.057-3.333,0.189-5.018l0,0c3.235-42.586,38.781-75.007,80.817-75.007l0,0c0.104,0,0.204,0,0.311,0l0,0
				C493.766,142.928,495.74,143,497.725,143.154L497.725,143.154z"/>
			<path d="M143.154,1180.275c4.012-52.869,48.132-93.1,100.304-93.1l0,0c2.556,0,5.127,0.094,7.706,0.292l0,0
				c65.705,4.976,115.684,59.823,115.684,124.65c0,82.248-68.779,152.193-155.393,152.183l0,0c-4.016,0-8.068-0.148-12.149-0.456
				l0,0l0.449-5.927c3.929,0.296,7.834,0.441,11.699,0.441l0,0c77.505-0.007,143.161-58.611,149.098-137.111l0,0
				c0.239-3.068,0.355-6.112,0.355-9.13l0,0c0-61.729-47.619-113.995-110.194-118.723l0,0c-2.436-0.189-4.854-0.281-7.256-0.281l0,0
				c-49.634,0-94.588,40.206-94.588,93.386c-0.006,38.939,30.047,71.913,69.514,74.894l0,0c1.541,0.117,3.056,0.17,4.569,0.17l0,0
				c30.852,0,56.985-23.803,59.337-55.068l0,0l5.923,0.441c-2.607,34.405-31.314,60.569-65.26,60.569l0,0
				c-1.658,0-3.333-0.056-5.018-0.188l0,0c-42.586-3.235-75.007-38.781-75.007-80.817l0,0c0-0.104,0-0.204,0-0.311l0,0
				C142.928,1184.234,143,1182.26,143.154,1180.275L143.154,1180.275z"/>
			<path d="M1180.275,1534.846c-52.869-4.012-93.1-48.132-93.1-100.304l0,0c0-2.556,0.094-5.127,0.292-7.706l0,0
				c4.976-65.705,59.823-115.684,124.65-115.684c82.248,0,152.193,68.779,152.183,155.393l0,0c0,4.016-0.148,8.068-0.456,12.149l0,0
				l-5.927-0.449c0.296-3.93,0.441-7.834,0.441-11.699l0,0c-0.007-77.505-58.611-143.161-137.111-149.098l0,0
				c-3.068-0.239-6.112-0.355-9.13-0.355l0,0c-61.729,0-113.995,47.619-118.723,110.194l0,0c-0.189,2.436-0.281,4.854-0.281,7.256
				l0,0c0,49.634,40.206,94.588,93.386,94.588c38.939,0.006,71.913-30.047,74.894-69.514l0,0c0.117-1.541,0.17-3.056,0.17-4.569l0,0
				c0-30.852-23.803-56.985-55.068-59.337l0,0l0.441-5.923c34.405,2.607,60.569,31.314,60.569,65.26l0,0
				c0,1.658-0.056,3.333-0.188,5.018l0,0c-3.235,42.586-38.781,75.007-80.817,75.007l0,0c-0.104,0-0.204,0-0.311,0l0,0
				C1184.234,1535.072,1182.26,1535,1180.275,1534.846L1180.275,1534.846z"/>
		</g>
	</g>
</g>
</svg>
