<?xml version="1.0" encoding="utf-8"?>
<!-- Generator: Adobe Illustrator 22.1.0, SVG Export Plug-In . SVG Version: 6.00 Build 0)  -->
<svg version="1.1" id="图层_1" xmlns="http://www.w3.org/2000/svg" xmlns:xlink="http://www.w3.org/1999/xlink" x="0px" y="0px"
	 viewBox="0 0 2834.6 2834.6" style="enable-background:new 0 0 2834.6 2834.6;" xml:space="preserve">
<style type="text/css">
	.st0{fill:none;stroke:#000000;stroke-linejoin:round;stroke-miterlimit:10;}
	.st1{fill:none;stroke:#000000;stroke-width:3;stroke-linejoin:round;stroke-miterlimit:10;}
</style>
<g id="图层_2_x5F_复制">
	<g>
		<g>
			<g>
				<g>
					<path class="st0" d="M1350.8,1208.7c2.2,19.3,8.4,50.6,11.7,66.8c11.7,56.7,31.5,85.2,31.5,85.2s-26.5-44-42.2-65.2
						c-7.8-10.5-29.3-38.1-57.2-58.2"/>
				</g>
				<g>
					<path class="st0" d="M1257.2,1185.9c27.7,16.9,51.3,40.1,61.5,51.1c18.7,20.1,45,64.5,45,64.5s-22.2-34.9-28.4-91.4
						c-1.9-16.8-4.7-46.1-4.9-64.1"/>
				</g>
				<g>
					<path class="st0" d="M1219.7,1134.5c27.6,13.6,53,32.4,65.9,43.9c21.5,19.2,47.7,63.9,47.7,63.9s-24.2-41.4-25.3-97.7
						c-0.3-17.5,0.2-44.8,2-61.3"/>
				</g>
				<g>
					<path class="st0" d="M1182.2,1083.1c27.5,10.4,54.7,24.9,70.2,36.7c24.1,18.4,50.5,63.2,50.5,63.2s-26.1-48.1-22.2-103.9
						c1.3-18.2,5-43.4,8.9-58.6"/>
				</g>
				<g>
					<path class="st0" d="M1144.8,1031.7c27.3,7.1,56.2,17.3,74.5,29.6c26.5,17.7,53.3,62.6,53.3,62.6s-27.6-54.8-19.1-110.2
						c2.9-19,9.9-42.1,15.7-55.8"/>
				</g>
				<g>
					<path class="st0" d="M1107.3,980.3c27.2,3.9,57.8,9.9,78.8,22.4c28.9,17.2,56,61.9,56,61.9s-29-61.5-16-116.5
						c4.7-19.7,14.8-40.7,22.6-53.1"/>
				</g>
				<g>
					<path class="st0" d="M1069.8,928.9c27,0.7,59.3,2.5,83.2,15.2c31.3,16.7,58.8,61.3,58.8,61.3s-30.1-68.1-12.9-122.7
						c6.5-20.5,19.6-39.4,29.5-50.3"/>
				</g>
				<g>
					<path class="st0" d="M1032.4,877.5c26.9-2.6,60.8-4.8,87.5,8.1c33.7,16.3,61.6,60.6,61.6,60.6s-31.2-74.7-9.8-129
						c8.3-21.2,24.5-38,36.3-47.6"/>
				</g>
				<g>
					<path class="st0" d="M994.9,826.1c26.7-5.8,62.3-12.1,91.8,0.9c36.1,15.9,64.4,60,64.4,60s-32.1-81.1-6.7-135.2
						c10.3-21.8,29.4-36.7,43.2-44.8"/>
				</g>
				<g>
					<path class="st0" d="M957.5,774.7c26.6-9.1,63.8-19.3,96.1-6.2c38.5,15.5,67.1,59.3,67.1,59.3s-32.9-87.5-3.5-141.5
						c12.2-22.4,34.2-35.3,50.1-42.1"/>
				</g>
				<g>
					<path class="st0" d="M920,723.3c26.5-12.3,65.3-26.5,100.5-13.4c40.9,15.2,69.9,58.7,69.9,58.7s-33.8-93.7-0.4-147.7
						c14.2-23,39.1-33.9,56.9-39.3"/>
				</g>
				<g>
					<path class="st0" d="M882.5,671.9c26.3-15.6,66.8-33.7,104.8-20.6c43.3,14.9,72.7,58,72.7,58s-34.6-99.9,2.7-154
						c16.2-23.5,43.9-32.6,63.8-36.6"/>
				</g>
			</g>
			<g>
				<path class="st0" d="M637.2,335.3c50.8,17.8,114.9,32.5,143.8,2.7c36-37.2,21-134,21-134s54.9,73.2,101,73
					c40.6-0.2,74.9-64,101.2-134.4"/>
			</g>
			<g>
				<path class="st0" d="M833,271"/>
			</g>
			<g>
				<path class="st0" d="M1004.2,142.6c-13.2,41.6-26.5,83.3-39.7,124.9c-33.3,104.8-66.6,209.7-99.9,314.5
					c-4.8,15.2-9.6,30.3-14.4,45.5c0.2-8.1,0.1-36.5-20.2-63c-18.6-24.3-42.9-32.4-51.1-34.8"/>
			</g>
			<g>
				<path class="st0" d="M1079.6,374.6c-9.2,17.8-17.3,41.8-10.1,65.4c10.8,35.5,50,49.1,48.6,52.8c-2.3,5.9-103.9-24.1-480.8-157.5
					"/>
			</g>
			<g>
				<line class="st0" x1="912.5" y1="431.2" x2="1071" y2="348"/>
			</g>
			<g>
				<line class="st0" x1="912.5" y1="431.2" x2="764.4" y2="509.8"/>
			</g>
			<g>
				<path class="st0" d="M1003.9,463c-8.8,2.5-28.7,1-38,15.9c-10.4,16.6-4.4,39.1-4.4,39.1s-19-27.2-37.5-27c-19.5,0.2-40,31-40,31
					s0.6-39.1-15.5-49c-10.7-6.6-29.4-2.8-29.4-2.8s10.6-18.7,8.4-34.7c-3-21.7-34-38.4-34-38.4s35.7,2.6,49-13.1
					c13.8-16.3,3-53,3-53s14.9,25.8,32.5,27.5c21.3,2,47.5-32.5,47.5-32.5s-5.3,42.4,11,55.5c14.6,11.8,47.4,1.7,47.4,1.7
					s-24.4,18.2-24.7,40.3C979,442,997.2,455.2,1003.9,463z"/>
			</g>
			<g>
				<path class="st0" d="M839,274c0,0,28.5,40.6,57,41c32.6,0.5,68.5-53,68.5-53s-1.4,61.7,26.5,83c25.2,19.2,74.1,6.1,74.1,6.1
					s-49.6,33.3-49.1,64.9c0.6,32.5,54.3,66.5,54.3,66.5s-64.1-2.1-82.3,24.5c-15.8,23.1,1,69,1,69s-34.7-40.6-66-38
					c-31.3,2.6-59.7,48.3-59.7,48.3s4.2-61.9-21.8-80.8c-18.7-13.5-53.2-8.4-53.2-8.4s24.5-33.8,20.7-61.1
					c-4.8-34.8-60.8-61.6-60.8-61.6s59.5,5.1,81.8-21.4C851.3,327.7,839,274,839,274z"/>
			</g>
			<g>
				<path class="st0" d="M1118.1,492.8c-25.8-2.9-58.3-2.2-76.7,17.9c-36.7,40-12,138.7-12,138.7s-58-76.2-111.3-74
					c-29.3,1.2-52.3,28.2-67.8,52.2"/>
			</g>
			<g>
				<path class="st0" d="M888.8,384.3c0,0,11.4,10.7,19,10c10.5-1,20.5-11.8,20.5-11.8s-2.8,14.8,3.3,21.8c6,6.8,20.6,6.2,20.6,6.2
					s-12.6,8.8-12.6,17.3c0,7.2,8.5,15.4,8.5,15.4s-10.6,2.2-14,7.8c-3.9,6.4,1.5,18,1.5,18s-9.5-12.5-18.8-12
					c-7.8,0.4-15.5,9.3-15.5,9.3s0.4-11.5-4.8-15.8c-5.1-4.3-16.6-2-16.6-2s5.4-9.4,3.6-17.3c-1.7-7.6-10.1-13.4-10.1-13.4
					s13.3-3.6,18.1-10.8C895.4,401.1,888.8,384.3,888.8,384.3z"/>
			</g>
			<g>
				<path class="st0" d="M1016.3,179.9c-2.4,3.4-29,42.1-12.3,88.1c15.3,42.5,54.9,56.4,59.9,58.1"/>
			</g>
			<g>
				<path class="st0" d="M661.1,368.1c32.8-3.8,64.9,10.8,82.9,37.9c26,39.2,7.4,81.8,6.2,84.4"/>
			</g>
		</g>
		<g>
			<g>
				<g>
					<path class="st0" d="M1350.8,1208.7c9.6,16.9,23,45.9,29.8,60.9c23.9,52.7,24.6,87.4,24.6,87.4s-4.5-51.2-4.2-77.5
						c0.1-13,1.3-48.1,12-80.7"/>
				</g>
				<g>
					<path class="st0" d="M1413.1,1135.2c-12.5,30-17.9,62.6-19.7,77.5c-3.4,27.3,1.6,78.6,1.6,78.6s-2.6-41.2-30.8-90.6
						c-8.4-14.7-23.3-40.1-33.7-54.7"/>
				</g>
				<g>
					<path class="st0" d="M1413.2,1071.6c-14.3,27.3-23.8,57.4-27.5,74.2c-6.1,28.1-1.1,79.7-1.1,79.7s-4.7-47.7-37-93.9
						c-10-14.3-26.5-36.1-37.7-48.4"/>
				</g>
				<g>
					<path class="st0" d="M1413.2,1008c-16.1,24.5-29.6,52.2-35.2,71c-8.6,29-3.7,80.8-3.7,80.8s-7.2-54.2-43.2-97.1
						c-11.7-14-29.6-32.2-41.6-42.2"/>
				</g>
				<g>
					<path class="st0" d="M1413.3,944.4c-17.9,21.8-35.3,47.1-42.9,67.7c-11,30-6.3,81.9-6.3,81.9s-9.9-60.6-49.4-100.3
						c-13.5-13.6-32.7-28.2-45.6-35.9"/>
				</g>
				<g>
					<path class="st0" d="M1413.4,880.8c-19.7,19.1-40.9,42-50.6,64.5c-13.3,30.9-8.9,83-8.9,83s-12.7-66.8-55.6-103.6
						c-15.4-13.2-35.9-24.3-49.5-29.6"/>
				</g>
				<g>
					<path class="st0" d="M1413.5,817.2c-21.5,16.4-46.5,36.9-58.3,61.2c-15.5,31.9-11.5,84.1-11.5,84.1s-15.7-72.8-61.8-106.8
						c-17.3-12.7-39-20.3-53.4-23.4"/>
				</g>
				<g>
					<path class="st0" d="M1413.5,753.6c-23.3,13.7-52,31.9-66,58c-17.7,33-14.2,85.2-14.2,85.2s-18.7-78.7-67.9-110.1
						c-19.2-12.2-42.2-16.3-57.4-17.1"/>
				</g>
				<g>
					<path class="st0" d="M1413.6,690c-25.1,11-57.5,26.9-73.7,54.7c-19.9,34.1-16.8,86.3-16.8,86.3s-21.7-84.5-74.1-113.3
						c-21.1-11.6-45.3-12.4-61.3-10.9"/>
				</g>
				<g>
					<path class="st0" d="M1413.7,626.4c-26.9,8.3-62.9,21.9-81.4,51.5c-22,35.2-19.4,87.4-19.4,87.4s-24.8-90.1-80.3-116.5
						c-23.1-11-48.4-8.4-65.3-4.6"/>
				</g>
				<g>
					<path class="st0" d="M1413.8,562.8c-28.6,5.6-68.4,16.9-89.1,48.2c-24.1,36.4-22,88.5-22,88.5s-27.8-95.7-86.5-119.8
						c-25-10.3-51.6-4.5-69.2,1.7"/>
				</g>
				<g>
					<path class="st0" d="M1413.9,499.2c-30.4,2.9-73.8,12-96.9,45c-26.3,37.5-24.7,89.6-24.7,89.6s-30.8-101.1-92.7-123
						c-26.9-9.5-54.7-0.5-73.1,7.9"/>
				</g>
			</g>
			<g>
				<path class="st0" d="M1414.4,82.7c-30.7,44.3-73.8,93.9-114.7,86.7c-51-8.9-95.8-96-95.8-96s-1.4,91.5-38.8,118.4
					c-32.9,23.7-98.2-7.7-160.9-49.2"/>
			</g>
			<g>
				<path class="st0" d="M1218.2,145.8"/>
			</g>
			<g>
				<path class="st0" d="M1004.2,142.6c35.2,25.9,70.4,51.8,105.6,77.7c88.6,65.2,177.2,130.4,265.7,195.6
					c12.8,9.4,25.6,18.9,38.4,28.3c-5-6.4-21.5-29.4-20.7-62.8c0.7-30.6,15.6-51.4,20.9-58.2"/>
			</g>
			<g>
				<path class="st0" d="M1079.6,374.6c17.9,9,38.6,23.6,46.6,46.9c12.1,35.1-11.5,69.1-8.2,71.3c5.3,3.5,69.9-80.6,296.3-410.1"/>
			</g>
			<g>
				<line class="st0" x1="1248.1" y1="322.1" x2="1071" y2="348"/>
			</g>
			<g>
				<line class="st0" x1="1248.1" y1="322.1" x2="1414.1" y2="298.6"/>
			</g>
			<g>
				<path class="st0" d="M1192.9,401.6c8.6-3.1,23.8-16.1,40.1-9.5c18.1,7.3,26.5,29.1,26.5,29.1s-0.6-33.2,14.5-43.9
					c15.9-11.3,50.6,1.6,50.6,1.6s-23.5-31.3-16.3-48.7c4.8-11.6,22.1-19.6,22.1-19.6s-19.6-8.9-27.2-23.1c-10.4-19.3,5-51,5-51
					s-27.4,23.1-47.4,18.2c-20.8-5.1-33.6-41.1-33.6-41.1s3.1,29.7-10.1,41.4c-16.1,14.2-57.5,1.6-57.5,1.6s29.2,31.2,23.7,51.4
					c-4.9,18.1-37.3,29.3-37.3,29.3s30.4,0.4,43.6,18.1C1200.7,369.9,1193.7,391.3,1192.9,401.6z"/>
			</g>
			<g>
				<path class="st0" d="M1215.1,151.7c0,0,0.8,49.6-22,66.7c-26.1,19.6-86.6-2.6-86.6-2.6s37.4,49.1,27.4,82.7
					c-9.1,30.4-56.4,48.5-56.4,48.5s59.7-2.3,77.9,23.6c18.7,26.6-4.8,85.7-4.8,85.7s50.6-39.4,80.9-28.6
					c26.4,9.4,39.8,56.4,39.8,56.4s4.2-53.2,31-69.5c26.8-16.3,76.7,3.9,76.7,3.9s-39.8-47.6-29.9-78.1
					c7.2-21.9,38.1-38.1,38.1-38.1s-39.6-12.9-52.7-37.3c-16.6-31,12.9-85.6,12.9-85.6s-45.2,39.1-78.7,30.8
					C1236.7,202.4,1215.1,151.7,1215.1,151.7z"/>
			</g>
			<g>
				<path class="st0" d="M1118.1,492.8c19.1-17.5,45.8-36.1,72.6-30.7c53.2,10.8,91.2,105.1,91.2,105.1s2.1-95.7,46.5-125.3
					c24.4-16.3,58.9-8,85.5,2.3"/>
			</g>
			<g>
				<path class="st0" d="M1239.7,270.2c0,0-3,15.4-9.5,19.3c-9.1,5.4-23.5,2.5-23.5,2.5s11,10.3,10.2,19.5c-0.8,9-13,17.1-13,17.1
					s15.3-0.3,20.4,6.6c4.2,5.8,2.2,17.5,2.2,17.5s9.8-4.4,15.9-1.9c7,2.9,9.4,15.4,9.4,15.4s0.3-15.7,8.1-20.7
					c6.5-4.2,18-1.6,18-1.6s-7.1-9.1-5.4-15.5c1.6-6.5,12.3-11.4,12.3-11.4s-9.9-4.4-13.1-11.8c-3.1-7.2,0.3-16.8,0.3-16.8
					s-12.9,4.9-21,1.9C1244.2,287.7,1239.7,270.2,1239.7,270.2z"/>
			</g>
			<g>
				<path class="st0" d="M1016.3,179.9c4,1.3,48.2,17,61.8,64c12.6,43.4-11.2,77.9-14.3,82.2"/>
			</g>
			<g>
				<path class="st0" d="M1414.3,123.3c-28.8,16.2-46.1,46.9-44.8,79.4c2,47,42.1,70.5,44.6,71.9"/>
			</g>
		</g>
	</g>
	<g>
		<g>
			<g>
				<g>
					<path class="st0" d="M1250.5,1281.6c13.1,14.3,36.6,36,48.8,47.1c42.8,39,75.5,50.4,75.5,50.4s-47.3-20.1-72.4-27.9
						c-12.5-3.9-46.1-13.6-80.5-13.5"/>
				</g>
				<g>
					<path class="st0" d="M1161.4,1318.1c32.4-2.7,65,2.3,79.8,5.1c27,5.2,74.3,25.8,74.3,25.8s-38.4-15.2-76.7-57.3
						c-11.4-12.5-30.9-34.6-41.6-49"/>
				</g>
				<g>
					<path class="st0" d="M1100.9,1298.6c30.3-5.2,61.9-4.9,79.1-3.2c28.7,2.9,76.1,23.6,76.1,23.6s-43.9-19.3-77.9-64.2
						c-10.6-14-26.2-36.3-34.4-50.8"/>
				</g>
				<g>
					<path class="st0" d="M1040.3,1279c28.3-7.7,58.9-13.7,78.4-11.5c30.1,3.4,78,21.5,78,21.5s-49.3-23.6-79-71.1
						c-9.7-15.5-21.5-38.1-27.2-52.6"/>
				</g>
				<g>
					<path class="st0" d="M979.8,1259.4c26.3-10.3,55.7-20.9,77.7-19.9c31.9,1.5,79.9,19.3,79.9,19.3s-54.5-28.1-80.2-77.9
						c-8.8-17.1-16.7-39.9-20.1-54.4"/>
				</g>
				<g>
					<path class="st0" d="M919.3,1239.9c24.3-12.8,52.6-25.9,76.9-28.2c33.5-3.1,81.7,17.1,81.7,17.1s-59.6-32.7-81.4-84.8
						c-7.8-18.7-12-41.6-12.9-56.2"/>
				</g>
				<g>
					<path class="st0" d="M858.8,1220.3c22.3-15.4,49.5-32.8,76.2-36.6c35.2-4.9,83.6,15,83.6,15s-64.4-37.4-82.5-91.7
						c-6.8-20.4-7.3-43.4-5.7-58"/>
				</g>
				<g>
					<path class="st0" d="M798.3,1200.7c20.2-17.9,46.4-39.6,75.5-44.9c36.8-6.7,85.4,12.8,85.4,12.8s-69.1-42.1-83.7-98.6
						c-5.7-22-2.5-45.1,1.4-59.9"/>
				</g>
				<g>
					<path class="st0" d="M737.8,1181.2c18.2-20.4,43.3-46.4,74.8-53.2c38.5-8.4,87.3,10.7,87.3,10.7s-73.6-46.8-84.9-105.5
						c-4.5-23.7,2.2-46.9,8.6-61.7"/>
				</g>
				<g>
					<path class="st0" d="M677.2,1161.6c16.2-23,40.3-53.1,74.1-61.6c40.3-10.1,89.2,8.5,89.2,8.5s-78.1-51.4-86-112.4
						c-3.3-25.3,6.9-48.7,15.8-63.5"/>
				</g>
				<g>
					<path class="st0" d="M616.7,1142c14.2-25.5,37.2-59.8,73.4-69.9c42-11.7,91,6.4,91,6.4s-82.4-56-87.2-119.3
						c-2-26.9,11.7-50.4,22.9-65.3"/>
				</g>
				<g>
					<path class="st0" d="M556.2,1122.5c12.1-28.1,34.2-66.5,72.7-78.2c43.8-13.4,92.9,4.2,92.9,4.2s-86.7-60.5-88.4-126.2
						c-0.7-28.5,16.4-52.2,30.1-67.1"/>
				</g>
			</g>
			<g>
				<path class="st0" d="M159.9,994.4c51.6-15.5,112.1-41.2,117.9-82.3c7.3-51.3-61.8-120.8-61.8-120.8s87.5,27,124.6-0.3
					c32.7-24,23-95.8,2.9-168.2"/>
			</g>
			<g>
				<path class="st0" d="M280.5,827.3"/>
			</g>
			<g>
				<path class="st0" d="M343.5,622.8c13.8,41.5,27.6,82.9,41.3,124.4c34.7,104.4,69.4,208.8,104,313.2c5,15.1,10,30.2,15,45.3
					c-4.6-6.7-21.3-29.6-53.4-39.1c-29.3-8.7-53.7-1-61.8,1.9"/>
			</g>
			<g>
				<path class="st0" d="M540.9,766.1c3.1,19.8,10.5,44,30.2,58.9c29.6,22.4,69.3,10.4,70.3,14.2c1.7,6.1-98.3,41.6-481.6,155.2"/>
			</g>
			<g>
				<line class="st0" x1="439" y1="910.1" x2="518.3" y2="749.7"/>
			</g>
			<g>
				<line class="st0" x1="439" y1="910.1" x2="365.3" y2="1060.8"/>
			</g>
			<g>
				<path class="st0" d="M531.6,882.1c-5.6,7.2-22.7,17.6-21.4,35.2c1.4,19.5,19.5,34.2,19.5,34.2s-31.4-10.9-46.2,0.2
					c-15.6,11.6-14.1,48.6-14.1,48.6s-22.5-32-41.3-30.5c-12.5,1-25.5,15-25.5,15s-2.5-21.4-13.6-33c-15.2-15.8-50.1-11-50.1-11
					s30.4-18.9,32-39.5c1.6-21.3-28.7-44.6-28.7-44.6s27.3,12.1,42.5,3.1c18.4-10.9,19.3-54.2,19.3-54.2s20.6,37.4,41.5,38.4
					c18.7,0.9,39.4-26.5,39.4-26.5s-9,29,3.7,47.1C499.1,879.8,521.6,879.7,531.6,882.1z"/>
			</g>
			<g>
				<path class="st0" d="M287.1,826.2c0,0,46.9,16.1,70.2-0.3c26.7-18.8,24.3-83.2,24.3-83.2s35.2,50.7,70.2,51.6
					c31.7,0.8,63.5-38.6,63.5-38.6s-20.6,56.1-1.6,81.4c19.6,26,83,21.9,83,21.9s-53.1,36-52.2,68.2c0.8,28,41.4,55.2,41.4,55.2
					s-51.9-12.4-75.7,8.1c-23.8,20.5-19.9,74.1-19.9,74.1s-33-52.6-65.1-52.5c-23,0.1-48,24.5-48,24.5s-0.1-41.7-19.2-61.6
					c-24.3-25.3-85.4-14.1-85.4-14.1s51.1-30.9,53.6-65.4C328.6,862.4,287.1,826.2,287.1,826.2z"/>
			</g>
			<g>
				<path class="st0" d="M641.5,839.2c-22.6,12.8-48.5,32.4-51.6,59.5c-6.2,53.9,71.8,119.2,71.8,119.2s-91.7-27.5-133.6,5.6
					c-23,18.2-25.8,53.6-24.2,82.1"/>
			</g>
			<g>
				<path class="st0" d="M392.2,886.1c0,0,15.5,1.9,21.2-3.1c8-7,9.7-21.6,9.7-21.6s6.4,13.7,15.4,15.7c8.8,2,20.3-7.1,20.3-7.1
					s-5,14.5,0,21.4c4.2,5.8,16,7.5,16,7.5s-7.3,8-6.8,14.6c0.6,7.5,11.8,13.7,11.8,13.7s-15-4.5-22.2,1.3
					c-6.1,4.9-7.1,16.6-7.1,16.6s-6.4-9.5-13.1-10c-6.6-0.4-14.6,8.2-14.6,8.2s-1.2-10.8-7.2-16.1c-5.9-5.1-16.1-4.9-16.1-4.9
					s8.6-10.7,8.3-19.4C407.5,895.9,392.2,886.1,392.2,886.1z"/>
			</g>
			<g>
				<path class="st0" d="M375.3,645.8c0,4.2,1.3,51.1,41.8,78.5c37.4,25.3,77.6,13.4,82.6,11.8"/>
			</g>
			<g>
				<path class="st0" d="M198.5,1006.9c24.3-22.4,58.9-29.4,89.3-18.1c44.1,16.4,54.1,61.9,54.6,64.6"/>
			</g>
		</g>
		<g>
			<g>
				<g>
					<path class="st0" d="M1250.5,1281.6c17.7,8,45.6,23.6,59.9,31.8c50.3,28.6,71.3,56.3,71.3,56.3s-33.7-38.8-49-60.2
						c-7.6-10.6-27.2-39.7-37.7-72.4"/>
				</g>
				<g>
					<path class="st0" d="M1257.7,1185.5c7.5,31.6,22.3,61.1,29.6,74.3c13.3,24,47.5,62.7,47.5,62.7s-26.3-31.8-78.2-55.2
						c-15.4-7-42.4-18.7-59.4-24.4"/>
				</g>
				<g>
					<path class="st0" d="M1220.4,1134c4.4,30.5,14.5,60.4,21.4,76.2c11.6,26.4,46,65.1,46,65.1s-31.9-35.8-85.1-54.2
						c-16.5-5.7-42.7-13.7-58.9-17"/>
				</g>
				<g>
					<path class="st0" d="M1183.1,1082.5c1.4,29.3,6.8,59.7,13.3,78.1c10.1,28.6,44.5,67.5,44.5,67.5s-37.7-39.6-92-53.2
						c-17.7-4.4-42.9-8.6-58.4-9.6"/>
				</g>
				<g>
					<path class="st0" d="M1145.8,1031c-1.6,28.2-0.9,58.8,5.1,80c8.7,30.7,43.1,70,43.1,70s-43.6-43.2-98.9-52.2
						c-19-3.1-43.1-3.6-57.9-2.3"/>
				</g>
				<g>
					<path class="st0" d="M1108.5,979.5c-4.7,27-8.4,58-3,81.9c7.4,32.8,41.6,72.4,41.6,72.4s-49.5-46.5-105.8-51.1
						c-20.2-1.7-43.3,1.5-57.5,5.1"/>
				</g>
				<g>
					<path class="st0" d="M1071.1,928c-7.7,25.9-15.9,57.2-11.2,83.8c6.2,35,40.1,74.9,40.1,74.9s-55.5-49.7-112.7-50.1
						c-21.5-0.2-43.5,6.5-57,12.5"/>
				</g>
				<g>
					<path class="st0" d="M1033.8,876.5c-10.8,24.8-23.3,56.3-19.3,85.7c5.1,37.1,38.6,77.3,38.6,77.3s-61.4-52.7-119.7-49.1
						c-22.7,1.4-43.7,11.6-56.5,19.9"/>
				</g>
				<g>
					<path class="st0" d="M996.5,825c-13.8,23.6-30.7,55.5-27.5,87.6c4,39.2,37.2,79.7,37.2,79.7s-67.2-55.6-126.6-48.1
						c-23.9,3-43.9,16.6-56,27.3"/>
				</g>
				<g>
					<path class="st0" d="M959.2,773.5c-16.8,22.5-38.1,54.7-35.6,89.5c2.9,41.4,35.7,82.2,35.7,82.2s-73-58.3-133.5-47.1
						c-25.1,4.7-44.1,21.6-55.5,34.6"/>
				</g>
				<g>
					<path class="st0" d="M921.9,722c-19.9,21.4-45.4,53.9-43.8,91.4c1.8,43.6,34.2,84.6,34.2,84.6s-78.7-61-140.4-46
						c-26.3,6.4-44.4,26.7-55,42"/>
				</g>
				<g>
					<path class="st0" d="M884.5,670.5c-22.9,20.2-52.6,53.1-51.9,93.3c0.8,45.8,32.7,87,32.7,87s-84.3-63.7-147.3-45
						c-27.4,8.1-44.6,31.7-54.5,49.4"/>
				</g>
			</g>
			<g>
				<path class="st0" d="M640.1,333.2c1.2,53.9-4.5,119.3-41.8,137.6c-46.5,22.8-133.9-21.4-133.9-21.4S517,524.2,502.6,568
					c-12.7,38.5-84,51.5-159.1,54.8"/>
			</g>
			<g>
				<path class="st0" d="M518.5,499.6"/>
			</g>
			<g>
				<path class="st0" d="M343.5,622.8c43.7,0.3,87.4,0.6,131.1,0.8c110,0.7,220,1.4,330,2.1c15.9,0.1,31.8,0.2,47.7,0.3
					c-7.8-2.3-34.7-11.1-53.7-38.6c-17.4-25.2-17.6-50.8-17.3-59.3"/>
			</g>
			<g>
				<path class="st0" d="M540.9,766.1c19.8-3.2,45.1-3.6,65.3,10.5c30.4,21.3,31.3,62.7,35.2,62.5c6.3-0.3,9.2-106.3-1.3-506"/>
			</g>
			<g>
				<line class="st0" x1="646.3" y1="624.7" x2="518.3" y2="749.7"/>
			</g>
			<g>
				<line class="st0" x1="646.3" y1="624.7" x2="766.8" y2="508"/>
			</g>
			<g>
				<path class="st0" d="M648.4,721.4c5.1-7.6,9.8-27,26.8-31.3c19-4.7,38.6,7.9,38.6,7.9s-20-26.5-14.1-44
					c6.2-18.5,41.8-28.5,41.8-28.5s-37.4-11.5-41.8-29.9c-2.9-12.2,6.4-28.8,6.4-28.8s-21.1,4.3-35.6-2.7c-19.7-9.5-26-44.2-26-44.2
					s-8.5,34.8-27.6,42.6c-19.8,8.1-51.3-13.5-51.3-13.5s20,22.2,16.1,39.4c-4.7,20.9-45.6,35.1-45.6,35.1s41.9,8.1,49.4,27.6
					c6.7,17.5-13,45.6-13,45.6s24.8-17.6,45.9-11C636.1,691.2,643,712.6,648.4,721.4z"/>
			</g>
			<g>
				<path class="st0" d="M519.5,506.2c0,0,29.8,39.6,21.4,66.9c-9.6,31.2-71.6,48.8-71.6,48.8s59.1,17.8,70.8,50.8
					C550.6,702.6,523,745,523,745s47-36.9,76.9-26.7c30.7,10.6,46.5,72.1,46.5,72.1s17.8-61.6,48.7-70.7
					c26.9-7.9,65.3,22.3,65.3,22.3s-27.9-45.6-15.8-74.5c12.1-29,64.3-41.9,64.3-41.9s-60.2-15.1-70.1-45.7
					c-7.1-21.9,8.4-53.2,8.4-53.2s-39.7,12.8-64.5,0.8c-31.6-15.3-39.8-76.8-39.8-76.8S629.5,509,597.4,522
					C566.8,534.5,519.5,506.2,519.5,506.2z"/>
			</g>
			<g>
				<path class="st0" d="M641.5,839.2c5.2-25.4,15.9-56.1,40.7-67.5c49.3-22.5,135.6,31.4,135.6,31.4s-54.5-78.6-36-128.7
					c10.2-27.5,42.9-41.1,70.6-48.4"/>
			</g>
			<g>
				<path class="st0" d="M609,587.5c0,0,6.6,14.2,3.6,21.2c-4.2,9.7-17.5,15.9-17.5,15.9s15,1.9,19.7,9.8c4.6,7.8-0.5,21.5-0.5,21.5
					s12.2-9.3,20.4-6.6c6.9,2.2,12,12.9,12,12.9s5.4-9.4,11.8-10.9c7.3-1.8,16.7,7,16.7,7s-9-12.9-5.6-21.5
					c2.8-7.3,13.6-11.9,13.6-11.9s-11-3.2-13.5-9.4c-2.5-6.2,3.2-16.4,3.2-16.4s-10.6,2.2-17.5-1.9c-6.7-4-9.6-13.8-9.6-13.8
					s-7.5,11.5-15.9,13.9C623,599.1,609,587.5,609,587.5z"/>
			</g>
			<g>
				<path class="st0" d="M375.3,645.8c4-1.3,49-14.5,87.6,15.5c35.6,27.7,36.7,69.6,36.8,74.9"/>
			</g>
			<g>
				<path class="st0" d="M663.9,366.1c-13.8,30-9.7,65.1,10.5,90.5c29.2,36.9,75.6,32.3,78.3,32"/>
			</g>
		</g>
	</g>
	<g>
		<g>
			<g>
				<g>
					<path class="st0" d="M1212.3,1399.4c19,3.9,50.7,7.7,67.2,9.5c57.5,6.4,90.7-3.6,90.7-3.6s-50.1,11.6-75,20
						c-12.4,4.2-45.3,16.1-73,36.4"/>
				</g>
				<g>
					<path class="st0" d="M1161.6,1481.4c24.6-21.2,54-36.4,67.6-42.7c24.9-11.6,75.2-22.8,75.2-22.8s-40,10.3-95.7-1.2
						c-16.6-3.4-45.3-9.8-62.4-15.2"/>
				</g>
				<g>
					<path class="st0" d="M1101.2,1501.1c21.5-22,47.2-40.4,62.1-49.1c24.9-14.5,75.5-25.7,75.5-25.7s-46.9,10.3-100.7-6.1
						c-16.7-5.1-42.5-14-57.7-20.9"/>
				</g>
				<g>
					<path class="st0" d="M1040.7,1520.9c18.4-22.9,40.5-44.3,56.6-55.4c24.9-17.2,75.7-28.5,75.7-28.5s-53.8,9.9-105.7-11
						c-17-6.8-39.8-18.2-53-26.5"/>
				</g>
				<g>
					<path class="st0" d="M980.3,1540.6c15.2-23.8,33.9-48.1,51.1-61.7c25.1-19.7,76-31.3,76-31.3s-60.6,9.4-110.7-15.9
						c-17.2-8.7-37-22.4-48.2-32.2"/>
				</g>
				<g>
					<path class="st0" d="M919.8,1560.4c12.1-24.6,27.3-51.9,45.7-68.1c25.3-22.2,76.2-34.2,76.2-34.2s-67.4,8.6-115.7-20.8
						c-17.3-10.5-34.2-26.6-43.5-37.9"/>
				</g>
				<g>
					<path class="st0" d="M859.3,1580.1c9-25.5,20.7-55.6,40.2-74.4c25.6-24.6,76.4-37,76.4-37s-74.1,7.6-120.7-25.7
						c-17.5-12.5-31.4-30.8-38.8-43.6"/>
				</g>
				<g>
					<path class="st0" d="M798.9,1599.8c5.8-26.4,14.2-59.3,34.7-80.7c25.9-27,76.7-39.8,76.7-39.8s-80.6,6.6-125.7-30.6
						c-17.5-14.5-28.6-35-34-49.3"/>
				</g>
				<g>
					<path class="st0" d="M738.4,1619.6c2.7-27.2,7.8-63,29.2-87c26.3-29.4,76.9-42.7,76.9-42.7s-87.1,5.4-130.7-35.5
						c-17.6-16.5-25.8-39.2-29.3-55"/>
				</g>
				<g>
					<path class="st0" d="M678,1639.3c-0.4-28.1,1.3-66.6,23.8-93.4c26.7-31.8,77.1-45.5,77.1-45.5s-93.4,4.3-135.7-40.3
						c-17.6-18.5-23-43.5-24.6-60.6"/>
				</g>
				<g>
					<path class="st0" d="M617.5,1659.1c-3.5-29-5-70.3,18.3-99.7c27.1-34.2,77.4-48.3,77.4-48.3s-99.6,3.1-140.6-45.2
						c-17.5-20.6-20.2-47.7-19.8-66.3"/>
				</g>
				<g>
					<path class="st0" d="M557,1678.8c-6.7-29.8-11.4-73.9,12.8-106c27.6-36.6,77.6-51.2,77.6-51.2s-105.7,2-145.6-50.1
						c-17.4-22.7-17.4-51.9-15.1-72"/>
				</g>
			</g>
			<g>
				<path class="st0" d="M161.1,1808.1c32.6-42.9,66.4-99.2,47-135.9c-24.2-45.8-121-61.4-121-61.4s86.6-29.6,100.6-73.5
					c12.4-38.7-37.7-91-96.5-137.8"/>
			</g>
			<g>
				<path class="st0" d="M160.5,1602.1"/>
			</g>
			<g>
				<path class="st0" d="M91.3,1399.6c35.5,25.5,71,50.9,106.6,76.4C287.2,1540,376.6,1604,466,1668.1c12.9,9.3,25.9,18.5,38.8,27.8
					c-7.7-2.8-34.6-11.4-66.2-0.3c-28.9,10.2-44.1,30.8-48.9,37.8"/>
			</g>
			<g>
				<path class="st0" d="M335.2,1399.5c14.1,14.2,34.4,29.4,59,29.8c37.1,0.7,62.1-32.3,65.2-29.9c4.9,4-55,91.4-298.4,408.6"/>
			</g>
			<g>
				<line class="st0" x1="337.4" y1="1575.9" x2="307.2" y2="1399.5"/>
			</g>
			<g>
				<line class="st0" x1="337.4" y1="1575.9" x2="366.4" y2="1741.1"/>
			</g>
			<g>
				<path class="st0" d="M395.9,1498.9c-0.3,9.1-8,27.6,3.3,41.1c12.6,15,35.9,16.3,35.9,16.3s-31.7,9.7-37.3,27.3
					c-5.8,18.6,17.1,47.6,17.1,47.6s-37-12.7-51.4-0.4c-9.6,8.2-11.8,27.1-11.8,27.1s-14.6-15.9-30.4-18.7
					c-21.6-3.9-47,20.5-47,20.5s13.5-33.2,2.7-50.7c-11.3-18.2-49.5-19.2-49.5-19.2s29.2-6.2,36.2-22.4
					c8.5-19.6-16.2-55.2-16.2-55.2s38.7,18.1,56.2,6.7c15.7-10.2,16.3-44.6,16.3-44.6s9.8,28.8,30.7,35.9
					C368.2,1516,386.4,1502.8,395.9,1498.9z"/>
			</g>
			<g>
				<path class="st0" d="M165.2,1597.3c0,0,47.4-14.6,56.6-41.5c10.5-30.8-29.2-81.6-29.2-81.6s58.3,20.4,87.1,0.5
					c26.1-18,28.7-68.6,28.7-68.6s16.3,57.5,46.6,66.8c31.1,9.5,80-31,80-31s-21.8,60.3-2.1,85.8c17.1,22.2,65.9,20.4,65.9,20.4
					s-49.3,20.5-56.5,51c-7.2,30.6,27.4,71.7,27.4,71.7s-57.6-23.2-83.5-4.2c-18.6,13.6-24.4,48-24.4,48s-24.5-33.7-51.7-38.5
					c-34.6-6.2-77.4,38.8-77.4,38.8s23.2-55,4.9-84.4C220,1602.2,165.2,1597.3,165.2,1597.3z"/>
			</g>
			<g>
				<path class="st0" d="M459.5,1399.5c-10.8,23.6-20.1,54.7-6.7,78.5c26.7,47.2,128.2,54.3,128.2,54.3s-90.3,31.6-104.8,83
					c-7.9,28.2,10.6,58.5,28.7,80.6"/>
			</g>
			<g>
				<path class="st0" d="M285.4,1584c0,0,13.7-7.6,15.4-15c2.3-10.3-4.8-23.1-4.8-23.1s13.2,7.3,21.7,3.6
					c8.3-3.6,12.2-17.7,12.2-17.7s4.5,14.7,12.6,17.3c6.9,2.2,17.3-3.3,17.3-3.3s-1.2,10.7,3.1,15.8c4.9,5.7,17.6,4.1,17.6,4.1
					s-14.8,5.2-17.2,14.1c-2,7.5,4,17.6,4,17.6s-10.8-3.9-16.4-0.3c-5.6,3.5-7,15.2-7,15.2s-7.3-8-15.3-8.8
					c-7.8-0.7-15.9,5.5-15.9,5.5s0.7-13.8-4.7-20.6C303.5,1582.9,285.4,1584,285.4,1584z"/>
			</g>
			<g>
				<path class="st0" d="M130.5,1399.5c2.5,3.4,31.1,40.6,80,39c45.1-1.5,70.6-34.8,73.7-39"/>
			</g>
			<g>
				<path class="st0" d="M199.7,1795.5c6.5-32.4,30.4-58.4,61.7-67.1c45.3-12.6,80.1,18.3,82.2,20.1"/>
			</g>
		</g>
		<g>
			<g>
				<g>
					<path class="st0" d="M1212.3,1399.4c19-3.9,50.7-7.7,67.1-9.5c57.5-6.4,90.7,3.6,90.7,3.6s-50.1-11.6-75-20
						c-12.4-4.2-45.3-16.1-73.1-36.4"/>
				</g>
				<g>
					<path class="st0" d="M1161.6,1317.4c24.6,21.2,54,36.4,67.6,42.7c24.9,11.6,75.3,22.8,75.3,22.8s-40-10.3-95.7,1.3
						c-16.6,3.4-45.3,9.8-62.4,15.2"/>
				</g>
				<g>
					<path class="st0" d="M1101.1,1297.7c21.5,22,47.2,40.4,62.1,49.1c24.9,14.5,75.5,25.6,75.5,25.6s-46.9-10.2-100.7,6.2
						c-16.7,5.1-42.5,14-57.7,20.9"/>
				</g>
				<g>
					<path class="st0" d="M1040.7,1278c18.4,22.9,40.5,44.3,56.6,55.4c24.9,17.2,75.7,28.5,75.7,28.5s-53.8-9.9-105.7,11.1
						c-17,6.8-39.7,18.2-52.9,26.5"/>
				</g>
				<g>
					<path class="st0" d="M980.2,1258.2c15.2,23.8,33.9,48.1,51.2,61.7c25.1,19.7,76,31.3,76,31.3s-60.6-9.3-110.7,15.9
						c-17.2,8.7-37,22.4-48.2,32.2"/>
				</g>
				<g>
					<path class="st0" d="M919.8,1238.5c12.1,24.6,27.3,51.9,45.7,68c25.3,22.2,76.2,34.1,76.2,34.1s-67.4-8.5-115.7,20.8
						c-17.3,10.5-34.2,26.6-43.5,37.9"/>
				</g>
				<g>
					<path class="st0" d="M859.3,1218.8c9,25.5,20.7,55.6,40.2,74.4c25.6,24.6,76.4,37,76.4,37s-74.1-7.6-120.7,25.7
						c-17.5,12.5-31.4,30.8-38.7,43.6"/>
				</g>
				<g>
					<path class="st0" d="M798.8,1199.1c5.9,26.4,14.2,59.3,34.7,80.7c25.9,27,76.7,39.8,76.7,39.8s-80.6-6.5-125.7,30.6
						c-17.5,14.5-28.6,35-34,49.3"/>
				</g>
				<g>
					<path class="st0" d="M738.4,1179.3c2.7,27.2,7.8,63,29.3,87c26.3,29.4,76.9,42.7,76.9,42.7s-87.1-5.4-130.7,35.5
						c-17.6,16.5-25.8,39.3-29.3,55"/>
				</g>
				<g>
					<path class="st0" d="M677.9,1159.6c-0.4,28.1,1.4,66.6,23.8,93.4c26.7,31.8,77.2,45.5,77.2,45.5s-93.4-4.3-135.6,40.4
						c-17.6,18.5-23,43.5-24.5,60.6"/>
				</g>
				<g>
					<path class="st0" d="M617.4,1139.9c-3.5,29-5,70.3,18.3,99.7c27.1,34.2,77.4,48.3,77.4,48.3s-99.6-3.1-140.6,45.3
						c-17.5,20.6-20.2,47.7-19.8,66.3"/>
				</g>
				<g>
					<path class="st0" d="M557,1120.1c-6.7,29.8-11.4,73.9,12.8,106c27.6,36.6,77.6,51.2,77.6,51.2s-105.7-2-145.6,50.2
						c-17.4,22.7-17.4,51.9-15.1,72"/>
				</g>
			</g>
			<g>
				<path class="st0" d="M161,990.9c32.6,42.9,66.5,99.2,47,135.9c-24.2,45.8-120.9,61.4-120.9,61.4s86.6,29.6,100.7,73.5
					c12.4,38.7-37.7,91-96.5,137.8"/>
			</g>
			<g>
				<path class="st0" d="M160.4,1197"/>
			</g>
			<g>
				<path class="st0" d="M91.3,1399.6c35.5-25.5,71-50.9,106.5-76.4c89.4-64.1,178.8-128.2,268.2-192.3
					c12.9-9.3,25.8-18.5,38.8-27.8c-7.7,2.8-34.6,11.4-66.2,0.3c-28.9-10.2-44.1-30.7-48.9-37.8"/>
			</g>
			<g>
				<path class="st0" d="M335.2,1399.5c14.1-14.2,34.4-29.4,59-29.9c37.1-0.7,62.1,32.3,65.2,29.8c4.9-4-55.1-91.4-298.5-408.6"/>
			</g>
			<g>
				<line class="st0" x1="337.3" y1="1223.1" x2="307.2" y2="1399.5"/>
			</g>
			<g>
				<line class="st0" x1="337.3" y1="1223.1" x2="366.3" y2="1057.9"/>
			</g>
			<g>
				<path class="st0" d="M395.8,1300.2c-0.3-9.1-8-27.6,3.3-41.1c12.6-15,35.9-16.3,35.9-16.3s-31.8-9.6-37.3-27.3
					c-5.8-18.6,17.1-47.6,17.1-47.6s-37,12.7-51.4,0.4c-9.6-8.1-11.8-27.1-11.8-27.1s-14.6,15.9-30.4,18.7
					c-21.6,3.9-47-20.5-47-20.5s13.5,33.2,2.7,50.7c-11.3,18.2-49.5,19.2-49.5,19.2s29.2,6.2,36.2,22.4
					c8.5,19.6-16.2,55.2-16.2,55.2s38.7-18.1,56.2-6.7c15.7,10.2,16.3,44.5,16.3,44.5s9.8-28.8,30.7-35.9
					C368.2,1283,386.4,1296.2,395.8,1300.2z"/>
			</g>
			<g>
				<path class="st0" d="M165.1,1201.8c0,0,47.4,14.5,56.6,41.5c10.5,30.8-29.2,81.6-29.2,81.6s58.3-20.4,87.1-0.5
					c26.1,18,28.7,68.6,28.7,68.6s16.3-57.5,46.5-66.8c31.1-9.5,80,31,80,31s-21.8-60.3-2.2-85.8c17.1-22.2,65.9-20.4,65.9-20.4
					s-49.3-20.5-56.5-51c-7.2-30.6,27.4-71.7,27.4-71.7s-57.6,23.2-83.5,4.3c-18.6-13.6-24.4-48-24.4-48s-24.5,33.7-51.7,38.6
					c-34.6,6.2-77.4-38.8-77.4-38.8s23.2,55,5,84.4C220,1196.9,165.1,1201.8,165.1,1201.8z"/>
			</g>
			<g>
				<path class="st0" d="M459.5,1399.5c-10.8-23.6-20.2-54.7-6.7-78.5c26.7-47.2,128.2-54.3,128.2-54.3s-90.3-31.6-104.8-83
					c-7.9-28.2,10.6-58.5,28.6-80.6"/>
			</g>
			<g>
				<path class="st0" d="M285.3,1215c0,0,13.7,7.6,15.4,15c2.3,10.3-4.8,23.1-4.8,23.1s13.2-7.3,21.7-3.6
					c8.3,3.6,12.2,17.7,12.2,17.7s4.5-14.7,12.6-17.3c6.9-2.2,17.3,3.3,17.3,3.3s-1.2-10.7,3.1-15.8c4.9-5.7,17.6-4.1,17.6-4.1
					s-14.8-5.2-17.2-14.1c-2-7.5,4-17.6,4-17.6s-10.8,3.9-16.4,0.4c-5.6-3.5-7-15.2-7-15.2s-7.3,8-15.3,8.8
					c-7.8,0.7-15.9-5.5-15.9-5.5s0.7,13.8-4.7,20.6C303.5,1216.1,285.3,1215,285.3,1215z"/>
			</g>
			<g>
				<path class="st0" d="M130.5,1399.5c2.5-3.4,31.1-40.6,80-39c45.1,1.5,70.6,34.7,73.8,39"/>
			</g>
			<g>
				<path class="st0" d="M199.6,1003.5c6.5,32.4,30.4,58.4,61.7,67.1c45.3,12.6,80.1-18.3,82.2-20.2"/>
			</g>
		</g>
	</g>
	<g>
		<g>
			<g>
				<g>
					<path class="st0" d="M1250.6,1517.2c17.7-8,45.6-23.6,59.9-31.8c50.3-28.6,71.3-56.3,71.3-56.3s-33.7,38.8-48.9,60.3
						c-7.6,10.6-27.2,39.7-37.7,72.4"/>
				</g>
				<g>
					<path class="st0" d="M1257.8,1613.3c7.5-31.6,22.3-61.2,29.5-74.3c13.3-24,47.5-62.7,47.5-62.7s-26.3,31.8-78.2,55.3
						c-15.4,7-42.4,18.7-59.4,24.4"/>
				</g>
				<g>
					<path class="st0" d="M1220.5,1664.8c4.4-30.5,14.5-60.4,21.4-76.2c11.6-26.4,46-65.1,46-65.1s-31.9,35.8-85.1,54.2
						c-16.5,5.7-42.6,13.7-58.9,17"/>
				</g>
				<g>
					<path class="st0" d="M1183.2,1716.3c1.4-29.3,6.7-59.7,13.2-78.1c10.1-28.6,44.5-67.6,44.5-67.6s-37.7,39.6-92,53.2
						c-17.7,4.4-42.9,8.6-58.4,9.7"/>
				</g>
				<g>
					<path class="st0" d="M1145.9,1767.9c-1.7-28.2-0.9-58.8,5.1-80c8.7-30.7,43-70,43-70s-43.6,43.2-98.9,52.2
						c-19,3.1-43.1,3.6-57.9,2.3"/>
				</g>
				<g>
					<path class="st0" d="M1108.6,1819.4c-4.7-27-8.4-58-3.1-81.9c7.4-32.8,41.6-72.4,41.6-72.4s-49.5,46.6-105.8,51.2
						c-20.2,1.7-43.3-1.5-57.5-5.1"/>
				</g>
				<g>
					<path class="st0" d="M1071.3,1870.9c-7.7-25.9-15.9-57.2-11.2-83.8c6.2-35,40.1-74.9,40.1-74.9s-55.5,49.7-112.7,50.2
						c-21.5,0.2-43.5-6.5-57-12.5"/>
				</g>
				<g>
					<path class="st0" d="M1034,1922.4c-10.8-24.8-23.3-56.3-19.4-85.7c5-37.1,38.6-77.3,38.6-77.3s-61.4,52.7-119.6,49.1
						c-22.7-1.4-43.7-11.5-56.5-19.9"/>
				</g>
				<g>
					<path class="st0" d="M996.7,1973.9c-13.8-23.6-30.7-55.5-27.5-87.6c3.9-39.2,37.1-79.7,37.1-79.7s-67.2,55.6-126.6,48.1
						c-23.9-3-43.9-16.6-56-27.2"/>
				</g>
				<g>
					<path class="st0" d="M959.3,2025.4c-16.9-22.5-38.1-54.7-35.7-89.5c2.9-41.4,35.7-82.2,35.7-82.2s-73,58.4-133.5,47.1
						c-25.1-4.7-44.1-21.6-55.5-34.6"/>
				</g>
				<g>
					<path class="st0" d="M922,2076.9c-19.9-21.4-45.4-53.9-43.8-91.4c1.8-43.6,34.2-84.6,34.2-84.6S833.7,1962,772,1947
						c-26.3-6.4-44.4-26.7-55-42"/>
				</g>
				<g>
					<path class="st0" d="M884.7,2128.4c-22.9-20.2-52.7-53.1-51.9-93.3c0.8-45.8,32.7-87,32.7-87s-84.3,63.7-147.3,45.1
						c-27.4-8.1-44.6-31.7-54.5-49.4"/>
				</g>
			</g>
			<g>
				<path class="st0" d="M640.4,2465.8c1.2-53.9-4.6-119.3-41.9-137.6c-46.5-22.8-133.9,21.4-133.9,21.4s52.7-74.9,38.2-118.6
					c-12.7-38.5-84-51.5-159.1-54.7"/>
			</g>
			<g>
				<path class="st0" d="M518.8,2299.4"/>
			</g>
			<g>
				<path class="st0" d="M343.7,2176.3c43.7-0.3,87.4-0.6,131.1-0.9c110-0.7,220-1.4,330-2.2c15.9-0.1,31.8-0.2,47.7-0.3
					c-7.8,2.3-34.7,11.2-53.7,38.7c-17.4,25.2-17.6,50.8-17.3,59.3"/>
			</g>
			<g>
				<path class="st0" d="M541.1,2032.8c19.8,3.2,45.1,3.6,65.3-10.6c30.4-21.3,31.3-62.7,35.2-62.5c6.3,0.3,9.2,106.3-1.2,506"/>
			</g>
			<g>
				<line class="st0" x1="646.5" y1="2174.3" x2="518.5" y2="2049.3"/>
			</g>
			<g>
				<line class="st0" x1="646.5" y1="2174.3" x2="767.1" y2="2290.9"/>
			</g>
			<g>
				<path class="st0" d="M648.5,2077.6c5.1,7.6,9.8,27,26.8,31.3c19,4.7,38.6-7.9,38.6-7.9s-20,26.5-14.1,44
					c6.2,18.5,41.8,28.5,41.8,28.5s-37.4,11.5-41.8,29.9c-2.9,12.2,6.4,28.8,6.4,28.8s-21.1-4.3-35.6,2.7c-19.7,9.5-26,44.2-26,44.2
					s-8.6-34.8-27.7-42.6c-19.8-8.1-51.3,13.5-51.3,13.5s20-22.2,16.1-39.4c-4.7-20.9-45.6-35.1-45.6-35.1s41.9-8.1,49.4-27.6
					c6.7-17.5-13-45.6-13-45.6s24.8,17.5,45.9,11C636.3,2107.7,643.2,2086.3,648.5,2077.6z"/>
			</g>
			<g>
				<path class="st0" d="M519.8,2292.8c0,0,29.8-39.6,21.4-66.9c-9.6-31.1-71.6-48.8-71.6-48.8s59.1-17.8,70.8-50.8
					c10.5-29.9-17.1-72.4-17.1-72.4s47,36.9,76.9,26.6c30.7-10.6,46.5-72.2,46.5-72.2s17.8,61.6,48.7,70.7
					c26.9,7.9,65.3-22.3,65.3-22.3s-27.9,45.6-15.7,74.5c12.1,29,64.3,41.9,64.3,41.9s-60.2,15.1-70.1,45.7
					c-7.1,21.9,8.5,53.2,8.5,53.2s-39.7-12.8-64.5-0.8c-31.6,15.3-39.8,76.9-39.8,76.9s-13.6-58.2-45.6-71.2
					C567,2264.5,519.8,2292.8,519.8,2292.8z"/>
			</g>
			<g>
				<path class="st0" d="M641.6,1959.8c5.2,25.4,15.9,56.1,40.7,67.4c49.3,22.5,135.6-31.4,135.6-31.4s-54.5,78.7-36,128.8
					c10.2,27.5,43,41.1,70.6,48.4"/>
			</g>
			<g>
				<path class="st0" d="M609.2,2211.4c0,0,6.6-14.2,3.6-21.2c-4.2-9.7-17.5-15.9-17.5-15.9s15-1.9,19.7-9.8
					c4.6-7.8-0.5-21.5-0.5-21.5s12.2,9.3,20.4,6.6c6.9-2.2,12-12.9,12-12.9s5.4,9.4,11.8,10.9c7.3,1.8,16.7-7,16.7-7
					s-9,12.9-5.6,21.5c2.8,7.3,13.6,11.9,13.6,11.9s-11,3.2-13.5,9.4c-2.5,6.2,3.2,16.4,3.2,16.4s-10.6-2.2-17.5,1.9
					c-6.7,4-9.6,13.8-9.6,13.8s-7.5-11.5-15.9-13.9C623.2,2199.9,609.2,2211.4,609.2,2211.4z"/>
			</g>
			<g>
				<path class="st0" d="M375.5,2153.2c4,1.3,49,14.5,87.6-15.5c35.6-27.7,36.7-69.6,36.8-74.9"/>
			</g>
			<g>
				<path class="st0" d="M664.2,2432.9c-13.8-30-9.7-65.1,10.4-90.5c29.2-36.9,75.6-32.3,78.3-32"/>
			</g>
		</g>
		<g>
			<g>
				<g>
					<path class="st0" d="M1250.6,1517.2c13.1-14.3,36.5-36,48.7-47.2c42.8-39,75.5-50.4,75.5-50.4s-47.3,20.1-72.4,27.9
						c-12.5,3.9-46.1,13.6-80.5,13.5"/>
				</g>
				<g>
					<path class="st0" d="M1161.4,1480.7c32.4,2.7,65-2.3,79.8-5.2c27-5.2,74.3-25.8,74.3-25.8s-38.4,15.2-76.7,57.3
						c-11.4,12.5-30.9,34.6-41.6,49"/>
				</g>
				<g>
					<path class="st0" d="M1100.9,1500.3c30.3,5.2,61.9,4.9,79.1,3.2c28.7-2.9,76.1-23.6,76.1-23.6s-43.9,19.3-77.9,64.2
						c-10.5,14-26.2,36.3-34.4,50.8"/>
				</g>
				<g>
					<path class="st0" d="M1040.4,1519.9c28.3,7.7,58.9,13.7,78.4,11.5c30.1-3.4,78-21.5,78-21.5s-49.3,23.6-79,71.1
						c-9.7,15.5-21.5,38.1-27.2,52.6"/>
				</g>
				<g>
					<path class="st0" d="M979.9,1539.4c26.3,10.3,55.7,20.9,77.7,19.9c31.9-1.5,79.9-19.3,79.9-19.3s-54.5,28.1-80.2,78
						c-8.8,17.1-16.7,39.9-20.1,54.4"/>
				</g>
				<g>
					<path class="st0" d="M919.4,1559c24.3,12.8,52.6,25.9,77,28.2c33.5,3.1,81.7-17.2,81.7-17.2s-59.6,32.7-81.3,84.8
						c-7.8,18.7-12,41.6-12.9,56.2"/>
				</g>
				<g>
					<path class="st0" d="M858.8,1578.6c22.3,15.4,49.5,32.8,76.2,36.5c35.2,4.9,83.6-15,83.6-15s-64.4,37.4-82.5,91.7
						c-6.8,20.4-7.3,43.4-5.7,58"/>
				</g>
				<g>
					<path class="st0" d="M798.3,1598.2c20.2,17.9,46.4,39.6,75.5,44.9c36.8,6.7,85.4-12.9,85.4-12.9s-69.1,42.1-83.7,98.6
						c-5.7,22-2.5,45.1,1.4,59.9"/>
				</g>
				<g>
					<path class="st0" d="M737.8,1617.8c18.2,20.4,43.3,46.4,74.8,53.2c38.5,8.4,87.3-10.7,87.3-10.7s-73.6,46.8-84.8,105.5
						c-4.5,23.7,2.2,46.9,8.6,61.7"/>
				</g>
				<g>
					<path class="st0" d="M677.3,1637.3c16.2,23,40.3,53.1,74.1,61.5c40.3,10.1,89.2-8.5,89.2-8.5s-78,51.4-86,112.4
						c-3.3,25.3,6.9,48.7,15.8,63.5"/>
				</g>
				<g>
					<path class="st0" d="M616.8,1656.9c14.2,25.5,37.2,59.8,73.4,69.9c42,11.7,91-6.4,91-6.4s-82.4,56-87.2,119.3
						c-2,26.9,11.7,50.4,23,65.3"/>
				</g>
				<g>
					<path class="st0" d="M556.3,1676.5c12.2,28.1,34.2,66.5,72.7,78.2c43.8,13.4,92.9-4.2,92.9-4.2s-86.7,60.5-88.3,126.2
						c-0.7,28.6,16.4,52.2,30.1,67.1"/>
				</g>
			</g>
			<g>
				<path class="st0" d="M160,1804.7c51.6,15.5,112.1,41.2,117.9,82.3c7.3,51.3-61.7,120.8-61.7,120.8s87.5-27,124.6,0.3
					c32.7,24,23,95.8,2.9,168.2"/>
			</g>
			<g>
				<path class="st0" d="M280.6,1971.8"/>
			</g>
			<g>
				<path class="st0" d="M343.7,2176.3c13.8-41.5,27.5-82.9,41.3-124.4c34.6-104.4,69.3-208.8,103.9-313.2c5-15.1,10-30.2,15-45.3
					c-4.6,6.7-21.3,29.6-53.3,39.1c-29.3,8.7-53.7,1.1-61.8-1.9"/>
			</g>
			<g>
				<path class="st0" d="M541.1,2032.8c3.1-19.8,10.5-44,30.2-58.9c29.6-22.4,69.3-10.4,70.3-14.2c1.7-6.1-98.3-41.6-481.6-155.1"/>
			</g>
			<g>
				<line class="st0" x1="439.1" y1="1888.9" x2="518.5" y2="2049.3"/>
			</g>
			<g>
				<line class="st0" x1="439.1" y1="1888.9" x2="365.4" y2="1738.2"/>
			</g>
			<g>
				<path class="st0" d="M531.7,1916.8c-5.6-7.2-22.7-17.6-21.4-35.2c1.3-19.5,19.4-34.2,19.4-34.2s-31.4,10.9-46.2-0.2
					c-15.6-11.6-14.2-48.6-14.2-48.6s-22.5,32-41.3,30.5c-12.5-1-25.5-15-25.5-15s-2.5,21.4-13.6,33c-15.1,15.8-50.1,11-50.1,11
					s30.5,18.9,32,39.4c1.6,21.3-28.7,44.6-28.7,44.6s27.3-12.1,42.5-3.2c18.4,10.9,19.3,54.2,19.3,54.2s20.6-37.4,41.5-38.4
					c18.7-1,39.4,26.5,39.4,26.5s-9-29,3.7-47.1C499.3,1919.2,521.8,1919.2,531.7,1916.8z"/>
			</g>
			<g>
				<path class="st0" d="M287.3,1972.9c0,0,46.9-16.1,70.2,0.3c26.7,18.8,24.3,83.2,24.3,83.2s35.2-50.8,70.2-51.6
					c31.7-0.8,63.5,38.6,63.5,38.6s-20.6-56.1-1.6-81.4c19.6-26,83-21.9,83-21.9s-53.1-35.9-52.2-68.1c0.8-28,41.4-55.2,41.4-55.2
					s-51.9,12.4-75.7-8c-23.8-20.5-20-74.1-20-74.1s-33,52.6-65.1,52.5c-23,0-48-24.5-48-24.5s0,41.7-19.2,61.6
					c-24.3,25.3-85.4,14.1-85.4,14.1s51.1,30.9,53.6,65.4C328.8,1936.7,287.3,1972.9,287.3,1972.9z"/>
			</g>
			<g>
				<path class="st0" d="M641.6,1959.8c-22.6-12.8-48.5-32.4-51.6-59.5c-6.2-53.9,71.8-119.3,71.8-119.3s-91.7,27.6-133.6-5.5
					c-23-18.1-25.8-53.5-24.2-82.1"/>
			</g>
			<g>
				<path class="st0" d="M392.3,1912.9c0,0,15.5-1.9,21.3,3.1c8,7,9.7,21.6,9.7,21.6s6.4-13.7,15.4-15.7c8.8-2,20.3,7.1,20.3,7.1
					s-5-14.5,0-21.4c4.2-5.8,16-7.5,16-7.5s-7.3-8-6.8-14.6c0.6-7.5,11.8-13.7,11.8-13.7s-15,4.5-22.2-1.3
					c-6.1-4.9-7.1-16.6-7.1-16.6s-6.4,9.5-13.1,10c-6.6,0.4-14.6-8.2-14.6-8.2s-1.2,10.8-7.2,16.1c-5.9,5.1-16.1,4.9-16.1,4.9
					s8.6,10.7,8.3,19.4C407.6,1903.2,392.3,1912.9,392.3,1912.9z"/>
			</g>
			<g>
				<path class="st0" d="M375.5,2153.2c0-4.2,1.3-51.1,41.8-78.5c37.4-25.3,77.6-13.4,82.6-11.8"/>
			</g>
			<g>
				<path class="st0" d="M198.6,1792.2c24.3,22.4,58.9,29.4,89.3,18c44.1-16.4,54.1-61.9,54.6-64.6"/>
			</g>
		</g>
	</g>
	<g>
		<g>
			<g>
				<g>
					<path class="st0" d="M1350.8,1590.1c9.6-16.9,23-45.9,29.8-60.9c23.9-52.7,24.6-87.4,24.6-87.4s-4.5,51.2-4.2,77.5
						c0.1,13,1.3,48.1,12.1,80.7"/>
				</g>
				<g>
					<path class="st0" d="M1413.1,1663.5c-12.5-30-17.9-62.6-19.8-77.5c-3.4-27.3,1.6-78.6,1.6-78.6s-2.6,41.2-30.8,90.7
						c-8.4,14.7-23.3,40.1-33.7,54.7"/>
				</g>
				<g>
					<path class="st0" d="M1413.2,1727.1c-14.3-27.2-23.8-57.4-27.5-74.2c-6.1-28.1-1.1-79.7-1.1-79.7s-4.7,47.7-37,93.9
						c-10,14.4-26.5,36.1-37.7,48.4"/>
				</g>
				<g>
					<path class="st0" d="M1413.3,1790.7c-16.1-24.5-29.6-52.2-35.2-71c-8.6-29-3.7-80.8-3.7-80.8s-7.2,54.2-43.1,97.1
						c-11.7,14-29.6,32.2-41.6,42.2"/>
				</g>
				<g>
					<path class="st0" d="M1413.4,1854.3c-17.9-21.8-35.3-47.1-42.9-67.7c-11-29.9-6.3-81.9-6.3-81.9s-9.8,60.6-49.3,100.4
						c-13.5,13.6-32.7,28.2-45.5,35.9"/>
				</g>
				<g>
					<path class="st0" d="M1413.5,1917.9c-19.7-19.1-40.9-42-50.6-64.5c-13.3-30.9-8.9-83-8.9-83s-12.7,66.8-55.5,103.6
						c-15.4,13.2-35.9,24.3-49.5,29.6"/>
				</g>
				<g>
					<path class="st0" d="M1413.6,1981.5c-21.5-16.4-46.5-36.9-58.3-61.2c-15.5-31.9-11.6-84.1-11.6-84.1s-15.6,72.8-61.7,106.8
						c-17.3,12.8-39,20.3-53.4,23.4"/>
				</g>
				<g>
					<path class="st0" d="M1413.7,2045.1c-23.3-13.7-52-31.9-66-58c-17.7-33-14.2-85.2-14.2-85.2s-18.7,78.7-67.9,110.1
						c-19.2,12.2-42.2,16.4-57.4,17.1"/>
				</g>
				<g>
					<path class="st0" d="M1413.8,2108.7c-25.1-11-57.5-26.8-73.7-54.7c-19.9-34.1-16.8-86.3-16.8-86.3s-21.7,84.5-74.1,113.3
						c-21.1,11.6-45.3,12.4-61.3,10.9"/>
				</g>
				<g>
					<path class="st0" d="M1413.9,2172.3c-26.9-8.3-62.9-21.9-81.4-51.5c-22-35.2-19.4-87.4-19.4-87.4s-24.8,90.1-80.3,116.5
						c-23.1,11-48.4,8.4-65.3,4.6"/>
				</g>
				<g>
					<path class="st0" d="M1414,2235.9c-28.6-5.6-68.4-16.9-89.2-48.2c-24.1-36.3-22.1-88.5-22.1-88.5s-27.8,95.7-86.5,119.8
						c-25,10.3-51.6,4.5-69.2-1.6"/>
				</g>
				<g>
					<path class="st0" d="M1414.1,2299.5c-30.4-2.9-73.8-12-96.9-44.9c-26.3-37.5-24.7-89.6-24.7-89.6s-30.7,101.1-92.7,123
						c-26.9,9.5-54.7,0.5-73.1-7.9"/>
				</g>
			</g>
			<g>
				<path class="st0" d="M1414.7,2716.1c-30.7-44.3-73.8-93.8-114.7-86.7c-51,8.9-95.8,96.1-95.8,96.1s-1.4-91.5-38.8-118.4
					c-32.9-23.7-98.2,7.7-160.9,49.2"/>
			</g>
			<g>
				<path class="st1" d="M1218.5,2653"/>
			</g>
			<g>
				<path class="st0" d="M1004.6,2656.2c35.2-25.9,70.4-51.8,105.5-77.7c88.6-65.2,177.1-130.5,265.7-195.7
					c12.8-9.4,25.6-18.9,38.4-28.3c-5,6.4-21.5,29.4-20.7,62.8c0.8,30.6,15.6,51.4,20.9,58.2"/>
			</g>
			<g>
				<path class="st0" d="M1079.9,2424.2c17.9-9,38.6-23.6,46.6-46.9c12.1-35.1-11.6-69.1-8.2-71.3c5.3-3.5,69.9,80.6,296.4,410.1"/>
			</g>
			<g>
				<line class="st0" x1="1248.4" y1="2476.7" x2="1071.3" y2="2450.8"/>
			</g>
			<g>
				<line class="st0" x1="1248.4" y1="2476.7" x2="1414.4" y2="2500.1"/>
			</g>
			<g>
				<path class="st0" d="M1193.1,2397.2c8.6,3.1,23.8,16.1,40.1,9.5c18.1-7.3,26.5-29.1,26.5-29.1s-0.6,33.2,14.5,43.9
					c15.9,11.3,50.6-1.6,50.6-1.6s-23.5,31.3-16.3,48.8c4.8,11.6,22.1,19.6,22.1,19.6s-19.6,8.9-27.2,23.1c-10.4,19.3,5,51,5,51
					s-27.4-23.1-47.4-18.2c-20.8,5.1-33.6,41.1-33.6,41.1s3.1-29.7-10.1-41.4c-16.1-14.2-57.5-1.6-57.5-1.6s29.2-31.2,23.7-51.4
					c-4.9-18.1-37.3-29.3-37.3-29.3s30.4-0.4,43.6-18.1C1200.9,2428.9,1193.9,2407.5,1193.1,2397.2z"/>
			</g>
			<g>
				<path class="st0" d="M1215.4,2647.1c0,0,0.8-49.6-22-66.7c-26.1-19.6-86.6,2.6-86.6,2.6s37.4-49.1,27.4-82.7
					c-9.1-30.4-56.4-48.5-56.4-48.5s59.7,2.3,77.9-23.6c18.7-26.6-4.8-85.7-4.8-85.7s50.6,39.4,80.9,28.5
					c26.4-9.4,39.7-56.4,39.7-56.4s4.2,53.2,31.1,69.5c26.9,16.3,76.7-3.9,76.7-3.9s-39.8,47.6-29.8,78.1c7.2,21.9,38.1,38,38.1,38
					s-39.6,12.9-52.6,37.3c-16.6,31,13,85.6,13,85.6s-45.2-39.1-78.7-30.8C1237.1,2596.4,1215.4,2647.1,1215.4,2647.1z"/>
			</g>
			<g>
				<path class="st0" d="M1118.3,2306c19.1,17.5,45.8,36.1,72.6,30.6c53.2-10.8,91.2-105.1,91.2-105.1s2.1,95.7,46.6,125.3
					c24.4,16.2,58.9,8,85.5-2.3"/>
			</g>
			<g>
				<path class="st0" d="M1240,2528.6c0,0-3-15.4-9.5-19.3c-9.1-5.4-23.5-2.5-23.5-2.5s11-10.3,10.2-19.5c-0.8-9-13-17.1-13-17.1
					s15.3,0.3,20.4-6.6c4.2-5.8,2.2-17.5,2.2-17.5s9.8,4.4,15.9,1.9c7-2.9,9.4-15.4,9.4-15.4s0.3,15.7,8.1,20.7
					c6.6,4.2,18,1.6,18,1.6s-7.1,9.1-5.4,15.5c1.6,6.5,12.3,11.4,12.3,11.4s-9.9,4.4-13.1,11.9c-3.1,7.2,0.3,16.8,0.3,16.8
					s-12.9-4.9-21-1.9C1244.5,2511,1240,2528.6,1240,2528.6z"/>
			</g>
			<g>
				<path class="st0" d="M1016.7,2619c4-1.3,48.2-17,61.8-64c12.5-43.4-11.2-77.9-14.3-82.2"/>
			</g>
			<g>
				<path class="st0" d="M1414.7,2675.5c-28.8-16.2-46.1-46.9-44.8-79.4c2-47,42.1-70.6,44.5-71.9"/>
			</g>
		</g>
		<g>
			<g>
				<g>
					<path class="st0" d="M1350.8,1590.1c2.2-19.3,8.4-50.6,11.7-66.8c11.7-56.7,31.5-85.2,31.5-85.2s-26.5,44.1-42.2,65.2
						c-7.8,10.5-29.3,38.1-57.2,58.2"/>
				</g>
				<g>
					<path class="st0" d="M1257.2,1612.9c27.7-16.9,51.3-40.1,61.5-51.1c18.7-20.1,44.9-64.5,44.9-64.5s-22.1,34.9-28.4,91.4
						c-1.9,16.8-4.7,46.1-4.8,64.1"/>
				</g>
				<g>
					<path class="st0" d="M1219.8,1664.3c27.6-13.6,53-32.4,65.8-43.9c21.5-19.2,47.7-63.9,47.7-63.9s-24.2,41.4-25.3,97.7
						c-0.3,17.5,0.2,44.8,2,61.3"/>
				</g>
				<g>
					<path class="st0" d="M1182.3,1715.7c27.5-10.4,54.6-24.9,70.2-36.7c24.1-18.4,50.5-63.2,50.5-63.2s-26,48.1-22.2,103.9
						c1.3,18.2,5,43.4,8.9,58.6"/>
				</g>
				<g>
					<path class="st0" d="M1144.9,1767.1c27.3-7.1,56.2-17.4,74.5-29.6c26.5-17.8,53.3-62.6,53.3-62.6s-27.6,54.8-19,110.2
						c2.9,19,9.9,42.1,15.8,55.8"/>
				</g>
				<g>
					<path class="st0" d="M1107.4,1818.5c27.2-3.9,57.8-9.9,78.8-22.4c28.9-17.2,56-61.9,56-61.9s-29,61.5-15.9,116.5
						c4.7,19.7,14.8,40.7,22.6,53.1"/>
				</g>
				<g>
					<path class="st0" d="M1070,1869.9c27-0.7,59.3-2.5,83.2-15.3c31.3-16.7,58.8-61.3,58.8-61.3s-30.1,68.1-12.8,122.7
						c6.5,20.5,19.6,39.4,29.5,50.3"/>
				</g>
				<g>
					<path class="st0" d="M1032.5,1921.3c26.9,2.6,60.8,4.8,87.5-8.1c33.7-16.3,61.6-60.6,61.6-60.6s-31.1,74.7-9.7,129
						c8.3,21.2,24.5,38,36.4,47.6"/>
				</g>
				<g>
					<path class="st0" d="M995.1,1972.8c26.7,5.8,62.3,12.1,91.8-0.9c36.1-15.9,64.3-60,64.3-60s-32.1,81.1-6.6,135.2
						c10.3,21.8,29.4,36.6,43.2,44.8"/>
				</g>
				<g>
					<path class="st0" d="M957.6,2024.2c26.6,9.1,63.8,19.3,96.1,6.2c38.5-15.5,67.1-59.3,67.1-59.3s-32.9,87.5-3.5,141.5
						c12.2,22.4,34.2,35.3,50.1,42.1"/>
				</g>
				<g>
					<path class="st0" d="M920.2,2075.6c26.5,12.3,65.3,26.5,100.5,13.4c40.9-15.2,69.9-58.7,69.9-58.7s-33.7,93.7-0.4,147.7
						c14.2,23,39.1,33.9,57,39.3"/>
				</g>
				<g>
					<path class="st0" d="M882.7,2127c26.3,15.6,66.8,33.7,104.8,20.5c43.3-14.9,72.7-58,72.7-58s-34.5,99.9,2.7,154
						c16.2,23.5,44,32.6,63.8,36.6"/>
				</g>
			</g>
			<g>
				<path class="st0" d="M637.5,2463.7c50.8-17.8,114.9-32.5,143.8-2.7c36.1,37.2,21,134,21,134s54.9-73.2,101-73
					c40.6,0.2,74.9,64,101.3,134.4"/>
			</g>
			<g>
				<path class="st0" d="M833.3,2527.9"/>
			</g>
			<g>
				<path class="st0" d="M1004.6,2656.2c-13.2-41.6-26.5-83.3-39.7-124.9c-33.3-104.8-66.7-209.6-100-314.5
					c-4.8-15.2-9.6-30.3-14.5-45.5c0.3,8.1,0.1,36.5-20.2,63c-18.6,24.3-42.9,32.4-51.1,34.8"/>
			</g>
			<g>
				<path class="st0" d="M1079.9,2424.2c-9.2-17.8-17.3-41.8-10.2-65.4c10.8-35.5,50-49.1,48.5-52.8
					c-2.3-5.9-103.9,24.1-480.8,157.6"/>
			</g>
			<g>
				<line class="st0" x1="912.8" y1="2367.7" x2="1071.3" y2="2450.8"/>
			</g>
			<g>
				<line class="st0" x1="912.8" y1="2367.7" x2="764.6" y2="2289.1"/>
			</g>
			<g>
				<path class="st0" d="M1004.2,2335.9c-8.8-2.5-28.7-0.9-38-15.9c-10.4-16.6-4.4-39.1-4.4-39.1s-19,27.2-37.5,27
					c-19.5-0.2-40-31-40-31s0.6,39.1-15.5,49c-10.7,6.6-29.4,2.8-29.4,2.8s10.6,18.7,8.4,34.7c-3,21.7-34,38.4-34,38.4
					s35.7-2.6,49.1,13.1c13.8,16.3,3,53,3,53s14.9-25.8,32.5-27.5c21.3-2,47.5,32.5,47.5,32.5s-5.3-42.4,11-55.5
					c14.6-11.8,47.4-1.7,47.4-1.7s-24.4-18.2-24.7-40.3C979.3,2356.9,997.5,2343.7,1004.2,2335.9z"/>
			</g>
			<g>
				<path class="st0" d="M839.3,2524.9c0,0,28.5-40.6,57-41c32.6-0.5,68.5,53,68.5,53s-1.4-61.7,26.5-83
					c25.2-19.2,74.1-6.1,74.1-6.1s-49.7-33.3-49.1-64.9c0.5-32.5,54.2-66.5,54.2-66.5s-64.1,2.1-82.3-24.5c-15.8-23.1,1-69,1-69
					s-34.7,40.6-66,38c-31.3-2.6-59.7-48.2-59.7-48.2s4.3,61.9-21.8,80.8c-18.7,13.5-53.2,8.4-53.2,8.4s24.5,33.8,20.7,61.1
					c-4.8,34.8-60.8,61.6-60.8,61.6s59.5-5.1,81.8,21.4C851.6,2471.2,839.3,2524.9,839.3,2524.9z"/>
			</g>
			<g>
				<path class="st0" d="M1118.3,2306c-25.8,3-58.3,2.3-76.7-17.8c-36.7-40-12-138.7-12-138.7s-57.9,76.2-111.3,74
					c-29.3-1.2-52.4-28.1-67.8-52.2"/>
			</g>
			<g>
				<path class="st0" d="M889,2414.6c0,0,11.4-10.7,19-10c10.5,1,20.5,11.7,20.5,11.7s-2.8-14.8,3.2-21.8c6-6.8,20.6-6.2,20.6-6.2
					s-12.6-8.8-12.6-17.3c0-7.2,8.5-15.4,8.5-15.4s-10.6-2.2-14-7.8c-3.9-6.4,1.5-18,1.5-18s-9.5,12.5-18.7,12
					c-7.8-0.4-15.5-9.2-15.5-9.2s0.4,11.5-4.7,15.8c-5.1,4.3-16.6,2-16.6,2s5.4,9.4,3.6,17.3c-1.7,7.6-10.1,13.4-10.1,13.4
					s13.3,3.6,18.1,10.8C895.7,2397.8,889,2414.6,889,2414.6z"/>
			</g>
			<g>
				<path class="st0" d="M1016.7,2619c-2.4-3.4-29-42.1-12.4-88.1c15.3-42.5,54.9-56.4,59.8-58.1"/>
			</g>
			<g>
				<path class="st0" d="M661.4,2430.8c32.8,3.8,64.9-10.9,82.9-37.9c26-39.2,7.4-81.8,6.2-84.4"/>
			</g>
		</g>
	</g>
	<g>
		<g>
			<g>
				<g>
					<path class="st0" d="M1474.7,1590c-2.2-19.3-8.4-50.6-11.7-66.8c-11.7-56.7-31.5-85.2-31.5-85.2s26.5,44,42.2,65.2
						c7.8,10.5,29.3,38.1,57.2,58.2"/>
				</g>
				<g>
					<path class="st0" d="M1568.3,1612.9c-27.7-16.9-51.3-40.1-61.5-51.1c-18.7-20.1-45-64.5-45-64.5s22.2,34.9,28.4,91.4
						c1.9,16.8,4.7,46.1,4.9,64.1"/>
				</g>
				<g>
					<path class="st0" d="M1605.8,1664.3c-27.6-13.6-53-32.4-65.9-43.9c-21.5-19.2-47.7-63.9-47.7-63.9s24.2,41.4,25.3,97.7
						c0.3,17.5-0.2,44.8-2,61.3"/>
				</g>
				<g>
					<path class="st0" d="M1643.3,1715.7c-27.5-10.4-54.7-24.9-70.2-36.7c-24.1-18.4-50.5-63.2-50.5-63.2s26.1,48.1,22.2,103.9
						c-1.3,18.2-5,43.4-8.9,58.6"/>
				</g>
				<g>
					<path class="st0" d="M1680.7,1767.1c-27.3-7.1-56.2-17.3-74.5-29.6c-26.5-17.7-53.3-62.6-53.3-62.6s27.6,54.8,19.1,110.2
						c-2.9,19-9.9,42.1-15.7,55.8"/>
				</g>
				<g>
					<path class="st0" d="M1718.2,1818.4c-27.2-3.9-57.8-9.9-78.8-22.4c-28.9-17.2-56-61.9-56-61.9s29,61.5,16,116.5
						c-4.7,19.7-14.8,40.7-22.6,53.1"/>
				</g>
				<g>
					<path class="st0" d="M1755.7,1869.8c-27-0.7-59.3-2.5-83.2-15.2c-31.3-16.7-58.8-61.3-58.8-61.3s30.1,68.1,12.9,122.7
						c-6.5,20.5-19.6,39.4-29.5,50.3"/>
				</g>
				<g>
					<path class="st0" d="M1793.1,1921.2c-26.9,2.6-60.8,4.8-87.5-8.1c-33.7-16.3-61.6-60.6-61.6-60.6s31.2,74.7,9.8,129
						c-8.3,21.2-24.5,38-36.3,47.6"/>
				</g>
				<g>
					<path class="st0" d="M1830.6,1972.6c-26.7,5.8-62.3,12.1-91.8-0.9c-36.1-15.9-64.4-60-64.4-60s32.1,81.1,6.7,135.2
						c-10.3,21.8-29.4,36.7-43.2,44.8"/>
				</g>
				<g>
					<path class="st0" d="M1868,2024c-26.6,9.1-63.8,19.3-96.1,6.2c-38.5-15.5-67.1-59.3-67.1-59.3s32.9,87.5,3.5,141.5
						c-12.2,22.4-34.2,35.3-50.1,42.1"/>
				</g>
				<g>
					<path class="st0" d="M1905.5,2075.4c-26.5,12.3-65.3,26.5-100.5,13.4c-40.9-15.2-69.9-58.7-69.9-58.7s33.8,93.7,0.4,147.7
						c-14.2,23-39.1,33.9-56.9,39.4"/>
				</g>
				<g>
					<path class="st0" d="M1943,2126.8c-26.3,15.6-66.8,33.7-104.8,20.6c-43.3-14.9-72.7-58-72.7-58s34.6,99.9-2.7,154
						c-16.2,23.5-43.9,32.6-63.8,36.6"/>
				</g>
			</g>
			<g>
				<path class="st0" d="M2188.3,2463.4c-50.8-17.8-114.9-32.5-143.8-2.7c-36,37.2-21,134-21,134s-54.9-73.2-101-73
					c-40.6,0.2-74.9,64-101.2,134.4"/>
			</g>
			<g>
				<path class="st0" d="M1992.5,2527.7"/>
			</g>
			<g>
				<path class="st0" d="M1821.3,2656.1c13.2-41.6,26.5-83.3,39.7-124.9c33.3-104.8,66.6-209.7,99.9-314.5
					c4.8-15.2,9.6-30.3,14.4-45.5c-0.2,8.1-0.1,36.5,20.2,63c18.6,24.3,42.9,32.4,51.1,34.8"/>
			</g>
			<g>
				<path class="st0" d="M1745.9,2424.1c9.2-17.8,17.3-41.8,10.1-65.4c-10.8-35.5-50-49.1-48.6-52.8c2.3-5.9,103.9,24.1,480.8,157.5
					"/>
			</g>
			<g>
				<line class="st0" x1="1913" y1="2367.5" x2="1754.5" y2="2450.7"/>
			</g>
			<g>
				<line class="st0" x1="1913" y1="2367.5" x2="2061.1" y2="2288.9"/>
			</g>
			<g>
				<path class="st0" d="M1821.6,2335.7c8.8-2.5,28.7-1,38-15.9c10.4-16.6,4.4-39.1,4.4-39.1s19,27.2,37.5,27c19.5-0.2,40-31,40-31
					s-0.6,39.1,15.5,49c10.7,6.6,29.4,2.8,29.4,2.8s-10.6,18.7-8.4,34.7c3,21.7,34,38.4,34,38.4s-35.7-2.6-49,13.1
					c-13.8,16.3-3,53-3,53s-14.9-25.8-32.5-27.5c-21.3-2-47.5,32.5-47.5,32.5s5.3-42.4-11-55.5c-14.6-11.8-47.4-1.7-47.4-1.7
					s24.4-18.2,24.7-40.3C1846.5,2356.7,1828.3,2343.6,1821.6,2335.7z"/>
			</g>
			<g>
				<path class="st0" d="M1986.5,2524.7c0,0-28.5-40.6-57-41c-32.6-0.5-68.5,53-68.5,53s1.4-61.7-26.5-83
					c-25.2-19.2-74.1-6.1-74.1-6.1s49.6-33.3,49.1-64.9c-0.6-32.5-54.3-66.5-54.3-66.5s64.1,2.1,82.3-24.5c15.8-23.1-1-69-1-69
					s34.7,40.6,66,38c31.3-2.6,59.7-48.3,59.7-48.3s-4.2,61.9,21.8,80.8c18.7,13.5,53.2,8.4,53.2,8.4s-24.5,33.8-20.7,61.1
					c4.8,34.8,60.8,61.6,60.8,61.6s-59.5-5.1-81.8,21.4C1974.2,2471,1986.5,2524.7,1986.5,2524.7z"/>
			</g>
			<g>
				<path class="st0" d="M1707.4,2305.9c25.8,2.9,58.3,2.2,76.7-17.9c36.7-40,12-138.7,12-138.7s58,76.2,111.3,74
					c29.3-1.2,52.3-28.2,67.8-52.2"/>
			</g>
			<g>
				<path class="st0" d="M1936.8,2414.5c0,0-11.4-10.7-19-10c-10.5,1-20.5,11.8-20.5,11.8s2.8-14.8-3.3-21.8
					c-6-6.8-20.6-6.2-20.6-6.2s12.6-8.8,12.6-17.3c0-7.2-8.5-15.4-8.5-15.4s10.6-2.2,14-7.8c3.9-6.4-1.5-18-1.5-18s9.5,12.5,18.8,12
					c7.8-0.4,15.5-9.3,15.5-9.3s-0.4,11.5,4.8,15.8c5.1,4.3,16.6,2,16.6,2s-5.4,9.4-3.6,17.3c1.7,7.6,10.1,13.4,10.1,13.4
					s-13.3,3.6-18.1,10.8C1930.1,2397.6,1936.8,2414.5,1936.8,2414.5z"/>
			</g>
			<g>
				<path class="st0" d="M1809.2,2618.9c2.4-3.4,29-42.1,12.3-88.1c-15.3-42.5-54.9-56.4-59.9-58.1"/>
			</g>
			<g>
				<path class="st0" d="M2164.4,2430.6c-32.8,3.8-64.9-10.8-82.9-37.9c-26-39.2-7.4-81.8-6.2-84.4"/>
			</g>
		</g>
		<g>
			<g>
				<g>
					<path class="st0" d="M1474.7,1590c-9.6-16.9-23-45.9-29.8-60.9c-23.9-52.7-24.6-87.4-24.6-87.4s4.5,51.2,4.2,77.5
						c-0.1,13-1.3,48.1-12,80.7"/>
				</g>
				<g>
					<path class="st0" d="M1412.4,1663.5c12.5-30,17.9-62.6,19.7-77.5c3.4-27.3-1.6-78.6-1.6-78.6s2.6,41.2,30.8,90.6
						c8.4,14.7,23.3,40.1,33.7,54.7"/>
				</g>
				<g>
					<path class="st0" d="M1412.3,1727.1c14.3-27.3,23.8-57.4,27.5-74.2c6.1-28.1,1.1-79.7,1.1-79.7s4.7,47.7,37,93.9
						c10,14.3,26.5,36.1,37.7,48.4"/>
				</g>
				<g>
					<path class="st0" d="M1412.3,1790.7c16.1-24.5,29.6-52.2,35.2-71c8.6-29,3.7-80.8,3.7-80.8s7.2,54.2,43.2,97.1
						c11.7,14,29.6,32.2,41.6,42.2"/>
				</g>
				<g>
					<path class="st0" d="M1412.2,1854.3c17.9-21.8,35.3-47.1,42.9-67.7c11-30,6.3-81.9,6.3-81.9s9.9,60.6,49.4,100.3
						c13.5,13.6,32.7,28.2,45.6,35.9"/>
				</g>
				<g>
					<path class="st0" d="M1412.1,1917.9c19.7-19.1,40.9-42,50.6-64.5c13.3-30.9,8.9-83,8.9-83s12.7,66.8,55.6,103.6
						c15.4,13.2,35.9,24.3,49.5,29.6"/>
				</g>
				<g>
					<path class="st0" d="M1412,1981.5c21.5-16.4,46.5-36.9,58.3-61.2c15.5-31.9,11.5-84.1,11.5-84.1s15.7,72.8,61.8,106.8
						c17.3,12.7,39,20.3,53.4,23.4"/>
				</g>
				<g>
					<path class="st0" d="M1412,2045.1c23.3-13.7,52-31.9,66-58c17.7-33,14.2-85.2,14.2-85.2s18.7,78.7,67.9,110.1
						c19.2,12.2,42.2,16.3,57.4,17.1"/>
				</g>
				<g>
					<path class="st0" d="M1411.9,2108.7c25.1-11,57.5-26.9,73.7-54.7c19.9-34.1,16.8-86.3,16.8-86.3s21.7,84.5,74.1,113.3
						c21.1,11.6,45.3,12.4,61.3,10.9"/>
				</g>
				<g>
					<path class="st0" d="M1411.8,2172.3c26.9-8.3,62.9-21.9,81.4-51.5c22-35.2,19.4-87.4,19.4-87.4s24.8,90.1,80.3,116.5
						c23.1,11,48.4,8.4,65.3,4.6"/>
				</g>
				<g>
					<path class="st0" d="M1411.7,2235.9c28.6-5.6,68.4-16.9,89.1-48.2c24.1-36.4,22-88.5,22-88.5s27.8,95.7,86.5,119.8
						c25,10.3,51.6,4.5,69.2-1.7"/>
				</g>
				<g>
					<path class="st0" d="M1411.6,2299.6c30.4-2.9,73.8-12,96.9-45c26.3-37.5,24.7-89.6,24.7-89.6s30.8,101.1,92.7,123
						c26.9,9.5,54.7,0.5,73.1-7.9"/>
				</g>
			</g>
			<g>
				<path class="st0" d="M1411.1,2716.1c30.7-44.3,73.8-93.9,114.7-86.7c51,8.9,95.8,96,95.8,96s1.4-91.5,38.8-118.4
					c32.9-23.7,98.2,7.7,160.9,49.2"/>
			</g>
			<g>
				<path class="st1" d="M1607.3,2653"/>
			</g>
			<g>
				<path class="st0" d="M1821.3,2656.1c-35.2-25.9-70.4-51.8-105.6-77.7c-88.6-65.2-177.2-130.4-265.7-195.6
					c-12.8-9.4-25.6-18.9-38.4-28.3c5,6.4,21.5,29.4,20.7,62.8c-0.7,30.6-15.6,51.4-20.9,58.2"/>
			</g>
			<g>
				<path class="st0" d="M1745.9,2424.1c-17.9-9-38.6-23.6-46.6-46.9c-12.1-35.1,11.5-69.1,8.2-71.3c-5.3-3.5-69.9,80.6-296.3,410.1
					"/>
			</g>
			<g>
				<line class="st0" x1="1577.4" y1="2476.6" x2="1754.5" y2="2450.7"/>
			</g>
			<g>
				<line class="st0" x1="1577.4" y1="2476.6" x2="1411.4" y2="2500.1"/>
			</g>
			<g>
				<path class="st0" d="M1632.6,2397.2c-8.6,3.1-23.8,16.1-40.1,9.5c-18.1-7.3-26.5-29.1-26.5-29.1s0.6,33.2-14.5,43.9
					c-15.9,11.3-50.6-1.6-50.6-1.6s23.5,31.3,16.3,48.7c-4.8,11.6-22.1,19.6-22.1,19.6s19.6,8.9,27.2,23.1c10.4,19.3-5,51-5,51
					s27.4-23.1,47.4-18.2c20.8,5.1,33.6,41.1,33.6,41.1s-3.1-29.7,10.1-41.4c16.1-14.2,57.5-1.6,57.5-1.6s-29.2-31.2-23.7-51.4
					c4.9-18.1,37.3-29.3,37.3-29.3s-30.4-0.4-43.6-18.1C1624.8,2428.8,1631.8,2407.4,1632.6,2397.2z"/>
			</g>
			<g>
				<path class="st0" d="M1610.4,2647c0,0-0.8-49.6,22-66.7c26.1-19.6,86.6,2.6,86.6,2.6s-37.4-49.1-27.4-82.7
					c9.1-30.4,56.4-48.5,56.4-48.5s-59.7,2.3-77.9-23.6c-18.7-26.6,4.8-85.7,4.8-85.7s-50.6,39.4-80.9,28.6
					c-26.4-9.4-39.8-56.4-39.8-56.4s-4.2,53.2-31,69.5c-26.8,16.3-76.7-3.9-76.7-3.9s39.8,47.6,29.9,78.1
					c-7.2,21.9-38.1,38.1-38.1,38.1s39.6,12.9,52.7,37.3c16.6,31-12.9,85.6-12.9,85.6s45.2-39.1,78.7-30.8
					C1588.8,2596.3,1610.4,2647,1610.4,2647z"/>
			</g>
			<g>
				<path class="st0" d="M1707.4,2305.9c-19.1,17.5-45.8,36.1-72.6,30.7c-53.2-10.8-91.2-105.1-91.2-105.1s-2.1,95.7-46.5,125.3
					c-24.4,16.3-58.9,8-85.5-2.3"/>
			</g>
			<g>
				<path class="st0" d="M1585.8,2528.6c0,0,3-15.4,9.5-19.3c9.1-5.4,23.5-2.6,23.5-2.6s-11-10.3-10.2-19.5c0.8-9,13-17.1,13-17.1
					s-15.3,0.3-20.4-6.6c-4.2-5.8-2.2-17.5-2.2-17.5s-9.8,4.4-15.9,1.9c-7-2.9-9.4-15.4-9.4-15.4s-0.3,15.7-8.1,20.7
					c-6.5,4.2-18,1.6-18,1.6s7.1,9.1,5.4,15.5c-1.6,6.5-12.3,11.4-12.3,11.4s9.9,4.4,13.1,11.8c3.1,7.2-0.3,16.8-0.3,16.8
					s12.9-4.9,21-1.9C1581.3,2511,1585.8,2528.6,1585.8,2528.6z"/>
			</g>
			<g>
				<path class="st0" d="M1809.2,2618.9c-4-1.3-48.2-17-61.8-64c-12.6-43.4,11.2-77.9,14.3-82.2"/>
			</g>
			<g>
				<path class="st0" d="M1411.2,2675.5c28.8-16.2,46.1-46.9,44.8-79.4c-2-47-42.1-70.5-44.6-71.9"/>
			</g>
		</g>
	</g>
	<g>
		<g>
			<g>
				<g>
					<path class="st0" d="M1575,1517.2c-13.1-14.3-36.6-36-48.8-47.1c-42.8-39-75.5-50.4-75.5-50.4s47.3,20.1,72.4,27.9
						c12.5,3.9,46.1,13.6,80.5,13.5"/>
				</g>
				<g>
					<path class="st0" d="M1664.1,1480.6c-32.4,2.7-65-2.3-79.8-5.1c-27-5.2-74.3-25.8-74.3-25.8s38.4,15.2,76.7,57.3
						c11.4,12.5,30.9,34.6,41.6,49"/>
				</g>
				<g>
					<path class="st0" d="M1724.6,1500.2c-30.3,5.2-61.9,4.9-79.1,3.2c-28.7-2.9-76.1-23.6-76.1-23.6s43.9,19.3,77.9,64.2
						c10.6,14,26.2,36.3,34.4,50.8"/>
				</g>
				<g>
					<path class="st0" d="M1785.2,1519.8c-28.3,7.7-58.8,12-78.4,11.5c-30.3-0.7-78-21.5-78-21.5s49.3,23.6,79,71.1
						c9.7,15.5,21.5,38.1,27.2,52.6"/>
				</g>
				<g>
					<path class="st0" d="M1845.7,1539.3c-26.3,10.3-55.7,19-77.7,19.9c-31.9,1.2-79.9-19.3-79.9-19.3s54.5,28.1,80.2,77.9
						c8.8,17.1,16.7,39.9,20.1,54.4"/>
				</g>
				<g>
					<path class="st0" d="M1906.2,1558.9c-24.3,12.8-52.6,25.9-76.9,28.2c-33.5,3.1-81.7-17.1-81.7-17.1s59.6,32.7,81.4,84.8
						c7.8,18.7,12,41.6,12.9,56.2"/>
				</g>
				<g>
					<path class="st0" d="M1966.7,1578.4c-22.3,15.4-49.5,32.8-76.2,36.6c-35.2,4.9-83.6-15-83.6-15s64.4,37.4,82.5,91.7
						c6.8,20.4,7.3,43.4,5.7,58"/>
				</g>
				<g>
					<path class="st0" d="M2027.2,1598c-20.2,17.9-46.4,39.6-75.5,44.9c-36.8,6.7-85.4-12.8-85.4-12.8s69.1,42.1,83.7,98.6
						c5.7,22,2.5,45.1-1.4,59.9"/>
				</g>
				<g>
					<path class="st0" d="M2087.7,1617.6c-18.2,20.4-43.3,46.4-74.8,53.2c-38.5,8.4-87.3-10.7-87.3-10.7s73.6,46.8,84.9,105.5
						c4.5,23.7-2.2,46.9-8.6,61.7"/>
				</g>
				<g>
					<path class="st0" d="M2148.3,1637.1c-16.2,23-40.3,53.1-74.1,61.6c-40.3,10.1-89.2-8.5-89.2-8.5s78.1,51.4,86,112.4
						c3.3,25.3-6.9,48.7-15.8,63.5"/>
				</g>
				<g>
					<path class="st0" d="M2208.8,1656.7c-14.2,25.5-37.2,59.8-73.4,69.9c-42,11.7-91-6.4-91-6.4s82.4,56,87.2,119.3
						c2,26.9-11.7,50.4-22.9,65.3"/>
				</g>
				<g>
					<path class="st0" d="M2269.3,1676.3c-12.1,28.1-34.2,66.5-72.7,78.2c-43.8,13.4-92.9-4.2-92.9-4.2s86.7,60.5,88.4,126.2
						c0.7,28.6-16.4,52.2-30.1,67.1"/>
				</g>
			</g>
			<g>
				<path class="st0" d="M2665.6,1804.4c-51.6,15.5-112.1,41.2-117.9,82.3c-7.3,51.3,61.8,120.8,61.8,120.8s-87.5-27-124.6,0.3
					c-32.7,24-23,95.8-2.9,168.2"/>
			</g>
			<g>
				<path class="st0" d="M2545,1971.5"/>
			</g>
			<g>
				<path class="st0" d="M2482,2176c-13.8-41.5-27.6-82.9-41.3-124.4c-34.7-104.4-69.4-208.8-104-313.2c-5-15.1-10-30.2-15-45.3
					c4.6,6.7,21.3,29.6,53.4,39.1c29.3,8.7,53.7,1,61.8-1.9"/>
			</g>
			<g>
				<path class="st0" d="M2284.6,2032.6c-3.1-19.8-10.5-44-30.2-58.9c-29.6-22.4-69.3-10.4-70.3-14.2
					c-1.7-6.1,98.3-41.6,481.6-155.2"/>
			</g>
			<g>
				<line class="st0" x1="2386.5" y1="1888.6" x2="2307.2" y2="2049.1"/>
			</g>
			<g>
				<line class="st0" x1="2386.5" y1="1888.6" x2="2460.2" y2="1738"/>
			</g>
			<g>
				<path class="st0" d="M2293.9,1916.6c5.6-7.2,22.7-17.6,21.4-35.2c-1.4-19.5-19.5-34.2-19.5-34.2s31.4,10.9,46.2-0.2
					c15.6-11.6,14.1-48.6,14.1-48.6s22.5,32,41.3,30.5c12.5-1,25.5-15,25.5-15s2.5,21.4,13.6,33c15.2,15.8,50.1,11,50.1,11
					s-30.4,18.9-32,39.5c-1.6,21.3,28.7,44.6,28.7,44.6s-27.3-12.1-42.5-3.1c-18.4,10.9-19.3,54.2-19.3,54.2s-20.6-37.4-41.5-38.4
					c-18.7-0.9-39.4,26.5-39.4,26.5s9-29-3.7-47.1C2326.4,1918.9,2303.9,1919,2293.9,1916.6z"/>
			</g>
			<g>
				<path class="st0" d="M2538.4,1972.6c0,0-46.9-16.1-70.2,0.3c-26.7,18.8-24.3,83.2-24.3,83.2s-35.2-50.7-70.2-51.6
					c-31.7-0.8-63.5,38.6-63.5,38.6s20.6-56.1,1.6-81.4c-19.6-26-83-21.9-83-21.9s53.1-36,52.2-68.2c-0.8-28-41.4-55.2-41.4-55.2
					s51.9,12.4,75.7-8.1c23.8-20.5,19.9-74.1,19.9-74.1s33,52.6,65.1,52.5c23-0.1,48-24.5,48-24.5s0.1,41.7,19.2,61.6
					c24.3,25.3,85.4,14.1,85.4,14.1s-51.1,30.9-53.6,65.4C2496.9,1936.4,2538.4,1972.6,2538.4,1972.6z"/>
			</g>
			<g>
				<path class="st0" d="M2184,1959.6c22.6-12.8,48.5-32.4,51.6-59.5c6.2-53.9-71.8-119.2-71.8-119.2s91.7,27.5,133.6-5.6
					c23-18.2,25.8-53.6,24.2-82.1"/>
			</g>
			<g>
				<path class="st0" d="M2433.3,1912.6c0,0-15.5-1.9-21.2,3.1c-8,7-9.7,21.6-9.7,21.6s-6.4-13.7-15.4-15.7
					c-8.8-2-20.3,7.1-20.3,7.1s5-14.5,0-21.4c-4.2-5.8-16-7.5-16-7.5s7.3-8,6.8-14.6c-0.6-7.5-11.8-13.7-11.8-13.7s15,4.5,22.2-1.3
					c6.1-4.9,7.1-16.6,7.1-16.6s6.4,9.5,13.1,9.9c6.6,0.4,14.6-8.2,14.6-8.2s1.2,10.8,7.2,16.1c5.9,5.1,16.1,4.9,16.1,4.9
					s-8.6,10.7-8.3,19.4C2418,1902.9,2433.3,1912.6,2433.3,1912.6z"/>
			</g>
			<g>
				<path class="st0" d="M2450.3,2152.9c0-4.2-1.3-51.1-41.8-78.5c-37.4-25.3-77.6-13.4-82.6-11.8"/>
			</g>
			<g>
				<path class="st0" d="M2627,1791.9c-24.3,22.4-58.9,29.4-89.3,18.1c-44.1-16.4-54.1-61.9-54.6-64.6"/>
			</g>
		</g>
		<g>
			<g>
				<g>
					<path class="st0" d="M1575,1517.2c-17.7-8-45.6-23.6-59.9-31.8c-50.3-28.6-71.3-56.3-71.3-56.3s33.7,38.8,49,60.2
						c7.6,10.6,27.2,39.7,37.7,72.4"/>
				</g>
				<g>
					<path class="st0" d="M1567.8,1613.3c-7.5-31.6-22.3-61.1-29.6-74.3c-13.3-24-47.5-62.7-47.5-62.7s26.3,31.8,78.2,55.2
						c15.4,7,42.4,18.7,59.4,24.4"/>
				</g>
				<g>
					<path class="st0" d="M1605.1,1664.8c-4.4-30.5-14.5-60.4-21.4-76.2c-11.6-26.4-46-65.1-46-65.1s31.9,35.8,85.1,54.2
						c16.5,5.7,42.7,13.7,58.9,17"/>
				</g>
				<g>
					<path class="st0" d="M1642.4,1716.3c-1.4-29.3-6.8-59.7-13.3-78.1c-10.1-28.6-44.5-67.5-44.5-67.5s37.7,39.6,92,53.2
						c17.7,4.4,42.9,8.6,58.4,9.6"/>
				</g>
				<g>
					<path class="st0" d="M1679.7,1767.8c1.6-28.2,0.9-58.8-5.1-80c-8.7-30.7-43.1-70-43.1-70s43.6,43.2,98.9,52.2
						c19,3.1,43.1,3.6,57.9,2.3"/>
				</g>
				<g>
					<path class="st0" d="M1717,1819.3c4.7-27,8.4-58,3-81.9c-7.4-32.8-41.6-72.4-41.6-72.4s49.5,46.5,105.8,51.1
						c20.2,1.7,43.3-1.5,57.5-5.1"/>
				</g>
				<g>
					<path class="st0" d="M1754.4,1870.8c7.7-25.9,15.9-57.2,11.2-83.8c-6.2-35-40.1-74.8-40.1-74.8s55.6,54.4,112.7,50.1
						c21.4-1.6,43.5-6.5,57-12.5"/>
				</g>
				<g>
					<path class="st0" d="M1791.7,1922.3c10.8-24.8,23.3-56.3,19.3-85.7c-5.1-37.1-38.6-77.3-38.6-77.3s61.4,52.7,119.7,49.1
						c22.7-1.4,43.7-11.6,56.5-19.9"/>
				</g>
				<g>
					<path class="st0" d="M1829,1973.8c13.8-23.6,30.7-55.5,27.5-87.6c-4-39.2-37.2-79.7-37.2-79.7s67.2,55.6,126.6,48.1
						c23.9-3,43.9-16.6,56-27.3"/>
				</g>
				<g>
					<path class="st0" d="M1866.3,2025.3c16.8-22.5,38.1-54.7,35.6-89.5c-2.9-41.4-35.7-82.2-35.7-82.2s73,58.3,133.5,47.1
						c25.1-4.7,44.1-21.6,55.5-34.6"/>
				</g>
				<g>
					<path class="st0" d="M1903.6,2076.8c19.9-21.4,45.4-53.9,43.8-91.4c-1.8-43.6-34.2-84.6-34.2-84.6s78.7,61.1,140.4,46
						c26.3-6.4,44.4-26.7,55-42"/>
				</g>
				<g>
					<path class="st0" d="M1941,2128.3c22.9-20.2,52.6-53.1,51.9-93.3c-0.8-45.8-32.7-87-32.7-87s84.3,63.7,147.3,45
						c27.4-8.1,44.6-31.7,54.5-49.4"/>
				</g>
			</g>
			<g>
				<path class="st0" d="M2185.4,2465.6c-1.2-53.9,4.5-119.3,41.8-137.6c46.5-22.8,133.9,21.4,133.9,21.4s-52.7-74.8-38.2-118.6
					c12.7-38.5,84-51.5,159.1-54.8"/>
			</g>
			<g>
				<path class="st0" d="M2307,2299.2"/>
			</g>
			<g>
				<path class="st0" d="M2482,2176c-43.7-0.3-87.4-0.6-131.1-0.8c-110-0.7-220-1.4-330-2.1c-15.9-0.1-31.8-0.2-47.7-0.3
					c7.8,2.3,34.7,11.1,53.7,38.6c17.4,25.2,17.6,50.8,17.3,59.3"/>
			</g>
			<g>
				<path class="st0" d="M2284.6,2032.6c-19.8,3.2-45.1,3.6-65.3-10.5c-30.4-21.3-31.3-62.7-35.2-62.5c-6.3,0.3-9.2,106.3,1.3,506"
					/>
			</g>
			<g>
				<line class="st0" x1="2179.2" y1="2174.1" x2="2307.2" y2="2049.1"/>
			</g>
			<g>
				<line class="st0" x1="2179.2" y1="2174.1" x2="2058.7" y2="2290.7"/>
			</g>
			<g>
				<path class="st0" d="M2177.1,2077.4c-5.1,7.6-9.8,27-26.8,31.3c-19,4.7-38.6-7.9-38.6-7.9s20,26.5,14.1,44
					c-6.2,18.5-41.8,28.5-41.8,28.5s37.4,11.5,41.8,29.9c2.9,12.2-6.4,28.8-6.4,28.8s21.1-4.3,35.6,2.7c19.7,9.5,26,44.2,26,44.2
					s8.5-34.8,27.6-42.6c19.8-8.1,51.3,13.5,51.3,13.5s-20-22.2-16.1-39.4c4.7-20.9,45.6-35.1,45.6-35.1s-41.9-8.1-49.4-27.6
					c-6.7-17.5,13-45.6,13-45.6s-24.8,17.6-45.9,11C2189.4,2107.5,2182.5,2086.1,2177.1,2077.4z"/>
			</g>
			<g>
				<path class="st0" d="M2306,2292.6c0,0-29.8-39.6-21.4-66.9c9.6-31.2,71.6-48.8,71.6-48.8s-59.1-17.8-70.8-50.8
					c-10.5-29.9,17.1-72.4,17.1-72.4s-47,36.9-76.9,26.7c-30.7-10.6-46.5-72.1-46.5-72.1s-17.8,61.6-48.7,70.7
					c-26.9,7.9-65.3-22.3-65.3-22.3s27.9,45.6,15.8,74.5c-12.1,29-64.3,41.9-64.3,41.9s60.2,15.1,70.1,45.7
					c7.1,21.9-8.4,53.2-8.4,53.2s39.7-12.8,64.5-0.8c31.6,15.3,39.8,76.8,39.8,76.8s13.6-58.2,45.6-71.2
					C2258.7,2264.3,2306,2292.6,2306,2292.6z"/>
			</g>
			<g>
				<path class="st0" d="M2184,1959.6c-5.2,25.4-15.9,56.1-40.7,67.5c-49.3,22.5-135.6-31.4-135.6-31.4s54.5,78.6,36,128.7
					c-10.2,27.5-42.9,41.1-70.6,48.4"/>
			</g>
			<g>
				<path class="st0" d="M2216.5,2211.2c0,0-6.6-14.2-3.6-21.2c4.2-9.7,17.5-15.9,17.5-15.9s-15-1.9-19.7-9.8
					c-4.6-7.8,0.5-21.5,0.5-21.5s-12.2,9.3-20.4,6.6c-6.9-2.2-12-12.9-12-12.9s-5.4,9.4-11.8,10.9c-7.3,1.8-16.7-7-16.7-7
					s9,12.9,5.6,21.5c-2.8,7.3-13.6,11.9-13.6,11.9s11,3.2,13.5,9.4c2.5,6.2-3.2,16.4-3.2,16.4s10.6-2.2,17.5,1.9
					c6.7,4,9.6,13.8,9.6,13.8s7.5-11.5,15.9-13.9C2202.5,2199.6,2216.5,2211.2,2216.5,2211.2z"/>
			</g>
			<g>
				<path class="st0" d="M2450.3,2152.9c-4,1.3-49,14.5-87.6-15.5c-35.6-27.7-36.7-69.6-36.8-74.9"/>
			</g>
			<g>
				<path class="st0" d="M2161.6,2432.7c13.8-30,9.7-65.1-10.5-90.5c-29.2-36.9-75.6-32.3-78.3-32"/>
			</g>
		</g>
	</g>
	<g>
		<g>
			<g>
				<g>
					<path class="st0" d="M1613.2,1399.3c-19-3.9-50.7-7.7-67.2-9.5c-57.5-6.4-90.7,3.6-90.7,3.6s50.1-11.6,75-20
						c12.4-4.2,45.3-16.1,73-36.4"/>
				</g>
				<g>
					<path class="st0" d="M1663.9,1317.4c-24.6,21.2-54,36.4-67.6,42.7c-24.9,11.6-75.2,22.8-75.2,22.8s40-10.3,95.7,1.2
						c16.6,3.4,45.3,9.8,62.4,15.2"/>
				</g>
				<g>
					<path class="st0" d="M1724.3,1297.6c-21.5,22-47.2,40.4-62.1,49.1c-24.9,14.5-75.5,25.7-75.5,25.7s46.9-10.3,100.7,6.1
						c16.7,5.1,42.5,14,57.7,20.9"/>
				</g>
				<g>
					<path class="st0" d="M1784.8,1277.9c-18.4,22.9-40.5,44.3-56.6,55.4c-24.9,17.2-75.7,28.5-75.7,28.5s53.8-9.9,105.7,11
						c17,6.8,39.8,18.2,53,26.5"/>
				</g>
				<g>
					<path class="st0" d="M1845.2,1258.1c-15.2,23.8-33.9,48.1-51.1,61.7c-25.1,19.7-76,31.3-76,31.3s60.6-9.4,110.7,15.9
						c17.2,8.7,37,22.4,48.2,32.2"/>
				</g>
				<g>
					<path class="st0" d="M1905.7,1238.4c-12.1,24.6-27.3,51.9-45.7,68.1c-25.3,22.2-76.2,34.2-76.2,34.2s67.4-8.6,115.7,20.8
						c17.3,10.5,34.2,26.6,43.5,37.9"/>
				</g>
				<g>
					<path class="st0" d="M1966.2,1218.6c-9,25.5-20.7,55.6-40.2,74.4c-25.6,24.6-76.4,37-76.4,37s74.1-7.6,120.7,25.7
						c17.5,12.5,31.4,30.8,38.8,43.6"/>
				</g>
				<g>
					<path class="st0" d="M2026.6,1198.9c-5.8,26.4-14.2,59.3-34.7,80.7c-25.9,27-76.7,39.8-76.7,39.8s80.6-6.6,125.7,30.6
						c17.6,14.5,28.6,35,34,49.3"/>
				</g>
				<g>
					<path class="st0" d="M2087.1,1179.2c-2.7,27.2-7.8,63-29.2,87c-26.3,29.4-76.9,42.7-76.9,42.7s87.1-5.4,130.7,35.5
						c17.6,16.5,25.8,39.2,29.3,55"/>
				</g>
				<g>
					<path class="st0" d="M2147.5,1159.4c0.4,28.1-1.4,66.6-23.8,93.4c-26.7,31.8-77.1,45.5-77.1,45.5s93.4-4.3,135.7,40.3
						c17.6,18.5,23,43.5,24.6,60.6"/>
				</g>
				<g>
					<path class="st0" d="M2208,1139.7c3.5,29,5,70.3-18.3,99.7c-27.1,34.2-77.4,48.3-77.4,48.3s99.6-3.1,140.6,45.2
						c17.5,20.6,20.2,47.7,19.8,66.3"/>
				</g>
				<g>
					<path class="st0" d="M2268.5,1119.9c6.7,29.8,11.4,73.9-12.8,106c-27.6,36.6-77.6,51.2-77.6,51.2s105.7-2,145.6,50.1
						c17.4,22.7,17.4,51.9,15.1,72"/>
				</g>
			</g>
			<g>
				<path class="st0" d="M2664.4,990.6c-32.6,42.9-66.4,99.2-47,135.9c24.2,45.8,121,61.4,121,61.4s-86.6,29.6-100.6,73.5
					c-12.4,38.7,37.7,91,96.5,137.8"/>
			</g>
			<g>
				<path class="st0" d="M2665,1196.7"/>
			</g>
			<g>
				<path class="st0" d="M2734.3,1399.2c-35.5-25.5-71-50.9-106.6-76.4c-89.4-64.1-178.8-128.1-268.2-192.2
					c-12.9-9.3-25.9-18.5-38.8-27.8c7.7,2.8,34.6,11.4,66.2,0.3c28.9-10.2,44.1-30.8,48.9-37.8"/>
			</g>
			<g>
				<path class="st0" d="M2490.3,1399.2c-14.1-14.2-34.4-29.4-59.1-29.8c-37.1-0.7-62.1,32.3-65.2,29.9c-4.9-4,55-91.4,298.4-408.6"
					/>
			</g>
			<g>
				<line class="st0" x1="2488.1" y1="1222.8" x2="2518.3" y2="1399.2"/>
			</g>
			<g>
				<line class="st0" x1="2488.1" y1="1222.8" x2="2459.1" y2="1057.6"/>
			</g>
			<g>
				<path class="st0" d="M2429.6,1299.9c0.3-9.1,8-27.6-3.3-41.1c-12.6-15-35.9-16.3-35.9-16.3s31.7-9.7,37.3-27.3
					c5.8-18.6-17.1-47.6-17.1-47.6s37,12.7,51.4,0.4c9.6-8.2,11.8-27.1,11.8-27.1s14.6,15.9,30.4,18.7c21.6,3.9,47-20.5,47-20.5
					s-13.5,33.2-2.7,50.7c11.3,18.2,49.5,19.2,49.5,19.2s-29.2,6.2-36.2,22.4c-8.5,19.6,16.2,55.2,16.2,55.2s-38.7-18.1-56.2-6.7
					c-15.7,10.2-16.3,44.6-16.3,44.6s-9.8-28.8-30.7-35.9C2457.3,1282.7,2439.1,1296,2429.6,1299.9z"/>
			</g>
			<g>
				<path class="st0" d="M2660.3,1201.5c0,0-47.4,14.6-56.6,41.5c-10.5,30.8,29.2,81.6,29.2,81.6s-58.3-20.4-87.1-0.5
					c-26.1,18-28.7,68.6-28.7,68.6s-16.3-57.5-46.6-66.8c-31.1-9.5-80,31-80,31s21.8-60.3,2.1-85.8c-17.1-22.2-65.9-20.4-65.9-20.4
					s49.3-20.5,56.5-51c7.2-30.6-27.4-71.7-27.4-71.7s57.6,23.2,83.5,4.2c18.6-13.6,24.4-48,24.4-48s24.5,33.7,51.7,38.5
					c34.6,6.2,77.4-38.8,77.4-38.8s-23.2,55-4.9,84.4C2605.5,1196.6,2660.3,1201.5,2660.3,1201.5z"/>
			</g>
			<g>
				<path class="st0" d="M2366,1399.2c10.8-23.6,20.1-54.7,6.7-78.5c-26.7-47.2-128.2-54.3-128.2-54.3s90.3-31.6,104.8-83
					c7.9-28.2-10.6-58.5-28.7-80.6"/>
			</g>
			<g>
				<path class="st0" d="M2540.1,1214.7c0,0-13.7,7.6-15.4,15c-2.3,10.3,4.8,23.1,4.8,23.1s-13.2-7.3-21.7-3.6
					c-8.3,3.6-12.2,17.7-12.2,17.7s-4.5-14.7-12.6-17.3c-6.9-2.2-17.3,3.3-17.3,3.3s1.2-10.7-3.1-15.8c-4.9-5.7-17.6-4.1-17.6-4.1
					s14.8-5.2,17.2-14.1c2-7.5-4-17.6-4-17.6s10.8,3.9,16.4,0.3c5.6-3.5,7-15.2,7-15.2s7.3,8,15.3,8.8c7.8,0.7,15.9-5.5,15.9-5.5
					s-0.7,13.8,4.7,20.6C2522,1215.8,2540.1,1214.7,2540.1,1214.7z"/>
			</g>
			<g>
				<path class="st0" d="M2695,1399.2c-2.5-3.4-31.1-40.6-80-39c-45.1,1.5-70.6,34.8-73.8,39"/>
			</g>
			<g>
				<path class="st0" d="M2625.8,1003.2c-6.5,32.4-30.4,58.4-61.7,67.1c-45.3,12.6-80.1-18.3-82.2-20.1"/>
			</g>
		</g>
		<g>
			<g>
				<g>
					<path class="st0" d="M1613.2,1399.3c-19,3.9-50.7,7.7-67.1,9.5c-57.5,6.4-90.7-3.6-90.7-3.6s50.1,11.6,75,20
						c12.4,4.2,45.3,16.1,73.1,36.4"/>
				</g>
				<g>
					<path class="st0" d="M1663.9,1481.3c-24.6-21.2-54-36.4-67.6-42.7c-24.9-11.6-75.3-22.8-75.3-22.8s40,10.3,95.7-1.3
						c16.6-3.4,45.3-9.8,62.4-15.2"/>
				</g>
				<g>
					<path class="st0" d="M1724.4,1501c-21.5-22-47.2-40.4-62.1-49.1c-24.9-14.5-75.5-25.6-75.5-25.6s46.9,10.2,100.7-6.2
						c16.7-5.1,42.5-14,57.7-20.9"/>
				</g>
				<g>
					<path class="st0" d="M1784.8,1520.8c-18.4-22.9-40.5-44.3-56.6-55.4c-24.9-17.2-75.7-28.5-75.7-28.5s53.8,9.9,105.7-11.1
						c17-6.8,39.7-18.2,52.9-26.5"/>
				</g>
				<g>
					<path class="st0" d="M1845.3,1540.5c-15.2-23.8-33.9-48.1-51.2-61.7c-25.1-19.7-76-31.3-76-31.3s60.6,9.3,110.7-15.9
						c17.2-8.7,37-22.4,48.2-32.2"/>
				</g>
				<g>
					<path class="st0" d="M1905.7,1560.2c-12.1-24.6-27.3-51.9-45.7-68c-25.3-22.2-76.2-34.1-76.2-34.1s67.4,8.5,115.7-20.8
						c17.3-10.5,34.2-26.6,43.5-37.9"/>
				</g>
				<g>
					<path class="st0" d="M1966.2,1580c-9-25.5-20.7-55.6-40.2-74.4c-25.6-24.6-76.4-37-76.4-37s74.1,7.6,120.7-25.7
						c17.5-12.5,31.4-30.8,38.7-43.6"/>
				</g>
				<g>
					<path class="st0" d="M2026.7,1599.7c-5.9-26.4-14.2-59.3-34.7-80.7c-25.9-27-76.7-39.8-76.7-39.8s80.6,6.5,125.7-30.6
						c17.5-14.5,28.6-35,34-49.3"/>
				</g>
				<g>
					<path class="st0" d="M2087.1,1619.4c-2.7-27.2-7.8-63-29.3-87c-26.3-29.4-76.9-42.7-76.9-42.7s87.1,5.4,130.7-35.5
						c17.6-16.5,25.8-39.3,29.3-55"/>
				</g>
				<g>
					<path class="st0" d="M2147.6,1639.1c0.4-28.1-1.4-66.6-23.8-93.4c-26.7-31.8-77.2-45.5-77.2-45.5s93.4,4.3,135.6-40.4
						c17.6-18.5,23-43.5,24.5-60.6"/>
				</g>
				<g>
					<path class="st0" d="M2208.1,1658.9c3.5-29,5-70.3-18.3-99.7c-27.1-34.2-77.4-48.3-77.4-48.3s99.6,3.1,140.6-45.3
						c17.5-20.6,20.2-47.7,19.8-66.3"/>
				</g>
				<g>
					<path class="st0" d="M2268.5,1678.6c6.7-29.8,11.4-73.9-12.8-106c-27.6-36.6-77.6-51.2-77.6-51.2s105.7,2,145.6-50.2
						c17.4-22.7,17.4-51.9,15.1-72"/>
				</g>
			</g>
			<g>
				<path class="st0" d="M2664.5,1807.8c-32.6-42.9-66.5-99.2-47-135.9c24.2-45.8,120.9-61.4,120.9-61.4s-86.6-29.6-100.7-73.5
					c-12.4-38.7,37.7-91,96.5-137.8"/>
			</g>
			<g>
				<path class="st0" d="M2665.1,1601.7"/>
			</g>
			<g>
				<path class="st0" d="M2734.3,1399.2c-35.5,25.5-71,50.9-106.5,76.4c-89.4,64.1-178.8,128.2-268.2,192.3
					c-12.9,9.3-25.8,18.5-38.8,27.8c7.7-2.8,34.6-11.4,66.2-0.3c28.9,10.2,44.1,30.7,48.9,37.8"/>
			</g>
			<g>
				<path class="st0" d="M2490.3,1399.2c-14.1,14.2-34.4,29.4-59,29.9c-37.1,0.7-62.1-32.3-65.2-29.8c-4.9,4,55.1,91.4,298.5,408.6"
					/>
			</g>
			<g>
				<line class="st0" x1="2488.2" y1="1575.6" x2="2518.3" y2="1399.2"/>
			</g>
			<g>
				<line class="st0" x1="2488.2" y1="1575.6" x2="2459.2" y2="1740.8"/>
			</g>
			<g>
				<path class="st0" d="M2429.7,1498.6c0.3,9.1,8,27.6-3.3,41.1c-12.6,15-35.9,16.3-35.9,16.3s31.8,9.6,37.3,27.3
					c5.8,18.6-17.1,47.6-17.1,47.6s37-12.7,51.4-0.4c9.6,8.1,11.8,27.1,11.8,27.1s14.6-15.9,30.4-18.7c21.6-3.9,47,20.5,47,20.5
					s-13.5-33.2-2.7-50.7c11.3-18.2,49.5-19.2,49.5-19.2s-29.2-6.2-36.2-22.4c-8.5-19.6,16.2-55.2,16.2-55.2s-38.7,18.1-56.2,6.7
					c-15.7-10.2-16.3-44.5-16.3-44.5s-9.8,28.8-30.7,35.9C2457.3,1515.8,2439.1,1502.5,2429.7,1498.6z"/>
			</g>
			<g>
				<path class="st0" d="M2660.4,1596.9c0,0-47.4-14.5-56.6-41.5c-10.5-30.8,29.2-81.6,29.2-81.6s-58.3,20.4-87.1,0.5
					c-26.1-18-28.7-68.6-28.7-68.6s-16.3,57.5-46.5,66.8c-31.1,9.5-80-31-80-31s21.8,60.3,2.2,85.8c-17.1,22.2-65.9,20.4-65.9,20.4
					s49.3,20.5,56.5,51c7.2,30.6-27.4,71.7-27.4,71.7s57.6-23.2,83.5-4.3c18.6,13.6,24.4,48,24.4,48s24.5-33.7,51.7-38.6
					c34.6-6.2,77.4,38.8,77.4,38.8s-23.2-55-5-84.4C2605.5,1601.8,2660.4,1596.9,2660.4,1596.9z"/>
			</g>
			<g>
				<path class="st0" d="M2366,1399.2c10.8,23.6,20.2,54.7,6.7,78.5c-26.7,47.2-128.2,54.3-128.2,54.3s90.3,31.6,104.8,83
					c7.9,28.2-10.6,58.5-28.6,80.6"/>
			</g>
			<g>
				<path class="st0" d="M2540.2,1583.7c0,0-13.7-7.6-15.4-15c-2.3-10.3,4.8-23.1,4.8-23.1s-13.2,7.3-21.7,3.6
					c-8.3-3.6-12.2-17.7-12.2-17.7s-4.5,14.7-12.6,17.3c-6.9,2.2-17.3-3.3-17.3-3.3s1.2,10.7-3.1,15.8c-4.9,5.7-17.6,4.1-17.6,4.1
					s14.8,5.2,17.2,14.1c2,7.5-4,17.6-4,17.6s10.8-3.9,16.4-0.4c5.6,3.5,7,15.2,7,15.2s7.3-8,15.3-8.8c7.8-0.7,15.9,5.5,15.9,5.5
					s-0.7-13.8,4.7-20.6C2522,1582.6,2540.2,1583.7,2540.2,1583.7z"/>
			</g>
			<g>
				<path class="st0" d="M2695,1399.2c-2.5,3.4-31.1,40.6-80,39c-45.1-1.5-70.6-34.7-73.8-39"/>
			</g>
			<g>
				<path class="st0" d="M2625.9,1795.2c-6.5-32.4-30.4-58.4-61.7-67.1c-45.3-12.6-80.1,18.3-82.2,20.2"/>
			</g>
		</g>
	</g>
	<g>
		<g>
			<g>
				<g>
					<path class="st0" d="M1574.9,1281.5c-17.7,8-45.6,23.6-59.9,31.8c-50.3,28.6-71.3,56.3-71.3,56.3s33.7-38.8,48.9-60.3
						c7.6-10.6,27.2-39.7,37.7-72.4"/>
				</g>
				<g>
					<path class="st0" d="M1567.7,1185.4c-7.5,31.6-22.3,61.2-29.5,74.3c-13.3,24-47.5,62.7-47.5,62.7s26.3-31.8,78.2-55.3
						c15.4-7,42.4-18.7,59.4-24.4"/>
				</g>
				<g>
					<path class="st0" d="M1605,1133.9c-4.4,30.5-14.5,60.4-21.4,76.2c-11.6,26.4-46,65.1-46,65.1s31.9-35.8,85.1-54.2
						c16.5-5.7,42.6-13.7,58.9-17"/>
				</g>
				<g>
					<path class="st0" d="M1642.3,1082.4c-1.4,29.3-6.7,59.7-13.2,78.1c-10.1,28.6-44.5,67.6-44.5,67.6s37.7-39.6,92-53.2
						c17.7-4.4,42.9-8.6,58.4-9.7"/>
				</g>
				<g>
					<path class="st0" d="M1679.6,1030.9c1.7,28.2,0.9,58.8-5.1,80c-8.7,30.7-43,70-43,70s43.6-43.2,98.9-52.2
						c19-3.1,43.1-3.6,57.9-2.3"/>
				</g>
				<g>
					<path class="st0" d="M1716.9,979.4c4.7,27,8.4,58,3.1,81.9c-7.4,32.8-41.6,72.4-41.6,72.4s49.5-46.6,105.8-51.2
						c20.2-1.7,43.3,1.5,57.5,5.1"/>
				</g>
				<g>
					<path class="st0" d="M1754.2,927.9c7.7,25.9,15.9,57.2,11.2,83.8c-6.2,35-40.1,74.9-40.1,74.9s55.6-54.4,112.7-50.2
						c21.4,1.6,43.5,6.5,57,12.5"/>
				</g>
				<g>
					<path class="st0" d="M1791.5,876.4c10.8,24.8,23.3,56.3,19.4,85.7c-5,37.1-38.6,77.3-38.6,77.3s61.4-52.7,119.6-49.1
						c22.7,1.4,43.7,11.5,56.5,19.9"/>
				</g>
				<g>
					<path class="st0" d="M1828.8,824.8c13.8,23.6,30.7,55.5,27.5,87.6c-3.9,39.2-37.1,79.7-37.1,79.7s67.2-55.6,126.6-48.1
						c23.9,3,43.9,16.6,56,27.2"/>
				</g>
				<g>
					<path class="st0" d="M1866.2,773.3c16.9,22.5,38.1,54.7,35.7,89.5c-2.9,41.4-35.7,82.2-35.7,82.2s73-58.4,133.5-47.1
						c25.1,4.7,44.1,21.6,55.5,34.6"/>
				</g>
				<g>
					<path class="st0" d="M1903.5,721.8c19.9,21.4,45.4,53.9,43.8,91.4c-1.8,43.6-34.2,84.6-34.2,84.6s78.7-61.1,140.4-46.1
						c26.3,6.4,44.4,26.7,55,42"/>
				</g>
				<g>
					<path class="st0" d="M1940.8,670.3c22.9,20.2,52.7,53.1,51.9,93.3c-0.8,45.8-32.7,87-32.7,87s84.3-63.7,147.3-45.1
						c27.4,8.1,44.6,31.7,54.5,49.4"/>
				</g>
			</g>
			<g>
				<path class="st0" d="M2185.1,333c-1.2,53.9,4.6,119.3,41.9,137.6c46.5,22.8,133.9-21.4,133.9-21.4s-52.7,74.9-38.2,118.6
					c12.7,38.5,84,51.5,159.1,54.7"/>
			</g>
			<g>
				<path class="st0" d="M2306.7,499.3"/>
			</g>
			<g>
				<path class="st0" d="M2481.8,622.5c-43.7,0.3-87.4,0.6-131.1,0.9c-110,0.7-220,1.4-330,2.2c-15.9,0.1-31.8,0.2-47.7,0.3
					c7.8-2.3,34.7-11.2,53.7-38.7c17.4-25.2,17.6-50.8,17.3-59.3"/>
			</g>
			<g>
				<path class="st0" d="M2284.4,765.9c-19.8-3.2-45.1-3.6-65.3,10.6c-30.4,21.3-31.3,62.7-35.2,62.5c-6.3-0.3-9.2-106.3,1.2-506"/>
			</g>
			<g>
				<line class="st0" x1="2179" y1="624.5" x2="2307" y2="749.4"/>
			</g>
			<g>
				<line class="st0" x1="2179" y1="624.5" x2="2058.4" y2="507.9"/>
			</g>
			<g>
				<path class="st0" d="M2177,721.2c-5.1-7.6-9.8-27-26.9-31.3c-19-4.7-38.6,7.9-38.6,7.9s20-26.5,14.1-44
					c-6.2-18.5-41.8-28.5-41.8-28.5s37.4-11.5,41.8-29.9c2.9-12.2-6.4-28.8-6.4-28.8s21.1,4.3,35.6-2.7c19.7-9.5,26-44.2,26-44.2
					s8.6,34.8,27.7,42.6c19.8,8.1,51.3-13.5,51.3-13.5s-20,22.2-16.1,39.4c4.7,20.9,45.6,35.1,45.6,35.1s-41.9,8.1-49.4,27.6
					c-6.7,17.5,13,45.6,13,45.6s-24.8-17.5-45.9-11C2189.2,691,2182.3,712.4,2177,721.2z"/>
			</g>
			<g>
				<path class="st0" d="M2305.7,505.9c0,0-29.8,39.6-21.4,66.9c9.6,31.1,71.6,48.8,71.6,48.8s-59.1,17.8-70.8,50.8
					c-10.5,29.9,17.1,72.4,17.1,72.4s-47-36.9-76.9-26.6c-30.7,10.6-46.5,72.2-46.5,72.2s-17.8-61.6-48.7-70.7
					c-26.9-7.9-65.3,22.3-65.3,22.3s27.9-45.6,15.7-74.5c-12.1-29-64.3-41.9-64.3-41.9s60.2-15.1,70.1-45.7
					c7.1-21.9-8.5-53.2-8.5-53.2s39.7,12.8,64.5,0.8c31.6-15.3,39.8-76.9,39.8-76.9s13.6,58.2,45.6,71.2
					C2258.5,534.2,2305.7,505.9,2305.7,505.9z"/>
			</g>
			<g>
				<path class="st0" d="M2183.9,839c-5.2-25.4-15.9-56.1-40.7-67.4c-49.4-22.5-135.6,31.4-135.6,31.4s54.5-78.7,36-128.8
					c-10.2-27.5-43-41.1-70.6-48.4"/>
			</g>
			<g>
				<path class="st0" d="M2216.3,587.3c0,0-6.6,14.2-3.6,21.2c4.2,9.7,17.5,15.9,17.5,15.9s-15,1.9-19.7,9.8
					c-4.6,7.8,0.5,21.5,0.5,21.5s-12.2-9.3-20.4-6.6c-6.9,2.2-12,12.9-12,12.9s-5.4-9.4-11.8-10.9c-7.3-1.8-16.7,7-16.7,7
					s9-12.9,5.6-21.5c-2.8-7.3-13.6-11.9-13.6-11.9s11-3.2,13.5-9.4c2.5-6.2-3.2-16.4-3.2-16.4s10.6,2.2,17.5-1.9
					c6.7-4,9.6-13.8,9.6-13.8s7.5,11.5,15.9,13.9C2202.3,598.9,2216.3,587.3,2216.3,587.3z"/>
			</g>
			<g>
				<path class="st0" d="M2450,645.5c-4-1.3-49-14.5-87.6,15.5c-35.6,27.7-36.7,69.6-36.8,74.9"/>
			</g>
			<g>
				<path class="st0" d="M2161.3,365.8c13.8,30,9.7,65.1-10.4,90.5c-29.2,36.9-75.6,32.3-78.3,32"/>
			</g>
		</g>
		<g>
			<g>
				<g>
					<path class="st0" d="M1574.9,1281.5c-13.1,14.3-36.5,36-48.7,47.2c-42.8,39-75.5,50.4-75.5,50.4s47.3-20.1,72.4-27.9
						c12.5-3.9,46.1-13.6,80.5-13.5"/>
				</g>
				<g>
					<path class="st0" d="M1664.1,1318c-32.4-2.7-65,2.3-79.8,5.2c-27,5.2-74.3,25.8-74.3,25.8s38.4-15.2,76.7-57.3
						c11.4-12.5,30.9-34.6,41.6-49"/>
				</g>
				<g>
					<path class="st0" d="M1724.6,1298.5c-30.3-5.2-61.9-4.9-79.1-3.2c-28.7,2.9-76.1,23.6-76.1,23.6s43.9-19.3,77.9-64.2
						c10.5-14,26.2-36.3,34.4-50.8"/>
				</g>
				<g>
					<path class="st0" d="M1785.1,1278.9c-28.3-7.7-58.8-12-78.4-11.5c-30.3,0.8-78,21.5-78,21.5s49.3-23.6,79-71.1
						c9.7-15.5,21.5-38.1,27.2-52.6"/>
				</g>
				<g>
					<path class="st0" d="M1845.6,1259.3c-26.3-10.3-55.7-19-77.7-19.9c-31.9-1.2-79.9,19.3-79.9,19.3s54.5-28.1,80.2-78
						c8.8-17.1,16.7-39.9,20.1-54.4"/>
				</g>
				<g>
					<path class="st0" d="M1906.1,1239.7c-24.3-12.8-52.6-25.9-77-28.2c-33.5-3.1-81.7,17.2-81.7,17.2s59.6-32.7,81.3-84.8
						c7.8-18.7,12-41.6,12.9-56.2"/>
				</g>
				<g>
					<path class="st0" d="M1966.7,1220.2c-22.3-15.4-49.5-32.8-76.2-36.5c-35.2-4.9-83.6,15-83.6,15s64.4-37.4,82.5-91.7
						c6.8-20.4,7.3-43.4,5.7-58"/>
				</g>
				<g>
					<path class="st0" d="M2027.2,1200.6c-20.2-17.9-46.4-39.6-75.5-44.9c-36.8-6.7-85.4,12.9-85.4,12.9s69.1-42.1,83.7-98.6
						c5.7-22,2.5-45.1-1.4-59.9"/>
				</g>
				<g>
					<path class="st0" d="M2087.7,1181c-18.2-20.4-43.3-46.4-74.8-53.2c-38.5-8.4-87.3,10.7-87.3,10.7s73.6-46.8,84.8-105.5
						c4.5-23.7-2.2-46.9-8.6-61.7"/>
				</g>
				<g>
					<path class="st0" d="M2148.2,1161.4c-16.2-23-40.3-53.1-74.1-61.5c-40.3-10.1-89.2,8.5-89.2,8.5s78-51.4,86-112.4
						c3.3-25.3-6.9-48.7-15.8-63.5"/>
				</g>
				<g>
					<path class="st0" d="M2208.7,1141.8c-14.2-25.5-37.2-59.8-73.4-69.9c-42-11.7-91,6.4-91,6.4s82.4-56,87.2-119.3
						c2-26.9-11.7-50.4-23-65.3"/>
				</g>
				<g>
					<path class="st0" d="M2269.2,1122.3c-12.1-28.1-34.2-66.5-72.7-78.2c-43.8-13.4-92.9,4.2-92.9,4.2s86.7-60.5,88.3-126.2
						c0.7-28.5-16.4-52.2-30.1-67.1"/>
				</g>
			</g>
			<g>
				<path class="st0" d="M2665.5,994c-51.6-15.5-112.1-41.2-117.9-82.3c-7.3-51.3,61.7-120.8,61.7-120.8s-87.5,27-124.6-0.3
					c-32.7-24-23-95.8-2.9-168.2"/>
			</g>
			<g>
				<path class="st0" d="M2544.9,827"/>
			</g>
			<g>
				<path class="st0" d="M2481.8,622.5c-13.8,41.5-27.5,82.9-41.3,124.4c-34.6,104.4-69.3,208.8-103.9,313.2
					c-5,15.1-10,30.2-15,45.3c4.6-6.7,21.3-29.6,53.3-39.1c29.3-8.7,53.7-1.1,61.8,1.9"/>
			</g>
			<g>
				<path class="st0" d="M2284.4,765.9c-3.1,19.8-10.5,44-30.2,58.9c-29.6,22.4-69.3,10.4-70.3,14.2c-1.7,6.1,98.3,41.6,481.6,155.1
					"/>
			</g>
			<g>
				<line class="st0" x1="2386.4" y1="909.9" x2="2307" y2="749.4"/>
			</g>
			<g>
				<line class="st0" x1="2386.4" y1="909.9" x2="2460.1" y2="1060.5"/>
			</g>
			<g>
				<path class="st0" d="M2293.8,881.9c5.6,7.2,22.7,17.6,21.4,35.2c-1.3,19.5-19.4,34.2-19.4,34.2s31.4-10.9,46.2,0.2
					c15.6,11.6,14.2,48.6,14.2,48.6s22.5-32,41.3-30.5c12.5,1,25.5,15,25.5,15s2.5-21.4,13.6-33c15.1-15.8,50.1-11,50.1-11
					s-30.5-18.9-32-39.5c-1.6-21.3,28.7-44.6,28.7-44.6s-27.3,12.1-42.5,3.2c-18.4-10.9-19.3-54.2-19.3-54.2s-20.6,37.4-41.5,38.4
					c-18.7,1-39.4-26.5-39.4-26.5s9,29-3.7,47.1C2326.2,879.5,2303.7,879.5,2293.8,881.9z"/>
			</g>
			<g>
				<path class="st0" d="M2538.2,825.9c0,0-46.9,16.1-70.2-0.3c-26.7-18.8-24.3-83.2-24.3-83.2s-35.2,50.8-70.2,51.6
					c-31.7,0.8-63.5-38.6-63.5-38.6s20.6,56.1,1.6,81.4c-19.6,26-83,21.9-83,21.9s53.1,35.9,52.2,68.1c-0.8,28-41.4,55.2-41.4,55.2
					s51.9-12.4,75.7,8c23.8,20.5,20,74.1,20,74.1s33-52.6,65.1-52.5c23,0,48,24.5,48,24.5s0-41.7,19.2-61.6
					c24.3-25.3,85.4-14.1,85.4-14.1s-51.1-30.9-53.6-65.4C2496.7,862.1,2538.2,825.9,2538.2,825.9z"/>
			</g>
			<g>
				<path class="st0" d="M2183.9,839c22.6,12.8,48.5,32.4,51.6,59.5c6.2,53.9-71.8,119.3-71.8,119.3s91.7-27.6,133.6,5.5
					c23,18.1,25.8,53.5,24.2,82.1"/>
			</g>
			<g>
				<path class="st0" d="M2433.2,885.8c0,0-15.5,1.9-21.3-3.1c-8-7-9.7-21.6-9.7-21.6s-6.4,13.7-15.4,15.7c-8.8,2-20.3-7.1-20.3-7.1
					s5,14.5,0,21.4c-4.2,5.8-16,7.5-16,7.5s7.3,8,6.8,14.6c-0.6,7.5-11.8,13.7-11.8,13.7s15-4.5,22.2,1.3c6.1,4.9,7.1,16.6,7.1,16.6
					s6.4-9.5,13.1-10c6.6-0.4,14.6,8.2,14.6,8.2s1.2-10.8,7.2-16.1c5.9-5.1,16.1-4.9,16.1-4.9s-8.6-10.7-8.3-19.4
					C2417.9,895.6,2433.2,885.8,2433.2,885.8z"/>
			</g>
			<g>
				<path class="st0" d="M2450,645.5c0,4.2-1.3,51.1-41.8,78.5c-37.4,25.3-77.6,13.4-82.6,11.8"/>
			</g>
			<g>
				<path class="st0" d="M2626.9,1006.5c-24.3-22.4-58.9-29.4-89.3-18c-44.1,16.4-54.1,61.9-54.6,64.6"/>
			</g>
		</g>
	</g>
	<g>
		<g>
			<g>
				<path class="st0" d="M1474.7,1208.7c-9.6,16.9-23,45.9-29.8,60.9c-23.9,52.7-24.6,87.4-24.6,87.4s4.5-51.2,4.2-77.5
					c-0.1-13-1.3-48.1-12.1-80.7"/>
			</g>
			<g>
				<path class="st0" d="M1412.4,1135.2c12.5,30,17.9,62.6,19.8,77.5c3.4,27.3-1.6,78.6-1.6,78.6s2.6-41.2,30.8-90.7
					c8.4-14.7,23.3-40.1,33.7-54.7"/>
			</g>
			<g>
				<path class="st0" d="M1412.3,1071.6c14.3,27.2,23.8,57.4,27.5,74.2c6.1,28.1,1.1,79.7,1.1,79.7s4.7-47.7,37-93.9
					c10-14.4,26.5-36.1,37.7-48.4"/>
			</g>
			<g>
				<path class="st0" d="M1412.2,1008c16.1,24.5,29.6,52.2,35.2,71c8.7,29,3.7,80.8,3.7,80.8s7.2-54.2,43.1-97.1
					c11.7-14,29.6-32.2,41.6-42.2"/>
			</g>
			<g>
				<path class="st0" d="M1412.1,944.4c17.9,21.8,35.3,47.1,42.9,67.7c11,29.9,6.3,81.9,6.3,81.9s9.8-60.6,49.3-100.4
					c13.5-13.6,32.7-28.2,45.5-35.9"/>
			</g>
			<g>
				<path class="st0" d="M1412,880.8c19.7,19.1,40.9,42,50.6,64.5c13.3,30.9,8.9,83,8.9,83s12.7-66.8,55.5-103.6
					c15.4-13.2,35.9-24.3,49.5-29.6"/>
			</g>
			<g>
				<path class="st0" d="M1411.9,817.2c21.5,16.4,46.5,36.9,58.3,61.2c15.5,31.9,11.6,84.1,11.6,84.1s15.6-72.8,61.7-106.8
					c17.3-12.8,39-20.3,53.4-23.4"/>
			</g>
			<g>
				<path class="st0" d="M1411.8,753.6c23.3,13.7,52,31.9,66,58c17.7,33,14.2,85.2,14.2,85.2s18.7-78.7,67.9-110.1
					c19.2-12.2,42.2-16.4,57.4-17.1"/>
			</g>
			<g>
				<path class="st0" d="M1411.7,690c25.1,11,57.5,26.8,73.7,54.7c19.9,34.1,16.8,86.3,16.8,86.3s21.7-84.5,74.1-113.3
					c21.1-11.6,45.3-12.4,61.3-10.9"/>
			</g>
			<g>
				<path class="st0" d="M1411.6,626.4c26.9,8.3,62.9,21.9,81.4,51.5c22,35.2,19.4,87.4,19.4,87.4s24.8-90.1,80.3-116.5
					c23.1-11,48.4-8.4,65.3-4.6"/>
			</g>
			<g>
				<path class="st0" d="M1411.5,562.8c28.6,5.6,68.4,16.9,89.2,48.2c24.1,36.3,22.1,88.5,22.1,88.5s27.8-95.7,86.5-119.8
					c25-10.3,51.6-4.5,69.2,1.6"/>
			</g>
			<g>
				<path class="st0" d="M1411.4,499.2c30.4,2.9,73.8,12,96.9,44.9c26.3,37.5,24.7,89.6,24.7,89.6s30.7-101.1,92.7-123
					c26.9-9.5,54.7-0.5,73.1,7.9"/>
			</g>
		</g>
		<g>
			<path class="st0" d="M1410.8,82.7c30.7,44.3,73.8,93.8,114.7,86.7c51-8.9,95.8-96.1,95.8-96.1s1.4,91.5,38.8,118.4
				c32.9,23.7,98.2-7.7,160.9-49.2"/>
		</g>
		<g>
			<path class="st0" d="M1607,145.7"/>
		</g>
		<g>
			<path class="st0" d="M1820.9,142.5c-35.2,25.9-70.4,51.8-105.5,77.7c-88.6,65.2-177.1,130.5-265.7,195.7
				c-12.8,9.4-25.6,18.9-38.4,28.3c5-6.4,21.5-29.4,20.7-62.8c-0.8-30.6-15.6-51.4-20.9-58.2"/>
		</g>
		<g>
			<path class="st0" d="M1745.6,374.5c-17.9,9-38.6,23.6-46.6,46.9c-12.1,35.1,11.6,69.1,8.2,71.3c-5.3,3.5-69.9-80.6-296.4-410.1"
				/>
		</g>
		<g>
			<line class="st0" x1="1577.2" y1="322.1" x2="1754.2" y2="347.9"/>
		</g>
		<g>
			<line class="st0" x1="1577.2" y1="322.1" x2="1411.1" y2="298.6"/>
		</g>
		<g>
			<path class="st0" d="M1632.4,401.5c-8.6-3.1-23.8-16.1-40.1-9.5c-18.1,7.3-26.5,29.1-26.5,29.1s0.6-33.2-14.5-43.9
				c-15.9-11.3-50.6,1.6-50.6,1.6s23.5-31.3,16.3-48.8c-4.8-11.6-22.1-19.6-22.1-19.6s19.6-8.9,27.2-23.1c10.4-19.3-5-51-5-51
				s27.4,23.1,47.4,18.2c20.8-5.1,33.6-41.1,33.6-41.1s-3.1,29.7,10.1,41.4c16.1,14.2,57.5,1.6,57.5,1.6s-29.2,31.2-23.7,51.4
				c4.9,18.1,37.3,29.3,37.3,29.3s-30.4,0.4-43.6,18.1C1624.6,369.9,1631.6,391.3,1632.4,401.5z"/>
		</g>
		<g>
			<path class="st0" d="M1610.1,151.7c0,0-0.8,49.6,22,66.7c26.1,19.6,86.6-2.6,86.6-2.6s-37.4,49.1-27.4,82.7
				c9.1,30.4,56.4,48.5,56.4,48.5s-59.7-2.3-77.9,23.6c-18.7,26.6,4.8,85.7,4.8,85.7s-50.6-39.4-80.9-28.5
				c-26.4,9.4-39.7,56.4-39.7,56.4s-4.2-53.2-31.1-69.5c-26.9-16.3-76.7,3.9-76.7,3.9s39.8-47.6,29.8-78.1
				c-7.2-21.9-38.1-38-38.1-38s39.6-12.9,52.6-37.3c16.6-31-13-85.6-13-85.6s45.2,39.1,78.7,30.8
				C1588.4,202.4,1610.1,151.7,1610.1,151.7z"/>
		</g>
		<g>
			<path class="st0" d="M1707.2,492.7c-19.1-17.5-45.8-36.1-72.6-30.6c-53.2,10.8-91.2,105.1-91.2,105.1s-2.1-95.7-46.6-125.3
				c-24.4-16.2-58.9-8-85.5,2.3"/>
		</g>
		<g>
			<path class="st0" d="M1585.5,270.1c0,0,3,15.4,9.5,19.3c9.1,5.4,23.5,2.5,23.5,2.5s-11,10.3-10.2,19.5c0.8,9,13,17.1,13,17.1
				s-15.3-0.3-20.4,6.6c-4.2,5.8-2.2,17.5-2.2,17.5s-9.8-4.4-15.9-1.9c-7,2.9-9.4,15.4-9.4,15.4s-0.3-15.7-8.1-20.7
				c-6.6-4.2-18-1.6-18-1.6s7.1-9.1,5.4-15.5c-1.6-6.5-12.3-11.4-12.3-11.4s9.9-4.4,13.1-11.9c3.1-7.2-0.3-16.8-0.3-16.8
				s12.9,4.9,21,1.9C1581,287.7,1585.5,270.1,1585.5,270.1z"/>
		</g>
		<g>
			<path class="st0" d="M1808.8,179.8c-4,1.3-48.2,17-61.8,64c-12.5,43.4,11.2,77.9,14.3,82.2"/>
		</g>
		<g>
			<path class="st0" d="M1410.8,123.3c28.8,16.2,46.1,46.9,44.8,79.4c-2,47-42.1,70.6-44.5,71.9"/>
		</g>
	</g>
	<g>
		<g>
			<g>
				<path class="st0" d="M1474.7,1208.7c-2.2,19.3-8.4,50.6-11.7,66.8c-11.7,56.7-31.5,85.2-31.5,85.2s26.5-44.1,42.2-65.2
					c7.8-10.5,29.3-38.1,57.2-58.2"/>
			</g>
			<g>
				<path class="st0" d="M1568.3,1185.8c-27.7,16.9-51.3,40.1-61.5,51.1c-18.7,20.1-44.9,64.5-44.9,64.5s22.1-34.9,28.4-91.4
					c1.8-16.8,4.7-46.1,4.8-64.1"/>
			</g>
			<g>
				<path class="st0" d="M1605.7,1134.4c-27.6,13.6-53,32.4-65.8,43.9c-21.5,19.2-47.7,63.9-47.7,63.9s24.2-41.4,25.3-97.7
					c0.3-17.5-0.2-44.8-2-61.3"/>
			</g>
			<g>
				<path class="st0" d="M1643.2,1083c-27.5,10.4-54.6,24.9-70.2,36.7c-24.1,18.4-50.5,63.2-50.5,63.2s26-48.1,22.2-103.9
					c-1.3-18.2-5-43.4-8.9-58.6"/>
			</g>
			<g>
				<path class="st0" d="M1680.6,1031.6c-27.3,7.1-56.2,17.4-74.5,29.6c-26.5,17.8-53.3,62.6-53.3,62.6s27.6-54.8,19-110.2
					c-2.9-19-9.9-42.1-15.8-55.8"/>
			</g>
			<g>
				<path class="st0" d="M1718.1,980.2c-27.2,3.9-57.8,9.9-78.8,22.4c-28.9,17.2-56,61.9-56,61.9s29-61.5,15.9-116.5
					c-4.7-19.7-14.8-40.7-22.6-53.1"/>
			</g>
			<g>
				<path class="st0" d="M1755.5,928.8c-27,0.7-59.3,2.5-83.2,15.3c-31.3,16.7-58.8,61.3-58.8,61.3s30.1-68.1,12.8-122.7
					c-6.5-20.5-19.6-39.4-29.5-50.3"/>
			</g>
			<g>
				<path class="st0" d="M1793,877.4c-26.9-2.6-60.8-4.8-87.5,8.1c-33.7,16.3-61.6,60.6-61.6,60.6s31.1-74.7,9.7-129
					c-8.3-21.2-24.5-38-36.4-47.6"/>
			</g>
			<g>
				<path class="st0" d="M1830.4,826c-26.7-5.8-62.3-12.1-91.8,0.9c-36.1,15.9-64.3,60-64.3,60s32.1-81.1,6.6-135.2
					c-10.3-21.8-29.4-36.7-43.2-44.8"/>
			</g>
			<g>
				<path class="st0" d="M1867.9,774.6c-26.6-9.1-63.8-19.3-96.1-6.2c-38.5,15.5-67.1,59.3-67.1,59.3s32.9-87.5,3.5-141.5
					c-12.2-22.4-34.2-35.3-50.1-42.1"/>
			</g>
			<g>
				<path class="st0" d="M1905.3,723.2c-26.5-12.3-65.3-26.5-100.5-13.4c-40.9,15.2-69.9,58.7-69.9,58.7s33.7-93.7,0.4-147.7
					c-14.2-23-39.1-33.9-57-39.3"/>
			</g>
			<g>
				<path class="st0" d="M1942.8,671.8c-26.3-15.6-66.8-33.7-104.8-20.5c-43.3,14.9-72.7,58-72.7,58s34.5-99.9-2.7-154
					c-16.2-23.5-44-32.6-63.8-36.6"/>
			</g>
		</g>
		<g>
			<path class="st0" d="M2188,335.1c-50.8,17.8-114.9,32.5-143.8,2.7c-36.1-37.2-21-134-21-134s-54.9,73.2-101,73
				c-40.6-0.2-74.9-64-101.3-134.4"/>
		</g>
		<g>
			<path class="st0" d="M1992.2,270.8"/>
		</g>
		<g>
			<path class="st0" d="M1820.9,142.5c13.2,41.6,26.5,83.3,39.7,124.9c33.3,104.8,66.7,209.6,100,314.5c4.8,15.2,9.6,30.3,14.5,45.5
				c-0.3-8.1-0.1-36.5,20.2-63c18.6-24.3,42.9-32.4,51.1-34.8"/>
		</g>
		<g>
			<path class="st0" d="M1745.6,374.5c9.2,17.8,17.3,41.8,10.2,65.4c-10.8,35.5-50,49.1-48.5,52.8c2.3,5.9,103.9-24.1,480.8-157.6"
				/>
		</g>
		<g>
			<line class="st0" x1="1912.7" y1="431.1" x2="1754.2" y2="347.9"/>
		</g>
		<g>
			<line class="st0" x1="1912.7" y1="431.1" x2="2060.9" y2="509.6"/>
		</g>
		<g>
			<path class="st0" d="M1821.3,462.9c8.8,2.5,28.7,0.9,38,15.9c10.4,16.6,4.4,39.1,4.4,39.1s19-27.2,37.5-27c19.5,0.2,40,31,40,31
				s-0.6-39.1,15.5-49c10.7-6.6,29.4-2.8,29.4-2.8s-10.6-18.7-8.4-34.7c3-21.7,34-38.4,34-38.4s-35.7,2.6-49.1-13.1
				c-13.8-16.3-3-53-3-53s-14.9,25.8-32.5,27.5c-21.3,2-47.5-32.5-47.5-32.5s5.3,42.4-11,55.5c-14.6,11.8-47.4,1.7-47.4,1.7
				s24.4,18.2,24.7,40.3C1846.2,441.9,1828,455.1,1821.3,462.9z"/>
		</g>
		<g>
			<path class="st0" d="M1986.2,273.8c0,0-28.5,40.6-57,41c-32.6,0.5-68.5-53-68.5-53s1.4,61.7-26.5,83
				c-25.2,19.2-74.1,6.1-74.1,6.1s49.7,33.3,49.1,64.9c-0.6,32.5-54.2,66.5-54.2,66.5s64.1-2.1,82.3,24.5c15.8,23.1-1,69-1,69
				s34.7-40.6,66-38c31.3,2.6,59.7,48.2,59.7,48.2s-4.3-61.9,21.8-80.8c18.7-13.5,53.2-8.4,53.2-8.4s-24.5-33.8-20.7-61.1
				c4.8-34.8,60.8-61.6,60.8-61.6s-59.5,5.1-81.8-21.4C1973.9,327.5,1986.2,273.8,1986.2,273.8z"/>
		</g>
		<g>
			<path class="st0" d="M1707.2,492.7c25.8-3,58.3-2.3,76.7,17.8c36.7,40,12,138.7,12,138.7s57.9-76.2,111.3-74
				c29.3,1.2,52.4,28.1,67.8,52.2"/>
		</g>
		<g>
			<path class="st0" d="M1936.5,384.1c0,0-11.4,10.7-19,10c-10.5-1-20.5-11.7-20.5-11.7s2.8,14.8-3.2,21.8c-6,6.8-20.6,6.2-20.6,6.2
				s12.6,8.8,12.6,17.3c0,7.2-8.5,15.4-8.5,15.4s10.6,2.2,14,7.8c3.9,6.4-1.5,18-1.5,18s9.5-12.5,18.7-12c7.8,0.4,15.5,9.2,15.5,9.2
				s-0.4-11.5,4.7-15.8c5.1-4.3,16.6-2,16.6-2s-5.4-9.4-3.6-17.3c1.7-7.6,10.1-13.4,10.1-13.4s-13.3-3.6-18.1-10.8
				C1929.8,401,1936.5,384.1,1936.5,384.1z"/>
		</g>
		<g>
			<path class="st0" d="M1808.8,179.8c2.4,3.4,29,42.1,12.4,88.1c-15.3,42.5-54.9,56.5-59.8,58.1"/>
		</g>
		<g>
			<path class="st0" d="M2164.1,367.9c-32.8-3.8-64.9,10.9-82.9,37.9c-26,39.2-7.4,81.8-6.2,84.4"/>
		</g>
	</g>
</g>
</svg>
