<?xml version="1.0" encoding="utf-8"?>
<!-- Generator: Adobe Illustrator 21.0.0, SVG Export Plug-In . SVG Version: 6.00 Build 0)  -->
<svg version="1.1" id="Layer_1" xmlns="http://www.w3.org/2000/svg" xmlns:xlink="http://www.w3.org/1999/xlink" x="0px" y="0px"
	 viewBox="0 0 1958 1618.9" style="enable-background:new 0 0 1958 1618.9;" xml:space="preserve">
<style type="text/css">
	.st0{stroke:#FFFFFF;stroke-width:9;stroke-miterlimit:10;}
	.st1{stroke:#FFFFFF;stroke-width:8;stroke-miterlimit:10;}
</style>
<g>
	<path d="M1512.3,1162c4.6,12.6,8.3,25.1,13.7,36.8c34.2,75.1,33.9,152.3,16.2,231c-7.5,33.2-16.4,65.7-33.1,95.6
		c-12.4,22.2-28.3,41.1-50.3,54.6c-20.4,12.5-41.2,15.6-64.2,7.5c-19.8-6.9-38.3-16.4-56-27.3c-127-78.4-214.9-188.9-270.3-326.8
		c-30.7-76.5-53.3-154.5-54.6-237.6c-0.1-3.8,1.5-8.6-5.2-11.7c-5.7,19.7-6.3,39.9-9.1,59.6c-6.4,43.8-11.5,87.9-14.7,132.1
		c-0.3,4.3,1.9,12.3-6,12c-7.4-0.3-5.4-8-5.7-12.5c-4-59.4-12.9-118.1-20.7-177c-0.6-4.8,0.7-10.4-5.6-14.3
		c-4.7,8.8-2.4,17.9-3.3,26.3c-18.4,190.6-92.3,354.4-235.5,484.1c-28.2,25.5-59.5,47.5-91.9,67.5c-11.9,7.4-24.4,14.1-37.2,19.7
		c-42.1,18.4-72.3,11.9-104.5-21.3c-9.9-10.2-18.7-21.3-25-33.9c-36.8-73.6-49.9-152.3-43.9-233.5c3-40.6,20.5-78.4,34.8-116.4
		c1.8-4.8,5.1-9.2,4.1-15.3c-20.8-1.4-41.6-2.4-61.7-8.4c-76.7-22.7-115.6-81.1-136.8-152.3c-18.9-63.2-2.8-123.9,26.9-181
		c6.4-12.3,5.7-19.9-4.4-29.2c-42.7-39.1-69.4-89.4-96.8-139.3c-15.1-27.4-20.8-57.6-29-87.1C116.9,471.8,79.2,384.4,40,297.4
		C23,259.6,36,222.2,73,202.7c26.6-14,55.5-17.1,84.9-17.8c105-2.6,205.3,19,300.7,61.8C591,306.1,714.6,380,819.4,482
		c44.4,43.2,79.6,93.5,107,150.9c4.4-8.1,8.3-16.2,13.1-23.8c3.7-5.8,1.7-8.5-2.8-12.7c-29.1-26.9-33.2-57.2-12.3-91
		c3-4.9,4.4-9,2.5-14.4c-7.6-21.9-11.4-32.9-12.5-35.2c-8-16.3-8.3-22.6-14.9-39.2c-59.1-150-140.7-246.2-140.7-246.2
		c-28.5-33.5-61-62.6-96.6-88.7c-31.6-23.2-67.2-35-105.5-39.6c-57.1-6.8-106.3,46.4-96.1,103.2c7.3,40.5,65.9,64.6,99.4,40.9
		c8.8-6.2,11.4-13.6,11.7-34.1c-5.2-2.7-8.2,2.6-12.2,3.9c-16.3,5.4-33.7-0.9-41.7-15.5c-8-14.7-3.9-33.4,9.6-43.4
		c13.7-10.2,31.9-8.9,44.3,3.3c24.8,24.5,24.6,57.1,12.1,85.3c-4.2,9.4-12.2,15.5-21.5,19.7c-40.1,18.2-90.4,0.5-109.9-38.6
		c-20.2-40.5,1.1-108.8,40.9-131.1c7.9-4.4,16.3-6.8,25.2-7.6c56.7-5.2,108,8.7,155.5,40.6c53.5,35.9,93.4,84.2,130,135.9
		c47.7,67.3,92.4,136.4,120.5,214.7c6.5,18.1,12,36.6,17,55.2c2.2,8,3.6,11.6,13.1,7.7c15.9-6.7,32.8-6.6,48.8,0.1
		c8.2,3.4,10.3,1.6,12.4-6.6c34-130.3,108.6-237.8,192.4-340c34-41.4,76.7-71.6,125.4-93.7c35.5-16.1,73-15.7,110.6-13.1
		c14.5,1,26.7,8.8,36.4,19.5c19.9,21.9,31.6,48.5,35.7,77c4.9,33.9-28.6,75.9-63,83.5c-6.6,1.4-13.4,2.5-20.1,2.8
		c-30.3,1.6-52.6-9.5-61.8-30.5c-11.8-27-5.5-61.7,14.7-81.1c12.5-12,30.9-13.2,44.3-2.9c13.5,10.4,17.4,28.8,9.2,43.5
		c-8.2,14.7-25.5,21-41.7,15c-3.8-1.4-7.4-3.3-12.2-5.6c0.1,14.4-0.5,28.4,12.3,35.9c16.9,9.8,35.8,17.1,54.9,6.8
		c43.1-23.1,51.3-45.4,39.7-86.4c-12.7-44.7-45.1-68.5-88.8-64.8c-54.8,4.6-99.8,30-140.8,64.9c-72.5,61.6-125.1,137.8-166.1,222.7
		c-24.2,50.2-46.4,101.3-63.7,154.4c-3.1,9.5-3.3,16.7,2.7,25.9c17.2,26.1,13.7,60.5-9.5,81.4c-10.6,9.6-11.1,16.3-3.6,26.6
		c3.3,4.5,5.5,9.9,8.6,15.5c44.1-93.8,111.8-166.3,193.7-225.9c114.7-83.4,235.2-156.3,373-196c76.3-22,154.1-31.4,233.5-24
		c20.4,1.9,40,7.3,57.7,18c33.5,20.3,45,56,28.9,91.2c-41.6,91-82,182.8-106.3,280c-17.7,70.8-54.2,130.1-96.9,187
		c-8.4,11.2-18.7,21-28.9,30.8c-7.2,6.9-7.6,12.5-2.8,21.4c24.1,44.8,37.3,92.4,35.8,143.9c-2.1,68.9-60,181.2-158,196.6
		C1545.3,1158.6,1529.4,1159.9,1512.3,1162z M1089.1,645.7c10,1.3,14.3-4.8,21.2-4.3c35.3,2.3,70.9,5.2,104.9,14.2
		c43.1,11.3,85.1,27.3,127.1,42.5c69.9,25.3,137.2,57.3,209.5,76.3c30.2,7.9,56.4,3.3,81.6-13.7c23.8-16.1,41.7-37.6,57.4-61.2
		c32.8-49.6,53.5-104.6,71.7-160.7c1.9-5.9,6-11.8,3.3-21.2c-24.7,22.2-51.8,31.4-84.1,26.9c-45.5-6.4-79.1-24-96.5-71.3
		c-20.3-55.1,25.8-150.7,96.9-139.8c54.3,8.3,72.5,52.5,60.7,97.7c-6.4,24.3-29.2,28-52.7,30.5c-31.4,3.3-57.9-39.9-44.2-70.6
		c5.5-12.3,15.9-18,29.2-16.2c13.3,1.8,21.8,9.8,24.2,23.1c2.5,14.1-4,23.9-16.2,30.8c-3.6,2-10.8,0.6-9.5,7.6
		c0.9,5.1,6.3,6.5,10.7,8.2c16.3,6.2,38.2-5.1,43.6-23.1c5.5-18.4,5.6-36.3-9.8-50.6c-18.4-17.2-40.4-24.3-64.7-18
		c-29.7,7.7-49.7,36-52.7,68.5c-4.7,51.1,14.4,72.4,44.6,89.7c10.8,6.2,23.8,7.4,35.5,11.5c35,12.2,92.7-16.8,104.7-54.2
		c6.5-20.4,12.3-40.7,16.8-61.6c13.4-62.9-21.7-111-62.6-130.2c-14.6-6.9-29.5-13.1-44.5-18.8c-15.6-5.9-30.5-5.5-45.4,1.6
		c-13.2,6.2-25.7,14.6-39.5,18.3c-12.7,3.4-21.1,10.2-28.5,19.9c-24.4,31.9-35.2,69.2-43.6,107.6c-9.3,42.4-6.7,86.2-15.5,128.7
		c-5.6,27.1-12.6,53.6-25.3,78.5c-9.2,18.1-24.9,29.9-44.4,43c82.4,0.9,147.6-32.1,208.8-77.1c2.7,8.7-2.8,11.5-6.1,14.9
		c-20.4,21.2-43.9,38.3-70.4,51.3c-52.4,25.6-108.2,29.5-164.9,24.6c-48.4-4.2-91.2-22.5-121.6-62c-18.3-23.8-42.4-33.5-70.4-33.5
		C1170.3,573.4,1129.1,606.3,1089.1,645.7z M296.4,578c61.1,45.4,126.5,78.1,205.3,75.9c-23.9-14.3-40.4-34.4-49.3-60.2
		c-5.1-14.7-9.5-29.7-13.5-44.8c-11.1-41.1-8.8-83.8-15.7-125.4c-7.4-44.5-18.3-87.7-45.9-124.8c-4.9-6.7-9.5-15-17.7-17.1
		c-19.4-5-35.3-17.5-54.1-23.7c-7.9-2.6-16.2-6.3-24.4-4.3c-39.4,9.6-77.1,23-103.8,56c-27.8,34.3-28.4,73.4-18.1,113.9
		c6.2,24.7,10.2,51.6,29,69.8c41,39.5,78.2,41.1,131.5,13.8c34.7-17.8,47.9-65.4,32.6-108.7c-8.7-24.5-26.1-42.6-52.2-46.9
		c-24-3.9-46.7,3.2-63.4,22.6c-13.1,15.3-11.9,32.6-5.4,50.1c5.4,14.5,17.8,19.7,31.9,21.6c8.3,1.1,17.2-1.2,20.3-8.5
		c4.2-9.6-7.5-7-11.6-10.3c-10.9-8.5-16.8-18.4-12.5-32.4c4.3-14,17-22.5,31.3-20c13.8,2.4,22.3,10.9,23.7,25.2
		c0.7,7.2,0.7,14.6,0.3,21.9c-0.7,12.4-21.5,36.6-32.7,38.7c-44.4,8.3-69-12.7-69.4-57.3c-0.3-30.3,13-52.9,39.6-63.2
		c27.3-10.6,57.3-14,81.9,9.2c16.4,15.4,30.1,33.3,38.2,54.7c14.7,38.5-1.6,96.2-33.2,119.1c-38.2,27.7-99,28.5-137.6,2
		c-3-2.1-5.5-6.6-11.3-3.7c14.4,48.5,31.7,95.7,55,140.6c15.7,30.2,33.9,58.8,58.9,82.3c31.3,29.5,65.7,41.1,109.9,28.2
		C514,743.3,607.5,696.7,707,666.1c52.3-16.1,104.8-24,159.2-22.5c-27.7-29-59.4-54.2-99.7-65.1c-42.7-11.6-80.6-6.1-110.4,32.1
		c-20.2,25.9-47.8,42.4-80.3,51.1c-32.8,8.8-65.9,9.7-99.2,8.2c-67.3-3.1-125.5-27.5-173.2-75.7C299.7,590.4,293.6,587.3,296.4,578z
		 M1331.4,1305.8c-13.9,4.9-27.5,23.6-26.9,36.3c1.1,24,18.1,41.9,47.1,49.4c21.3,5.5,49.8-4.3,59.9-21.4
		c14.7-25.1,18.9-82.2-17.7-108c-17.2-12.1-35.3-22-55.7-27.4c-4.6-1.2-9.1-2-13.8-0.8c-19.2,4.9-37.7,11.4-55.3,21
		c-46.5,25.3-55.6,86-40.2,125.5c21.9,56.1,63.5,87.1,120.4,97.1c41.7,7.4,82.3,1,109.9-35.9c26.7-35.7,38.5-77.6,36.4-121.8
		c-1.5-31.5-8.4-63.1-18.7-93.1c-11.1-32-23.5-64.3-59.9-76.9c-17-5.9-31.4-16.1-46.2-25.8c-32.9-21.7-61.5-48.6-88.3-76.9
		c-39.8-42.1-71.7-90.6-102.8-139.3c-23-36-44-73.4-71.9-106c-14.3-16.7-29.2-33-46.1-47.3c-6.7,29.6,1.7,52,20.7,74
		c33.4,38.7,59.8,82.6,82.5,128.6c17.8,36.1,26.9,75.4,41.3,112.8c10.5,27.3,29.3,44.7,54.7,56.9c24.7,11.9,51.2,12.7,77.9,13.4
		c5.6,0.2,15-4.2,15.1,7.5c0.1,11.1-6.7,13.6-16.6,13.5c-15.2-0.2-30.1-2.2-44.9-5.2c-27-5.3-50.3-18.6-74.6-36.5
		c6.4,47.2,12.4,91.1,18.8,138.3c32-37.2,71.9-43,115.3-38.3c15,1.6,28.6,6.2,40.2,15.5c34.8,28,49.3,63.9,44.8,108.8
		c-5.6,55.2-47.4,73.2-92.2,64.2c-23.6-4.7-40-20.3-51.1-42.2c-11.5-22.7-8.2-42.3,6.9-61.8c18.1-23.4,52.6-26.1,73.7-5.1
		c11.7,11.7,13.6,29.3,4.5,41.3c-8.4,11.2-22.6,14.7-34.8,8.5c-14.2-7.2-18.8-20.6-13.1-38.5
		C1331.1,1309,1331.2,1307.5,1331.4,1305.8z M897.2,754.6c-28,21.2-69.4,72.5-95.2,114.5c-47.8,77.6-96,155.1-165.9,215.9
		c-27.6,24-55.7,47.5-89.3,62.6c-23.1,10.3-42,22.8-52.7,47.3c-9.3,21.1-16,42.7-22,64.8c-15.3,55.9-13.2,110.1,13.8,162.2
		c14.9,28.8,37.1,48.3,69.8,54.9c37.6,7.6,72.2-1.2,105.6-17.6c45.9-22.5,78.4-79.7,74.2-130.5c-4.1-49.2-61.5-99.2-109.5-95.3
		c-53.3,4.4-91.5,48.1-89.5,102.5c1.2,31.6,13.7,49.7,48,57.4c20.6,4.6,41.1-4.9,56.2-21c20.1-21.4,14.6-54.2-15.3-67.1
		c1.5,4.3,3,7.4,3.8,10.8c4,15.9-6.4,32.2-22.4,35.5c-14.8,3-31.3-8.2-33.1-23.8c-1.6-13.9,4.1-25.4,16.1-33.2
		c34.7-22.5,82.6,0.1,82.4,41.6c-0.1,25.5-14,48.1-37.4,63.3c-41.5,26.9-101.6,5.1-111.5-41.5c-4.4-20.6-4.2-41.5,0.2-62.1
		c8.9-40.9,50.2-73.6,91.6-77c39.3-3.2,73.1,5.9,101.7,33.4c1.5,1.4,3,3,6,1.6c2.9-43.7,12.1-87,16.9-133.9
		c-17.5,12.6-32.1,22.5-48.8,28.7c-23.7,8.8-48.2,12.8-73.5,12.7c-9.4-0.1-13.2-4.9-13.6-13.4c-0.5-9.5,6.8-7.4,12-7.7
		c12-0.7,24-0.5,35.9-1.6c35.1-3.4,65.9-16.2,87.6-45.1c12.6-16.8,18.9-37.3,24.4-57.1c21.5-77.8,60.9-146.1,111.7-207.5
		C894.1,806.2,901.7,783.9,897.2,754.6z M1254.3,818.3c6.7,6.4,12,11.3,17.1,16.3c29.6,28.8,57.9,58.6,78.8,94.6
		c13,22.4,18.2,46.3,16.6,71.9c-0.3,5-0.2,9.5-7.1,9.4c-5.6,0-6.7-3.1-7.2-7.9c-5.2-50.3-31.9-89.6-65.6-124.8
		c-60.2-62.9-128.7-115.5-202.5-161.4c-4.6-2.9-8.9-7.6-16.7-3.4c17.1,7.6,33.5,16,43.5,30.4c36.4,52.9,79.1,101,114.8,154.3
		c39.4,58.7,84.2,112.9,137.6,159.4c22.1,19.2,47.9,32.2,75.5,42.2c0.6-2.4,1.3-3.7,0.9-4.2c-4.1-6-8.3-11.9-12.7-17.7
		c-32-42.1-38.7-87.7-18.4-136.8c16.7-40.5,54.9-58,98.8-45.8c48.4,13.5,68.7,43.3,61.5,90c-5.1,33.2-31.6,55.6-62.5,51.4
		c-18.6-2.6-35.3-9.8-43.5-28.8c-7.6-17.7,2-31.5,11.9-44.2c9.1-11.6,21.8-13.6,35.2-7.1c12.3,6,18.4,20.4,13.9,33
		c-5,14-15.2,20.5-30.1,19.6c-3.2-0.2-6.4-2.9-10-0.1c4,2.2,7.6,4,11.2,6.1c21.1,12.3,35.9,8.7,48.4-12.1
		c17.5-29.1,11.1-66.8-16.3-83c-37.1-21.9-68.5-18.6-90.2,12.5c-32.9,47-22.4,122,21.4,155.8c35.2,27.1,70.6,18.9,106.8,8.1
		c35.6-10.7,63.2-34.3,67.1-71.2c8.5-81.6-22.3-152.6-109.1-186.5c-35.9-14-73.9-16.2-112-18.1c-45-2.3-90,13.5-135.1-0.1
		C1270.2,818.3,1263.5,815.6,1254.3,818.3z M705.7,816.2c-8.5,1.2-12.5,1.9-16.6,2.3c-21.6,2.1-42.5,10.9-64.8,7.2
		c-48.3-8.1-96.6-6.6-144.8,0.4c-74.4,10.8-139.6,62-150.9,133.6c-3.8,24.2-9.4,48.5-2,72.6c11.9,38.8,41.1,59.3,79,67.7
		c26.7,5.9,53.2,12.5,80.3-3.2c53.8-31.1,65.8-100,41.8-152.5c-12.3-27-36.3-40.3-65.6-36.6c-47.5,5.9-71.7,50.7-49.9,92.4
		c10,19.2,27.8,27.2,43.4,19.1c6.2-3.2,12-7.2,20.8-12.4c-6.7,1.1-10.2,2.1-13.7,2.2c-12.7,0.5-22.2-4.7-27.7-16.3
		c-5.4-11.2-3.2-21.5,4.6-30.5c8-9.3,18.8-11.2,30-7.9c24.2,7.1,34.6,45.9,17.8,64.8c-20.6,23.3-60.9,23.6-81.8,0.9
		c-19.3-21-20.4-46.1-15.4-71.9c6.6-34.1,37-51.2,77.8-56.6c35.5-4.7,66.4,14.6,80.2,47.3c20.9,49.3,14.7,95.5-17.3,138.5
		c-4.8,6.4-11.7,11.7-13.7,20.8c2.4,0,3.9,0.4,5.2-0.1c4.4-1.6,8.7-3.4,13-5.2c45.3-18.5,78.9-51.7,111.1-86.9
		c68.8-75.3,121.6-162.8,185-242.2c16.5-20.7,32.8-39.8,58.4-50.7c-8.3-4.4-12.9,1.2-17.7,4.2c-74.3,46.1-143,99.4-203.4,162.8
		c-32.1,33.7-57.1,71.8-63.3,119.4c-0.6,4.9,1,11.1-7.3,11c-9.5-0.1-6.9-7.3-7.3-12.4c-2.8-36,12.5-65.7,32.9-93.7
		C646.3,873.1,673.9,846.2,705.7,816.2z M381.4,278.5c23.9,30.2,43.7,58.6,50.5,93.1c5.1,26,7.9,52.5,10.4,79
		c4,42.9,5,86.1,21.8,127.1c19.2,46.8,48.8,65.8,98.9,62.9c70.4-4.1,106.4-75.1,68.4-139c-18.9-31.7-38.7-39.8-70-32.6
		c-21.2,4.9-42.1,26.8-43.8,46c-1.8,20.5,11.1,40.9,32.1,50.9c16.9,8,38-1.6,44-20.4c-4.7,0.8-9.2,2.2-13.7,2.1
		c-13.5-0.2-22.7-7.2-27.2-19.7c-4.6-12.9,0-23.8,10.5-31.7c10.8-8.1,22.4-7.8,33.3,0.2c15.2,11.1,24.9,35.9,20.2,51.1
		c-6.6,21.6-26.7,37.2-48.5,37.9c-41.4,1.3-71.1-33.1-65.7-76.1c1.8-14.7,8.3-26.7,19.1-36.5c34.1-30.9,74.4-31.3,108.8-1.1
		c22.3,19.6,32.9,45,37.1,73.7c2.7,18.7,3.7,19.5,21.8,15.2c41.3-9.9,80.5-4.8,117.8,15.6c21.8,12,42.2,26.1,63.4,39.7
		c-9.6-13.3-21.9-24.3-31.3-37.6c-9-12.7-16.3-27-28.5-37.1c-111.6-92.1-227.1-178.3-362-234.7C427.4,297.7,406.9,286.4,381.4,278.5
		z M1363.7,545.9c-1.4,3.7,0.9,6,3,8.3c15.3,16.4,29.8,19,47.3,8.5c19.5-11.8,30.9-36.6,25-54.4c-14.3-43-69.7-55-100.4-22.2
		c-12.2,13-19.2,28.1-24,44.9c-10.4,36.4,4.4,76.8,36.1,96.7c33,20.8,87,18,112.7-5.6c21.6-19.9,31.4-45.8,39.7-73.1
		c12.2-40.5,9.4-82.7,14.9-123.9c6.2-46.5,13.9-91.7,44.9-129.3c4-4.9,7.6-10.1,13.2-17.5c-7.9,2.9-12.9,4.4-17.6,6.4
		c-120.2,50.5-233.5,112.7-335,195.5c-41.5,33.8-86.8,63.5-115.2,110.9c-3.7,6.1-9.8,10.8-14.9,16c-2.8,2.8-7.1,4.7-5.5,10.4
		c2.8-2,5.2-3.9,7.7-5.7c33.1-23.7,66.4-47.2,107.9-53.9c22.3-3.6,44.6-2.3,66.6,3.4c10.3,2.7,19.9,5.1,20.2-12.6
		c0.4-20.4,7.6-39.8,19.4-56.9c25.8-37.7,59.5-50,97-35.9c55.6,21,59.9,66.4,32,109.7c-15.8,24.5-56.4,28-79.6,8.6
		c-24.9-20.8-25.5-51-1.2-74.8c10.1-9.9,22-12,34.3-4.5c11.8,7.3,17,18.2,13.1,32.1c-3.7,13.1-16.4,21.4-29.6,20.9
		C1371.5,547.6,1368,543.8,1363.7,545.9z M1051,1023.1c3.8-4.3,6.1-7.8,9.3-10.3c18.6-14.9,50.1-26,69.5-6.7
		c19.2,19.1,23,56.9,6.7,75.2c-10.9,12.3-25.2,15.8-37.5,8.5c-11.8-7-17.9-17.5-14.3-31.5c3.9-15.4,15.7-22.7,33.2-21.4
		c2.9,0.2,6.5,2.3,8.2-1.3c1.5-3.2-1.4-5.9-3.2-8.3c-2.4-3.4-5.3-5.9-9.9-6.7c-21.7-3.8-37.2,3.9-47.2,24.1
		c-11.6,23.4-4,63.3,16.7,83.7c10.7,10.5,21.2,22.9,37.2,24.2c22,1.8,47.3-17.1,52.9-39.1c6-23.9,8.3-49.2,2.1-72.7
		c-20-76.8-57.8-144.6-110.9-203.7c-2.3-2.6-4.3-6.9-8.5-5.5c-3.8,1.2-3.9,5.5-4.8,9.1c-10.2,41.3-11.4,83.4-9,125.5
		C1042.5,984.6,1043.5,1003.6,1051,1023.1z M906.9,1023.8c1.7-6.2,3.1-10.2,3.8-14.2c8.6-53.8,10.4-107.5-2.4-160.9
		c-1.4-5.8,0.9-14.9-5.7-16.6c-7.2-1.9-10.3,7.2-14.5,12c-43.1,49.1-73.7,105.3-96.4,166.5c-12.1,32.5-12.6,65.1-7.5,98.3
		c4.3,28.1,41.4,52.6,62.7,41.8c31.3-15.9,47.8-42.7,51.2-77c1.9-19.3-6.2-35.8-21.6-47.8c-16-12.4-40-6.2-44.4,11.3
		c1.5,0.2,3,0.5,4.5,0.4c1.5-0.1,3-0.8,4.6-0.9c14.9-1.4,26.8,6.2,31.4,20c4.6,13.9-0.9,24.6-12,32.4c-11.2,7.9-26.1,4.9-37-5
		c-11.7-10.6-14.4-23.3-12.5-38.1c3.7-30.1,19.8-51.2,41.9-50.3C873.4,996.3,892.4,1003.7,906.9,1023.8z M536.2,806.4
		c26.6,0,53.1,0.2,79.7-0.1c13.9-0.2,27.1,4.4,41.7,2.1c51.9-8.2,95.9-31.2,137.2-63.1c30.8-23.8,61.3-51.1,104.1-52.2
		c2.8-0.1,5.7-1.2,5.3-4.3c-0.5-4.2-4.6-3.2-7.5-3.5c-32.9-2.5-65.2,3.6-97.5,8.2c-49.3,7-95.2,25.2-140.8,44.3
		C615.2,756,574,777.7,536.2,806.4z M1421.7,806.4c-45.8-34.4-96.5-58.5-148.6-79.5c-67.2-27.2-136.7-41.9-209.3-41.3
		c-3.5,0-9.7-2.6-9.8,3.8c-0.1,5,5.4,3.4,8.7,4c17.3,3.3,34.6,5.5,49.8,16.3c28,19.8,56.3,39.4,84.1,59.6
		c21,15.3,44.7,26.2,70.8,31.5c23.3,4.8,45.7,9.9,70.5,6.5C1365.2,803.6,1393.6,806.4,1421.7,806.4z M870,1156.3
		c-23.7,12-45.1,13.5-67.5,2.2c-23-11.6-32.5-31.6-38.2-55.2c-23,85.2-24.8,170.4-6.3,256.3C795.2,1325.5,861.2,1207,870,1156.3z
		 M1193.2,1102.8c-4.8,24.3-15.2,43.8-37.9,55.7c-22.4,11.7-44.4,9.4-70.7-3c31.2,76.5,60.7,147.4,114.8,205
		C1218.6,1273.3,1216,1188.1,1193.2,1102.8z M134.1,378.6c2.8-65.4,40-104.9,100.3-131.6c-12.2-2.2-19-3.7-26-4.6
		c-39-4.9-76.8-3.1-110,21.7c-4.5,3.4-9,5.9-6.9,13.7C101,312.9,116.7,345.3,134.1,378.6z M1728.1,247.6
		c56.5,25.7,92.2,66.3,96.2,131.2c12.2-23.7,22.5-46.4,31.5-69.5c16-41,9.8-52.2-33.5-63.7c-1.5-0.4-3.1-0.5-4.6-0.9
		C1788.2,237.3,1758.9,240.7,1728.1,247.6z M304.5,978.2c3.4-61.8,40.9-102.9,85.8-142.2c-10.7-0.5-18-0.5-25.1-1.3
		c-37.2-4-43.5-0.2-56.2,35.6c-2.1,5.9-3.8,11.9-5.1,18C297.5,918.2,295.4,948.2,304.5,978.2z M1651.5,982.4
		c8.5-14.2,7.4-25.3,7.7-35.9c1.2-35.9-3.3-70.8-23.3-101.8c-3.6-5.6-6.3-13.6-16-12.6c-16.3,1.6-32.7,2.8-51.9,4.3
		C1612.7,875.6,1650.1,916.3,1651.5,982.4z M488.3,1459.7c0.7,24,25.9,55.5,48.8,63.1c24.4,8.1,60.5-3.6,78.6-26.2
		c-22.7-1-45,1.8-66.7-4.9C527.1,1484.9,508.1,1472.6,488.3,1459.7z M1340.5,1495c23.6,26.6,60.7,36.7,85.5,26.1
		c20.5-8.8,44.5-42.2,42.6-61.9C1431.9,1488.9,1390.8,1501.9,1340.5,1495z"/>
</g>
<polygon class="st0" points="979,703.3 940,694.3 979,724.3 1020,694.3 "/>
<polygon class="st0" points="978.1,768.8 943.2,760.8 978.1,787.7 1014.8,760.8 "/>
<polygon class="st0" points="978.4,831.8 945.9,824.3 978.4,849.3 1012.5,824.3 "/>
<polygon class="st0" points="978.4,891.6 953.8,885.9 978.4,904.8 1004.2,885.9 "/>
<polygon class="st1" points="979.4,947.2 954.8,941.5 979.4,960.4 1005.2,941.5 "/>
<path d="M340,705.3c24.9-12.7,57.2,2.2,66,27c6.2,17.4,3.6,37.5-12.2,48.8c-8.5,6.1,1.3-9.3-2.2-25.8c-2.8-13.1-22.1-25.3-24.6-25.9
	c-2.2-0.5-23.7-1.1-33,9c-11.6,12.5-13,31.3-17.5,21C307.9,739.3,319,716,340,705.3z"/>
<path d="M1617.7,705.3c-24.9-12.7-57.2,2.2-66,27c-6.2,17.4-3.6,37.5,12.2,48.8c8.5,6.1-1.3-9.3,2.2-25.8
	c2.8-13.1,22.1-25.3,24.6-25.9c2.2-0.5,23.7-1.1,33,9c11.6,12.5,13,31.3,17.5,21C1649.8,739.3,1638.7,716,1617.7,705.3z"/>
<path d="M919,1150.6c3.3,26.7,6.6,31.8,8,45c1.5,14.6-0.8,25.4-10,57c-14.8,50.7-22.2,76.1-33,102c-12.5,30-20.4,48.9-36,73
	c-9.7,15.1-19.3,27.2-35,54c-8.2,14-15.7,27.9-20,47c-3.1,13.6-5.4,28.7,3.5,38c7.6,7.9,11.3,9.2,11.3,9.2c2.3,0.1,3,1.3,5,1.6
	c4.7,0.8,10,0.9,12.5-0.1c4.6-2,7.7-7.6,7.8-10.8c0.1-6.2-12.5-10.8-17.3-19.1c-2.2-3.7-3.3-6,1.8-26.9c3.6-14.7,13.2-28.2,29.3-54
	c3.8-6.2,6.7-11,9.1-15.1c1.6-2.8,2.4-4.4,4.2-7.6c5.2-9.5,9.5-17.1,13-23.2c7.7-13.6,8.1-13.9,10.5-18.8c2.3-4.7,4.3-9,7.3-15.7
	c4.8-10.8,17.1-39.4,25.2-64.4c3.7-11.4,7.5-25.8,15-54c8.4-31.6,12.6-47.4,13-51c4.2-34.8-6.9-38.7-4-79c1.1-15.2,3.7-28.1,9-54
	c3.8-18.7,6-28.9,10-43c9.4-32.8,17.5-46.1,12-64c-3.6-11.6-9.6-14.4-11-15c-5.9-2.5-13.5-1-18,3c-7.1,6.3-3.3,15.8-4,35
	c-0.4,9.7-1.3,5.5-12,59c-1.9,9.5-3.4,17.2-5,27c-2.4,14.4-3.6,21.7-4,31C916.8,1120.7,916.5,1130.4,919,1150.6z"/>
<path d="M1040.5,1158.3c-3.3,26.7-6.6,31.8-8,45c-1.5,14.6,0.8,25.4,10,57c14.8,50.7,22.2,76.1,33,102c12.5,30,20.4,48.9,36,73
	c9.7,15.1,19.3,27.2,35,54c8.2,14,15.7,27.9,20,47c3.1,13.6,5.4,28.7-3.5,38c-7.6,7.9-11.3,9.2-11.3,9.2c-2.3,0.1-3,1.3-5,1.6
	c-4.7,0.8-10,0.9-12.5-0.1c-4.6-2-7.7-7.6-7.8-10.8c-0.1-6.2,12.5-10.8,17.3-19.1c2.2-3.7,3.3-6-1.8-26.9
	c-3.6-14.7-13.2-28.2-29.3-54c-13.4-21.6-14.7-26.4-26.3-46c-9.9-16.8-11.7-20.8-17.8-34.6c-4.8-10.8-17.1-39.4-25.2-64.4
	c-3.7-11.4-7.5-25.8-15-54c-8.4-31.6-12.6-47.4-13-51c-4.2-34.8,6.9-38.7,4-79c-1.1-15.2-3.7-28.1-9-54c-3.8-18.7-6-28.9-10-43
	c-9.4-32.8-17.5-46.1-12-64c3.6-11.6,9.6-14.4,11-15c5.9-2.5,13.5-1,18,3c7.1,6.3,3.3,15.8,4,35c0.4,9.7,1.3,5.5,12,59
	c1.9,9.5,3.4,17.2,5,27c2.4,14.4,3.6,21.7,4,31C1042.7,1128.3,1043.1,1138.1,1040.5,1158.3z"/>
<path d="M894.7,1468.6c3.5,5.2,5.9,7.8,13.3,12.2c27,16,43.1,7,60,22.5c1.5,1.4,10.6,9.9,11,21c0.1,2.2,0.3,7.3-3,9.5
	c-1.6,1.1-4.1,1.6-6,0.5c-4.2-2.4-1.6-10.1-5-17.3c-3.6-7.7-12.2-10.3-21.5-12.7c-13.5-3.4-18.3-0.8-28.1-4.4
	c-5.9-2.1-8-3.1-19.4-12.3c-6.5-5.3-9.9-10.4-13-14.3c-1.5-1.9-3.4-4.6-10-19c-8-17.6-8.8-21.4-7.5-25.5c0.9-3.1,2.9-8.2,6-8.5
	c4.3-0.4,4.1,7.8,6.1,12.3c2.8,6.1,2.7,3.3,3.5,7.6C882.7,1448,890.2,1462.1,894.7,1468.6z"/>
<path d="M1061,1468.6c-3.5,5.2-5.9,7.8-13.3,12.2c-27,16-43.1,7-60,22.5c-1.5,1.4-10.6,9.9-11,21c-0.1,2.2-0.3,7.3,3,9.5
	c1.6,1.1,4.1,1.6,6,0.5c4.2-2.4,1.6-10.1,5-17.3c3.6-7.7,12.2-10.3,21.5-12.7c13.5-3.4,18.3-0.8,28.1-4.4c5.9-2.1,8-3.1,19.4-12.3
	c6.5-5.3,9.9-10.4,13-14.3c1.5-1.9,3.4-4.6,10-19c8-17.6,8.8-21.4,7.5-25.5c-0.9-3.1-2.9-8.2-6-8.5c-4.3-0.4-4.1,7.8-6.1,12.3
	c-2.8,6.1-2.7,3.3-3.5,7.6C1073,1448,1065.5,1462.1,1061,1468.6z"/>
<path d="M838.7,966.2c-2.1-28.8,25-53.5,51.9-52c18.9,1.1,36.9,11.5,41.2,31c2.3,10.5-8.3-4.9-25.3-8.2
	c-13.4-2.6-32.8,10.9-34.3,13.1c-1.4,1.8-10.5,22.1-4.7,34.9c7.1,16,24.4,24.8,12.8,25C858.1,1010.3,840.5,990.5,838.7,966.2z"/>
<path d="M1121.1,966.2c2.1-28.8-25-53.5-51.9-52c-18.9,1.1-36.9,11.5-41.2,31c-2.3,10.5,8.3-4.9,25.3-8.2
	c13.4-2.6,32.8,10.9,34.3,13.1c1.4,1.8,10.5,22.1,4.7,34.9c-7.1,16-24.4,24.8-12.8,25C1101.8,1010.3,1119.4,990.5,1121.1,966.2z"/>
<path d="M996.8,1438.2c-3.2-45.3-40.6-89.9-72.6-92.8c-22.5-2-42.1,10.9-43.4,41c-0.7,16.2,9-6.1,28.8-8
	c15.6-1.4,41.5,23.8,43.8,27.5c2,3.2,16.9,37.1,12.6,56.4c-5.4,23.9-24.4,34.5-10.5,37.1C982.3,1504.3,999.5,1476.3,996.8,1438.2z"
	/>
<path d="M962,1438.2c3.2-45.3,40.6-89.9,72.6-92.8c22.5-2,42.1,10.9,43.4,41c0.7,16.2-9-6.1-28.8-8c-15.6-1.4-41.5,23.8-43.8,27.5
	c-2,3.2-16.9,37.1-12.6,56.4c5.4,23.9,24.4,34.5,10.5,37.1C976.4,1504.3,959.3,1476.3,962,1438.2z"/>
<path d="M828.2,413.4c1.1-3.3,51.1,2.3,81,33c4.2,4.3,18.3,19.6,22.5,38.9c1.3,5.8,1.5,11.2,1.5,12.1c0.2,6.9-0.2,24.5-4.5,25.5
	c-7.3,1.8-12.4-48.7-51-82.5C852.7,418.5,827.4,415.8,828.2,413.4z"/>
<path d="M1131.5,413.4c-1.1-3.3-51.1,2.3-81,33c-4.2,4.3-18.3,19.6-22.5,38.9c-1.3,5.8-1.5,11.2-1.5,12.1
	c-0.2,6.9,0.2,24.5,4.5,25.5c7.3,1.8,12.4-48.7,51-82.5C1107,418.5,1132.3,415.8,1131.5,413.4z"/>
<path d="M863.6,451.6c0.9-2.5,38.9,1.8,61.6,25.1c3.2,3.2,13.9,14.9,17.1,29.6c1,4.4,1.1,8.5,1.1,9.2c0.2,5.2-0.2,18.6-3.4,19.4
	c-5.6,1.4-9.4-37.1-38.8-62.8C882.2,455.5,863,453.4,863.6,451.6z"/>
<path d="M1094.4,451.6c-0.9-2.5-38.9,1.8-61.6,25.1c-3.2,3.2-13.9,14.9-17.1,29.6c-1,4.4-1.1,8.5-1.1,9.2
	c-0.2,5.2,0.2,18.6,3.4,19.4c5.6,1.4,9.4-37.1,38.8-62.8C1075.8,455.5,1095,453.4,1094.4,451.6z"/>
</svg>
