<?xml version="1.0" encoding="utf-8"?>

<!DOCTYPE svg PUBLIC "-//W3C//DTD SVG 1.1//EN" "http://www.w3.org/Graphics/SVG/1.1/DTD/svg11.dtd">
<svg version="1.1" id="Layer_1" xmlns="http://www.w3.org/2000/svg" xmlns:xlink="http://www.w3.org/1999/xlink" x="0px" y="0px"
	 viewBox="0 0 2609.408 702.51" enable-background="new 0 0 2609.408 702.51" xml:space="preserve">
<g>
	<path d="M2565.544,165.686c-11.11-1.58-8.212-0.326-27.116-0.839c-9.253-0.251-10.243,2.967-17.476,2.947
		c-40.313-0.11-40.233,0.161-42.517-0.324c-8.794-1.867-26.777-1.141-27.778-0.896c-8.918,2.181-18.073,3.095-27.031,5.058
		c-1.783,0.391-3.553,0.501-5.214-0.453c-3.238-1.861-4.344-1.303-30.163-1.394c-6.651-0.023-5.703,2.609-12.89,2.288
		c-15.675-0.7-13.537,10.587-19.421,4.8c-4.747-4.668-8.663-3.356-15.44-3.6c-9.741-0.35-10.001,5.071-13.96,2.59
		c-2.518-1.577-4.553-3.363-4.414-6.998c0.269-7.036-0.957-13.998-1.928-20.956c-2.747-19.686-2.57-1.848-2.243-95.261
		c0.03-8.347-6.599-14.594-12.49-17.185c-8.699-3.827-24.346-2.558-30.677,2.282c-7.476,5.716-12.896-0.052-24.736,4.906
		c-7.278,3.048-12.129,7.869-13.191,16.253c-1.405,11.102-3.413,22.128-5.204,33.179c-0.868,5.356,4.134,4.085-49.519,4.035
		c-3.541-0.003-18.49-1.881-30.603,0.471c-18.831,3.657,31.995,2.487-387.231,2.501c-6.68,0-6.532,0.267-7.133-3.258
		c-0.63-3.694,0.042-2.936-14.028-4.217c-90.306-8.225-70.53-6.883-104.699-6.898c-6.059-0.003-3.117-2.916-9.245-2.903
		c-32.131,0.065-33.379-1.288-35.821,4.044c-5.553,12.123-0.419,13.207-7.055,13.212c-99.492,0.072-93.491,0.982-96.403-2.465
		c-5.163-6.116-14.777-6.324-22.672-4.67c-8.851,1.855-5.086,7.197-14.005,7.194c-468.373-0.141-438.624,1.043-439.577-1.853
		c-1.782-5.42-6.084-7.927-11.228-9.083c-16.857-3.787-17.499-2.628-17.994-8.501c-0.882-10.456-5.184-30.034-8.548-32.482
		c-4.814-3.503-12.78-12.537-31.647-21.794c-4.064-1.994-3.997-1.534-25.816-1.535c-11.086-0.001-20.398,11.208-20.081,21.124
		c0.27,8.452,0.082,16.919,0.043,25.38c-0.028,6.083-1.931,1.126-12.997,9.354c-1.857,1.381-2.773,3.14-2.695,5.51
		c0.484,14.766,0.142,13.807-4.368,13.835c-26.434,0.163-22.847-3.89-33.648,25.674c-5.037,13.787-4.797,13.795-6.291,14.019
		c-2.69,0.403-4.503-0.958-4.806-3.649c-0.53-4.718,0.136-4.684-43.752-4.615c-12.06,0.019-3.268,5.666-10.97,7.313
		c-2.888,0.618-3.355,1.126-3.45,4.033c-0.246,7.548,0.747,8.771-3.051,9.261c-71.48,9.218-77.54,5.103-77.649,18.092
		c-0.078,9.198,0.682,8.404-6.222,8.408c0,0-107.54-0.53-511.798-0.581c-7.387-0.001-7.909,0.282-8.101-2.926
		c-0.39-6.509,0.905-7.408-3.29-7.921c-23.585-2.886-30.226-4.705-111.311-3.479c-4.859,0.073-0.781,3.545-5.557,5.398
		c-12.395,4.809-16.768,12.007-18.731,13.315c-3.129,2.085-2.507,4.224-4.667,17.149c-1.169,6.993,0.229,8.403,13.981,37.271
		c2.91,6.11,2.058-1.421,2.054,132.978c-0.005,147.223-0.98,137.799,2.338,142.426c8.957,12.49,8.815,16.59,16.186,16.183
		c65.693-3.632,16.137,4.664,74.02-6.925c3.404-0.681,2.807-0.703,17.245-13.506c40.68-36.075,41.547-34.855,40.341-40.949
		c-0.72-3.637,0.483-3.298,17.679-15.101c180.535-123.92,177.899-120.739,244.371-139.109c9.178-2.536-7.615-1.78,235.74-1.785
		c5.091,0,5.621,0.039,5.667,3.236c0.066,4.584,3.956,9.725,11.868,9.708c10.694-0.022,64.749-0.054,65.777,0.004
		c3.074,0.174,2.995,0.662,3.101,4.698c0.104,3.935,0.208,4.133,4.238,4.514c1.828,0.173,2.754,0.783,3.001,2.74
		c0.533,4.222-0.064,3.974,19.093,3.701c32.828-0.469,31.39,0.571,31.813-3.718c0.181-1.836,0.868-2.869,2.713-3.142
		c1.828-0.27,3.197,0.066,4.051,1.979c2.265,5.072,7.234,8.679,14.792,8.664c20.987-0.042,77.932-0.021,77.932-0.021
		c3.461-0.112,0.599-2.138,44.672,50.299c3.154,3.753,1.843,3.508,2.187,30.157c0.072,5.572,4.991-2.097-90.437,103.194
		c-61.524,67.884-57.92,62.786-58.235,67.496c-0.323,4.823,1.85,8.179,5.5,10.95c5.54,4.205,11.539,7.567,17.948,10.25
		c112.399,47.061,126.494,57.552,150.111,56.403c7.454-0.362-0.974,9.555,96.669-146.358c49.899-79.677,46.024-73.519,47.424-75.115
		c2.665,0.719,7.399,18.547,30.921,18.445c139.388-0.599,99.711,1.222,128.875-2.161c3.786-0.439,3.879-0.654,4.505,3.331
		c5.695,36.277,13.04,70.824,23.948,109.181c0.285,1,18.251,63.984,17.733,65.068c-1.93,4.041-1.199,8.14-0.378,12.227
		c1.078,5.372,2.331,10.705,3.847,15.977c2.178,7.576,2.698,8.009,13.813,5.575c229.395-50.245,211.796-44.676,212.115-49.395
		c0.212-3.139-0.726-6.13-1.09-9.191c-1.753-14.747-9.683-12.33-12.491-22.428c-27.024-97.197-31.91-103.935-42.248-178.142
		c-0.766-5.504,4.696-1.503,4.969-7.916c0.102-2.412,0.028-74.806-0.002-87.583c-0.025-10.495,9.144-20.666,21.714-20.503
		c10.365,0.134,20.734,0.073,31.101,0.035c11.644-0.042,18.928-7.433,18.865-18.939c-0.199-35.924-0.948-33.923,3.531-33.879
		c2.713,0.026,3.119,0.278,3.441,2.937c2.045,16.894,1.417,55.337,25.881,54.184c30.118-1.419,413.84-12.421,436.977-13.533
		c16.531-0.795,9.483,14.154,40.462,13.727c30.606-0.422,43.445-28.417,48.706-58.562c0.531-3.043-10.772-5.911,136.558-5.094
		c6.826,0.038,10.609-3.318,14.838-8.53c2.802-3.453,3.651-0.923,5.353-4.282c0.917-1.811,7.95-2.594,8.074,0.143
		c0.357,7.825,0.705,5.697-9.955,19.6c-2.235,2.915-1.848,2.494-1.832,15.626c0.005,3.608,2.308,3.572,9.259,7.313
		c3.779,2.034,4.777,1.354,24.761,1.418c4.912,0.016,5.815-1.745,12.869-4.884c4.617-2.054,2.983-4.288,3.31-15.637
		c0.062-2.161-0.609-3.885-2.033-5.511c-10.744-12.266-10.791-12.216-9.985-19.336c0.206-1.823,1.896-2.445,3.517-1.55
		c2.177,1.202,4.441,5.912,12.986,5.592c13.586-0.509,5.153,1.351,20.96,1.321c19.117-0.036,18.739,0.191,19.987-0.254
		c8.176-2.907,19.939,2.933,35.5,4.224c24.491,2.032,26.664-1.01,32-1.021c83.611-0.175,12.063,3.203,79.581,2.828
		c11.727-0.065,19.555-11.651,22.659-21.761C2588.348,199.234,2582.634,168.117,2565.544,165.686z M144.782,200.575
		c1.132-2.342,1.001-5.429,3.841-6.762c1.025-0.481,1.852-1.135,2.315-2.126c1.582-3.386,4.856-5.166,7.274-7.756
		c0.796-0.853,1.868-1.078,2.939-0.443c1.533,0.909,3.214,0.769,4.874,0.769c527.029,0.055,493.617,2.051,494.706-1.484
		c0.987,2.735,2.533,2.053,10.39,2.142c5.799,0.066,3.087-3.339,6.499-3.36c3.429-0.021,6.858-0.009,10.409,0.24
		c-1.063,0.94-1.683,2.063-2.424,3.101c-0.743,1.04-1.308,1.951-0.401,3.199c1.495,2.057-2.719,3.986,0.537,6.416
		c5.437,4.059,0.141,15.169-6.749,18.794c-4.973,2.616-9.792,6.657-16.207,5.379c-0.882-0.176-1.907,0.084-2.808,0.343
		c-4.726,1.361-4.767-0.499-11.649-0.499c-125.493-0.001-101.332,0.335-117.531-1.06c-5.508-0.474-11.025-1.622-16.58-0.326
		c-0.449,0.105-0.994,0.167-1.405,0.011c-4.03-1.525-8.24-1.129-12.369-0.985c-6.482,0.226-12.531-1.168-21.337,0.078
		c-6.087,0.861-18.762-0.808-24.038,0.081c-3.548,0.597-6.466-0.818-8.531-0.245c-1.642,0.455-124.382,0.611-135.362,0.789
		c-106.223,1.719,94.36,1.613-143.783,1.631c-1.429,0-3.013-0.342-4.256,0.152c-4.993,1.982-7.981-4.775-13.113-9.303
		c-2.46-2.17-2.963-5.668-5.105-8.099C144.782,201.098,144.7,200.744,144.782,200.575z M530.409,264.107
		c-4.966-0.307-9.965-0.068-14.899-0.912c-0.117-0.02-0.268-0.067-0.352-0.016c-2.97,1.769-3.023,0.698-19.763-4.172
		c-1.603-0.466-7.473-1.045-8.284,0.412c-1.389,2.499-1.185,1.927-27.507,1.908c-1.787-0.001-3.464-0.024-4.995-1.385
		c-4.043-3.592-6.419,5.181-13.567-0.426c-1.353-1.062-2.502-0.949-3.823,0.128c-5.496,4.477-4.859-1.01-9.554-1.058
		c-7.693-0.079-9.603-0.457-10.917,2.029c-4.926-4.354-8.252-2.88-25.591,13.624c-1.955,1.861-4.691,2.89-6.542,4.915
		c-2.998,3.28-6.976,5.294-10.203,8.254c-1.04,0.954-2.318,1.119-3.626,1.297c-5.712,0.779-2.748,2.799-11.516,6.68
		c-14.732,6.522-8.264,4.234-23.667,12.496c-3.342,1.792-5.531,5.318-8.79,4.998c-0.298-0.029-0.685,0.218-0.936,0.443
		c-4.452,3.982-10.369,5.807-14.693,9.975c-0.168,0.162-0.385,0.303-0.605,0.374c-3.254,1.045-5.857,3.075-8.144,5.517
		c-2.234,2.386-5.677,2.943-7.882,5.381c-2.346,2.593-1.652,1.441-1.651-98.855c0-3.3,0.291-4.909,3.346-4.149
		c7.265,1.808,8.981-1.882,13.474-0.359c4.543,1.54,3.961-0.441,7.335,0.339c9.71,2.244,7.981-2.003,13.213-0.515
		c7.77,2.21,13.405-0.853,19.017,0.65c0.34,0.091,0.787,0.245,1.047,0.107c3.449-1.825,6.998-0.506,10.508-0.398
		c11.05,0.339,3.755-1.747,11.184,0.383c4.286,1.229,8.57,0.351,12.676-0.395c4.188-0.76,13.251,0.708,13.251,0.708
		c4.09-0.707,8.244-0.639,12.369-0.939c4.637-0.337,4.708,1.265,7.324,1.127c1.801-0.095,3.438-0.852,5.126-1.233
		c1.502-0.339,3.175,1.167,5.066,0.498c1.812-0.641,10.6,0.807,13.564-0.126c2.579-0.811,5.452,0.405,8.047-0.871
		c0.217-0.107,0.71,0.136,0.962,0.349c1.828,1.548,3.997,1.645,6.09,1.073c3.578-0.978,7.193-0.026,10.764-0.519
		c3.689-0.51,7.333,0.082,11.009,0.332c2.646,0.18,5.363-0.708,8.045,0.213c0.302,0.104,0.782,0.048,1.04-0.133
		c6.15-4.315,14.961,1.706,19.914-1.068c0.795-0.445,1.637-0.424,2.394,0.015c4.011,2.328,5.977-1.993,9.228-0.25
		c1.123,0.602,2.423,0.745,3.476,0.458c2.901-0.789,5.825-0.177,8.709-0.505c1.934-0.22,2.719,1.029,2.709,2.844
		c-0.045,7.72,1.525,15.413,0.323,23.161C533.783,258.614,536.338,264.473,530.409,264.107z M437.768,266.057
		c-10.449,3.178-20.958,6.07-31.669,8.447c2.759-3.229,5.979-5.769,9.27-8.219C416.807,265.214,436.755,266.01,437.768,266.057z
		 M155.796,411.562c-6.974-6.295-9.578-6.258-9.47-10.008c0,0-0.011,1.056-0.011-82.18h0.013c0-26.56-0.007-53.12,0.006-79.679
		c0.004-8.131,0.83-4.56,17.127-4.694c4.592-0.037,4.907-0.357,5.034-4.799c0.122-4.287,0.189-4.385,4.488-4.386
		c1.576,0,108.176-0.037,110.406,0.054c2.521,0.102,2.221,2.201,2.221,5.144c0.007,112.811,1.586,106.606-3.822,110.212
		c-112.593,75.066-107.964,77.444-112.328,73.409C164.803,410.328,160.634,415.928,155.796,411.562z M161.962,422.691
		c-0.627,1.484-3.822,1.082-3.356-0.323c0.321-0.969,1.361-0.698,2.15-0.672C161.351,421.714,161.91,421.907,161.962,422.691z
		 M153.668,422.221c-4.488,0.924-3.13,4.389-3.695,6.974c-0.123,0.565,0.138,1.236-0.66,1.393c-0.716,0.14-1.13-0.332-1.257-0.964
		c-0.297-1.474-0.6-1.32-8.098-7.25c-3.459-2.736,1.204-1.808-2.093-4.45c-7.285-5.838-7.608-5.37-7.734-6.826
		c3.341,0.205,7.159,3.768,9.613,2.662C143.244,412.183,143.922,416.004,153.668,422.221z M135.542,247.857
		c3.85,2.452,3.602,6.432,3.602,9.837c-0.006,152.268,1.465,132.335-3.164,142.273c-1.243,2.669-6.435-0.071-6.807-8.871
		c-0.164-3.88,0.098-7.909-0.222-9.992c-0.252-1.648-2.133-1.372-2.366-0.016c-0.515,3.005-0.185,4.554-0.335,17.478
		c-0.051,4.429-0.689,4.884-5.002,4.573c-2.306-0.167-4.479-0.209-5.872-2.518c-0.603-1-5.809-0.915-5.136-6.143
		c0.608-4.724-3.656-5.103-1.541-9.009c4.139-7.644-3.515-11.78,0.571-15.906c0.156-0.157,0.281-0.427,0.281-0.645
		c0.006-3.135,1.043-6.324,0.758-9.29c-0.424-4.404,0.215-8.783-0.351-13.143c-0.045-0.345-0.058-0.763,0.092-1.055
		c2.373-4.594-1.17-10.809,1.64-14.117c0.312-0.368,0.345-1.229,0.155-1.727c-1.747-4.586,0.12-9.497-1.32-14.103
		c-0.812-2.597,3.38-5.675,0.345-9.079c-0.226-0.254-0.547-0.735-0.452-0.917c1.35-2.597-0.304-5.667,1.462-8.263
		c3.184-4.679-2.705-6.303-0.717-11.486c1.845-4.811-1.426-8.446,2.462-10.865c0.28-0.174,0.396-0.911,0.31-1.329
		c-0.753-3.622,0.222-7.272-0.466-10.973c-1.538-8.275,8.26-8.224,8.679-14.475c0.121-1.802,2.908-2.064,3.75-0.268
		c0.433,0.924,0.332,2.645,1.221,2.792c1.129,0.187,1.344-0.833,2.733-4.196c0.001-0.001,0.002-0.002,0.003-0.003
		c1.622,1.07,2.598-0.41,3.822-0.963C136.278,244.283,134.277,247.052,135.542,247.857z M89.559,220.989
		c0.853-3.719,0.548-17.967,1.175-20.685c0.277-1.202-0.211-2.59-0.392-3.887c-0.736-5.289,0.876-3.774,0.617-13.713
		c-0.095-3.651,0.757-7.268,0.265-10.929c-0.344-2.561,0.307-1.836,34.968-1.837c4.063,0,4.938,0.408,5.021,3.327
		c0.351,12.233-0.502,19.497-0.308,26.054c0.911,30.843,0.976,30.246-2.986,29.763c-3.735-0.456-29.738-1.261-32.464-1.333
		C90.488,227.615,88.482,225.684,89.559,220.989z M74.116,173.021c0.164-3.475,0.818-3.106,8.693-3.049
		c1.745,0.013,2.655,0.897,2.633,2.649c-0.103,8.387-11.274,309.577-11.464,318.083c-0.094,4.227-1.602,3.238-11.184,4.624
		c-3.824,0.553-1.511-3.77-1.647-8.317c-0.126-4.2,10.914-267.739,10.964-268.74C72.111,218.27,71.927,219.333,74.116,173.021z
		 M167.853,478.822c-53.154,46.888-26.974,29.064-65.459,39.638c-6.835,1.878-8.898,0.757-37.787,1.157
		c-5.346,0.074-4.949-1.528-14.969-16.7c-1.63-2.467-1.296-3.353-1.296-14.381c-0.003-273.323,1.117-252.752-2.688-260.466
		c-3.951-8.01-7.684-16.128-11.406-24.248c-3.283-7.164,0.678-20.345,19.849-28.038c6.797-2.727,2.428-5.753,6.878-5.802
		c9.631-0.106,10.521-0.509,10.364,3.483c-0.039,1-1.438,27.381-0.976,36.282c0.179,3.442-1.094,15.27-1.094,15.27
		c1.071,3.837,0.054,7.619-0.389,11.349c-1.012,8.514-0.104,26.416-1.495,32.65c-0.884,3.963-0.285,8.269-0.23,12.421
		c0.014,1.062,0.277,2.082-0.136,3.151c-2.002,5.18,0.537,5.986-0.054,9.449c-1.129,6.612-0.722,13.281-0.834,19.937
		c-0.153,9.044-2.038,14.222-0.951,18.417c0.428,1.653,0.101,3.547-0.099,5.31c-0.577,5.088-0.55,10.201-0.847,15.297
		c-0.156,2.683-1.119,5.334-0.868,8.091c0.724,7.984-0.272,15.901-0.738,23.849c-0.49,8.362,0.541,15.395-0.258,20.551
		c-0.488,3.147-3.62,73.05-3.129,79.908c0.355,4.95-2.357,13.106,5.769,12.985c3.924-0.059,7.824-0.675,11.587-1.949
		c6.058-2.051,2.508-20.234,3.646-30.56c0.111-1.011,1.043-21.479,0.988-25.888c-0.135-10.975-0.412-12.624,4.736-13.253
		c45.145-5.518,45.095-6.549,49.258-2.381c6.437,6.443,10.349,6.333,6.738,8.921c-11.437,8.2-12.129,7.109-9.804,10.268
		c22.768,30.936,21.346,30.403,25.103,29.755c6.19-1.068,12.423-1.892,18.638-2.811
		C173.846,474.168,170.667,476.339,167.853,478.822z M684.891,301.844c-4.906,1.618-219.768,1.078-222.716,0.967
		c-6.169-0.231-12.067,0.815-17.954,2.458c-45.008,12.566-29.49,7.081-46.159,14.757c-74.316,34.224-124.081,77.165-215.5,137.154
		c-5.193,3.408-0.277,6.009-5.233,9.02c-1.717,1.043-3.367,2.195-5.397,3.529c-0.803-6.866,4.422-6.736,1.266-10.886
		c-3.151-4.143-0.742-6.206-3.94-10.955c-3.001-4.456,0.606-6.521,1.034-13.983c0.399-6.954-0.198-4.075,119.575-86.617
		c7.478-5.153,2.893-4.638,7.451-6.932c5.099-2.567,15.217-9.401,22.875-13.05c2.42-1.153,4.464-3.065,6.749-4.553
		c4.772-3.106,9.824-5.758,14.398-9.22c7.978-6.038,13.395-6.321,16.941-8.72c6.749-4.565,9.565-3.741,28.46-12.883
		c6.411-3.102,12.753-6.462,20.074-6.965c0.119-0.008,0.248,0.002,0.354-0.042c4.701-1.963,9.888-2.341,14.544-4.454
		c0.541-0.246,1.098-0.613,1.659-0.636c4.221-0.17,7.956-2.227,12.03-3.036c14.562-2.891,8.977-3.897,16.143-3.721
		c7.7,0.189,31.273,1.525,38.033-0.002c0.46-0.104,0.99-0.235,1.413-0.108c4.017,1.211,8.049-0.719,11.927-0.11
		c4.266,0.669,8.53-0.729,12.719,0.538c0.757,0.229,1.664,0.079,2.483-0.033c13.674-1.858,19.708,1.076,24.022-2.142
		c1.21-0.902-6.053-0.281,114.647-0.465c2.034-0.003,4.049-0.045,5.86,1.147c0.703,0.463,1.573,0.715,2.399,0.54
		c4.265-0.905,7.876,1.427,11.769,2.333c1.056,0.246,1.847,1.044,2.526,1.908c3.373,4.293,6.206,4.845,5.948,11.864
		c-0.104,2.811,0.375,5.717-0.79,8.454c-0.351,0.824-0.25,1.405,0.73,2.014C686.526,299.824,686.291,301.383,684.891,301.844z
		 M690.936,263.425c-6.916,0.033,2.466,0.031-143.695,0.032c-7.044,0-5.648,3.319-5.537-33.383
		c0.018-6.026-7.075-4.253,76.486-4.253v-0.018c81.956,0,76.457-1.195,76.483,3.195
		C694.887,265.817,695.745,263.402,690.936,263.425z M784.485,145.411c2.77-0.766,4.567-0.166,5.429-2.543
		c0.637-1.755,0.518-1.745,20.042-1.519c7.616,0.088,15.396-0.418,16.528,2.693c0.716,1.967,3.834,1.46,3.037,3.855
		c-0.552,1.657,2.232,0.384-41.203,0.507C784.059,148.415,782.134,146.06,784.485,145.411z M824.105,301.702
		c-0.114,4.342-2.841,7.588-6.656,7.992c-1.981,0.21-2.547-0.107-2.788-2.187c-1.76-15.199,0.188-120.686-0.954-126.489
		c-0.793-4.032,3.209-9.431-3.698-13.695c-8.85-5.464-10.443,2.16-16.024-6.165c3.469-2.21,7.095-2.288,10.598-2.149
		c22.871,0.91,20.067,1.195,19.482,37.918c0,0.001,0.136,43.486,0.136,43.487C824.428,245.151,824.394,290.669,824.105,301.702z
		 M789.725,161.965c-0.08,0.057-0.161,0.114-0.241,0.171c-0.115-0.122-0.228-0.246-0.342-0.369
		C789.364,161.61,789.289,161.498,789.725,161.965z M765.934,314.037c-0.923,2.399,0.115,1.552-27.424,1.724
		c-1.488,0.009-3.168-0.45-4.283,1.095c-0.394,0.546-0.7,0.507-1.077-0.023c-2.97-4.176-31.501,4.993-31.248-9.924
		c0.1-5.893-2.858-2.665-2.862-6.828c-0.031-29.169-0.496-28.569,1.564-29.374c3.063-1.196,1.304-12.615,1.303-16.452
		c-0.013-34.854,0.683-34.026-1.859-35.394c-1.39-0.748-1.032,0.544-1.016-31.477c0.002-4.736,4.072-2.016,3.422-7.606
		c-0.251-2.157-0.043-4.276,0.083-6.41c0.44-7.473,1.94-6.212,47.284-11.367c5.152-0.585,3.124-2.081,9.59,2.518
		c1.935,1.376-1.772,5.239-0.977,10.313c0.138,0.879-0.524,1.548-1.083,2.173c-3.279,3.666,0.669,6.646-2.537,9.474
		c-0.333,0.294-0.509,1.136-0.12,1.288c2.424,0.948,0.786,2.086,0.225,3.175c-0.571,1.109,0.005,2.082,0.355,3.079
		c1.015,2.886,1.105,5.673,0.192,8.716c-1.547,5.153,3.242,10.655-0.326,13.566c-0.571,0.466-0.394,1.087,0.074,1.563
		c2.849,2.899-2.131,3.899,0.696,10.181c0.357,0.792,0.772,1.694,0.05,2.322c-1.995,1.734-1.479,3.689-0.387,5.441
		c3.189,5.12-3.757,6.417-0.391,10.386c2.409,2.84-1.681,6.352,1.126,11.815c0.483,0.94-0.026,2.158-0.538,3.085
		c-1.076,1.948-1.068,3.838-0.127,5.807c1.506,3.152-2.027,4.595,0.547,7.391c0.184,0.199,0.225,0.818,0.061,1.005
		c-2.305,2.641-0.587,6.301-2.346,9.086c-1.653,2.617,2.841,3.354,0.596,8.093c-0.918,1.938-1.359,3.696,0.295,5.598
		c0.956,1.099,1.846,7.697,1.56,9.421c-0.302,1.822,1.329,1.451,2.024,3.493c0.655,1.925,2.452,1.104,2.413-0.392
		c-0.065-2.442,1.4-4.681,0.457-7.337c-0.546-1.538,0.259-3.505,0.892-5.196c1.848-4.94-0.889-5.319-0.032-10.182
		c0.083-0.469,0.337-1.017,0.185-1.4c-1.278-3.225,0.378-6.265,0.524-9.394c0.153-3.286-1.276-8.093-0.481-14.166
		c0.337-2.573,1.029-5.187-0.405-7.686c-0.24-0.419-0.305-0.966,0.014-1.363c1.643-2.041,0.927-4.328,0.587-6.497
		c-0.393-2.499,0.967-4.849,0.307-7.361c-0.98-3.733,0.846-13.245-0.913-16.456c-0.289-0.527-0.63-1.246-0.246-1.689
		c1.732-2.002,0.518-3.924,0.18-5.98c0,0,0.854-16.48,0.156-22.352c-0.64-5.381,1.781-9.225,0-12.648
		c-0.575-1.105-0.768-2.209-0.651-3.439c0.256-2.685,0.496-2.954,3.269-3.158c49.117-3.613,44.463-1.628,44.465,3.636
		c0.008,21.679,0.004,43.359,0.004,65.038h-0.013c0,21.441,0.004,42.882-0.002,64.323c-0.002,5.624-0.015,5.63-5.486,5.637
		c-5.828,0.007-11.662,0.165-17.483-0.045C784.367,312.814,766.168,313.429,765.934,314.037z M825.965,326.766
		c-0.678,1.392-0.749,1.144-16.768,1.161c-19.448,0.021-19.782,0.504-21.147-1.79c-0.978-1.644-3.137-0.676-4.705-1.682
		c2.038-4.941,1.741-3.702,42.929-3.664c2.717,0.002,4.717,0.147,4.634,2.025C830.804,325.174,827.757,323.086,825.965,326.766z
		 M889.885,91.785c-0.049-2.207,0.703-3.802,2.539-5.148c10.992-8.054,13.184-3.225,13.213-9.882c0.036-8.333,0.132-16.669-0.024-25
		c-0.303-16.2,17.377-22.424,19.651-21.287c2.122,1.061,4.143,0.732,6.112-0.451c0.714-0.429,1.595-1.002,2.293-0.272
		c3.057,3.201,7.35,4.309,10.965,6.565c20.526,12.811,16.4,11.851,22.005,15.738c1.115,0.773,1.535,2.081,1.862,3.373
		c6.478,25.663,0.856,28.526,7.21,30.383c3.775,1.103-0.523,4.227,5.784,6.366c20.63,6.996,19.951-2.102,19.951,15.818h-0.033
		c0,10.554,0.59,11.101-3.498,11.149c-11.494,0.136-105.683-0.01-106.687-0.001c-3.758,0.037-4.105-0.38-4.176-4.046
		C886.687,96.32,890.427,116.215,889.885,91.785z M1152.088,429.221c-0.115-0.036-0.229-0.073-0.344-0.109v-45.883
		c0.115,0,0.229,0,0.344-0.001V429.221z M1183.385,454.07c-4.051,2.055-24.358-6.153-24.502-25.795
		c-0.136-18.57-0.041-37.142-0.006-55.713c0.007-3.544,0.346-3.811,3.929-3.882c4.308-0.085,6.516-0.354,6.495,2.731
		c0,0,0.116,38.56-0.048,63.57c-0.022,3.358,0.847,5.93,3.323,8.214c3.408,3.143,6.469,6.66,10.148,9.521
		C1183.088,452.999,1183.478,453.3,1183.385,454.07z M1177.222,433.616c-0.689-0.872-0.608-2.031-0.607-3.103
		c0.021-59.375-1.3-54.594,3.571-54.177c3.885,0.333,9.492-1.112,12.233,0.655c1.988,1.281,3.681-2.341,7.441-1.319
		c-16.871,19.776-20.858,41.909-13.49,66.855C1182.462,439.829,1179.748,436.812,1177.222,433.616z M1288.766,454.188
		c-2.278,0.358-0.992,0.278-41.419,0.278c-42.457-0.009-41.087,1.136-43.924-3.142c-3.756-5.663-12.214-17.085-12.408-32.829
		c-0.304-24.676,25.274-49.904,44.898-49.843c54.588,0.169,53.884-2.153,56.398,6.2c0.555,1.843,0.762,3.722,0.762,5.64
		C1293.054,459.513,1294.749,453.247,1288.766,454.188z M1217.659,362.664c0.583-0.454,1.228-0.513,2.14-0.025
		c-0.79,0.654-1.399,0.909-2.101,0.578C1217.61,363.176,1217.572,362.731,1217.659,362.664z M1300.815,428.518
		c-0.105,0-0.21,0.001-0.315,0.001v-13.803c0.105,0,0.21-0.001,0.315-0.001V428.518z M1300.845,410.005
		c-0.104,0.001-0.208,0.002-0.312,0.002v-4.63c0.104-0.001,0.208-0.002,0.312-0.002V410.005z M1322.482,473.08
		c6.816-0.623,9.224,9.565,10.368,16.49c0.503,3.039,2.635,5.267,2.539,11.665c-0.004,0.235,0.012,0.493,0.104,0.703
		c2.474,5.636,2.591,11.676,3.042,17.66c0.265,3.515,2.365,2.803,2.174,4.982c-0.469,5.355,1.316,8.163,2.764,12.695
		c2.672,8.362,0.248,9.416,6.422,26.531c0.161,0.447,0.369,0.9,0.413,1.363c0.496,5.226,2.737,10.032,3.632,15.16l-0.012-0.012
		c2.443,4.716,2.8,10.018,4.176,15.033c1.224,4.462,3.761,6.525,3.502,12.161c-0.033,0.712-0.237,1.451,0.119,2.105
		c1.43,2.629,1.805,5.686,2.977,8.29c1.276,2.835,1.108,5.758,1.796,8.567c1.065,4.35,2.596,8.613,3.191,13.07
		c0.447,3.341-4.048,7.812-4.929,4.872C1356.336,616.33,1321.9,495.171,1322.482,473.08z M1432.128,445.818
		c-0.236-2.696,1.368-4.619,4.052-4.846c0.939-0.08,1.898,0.073,2.847,0.128c0.709,0.041,1.659,0.414,2.086,0.091
		c2.71-2.055,6.255-1.353,9.078-2.9c0.779-0.427,1.541-0.519,2.399-0.448c0.701,0.058,1.644,0.234,2.088-0.125
		c3.983-3.232,9.098-1.981,13.493-3.517c0.439-0.154,0.953-0.258,1.403-0.189c5.457,0.836,7.274-4.435,8.051,0.086
		c12.709,73.901,5.469,44.034,43.477,180.817c1.058,3.808-0.802,6.114-4.824,6.336c-1.818,0.1-3.219-0.58-5.853,0.904
		c-3.849,2.168-7.238,0.887-25.963,5.717c-1.825,0.471-3.769,0.317-5.512,1.25c-2.478,1.326-3.162-1.005-5.528-9.296
		C1464.87,589.87,1436.451,495.18,1432.128,445.818z M1458.465,609.626l-0.229,0.167l-0.019-0.285L1458.465,609.626z
		 M1456.974,631.083c0.688,2.534,0.319,2.998-2.401,3.593c-2.307,0.505-4.559,1.354-6.998,1.008
		c-0.718-0.102-1.468,0.084-2.031,0.541c-3.426,2.775-7.23-0.191-10.186,2.181c-0.18,0.145-0.416,0.258-0.642,0.303
		c-6.695,1.324-13.016,4.246-19.94,4.616c-3.513,0.188-2.696,2.54-9.298-21.397c-16.344-59.26-24.777-82.863-36.266-162.223
		c-0.645-4.458,7.111-4.46,11.618-4.821c4.375-0.35,4.352-2.252,8.085-2.548c4.152-0.329,6.724-2.916,10.628-2.883
		c2.671,0.022,5.254-0.554,7.584-1.675c2.359-1.135,4.924-0.464,7.286-1.412c1.919-0.771,2.413,2.386,2.986,7.907
		C1424.328,521.061,1446.341,591.917,1456.974,631.083z M1397.162,643.353c1.345,4.836,0.001,4.178-13.221,6.008
		c-2.064,0.317-2.364-1.2-4.21-7.828c-24.97-89.62-31.047-106.258-41.86-174.91c-0.524-3.325,2.009-3.283,14.147-6.018
		c3.372-0.76,1.354-0.896,10.852,49.283C1371.01,552.893,1381.402,586.684,1397.162,643.353z M1573.975,615.6
		c0.513,4.872,2.884,8.176-0.188,9.051c-4.859,1.384-134.948,29.468-133.948,29.251c-78.967,17.159-72.725,17.853-74.071,12.207
		c-1.552-6.508-3.115-5.674,4.499-7.318C1582.617,612.941,1573.726,613.232,1573.975,615.6z M1553.804,568.334
		c11.593,42.51,10.052,37.156,13.671,41.805c-3.023-0.301-5.012,0.319-6.97,1.26c-4.304,2.068-3.452-0.184-7.551,1.568
		c-4.971,2.125-3.985,2.837-12.492-27.365c-19.549-69.393-27.729-93.625-36.149-156.37c-0.427-3.187-0.043-3.309,3.231-3.723
		c10.303-1.301,4.566-2.311,10.106-2.745c4.928-0.386,2.706,2.997,7.167,27.761C1535.404,509.299,1540.47,519.436,1553.804,568.334z
		 M1599.133,281.168c-0.441-1.454-0.441-1.454,0.144-2.842C1599.686,279.786,1599.686,279.786,1599.133,281.168z M1630.443,124.873
		c-4.809,2.555-7.95,6.986-11.686,10.724c-1.352,1.352-3.429,1.573-4.512,3.128c0.552,1.346,1.836,1.285,2.682,1.883
		c0.842,0.595,1.761,1.554,1.076,2.316c-2.626,2.919,0.129,5.783-1.802,15.95c-0.845,4.451,0.766,8.997-0.929,13.332
		c-0.261,0.667-0.357,1.519,0.133,2.066c3.327,3.717-5.106,3.263-1.657,13.207c0.691,1.993,0.757,3.931,0.951,5.918
		c0.26,2.656-3.831,1.194-2.223,4.86c1.08,2.462,0.522,5.218,1.634,7.646c1.259,2.75-2.663,2.913-0.414,7.412
		c1.079,2.158,1.196,4.254-0.067,6.464c-1.461,2.556-0.093,5.084,0.387,7.621c0.818,4.324,0.428,8.623-0.525,12.881
		c-0.274,1.224-1.22,1.712-2.402,1.734c-8.237,0.154-8.926,0.411-9.015-3.05c-0.444-17.292,1.667-16.966-5.268-16.966
		c-374.999,0.013-671.103,0.027-694.594,0.027c-5.893,0-5.897-0.01-5.896-5.897c0.001-15.968-0.009-31.935,0.022-47.903
		c0.026-13.638,1.572-12.911,0.206-16.19c-2.709,1.824-4.039,4.223-4.649,7.042c-1.743,8.045-3.583,1.551-3.687,17.42
		c-0.083,12.654-0.338,12.033,0.13,13.454c1.092,3.314-2.376,4.067,0.361,8.922c0.534,0.948,1.069,2.212,0.459,3.064
		c-2.155,3.011-0.734,6.518-1.525,9.732c-0.405,1.643,0.923,3.638,1.077,5.506c0.605,7.379,6.335,10.117,11.735,13.116
		c1.221,0.678,2.855,1.066,4.17,0.617c3.348-1.143,8.117,0.945,9.41,0.714c5.269-0.944,35.251,0.215,45.021-1.19
		c0.85-0.122,1.654,0.024,2.455,0.305c0.56,0.197,1.167,0.537,1.708,0.468c5.135-0.651,10.122,1.311,15.226,0.839
		c2.57-0.237,5.047-1.417,7.72-0.604c3.843,1.168,7.571,0.538,11.469-0.187c3.125-0.581,14.155,1.031,20.744,0.045
		c0.351-0.053,0.728-0.133,1.063-0.06c5.319,1.166,10.644-0.023,15.964,0.072c1.897,0.034,3.692,1.202,5.609,0.766
		c4.682-1.066,9.49,0.652,14.176-0.766c1.032-0.312,2.416,0.61,3.489,0.35c3.186-0.772,6.214-0.058,9.33,0.324
		c1.711,0.21,3.527-0.399,5.292-0.663c2.778-0.416,4.104,1.59,1.715,3.762c-2.777,2.525-7.741,0.771-11.247,10.925
		c-0.027,0.078-1.744,5.354-1.725,5.434c1.024,4.345-0.458,15.874,13.64,18.411c1,0.18,7.727,2.331,13.464-1.018
		c6.671-3.894,9.593-9.745,9.558-17.46c-0.063-13.9-12.157-14.77-14.424-18.106c0.965-1.256,2.381-2.079,3.835-2.089
		c22.195-0.16,51.893,0.316,55.48-0.104c2.853-0.334,2.316,1.248,5.588,0.552c7.227-1.536,22.016,0.417,27.219-1.163
		c0.44-0.134,0.967-0.159,1.415-0.06c8.464,1.871,17.057,0.653,25.573,1.138c3.161,0.18,6.363-0.917,9.497,0.369
		c0.598,0.246,1.484,0.158,2.111-0.092c5.433-2.17,12.93,0.254,14.385-0.192c5.368-1.645,10.763-0.435,16.149-0.188
		c1.183,0.054,2.468,0.277,3.54-0.079c3.898-1.296,8.032,0.583,11.888-1.007c0.362-0.149,0.923,0.094,1.363,0.24
		c4.974,1.648,10.26-0.121,15.601,0.858c4.779,0.875,2.905-1.174,8.775-0.296c8.853,1.324,9.109-1.083,14.063,0.25
		c6.078,1.636,9.475-1.095,17.726,0.126c0,0,254.67-0.081,254.672-0.081c4.695-0.354,9.207,0.806,13.712,1.863
		c1.403,0.329,2.483,1.173,3.062,2.713c1.005,2.672,2.235,5.253,2.817,8.08c0.304,1.479,0.91,2.784,2.859,2.32
		c0.055,0.777,0.26,1.503,0.725,2.142l-0.012-0.011c0.58,1.545,4.454,2.661,2.986,5.795c-5.508-6.408-11.453-8.151-12.453-8.988
		c-5.071-4.245-10.79-2.378-16.369-1.746c-0.571,0.065-1.306,0.244-1.633,0.642c-3.432,4.18-10.254,4.628-11.865,10.25
		c-0.748,2.612-5.454,7.281-3.25,15.441c0.821,3.038-2.343,9.193,12.389,19.399c2.374,1.645,12.264,3.435,20.25,1.144
		c4.972-1.427,4.673-4.244,10.401-6.505c-3.084,12.241-20.807,12.702-32.874,9.293c-8.081-2.282-21.093,2.01-25.693,4.099
		c-6.559,2.979-12.85,11.804-11.959,19.595c0.815,7.118,1.398-5.549,1.463,22.997c0.018,8.15,1.317,4.336,1.325,10.172
		c0.078,56.24,1.2,54.69-3.026,56.079c-1.21,0.398-2.15,1.474-3.453,1.824c-0.839,0.225-1.655,0.694-1.786,1.58
		c-0.519,3.504,0.684,2.385-46.133,13.185c-225.457,52.008-124.627,29.55-168.418,35.075c-2.735,0.345-4.429-0.987-3.845-3.648
		c0.922-4.201,0.2-8.302,0.047-12.435c-0.239-6.446,1.447-10.237,1.449-19.562c0.005-45.368,1.937-51.591-7.604-60.853
		c-2.737-2.656-0.983-2.008-41.23-1.963c-0.593,0.001-1.267-0.078-1.767,0.163c-3.618,1.748-7.474,1.158-11.253,1.194
		c-0.481,0.005-21.334,0.129-21.786-0.035c-5.353-1.931,1.979-1.332-100.964-1.375c-0.819,0-1.637,0-2.566,0.303
		c5.789-0.356,8.516,4.487,12.416,7.205c3.712,2.587,2.569,5.153,4.245,8.779c5.772,12.493,5.063,56.955,5.063,56.955
		c1.262,2.175,0.75,4.461-0.377,6.12c-2.755,4.058-2.725,9.098-5.159,13.206c-0.382,7.503,4.912-3.203-97.005,159.53
		c-33.642,53.717-31.271,52.386-36.865,51.747c-13.448-1.535-26.63-8.029-117.253-46.907c-8.635-3.705-44.398-17.407-39.767-22.874
		c8.316-9.817,133.852-147.939,133.852-147.939c8.614-8.738,9.034-11.691,11.484-9.444c0.984,0.903,2.77-0.349,1.249-1.568
		c-1.648-1.321-1.416-3.175-1.419-4.943c-0.017-11.32-0.287-22.65,0.105-33.957c0.305-8.791-1.437-8.489-35.762-49.372
		c-1.524-1.816-1.387-1.973,0.524-3.65c5.985-5.25,8.268-3.736,10.654-6.891c-11.839,2.014-12.473,2.393-15.882,2.243
		c-4.94-0.217-1.44-2.834-9.643-2.831c-92.174,0.037-85.579,2.772-88.155-11.588c-0.588-3.276,4.06-2.26,1.473-8.039
		c-1.063-2.375-0.451-1.789,0.584-17.171c0.021-0.309-0.234-0.919-0.343-0.915c-3.009,0.118-1.675-2.112-1.847-3.449
		c-0.581-4.516-0.754-9.001,0.75-13.433c1.377-4.055-2.331-4.435-0.727-14.048c0.679-4.069-1.729-12.303,0.161-14.727
		c0.464-0.595,0.327-1.316,0.258-2.051c-1.264-13.43,0.235-10.002-0.704-25.945c-0.156-2.653-0.154-5.23,1.126-7.626
		c0.44-0.824,0.333-1.53,0.107-2.379c-1.623-6.1,0.4-7.368,0.258-8.369c-0.715-5.073,0.67-10.201-0.252-15.234
		c-0.86-4.697-1.759-9.308-0.339-14.06c0.402-1.347,0.298-2.859-0.068-4.256c-0.549-2.096-0.437-4.262-0.795-6.37
		c-0.76-4.478,2.809-2.828,2.189-8.225c-1.748-15.218-3.763-12.317-2.319-16.352c10.101-28.203,9.308-27.118,13.027-31.97
		c2.643-3.448,7.77-3.458,10.462-0.082c0.906,1.136,1.696,2.319,3.318,2.448c2.265,0.181,3.4,1.664,3.821,3.665
		c1.015,4.828,4.977,7.366,8.109,10.507c1.823,1.828,12.991,2.55,19.627,1.999c1.019-0.085,86.897,0.829,94.546-1.324
		c5.962-1.678,5.953-6.642,9.74-10.729c1.179-1.272-0.341-4.733,3.854-4.328c3.26,0.315,1.118-3.221,6.47-4.279
		c3.49-0.69-3.488-0.46,113.646-0.506c9.039-0.004,4.556-2.686,9.177-2.733c6.956-0.072,7.692-0.135,8.307,0.897
		c1.553,2.604-0.666,1.875,50.092,1.851c1.905-0.001,3.651,0.006,5.095-1.825c1.239-1.571,4.364-1.419,5.732,0.19
		c1.994,2.345-1.892,1.61,68.441,1.632c1.71,0.001,3.139-0.229,4.41-1.75c1.354-1.62,5.082-1.575,6.444,0.062
		c1.272,1.529,2.726,1.743,4.425,1.687c2.131-0.07,4.292,0.268,6.378-0.496c0.428-0.157,0.945-0.226,1.391-0.153
		c8.763,1.435,17.586,0.29,26.373,0.622c1.376,0.052,2.545-0.285,3.373-1.563c0.763-1.179,1.811-1.219,2.555-0.01
		c1.337,2.173,0.136,1.594,34.821,1.605c96.777,0.032,91.172,1.214,94.698-2.923c4.83-5.666,11.409-5.5,16.29,0.215
		c3.799,4.448,1.614,2.029,70.152,2.866c2.51,0.031,4.45-2.478,7.069-0.925c4.549,2.698,22.342-2.335,26.348,3.934
		c0.703,1.099,3.707,1.521,4.25,3.102c2.071,6.034,6.315,11.003,8.146,17.212c1.043,3.538,3.225,6.74,5.957,9.647
		c1.287-0.993,1.231-2.263,1.07-3.347c-1.027-6.913,0.028-31.841-0.81-44.644c-0.104-1.593,0.634-2.226,2.046-2.23
		c18.966-0.061,18.251-0.281,20.014,1.343c6.613,6.098,5.217-8.217,5.413,29.948C1632.8,122.426,1632.278,123.898,1630.443,124.873z
		 M1093.699,252.608c-0.223,7.638-5.775,13.319-13.374,13.304c-18.842-0.037-16.798-27.775-0.267-26.656
		C1087.733,238.801,1093.906,245.508,1093.699,252.608z M1577.369,286.99c-25.276,0.13-25.822-37.499-0.217-38.013
		C1601.711,248.484,1602.789,286.859,1577.369,286.99z M2265.755,49.434c0.421,1.584-4.577,4.882-9.17,3.564
		C2251.066,51.414,2264.876,46.123,2265.755,49.434z M2251.537,55.187c1.088,1.733-0.799,2.946-1.088,2.12
		C2250.073,56.231,2250.592,55.602,2251.537,55.187z M2236.654,103.117c3.265-3.857,7.905-2.863,11.956-3.051
		c29.762-1.377,33.848,3.474,35.901-2.554c1.335-3.92,4.388-5.747,8.226-5.487c9.878,0.67,9.063,14.91,0.245,15.55
		c-4.479,0.325-48.865-2.564-57.992-3.979C2235.556,103.446,2236.343,103.484,2236.654,103.117z M2203.386,116.545
		c0.623-0.022,1.053,0.702,0.125,1.368c-0.269,0.193-0.573,0.339-0.862,0.505C2202.583,117.505,2202.416,116.578,2203.386,116.545z
		 M1758.612,104.408c1.456-0.927,2.92-1.256,4.085,0.371c1.417,1.978,2.747,1.401,12.377,1.49c1.929,0.018,3.853,0.087,4.997-2.483
		c1.699,3.584-5.553,2.477,104.821,2.484c84.565,0.005,79.827,0.901,81.807-2.136c0.604-0.927,2.121-0.876,2.878,0.012
		c2.755,3.23,6.51,2.61,8.424,0.07c0.726-0.963,2.044-0.984,2.527,0.421c0.849,2.472,3.177,1.302,7.094,1.58
		c1.882,0.134,0.414-2.828,2.313-2.437c1.218,0.251,0.717,2.365,2.308,2.4c5.798,0.129-18.481,0.062,119.398,0.09
		c1.935,0,3.738,0.015,4.995-1.975c0.663-1.048,2.062-0.941,2.718,0.147c1.155,1.915,2.919,1.923,4.704,1.798
		c5.501-0.385,10.908,0.966,16.393,0.803c1.327-0.039,2.604,0.434,2.571,1.809c-0.043,1.838-1.243,1.692-9.109,1.694
		c-405.003,0.132-374.989,1.915-376.812-3.286C1756.582,105.789,1757.57,105.071,1758.612,104.408z M1682.676,94.714
		c0.045,0.84-1.117,0.755-1.526,0.291C1680.573,94.349,1682.181,93.838,1682.676,94.714z M1678.811,94.414
		c-0.106,0.871-1.075,0.626-1.426-0.046C1676.983,93.6,1678.603,93.272,1678.811,94.414z M1668.465,93.163
		c-0.03,0.091-0.061,0.181-0.091,0.272c-0.166-0.036-0.333-0.074-0.499-0.111C1667.955,93.076,1667.835,93.026,1668.465,93.163z
		 M1663.775,92.976c0.481-0.123,0.499,0.402,0.225,0.497C1663.695,93.578,1663.442,93.372,1663.775,92.976z M1656.64,92.475
		c0.158,0.14,0.419,0.261,0.45,0.424c0.146,0.785-0.96,0.593-0.883-0.036C1656.224,92.718,1656.486,92.603,1656.64,92.475z
		 M1744.551,108.297c2.746-0.11,4.74,1.205,6.281,4.009c-4.729,1.834-59.159,1.32-61.173,1.169
		c-7.136-0.535-4.788,2.356-7.847,0.995c-3.822-1.7-13.872,0.182-17.698-0.67c-5.094-1.135-12.046,0.454-13.978-1.006
		C1652.479,107.466,1698.002,110.161,1744.551,108.297z M1649.901,92.526l0.212,0.188l-0.258,0.09L1649.901,92.526z
		 M2156.876,240.583c-2.309,19.964-12.945,49.513-32.28,55.809c-26.314,8.568-29.323-10.874-39.341-10.664
		c-20.031,0.419-439.465,13.505-439.363,11.87c-0.607-0.003-1.206-0.096-1.783-0.271c-1.221,1.359-2.859,1.652-5.444,1.183
		c-2.602-0.472-2.925-1.448-2.867-4.134c0.14-6.478,2.307-8.026,2.293-11.014c-0.034-7.231,0.61-14.412,1.573-21.567
		c0.997-7.408-1.342-8.036,0.154-24.155c1.337-14.396-2.313-23.589,0.079-34.833c0.394-1.852-1.836-41.067-0.422-45.306
		c0.872-2.617-1.107-3.57,0.169-6.97c0.468-1.247,0.435-2.628-0.133-3.845c-0.582-1.248-0.4-2.562-0.648-3.817
		c-0.605-3.066-0.178-5.656,2.449-7.646c0.57-0.432,1.1-1.177,0.806-1.867c-0.909-2.132,0.24-3.974,0.695-5.89
		c0.606-2.553,1.597-3.547,4.227-3.418c3.583,0.175,6.774-1.035,10.055-2.049c1.499-2.815,7.358-1.477,12.911-2.614
		c1.745-0.357,6.511,2.179,10.863,0.271c1.99-0.872,22.473-0.109,23.475-0.074c1.796,0.064,9.127-0.646,12.411,0.16
		c0.817,0.201,1.615,0.335,2.467,0.237c5.874-0.674,11.749-0.301,17.624,0.02c3.596,0.196,1.55,3.051,8.761,3.319
		c6.929,0.256,15.052,10.922,18.71,10.198c0.748-1.563,0.04-1.516-2.964-17.822c-0.572-3.105,0.192-2.988,5.803-2.988
		c0.031,0,372.839-0.005,372.87-0.007c3.777-0.275,3.208,1.421,9.284,18.409c5.066,14.165,7.666,17.994,9.735,36.045
		c1.94,16.911,0.307,11.543-7.542,11.945c-3.613,0.185-25.814-0.316-30.627-0.516c-2.641-0.11-5.179,0.96-7.815,0.586
		c-7.423-1.054-85.78,0.638-89.841-0.882c-3.792-1.418-3.232,2.045-9.75,0.117c-0.455-0.135-1.009-0.409-1.385-0.267
		c-3.123,1.179-6.309,0.201-9.442,0.424c-1.77,0.126-3.543,0.456-5.314,0.284c-6.425-0.624-12.818,0.347-19.226,0.301
		c-3.595-0.026-26.082-0.91-29.184-0.276c-1.923,0.393-4.022,0.02-6.031-0.134c-5.958-0.458-48.929,0.46-54.967,0.402
		c-2.239-0.022-4.528-0.993-6.701-0.74c-5.472,0.639-10.922-0.054-16.345-0.177c-5.113-0.116-10.148,0.583-15.252,0.484
		c-7.168-0.14-14.378-0.346-21.548,0.384c-3.895-1.38-7.952-0.287-11.924-0.56c-4.656-0.321-9.468-1.127-14.187,0.01
		c-0.688,0.166-1.442,0.354-2.116,0.24c-5.195-0.886-17.944,1.168-23.444-0.339c0,0-27.453,1.146-35.535,0.416
		c-2.243-0.202-22.216-1.408-25.831-0.048c-0.651,0.245-1.448,0.419-2.105,0.281c-5.892-1.242-11.773,0.285-17.67,0.005
		c-5.929-0.282-11.888,0.068-17.815-0.235c-3.461-0.177-6.872-0.513-10.304,0.182c-0.556,0.113-1.228,0.044-1.757-0.164
		c-3.426-1.351-6.235,0.622-9.215,1.652c-1.319,0.456-2.2,2.822,0.089,2.734c24.772-0.951,49.554-0.363,74.331-0.376
		c467.467-0.252,429.836-2.119,429.867,4.442c0.156,34.086,0.674,43.214,0.674,43.214
		C2161.103,241.378,2157.498,235.206,2156.876,240.583z M2161.437,139.62c-0.276,0.352-0.694,0.086-0.787-0.271
		c-0.885-3.412-5.637-8.687-3.638-10.15c0.857-0.628,1.602-0.041,2.188,0.561c8.442,8.659,15.475,12.751,20.719,15.579
		c1.454,0.784,2.753,1.162,2.535,2.153c-0.458,2.08-7.121-1.159-9.425-1.139C2162.422,146.444,2164.411,135.834,2161.437,139.62z
		 M2320.635,200.845c-2.112,15.955-1.363,19.943-4.945,20.635c-0.451,0.087-1.07,0.255-1.262,0.588
		c-2.178,3.783-6.594,5.191-9.025,8.877c-4.912,7.446-3.276,3.593-119.609,5.602c-6.978,0.12-16.752,0.958-18.874,0.299
		c-1.981-0.615-2.597-3.178-1.052-4.558c1.081-0.966,2.501-1.741,2.27-3.365c-0.31-2.177,0.082-4.684-1.862-6.311
		c-2.986-2.5,4.338-11.254,2.829-21.699c-0.065-0.451-0.106-1.022,0.106-1.38c1.927-3.25,0.398-8.928,0.867-11.571
		c0.987-5.55-2.923-6.272-0.584-8.814c4.041-4.39-0.334-11.77-0.538-15.702c-0.024-0.453-0.148-1.105-0.459-1.307
		c-2.918-1.898-2.113-5.4-3.496-7.95c-1.319-2.43,1.803-2.137,4.569-2.141c62.904-0.095,58.776-3.528,58.795,4.465
		c0.017,7.239,3.062,22.042-4.047,59.981c-0.064,0.342-0.022,0.701,0.57,1.065c1.016-1.274,1.725-2.716,1.992-4.35
		c1.094-6.694,6.464-18.79,5.994-26.914c-0.219-3.8,3.437-8.633,2.34-12.76c-0.091-0.341-0.224-0.771-0.098-1.052
		c1.512-3.366-1.151-7.223-0.633-10.309c0.641-3.811-1.788-5.9-3.239-10.768c-1.404-4.71-5.677-1.84-9.031-5.253
		c-0.378-0.384-1.085-0.684-1.611-0.643c-2.615,0.206-5.334-0.637-7.73-0.28c-4.788,0.715-15.579-1.362-19.471-1.029
		c-3.173,0.272-5.975-1.321-9.061-1.607c-1.897-0.176-3.55-1.968-5.037-3.178c-3.113-2.532-7.128-3.897-9.534-7.322
		c-0.196-0.279-0.535-0.621-0.83-0.644c-2.814-0.213-2.609-2.611-3.2-4.401c-0.137-0.416-0.159-1.188,0.081-1.362
		c1.879-1.361,2.612-3.846,4.662-4.924c1.496-0.786,2.808-1.487,3.804-3.012c3.552-5.436,10.349,1.5,20.107-3.136
		c1.109-0.527,1.883-0.368,2.497,0.45c1.463,1.951,3.645,2.579,5.758,3.368c0.785,1.068,1.845,1.456,3.126,1.183
		c1.797-0.383,2.996,0.471,3.887,1.88c0.986,1.557,2.548,2.393,3.908,3.517c8.719,7.209,16.734,25.078,17.676,18.606
		c0.146-1,0.093,0.596,0.047-27.16c-0.008-4.923-0.074-6.542,3.371-6.269c6.548,0.519,8.515,1.666,13.374,1.616
		c16.837-0.174,23.197,2.096,31.244,1.258c11.537-1.202,15.076,3.981,21.619-6.729c7.143-11.692-5.74-22.908-16.865-16.587
		c-2.206,1.253-2.574,4.58-12.632,5.822c-7.235,0.893-5.307-2.846-2.821-19.807c2.687-18.329,2.782-16.715,1.797-19.702
		c-2.503-7.588,4.205-5.62,7.399-8.642c13.967-13.214,32.908-2.547,32.876,11.536c-0.201,88.227-0.72,75.099,2.463,96.664
		c3.003,20.345,2.103,19.098-2.062,19.152c-8.139,0.106-9.576-1.149-13.165-0.411c-5.154,1.059-24.438-0.595-29.144,0.321
		c-3.177,0.619-13.53-1.793-13.282,7.673c0.07,2.665-0.486,10.963-0.159,11.735c1.435,3.385,0.814,6.793,0.166,10.185
		c-1.34,7.011-1.693,14.191-3.609,21.104c-0.63,2.273,0.04,3.052,1.443,3.367c1.773,0.398,2.323-1.105,2.667-3.427
		c0.149-1.002,4.992-30.232,4.663-43.627c-0.098-3.993,0.023-3.214,19.271-3.218c50.838-0.011,28.915,0.398,40.031,4.855
		C2322.39,184.315,2322.738,184.96,2320.635,200.845z M2165.976,192.639c0.15,0.09,0.418,0.156,0.479,0.306
		c0.282,0.689-0.676,0.971-0.905,0.403C2165.412,193.004,2165.56,192.724,2165.976,192.639z M2347.805,231.982
		c0.245-0.907-0.534-2.798,1.49-2.767c1.945,0.03,1.888,1.779,1.903,3.229c0.019,1.728-0.19,3.159-1.941,3.195
		C2347.614,235.673,2347.805,234.154,2347.805,231.982z M2327.594,212.225c1.138-2.685,1.738-5.388,1.446-8.312
		c-0.161-1.612,1.011-2.881,1.428-4.357c0.933-3.303,1.361-6.738,2.591-9.963c0.919-2.41-6-7.16,6.819-4.813
		c0.782,0.143,1.202,0.576,1.555,1.269c7.101,13.955,4.843,7.675,5.777,18.172c0.235,3.105-0.959,5.981-2.16,8.568
		C2340.565,222.458,2324.628,219.225,2327.594,212.225z M2334.105,265.341c4.347,0.053,8.599-1.104,13.097-0.945
		C2344.471,267.633,2338.397,268.161,2334.105,265.341z M2342.337,256.886c-0.002-0.07-0.003-0.139-0.005-0.209h7.279
		c0.001,0.069,0.003,0.139,0.004,0.209H2342.337z M2342.423,249.16v0.078c-7.665,0-10.958,0.635-8.695-2.276
		c2.467-3.173,8.671,1.575,12.39-1.49c1.922-1.584,5.2-0.092,5.741,2.419C2352.217,249.55,2350.866,249.16,2342.423,249.16z
		 M2356.816,214.502c-0.742,2.397-2.228,3.528-4.726,3.306c1.839-7.528,4.614-15.371,1.523-26.962
		c-0.253-0.95-0.844-2.153,0.543-2.796c2.294-1.064,3.383,2.839,3.762,5.332C2359,200.494,2358.969,207.547,2356.816,214.502z
		 M2369.512,206.536c-0.211,0.781-1.119,0.836-1.736,0.189c-0.954-1-1.16-1.44-2.632-7.262c-0.783-3.099,3.554-3.607-0.155-6.505
		c-2.95-2.305-4.126-6.044-1.699-6.357c2.644,0,6.635,4.431,6.431,6.355c-0.226,2.126,0.199,4.223,1.027,5.864
		C2372.311,201.915,2370.188,204.042,2369.512,206.536z M2381.914,225.499c-0.364-0.902-0.022-1.266,0.222-1.666
		c8.229-13.469,8.948-27.222,1.536-41.27c-1.102-2.089-1.132-2.062,1.179-2.745c4.226-1.249,5.21-3.299,8.564,0.398
		c10.592,11.676,10.619,32.686,1.031,44.038C2391.331,227.944,2385.763,225.767,2381.914,225.499z M2398.624,226.018
		c9.557-15.723,10.56-31.51,1.237-47.848C2411.116,185.932,2410.262,217.706,2398.624,226.018z M2407.991,225.665
		c3.238-5.996,6.738-10.66,7.438-23.471c0.58-10.615-2.854-18.118-6.831-24.031c4.292,2.157,7.632,10.342,8.451,19.331
		C2417.888,206.689,2413.975,222.686,2407.991,225.665z M2416.913,225.537c9.548-14.777,9.5-30.729,3.018-44.833
		C2429.192,189.844,2427.288,218.71,2416.913,225.537z M2557.182,232.5c-1.043,0.234-2.215,0.492-2.566,1.678
		c-0.788,2.664-2.661,2.022-9.005,2.084c-5.058,0.049-1.988-3.24-6.468-3.414c-7.02-0.272-7.054-2.875-13.898-2.862
		c-3.49,0.007-41.09,0.016-46.408-0.012c-11.699-0.063-13.543,2.982-25.208,1.027c-0.989-0.166-31.245-5.523-32.245-5.987
		c1.397-2.077,3.099-3.414,4.122-5.352c3.432-6.505,4.658-16.341,4.658-16.341c1.73-3.681,0.457-7.239-0.56-10.735
		c-1.089-3.747-1.31-7.777-3.571-11.167c-1.308-1.961,2.278-2.177,4.78-2.594c2.429-0.404,20.237-4.125,30.986-4.774
		c9.343-0.565,9.836,1.556,15.885,1.555c52.105-0.009,50.768,0.454,55.585-1.402c5.958-2.296,8.005-0.854,18.007-1.913
		c14.83-1.57,22.617,10.231,25.466,24.874C2579.009,208.811,2570.382,229.536,2557.182,232.5z"/>
	<path d="M1293.156,162.07c-11.277-0.004-8.303,3.377-16.348,2.872c-13.925-0.874-39.164,0.557-39.164,0.557
		c-7.499-2.297-33.417,0.129-34.417-0.082c-11.579-2.442-22.761,0.891-42.684-0.976c0,0-15.943,0.868-31.726,0.099
		c-4.887-0.238-6.692,1.066-19.441,0.151c-3.605-0.259-7.39,0.447-11.023,0.03c-6.885-0.789-13.715,1.025-20.614-0.005
		c-4.797-0.716-12.537,1.57-19.652-9.435c-7.368-11.397-3.247-25.609,1.844-30.64c9.183-9.074,9.171-9.729,12.083-10.238
		c11.614-2.03,254.169-0.193,255.172-0.072c4.423,0.536,1.834,4.785,9.752,4.767c131.036-0.297,122.098,1.449,121.091-2.824
		c-1.073-4.551,1.424-5.909,2.507-4.15c0.373,0.606,0.628,1.283,0.949,1.922c4.845,9.626,16.642,11.956,24.646,4.806
		c1.335-1.193,2.422-1.778,3.988-0.437c2.041,1.748,12.882-0.724,16.053,1.798c11.688,9.297,16.075,27.188,1.823,40.426
		C1505.797,162.682,1520.003,162.159,1293.156,162.07z M1068.842,120.384c-11.612,5.85-14.811,24.488-5.788,34.867
		c6.393,7.353-0.307,5.358,116.433,5.357c106.536-0.001,100.306,0.422,103.505-0.973c50.704-22.114,47.184-18.665,46.446-24.88
		c-2.085-17.546,2.705-18.452-6.73-18.452C1026.576,116.292,1080.001,114.762,1068.842,120.384z M1314.288,154.829
		c-2.542,0.296-1.296,3.559,1.093,3.362c3.982-0.33,8.074,1.137,11.972-0.774c0.471-0.231,1.19-0.14,1.739,0.006
		c3.713,0.986,7.401,1.621,11.115-0.023c0.796-0.352,1.64-0.115,2.421,0.252c0.649,0.305,1.407,0.776,2.037,0.456
		c3.97-2.014,8.215,1.001,11.157,0.186c3.411-0.945,6.859-0.477,10.25-0.281c3.02,0.175,6.025-0.486,9.094,0.321
		c4.53,1.191,6.064-1.025,8.446-0.39c3.679,0.981,15.053-0.831,22.121-0.374c14.932,0.964,3.374,0.068,27.16-0.429
		c2.308-0.048,4.527-1.171,6.972-0.346c2.311,0.78,4.851,1.44,7.117-0.531c0.539-0.469,1.379-0.13,2.088-0.126
		c2.334,0.013,3.183-1.268,2.192-3.376c-0.502-1.067-1.543-1.855-1.811-3.052c-0.265-1.179-0.759-1.719-2.11-1.909
		c-1.919-0.27-2.195-1.532-0.842-2.913c0.576-0.588,1.369-0.992,1.846-1.639c0.787-1.069-0.318-3.237-1.195-2.415
		c-2.195,2.06-1.589-0.15-1.615-1.106c-0.092-3.406,3.947-2.754,3.686-4.748c-0.226-1.729,1.099-3.18,0.734-4.864
		c-0.225-1.036-6.373-4.723-13.818-4.451c-3.978,0.145-7.898,1.581-11.948,0.346c-0.632-0.193-1.409,0.118-2.121,0.159
		c-4.732,0.276-28.809-0.915-30.42-1.264c-3.831-0.829-7.569-0.204-11.319,0.386c-1.174,0.185-2.303,0.66-3.476,0.054
		c-3.329-1.719-4.166,0.698-7.3-0.005c-4.334-0.973-8.78,0.912-13.102-0.516c0,0-8.771,1.291-13.404,0.72
		c-5.783-0.713-5.844,4.934-6.519,6.169c-1.638,2.998-1.646,6.346-2.071,9.596c-0.109,0.834-0.085,1.665-0.597,2.372
		c-9.179,12.667-4.277,3.735-12.769,9.746C1317.919,155.675,1316.802,154.537,1314.288,154.829z M1490.203,125.912
		c-2.131-0.655-4.061,1.328-6.33,2.264c-0.896,0.369-1.172,1.194-1.083,2.068c1.313,13.005,2.25,12.786,0.951,14.958
		c-2.124,3.548,3.087,2.276,1.005,5.312c-0.647,0.943-0.19,2.102-0.364,3.152c-0.107,0.644,0.118,1.208,0.856,1.318
		c2.694,0.399,5.245,1.724,8.063,1.297c10.967-1.66,7.065,4.62,16.283-9.967c3.14-4.969-1.021-6.052-0.884-8.511
		c0.2-3.579-1.931-6.213-3.679-8.99c-2.626-4.171-4.241,0.875-9.066-1.555C1494.363,126.456,1492.725,125.7,1490.203,125.912z
		 M1462.584,123.077c-2.448,0.293-4.124,6.319-0.198,11.329c1.223,1.561,2.894,2.772,4.152,4.362
		c0.828,1.047,2.193,1.436,3.189,0.669c3.034-2.337,6.712-3.893,8.377-7.876c4.115-9.849-5.07-1.627-14.41-7.998
		C1463.318,123.305,1462.846,123.188,1462.584,123.077z M1456.08,155.298c-0.328-0.374-0.669,0.05-0.51,0.268
		C1455.753,155.819,1456.061,155.823,1456.08,155.298z M1477.611,155.052l0.239,0.04l-0.065-0.223L1477.611,155.052z"/>
	<path d="M1328.631,323.59c-1.554,6.418-7.555,13.289-18.563,15.451c-13.48,2.647-28.642-7.489-28.598-21.967
		c0.011-3.714-2.944-17.671,15.224-25.423c11.539-4.923,25.478,0.288,29.574,8.519
		C1330.845,309.371,1332.132,309.136,1328.631,323.59z M1306.107,334.762c27.01-0.217,25.729-40.125,0.366-40.369
		C1279.472,294.132,1279.076,334.979,1306.107,334.762z"/>
	<path d="M991.174,279.971c-3.818,0.32-15.536,2.516-21.666-9.366c-10.248-19.862,6.982-33.783,14.858-33.241
		c5.824,0.401,5.802-2.364,8.666-0.941c10.859,5.398,11.793,5.315,13.601,9.943c1.705,4.365,7.84,14.199,1.383,23.215
		c-5.943,8.297-9.323,9.071-11.9,9.7C994.402,279.699,992.829,280.881,991.174,279.971z M988.085,275.728
		c9.566,0.542,17.134-8.705,17.026-16.933c-0.299-22.599-33.994-22.757-34.159-0.213
		C970.87,269.764,979.474,275.865,988.085,275.728z"/>
	<path d="M1134.804,289.056c-0.521,5.026-0.862,9.288-4.441,12.438c-7.058,6.214-15.68,6.76-22.946,0.783
		c-2.182-1.795-5.245-9.445-4.265-14.099c2.341-11.129,6.189-10.599,8.534-12.185c3.619-2.446,7.457-2.919,11.444-1.098
		c3.392,1.549,7.094,2.472,9.278,6.132C1134.083,283.833,1133.742,286.978,1134.804,289.056z M1129.915,290.253
		c0.156-5.983-4.924-11.155-11.074-11.274c-6.415-0.124-11.537,4.821-11.514,11.118
		C1107.381,305.177,1129.531,304.975,1129.915,290.253z"/>
	<path d="M1272.66,297.311c-0.464,7.618-3.511,10.303-11.138,9.816c-4.389-0.281-8.627-5.221-8.254-9.896
		c0.62-7.765,4.186-9.992,11.152-9.87C1269.621,287.452,1272.999,291.744,1272.66,297.311z M1263.063,291.55
		c-7.447,0.045-7.42,11.309,0.092,11.247C1270.62,302.737,1270.559,291.506,1263.063,291.55z"/>
	<path d="M1169.686,336.501c0.536-12.177,18.945-14.106,18.889,1.348C1188.535,348.962,1169.166,348.321,1169.686,336.501z
		 M1174.497,336.112c-0.399,7.379,9.563,6.869,9.881,0.714C1184.714,330.335,1174.85,329.586,1174.497,336.112z"/>
	<path d="M1467.159,108.952c-0.108-3.9,3.416-7.493,7.479-7.625c4.391-0.142,8.652,3.682,8.682,7.792
		C1483.392,118.975,1467.427,118.646,1467.159,108.952z"/>
	<polygon points="1612.042,204.751 1612.287,204.75 1612.184,204.956 	"/>
	<path d="M2122.754,200.583c0.601,4.473-6.711,4.604-11.221,4.444c-14.437-0.513-25.947,0.062-30.647-0.636
		c-5.86-0.871-4.362,0.911-7.335,0.458c-10.391-1.584-23.152,0.954-28.71-0.22c-2.253-0.476-4.479-0.658-6.631,0.451
		c-0.649,0.335-1.394,0.484-2.078,0.182c-2.965-1.311-6.047-0.742-9.09-0.577c-2.134,0.116-4.225-0.35-6.393-0.068
		c-8.535,1.11-19.867-0.568-23.605,0.459c-2.437,0.669-4.726-0.301-7.054-0.482c-6.636-0.516-34.632-0.13-36.642,0.031
		c-8.62,0.691-12.651-1.113-25.825-0.03c-4.692,0.385-9.421,0.838-14.16,0.067c-1.961-0.319-4.048-0.385-6.008-0.094
		c-4.982,0.741-9.936-0.075-14.901,0.001c-1.059,0.016-2.143-0.275-3.177,0.082c-3.001,1.035-6.035-0.366-9.127,0.351
		c-5.808,1.347-11.599-0.895-17.452-0.631c-26.613,1.198-68.776-0.852-95.186,0.437c-3.079,0.15-3.605-2.114-6.848-0.384
		c-1.84,0.981-3.77,0.105-5.63,0.037c-2.642-0.096-5.208,0.522-7.818,0.445c-2.229-0.065-4.336-0.886-6.69-0.516
		c-5.496,0.863-50.761,0.97-61.736-0.277c-1.621-0.184-3.015,0.757-4.558,0.673c-16.353-0.897-15.999,0.927-19.484-3.377
		c-2.649-3.271-11.121-2.209,198.112-2.205C2139.248,199.208,2122.451,198.325,2122.754,200.583z"/>
	<path d="M1922.243,235.253c0.22-0.311,1.205-0.226,0.929,0.163C1922.942,235.738,1921.977,235.626,1922.243,235.253z"/>
	<path d="M1660.895,122.501c-1.011,0.221-0.414-0.619-0.009-0.29C1660.935,122.251,1660.895,122.4,1660.895,122.501z"/>
	<polygon points="1652.322,262.5 1652.518,262.379 1652.513,262.627 	"/>
	<polygon points="1947.654,234.72 1947.72,234.504 1947.897,234.653 	"/>
	<polygon points="1910.991,235.676 1911.172,235.822 1910.956,235.912 	"/>
	<path d="M1657.086,122.011c0,0,0.016-0.015,0.016-0.015C1657.103,121.996,1657.086,122.011,1657.086,122.011z"/>
	<path d="M2291.1,212.124c-3.982-1.04-8.151-1.661-11.519-4.299c-5.694-4.46-10.426,1.312-12.028-4.424
		c-1.239-4.437,2.617-6.856,7.146-7.039c2.164-0.088,3.813-1.025,5.132-2.777c4.879-6.479,12-6.502,18.302-4.254
		c6.153,2.194,1.752,6.266,6.958,7.151c3.952,0.672,7.14,1.64,6.858,5.221c-0.156,1.974-1.569,3.938-3.608,3.753
		C2300.01,204.7,2296.398,212.411,2291.1,212.124z M2304.704,202.036c0-0.043,0-0.087,0.001-0.13c4.055,0,5.224,0.235,5.207-0.897
		c-0.016-1.104-1.106-0.846-6.314-1.008c-3.058-0.095-3.086-0.123-3.737-3.064c-1.91-8.624-14.114-8.435-17.625,0.11
		c-1.639,3.989-3.687,2.78-8.838,2.996c-0.785,0.033-2.026-0.159-2.044,0.884c-0.017,1.001,0.262,1.375,6.481,1.093
		c5.709-0.259,2.788,3.703,8.783,6.214c3.908,1.637,8.824,0.187,11.567-3.797C2300.134,201.605,2301.899,202.036,2304.704,202.036z"
		/>
	<path d="M2288.753,228.967c0.104-0.351,1.387-0.58,1.381,0.099C2290.128,229.762,2288.506,229.792,2288.753,228.967z"/>
	<path d="M2502.726,194.159c3.792,0,7.375-0.512,10.618,2.818c4.313,4.43,1.925,8.478-3.421,10.975
		c-4.134,1.931-3.424,5.273-11.176,2.669c-4.899-1.645-4.89-7.665-4.175-13.112c0.483-3.682,2.813-3.298,8.154-3.298
		C2502.726,194.194,2502.726,194.176,2502.726,194.159z"/>
	<path d="M2527.844,200.73c0.203-7.324,11.022-8.934,16.02-3.158C2551.934,206.9,2527.44,215.324,2527.844,200.73z"/>
	<path d="M937.458,74.966c-28.898,7.092-31.596-30.41-10.737-33.257c3.168-0.432,6.113-1.012,9.424-0.224
		C952.567,45.393,952.186,71.352,937.458,74.966z M930.596,71.345c6.158,0.007,13.123-4.624,13.24-13.41
		c0.09-6.768-6.241-13.229-13.04-13.022C912.541,45.472,914.127,71.326,930.596,71.345z"/>
	<path d="M2291.396,95.035c2.302-0.022,5.445,2.841,5.317,4.845c-0.167,2.609-2.97,5.569-5.17,5.46
		C2284.18,104.973,2286.225,95.085,2291.396,95.035z M2290.331,100.154c-0.327,2.643,4.535,2.121,4.889-0.381
		C2295.601,97.087,2290.812,96.275,2290.331,100.154z"/>
	<path d="M1115.837,125.03c1.855,1.856,4.506,6.494,12.004,5.369c13.928-2.09,23.522,1.393,34.19-0.142
		c8.404-1.209,11.242,0.863,16.729,0.114c7.41-1.012,6.546,0.656,12.071,0.016c4.273-0.495,8.511-0.75,12.806,0.025
		c2.958,0.534,33.119-1.157,35.922-0.376c5.521,1.538,13.453-0.829,22.042,0.287c3.36,0.437,6.874-0.895,10.298-0.392
		c4.539,0.667,7.654-0.56,10.54-4.483c4.32-5.873,11.577-4.843,16.458-0.632c5.003,4.316,2.64,13.733-3.599,15.828
		c-5.327,1.789-9.851,0.899-13.616-3.248c-3.287-3.62-3.363-0.725-101.647-1.915c-19.531-0.236-39.069,0.098-58.604,0.056
		c-2.903-0.006-4.884,1.125-6.864,3.066c-7.995,7.838-22.207-1.459-18.466-7.438c0.558-0.891,0.833-1.962,1.214-2.96
		C1099.845,121.572,1109.142,118.331,1115.837,125.03z M1112.973,124.871c-2.201-2.194-3.844-2.623-7.858-1.972
		c-8.806,1.428-9.454,14.269-0.896,16.597c3.829,1.042,7.553,0.299,10.054-2.899c2.016-2.579,4.316-3.192,7.38-3.189
		c170.017,0.219,158.311-1.439,161.701,3.101c4.134,5.536,13.712,4.057,15.948-2.122c4.281-11.829-13.631-16.163-17.022-6.636
		c-1.928,5.418,9.146,3.377-163.156,3.72C1114.51,131.481,1117.706,126.253,1112.973,124.871z"/>
	<path d="M1115.111,144.873c1.998-2.339,4.741-3.962,6.336-6.703c1.033-1.775-7.109-1.154,149.339-1.151
		c2.759,0,5.929-0.55,6.649,3.571c0,0-0.014,0.013-0.014,0.013c-1.849-1.745-4.05-2.181-6.557-2.179
		c-157.71,0.142-147.203-1.283-150.506,2.958c-1.317,1.691-2.964,3.122-5.229,3.514L1115.111,144.873z"/>
	<path d="M1115.13,144.896c-6.641,5.199-17.88,1.989-22.111-4.339c-1.74-2.602-1.874-2.27-24.185-2.072
		c-3.271,0.029-3.724,0.583-3.764,3.751c-0.057,4.49,2.211,5.77,2.855,9.09l0.012-0.011c-3.788-3.129-4.489-7.361-4.243-11.923
		c0.187-3.473,2.209-2.004,24.037-2.393c2.681-0.048,4.654,0.61,6.424,2.866c4.797,6.114,11.12,7.752,18.512,5.497
		c0.79-0.241,1.628-0.328,2.444-0.486C1115.111,144.873,1115.13,144.896,1115.13,144.896z"/>
	<path d="M1305.304,143.449c-4.332,2.369-8.747,4.538-13.58,5.718l0.014,0.017c0.232-0.482,0.464-0.963,0.696-1.445
		c0,0,0.013,0.014,0.013,0.014c-5.231-0.501-13.644-2.114-15.027-7.151c0,0,0.014-0.012,0.014-0.012
		c2.78,2.021,5.442,4.156,8.887,5.129c5.292,1.494,13.857,0.03,17.599-6.255c1.689-2.836,3.177-2.564,11.888-2.416
		c0.775,0.013,1.707-0.229,2.294,0.936c-1.5,1.129-3.221,1.776-4.943,2.398c-0.427-0.669,1.127-1.991-0.815-1.9
		c-1.659,0.078-3.361-0.113-4.973,0.191c-2.514,0.474-3.445,2.873-2.053,4.79L1305.304,143.449z"/>
	<path d="M1202.707,154.746c-4.329,0-8.658,0-12.987,0c0-0.116-0.001-0.231-0.001-0.347c4.369,0,8.738,0,13.106,0
		C1202.786,154.514,1202.746,154.63,1202.707,154.746z"/>
	<path d="M1240.06,154.518c-4.398,0.499-8.798,0.402-13.199,0.04C1231.259,154.106,1235.659,154.122,1240.06,154.518z"/>
	<path d="M1117.75,154.68c-3.666,0-7.332,0-10.998,0C1110.409,154.04,1114.077,154.202,1117.75,154.68z"/>
	<path d="M1213.596,154.686c-2.013,0-4.026,0-6.04,0c-0.003-0.102-0.005-0.203-0.008-0.305c2.013,0,4.026,0,6.039,0
		C1213.59,154.483,1213.593,154.585,1213.596,154.686z"/>
	<path d="M1250.065,154.738c-1.953,0-3.907,0-5.829,0C1246.541,154.01,1246.755,154.004,1250.065,154.738z"/>
	<path d="M1154.315,154.533c-1.338,0.426-2.681,0.409-4.028,0.009C1151.625,154.129,1152.968,154.138,1154.315,154.533z"/>
	<path d="M1285.283,152.026c-1.437,1.248-3.082,2.012-4.997,2.148l0.013,0.017c1.429-1.267,3.083-2.012,4.999-2.147
		L1285.283,152.026z"/>
	<path d="M1127.849,154.591c-1.846,0.356-2.863,0.353-3.899-0.079C1124.987,154.191,1126.04,154.075,1127.849,154.591z"/>
	<path d="M1221.361,154.488c-1.635,0.529-2.727,0.471-4.406,0.074C1218.621,154.094,1219.712,154.118,1221.361,154.488z"/>
	<path d="M1259.197,154.638c1.534-0.621,2.63-0.486,4.349-0.165C1261.864,155.007,1260.771,154.957,1259.197,154.638z"/>
	<path d="M1102.097,154.433c-0.819,0.562-1.701,0.562-2.796,0.123C1100.298,153.95,1101.191,154.331,1102.097,154.433z"/>
	<path d="M1077.759,154.665c0.892-0.657,1.552-0.328,2.276-0.456C1079.487,155.218,1078.773,154.825,1077.759,154.665z"/>
	<path d="M1272.432,154.446c0.16,0.834-2.436,0.17-1.248-0.136C1271.608,154.201,1272.044,154.151,1272.432,154.446z"/>
	<path d="M1132.742,154.563c-0.792,0.177-2.06,0.612-1.822-0.164C1131.041,154.004,1132.348,154.458,1132.742,154.563z"/>
	<path d="M1280.286,154.174c-0.827,0.513-1.691,0.852-2.737,0.553c0.772-1.063,1.868-0.266,2.75-0.536
		C1280.299,154.191,1280.286,154.174,1280.286,154.174z"/>
	<path d="M1162.325,154.444c0.163,0.841-2.46,0.174-1.256-0.138C1161.496,154.196,1161.935,154.144,1162.325,154.444z"/>
	<path d="M1086.835,154.828c-0.172-0.104-0.343-0.209-0.514-0.313c0.72-0.32,0.436-0.332,1.084,0.061
		C1087.215,154.661,1087.025,154.744,1086.835,154.828z"/>
	<path d="M1290.287,149.881c-0.317,0.236-1.476,1.22-1.7,0.892c-0.479-0.699,0.87-0.745,1.715-0.875
		C1290.302,149.898,1290.287,149.881,1290.287,149.881z"/>
	<path d="M1095.326,154.678c-1.006,0.217-0.415-0.608-0.009-0.286C1095.365,154.43,1095.326,154.578,1095.326,154.678z"/>
	<polygon points="1175.401,154.516 1175.642,154.435 1175.611,154.649 	"/>
	<polygon points="1136.841,154.64 1136.907,154.426 1137.081,154.573 	"/>
	<polygon points="1172.543,154.516 1172.781,154.436 1172.75,154.647 	"/>
	<path d="M1070.787,154.189c0.301,0.058,0.602,0.117,0.902,0.175c-0.423,0.534-0.591-0.131-0.889-0.189
		C1070.801,154.175,1070.787,154.189,1070.787,154.189z"/>
	<path d="M1310.31,141.304c-0.087,0.076-0.174,0.152-0.262,0.227c0.092-0.071,0.184-0.142,0.276-0.212
		C1310.324,141.319,1310.31,141.304,1310.31,141.304z"/>
	<path d="M1285.297,152.044c0.087-0.075,0.175-0.149,0.262-0.224c-0.092,0.069-0.184,0.138-0.277,0.206
		C1285.283,152.026,1285.297,152.043,1285.297,152.044z"/>
	<path d="M1291.724,149.167c-0.479,0.238-0.958,0.476-1.437,0.714c0,0,0.014,0.017,0.014,0.017c0.479-0.238,0.958-0.476,1.437-0.714
		C1291.739,149.184,1291.724,149.167,1291.724,149.167z"/>
	<path d="M1070.072,153.474c0.238,0.238,0.477,0.477,0.715,0.715c0,0,0.141,0.112-0.701-0.729
		C1070.086,153.46,1070.072,153.474,1070.072,153.474z"/>
	<path d="M1305.319,143.465c0,0-0.015-0.016-0.015-0.016C1305.304,143.449,1305.319,143.465,1305.319,143.465z"/>
	<path d="M1069.357,152.758c0.238,0.239,0.476,0.478,0.715,0.716c0,0,0.014-0.014,0.014-0.014c-0.239-0.238-0.478-0.476-0.716-0.714
		C1069.37,152.746,1069.357,152.757,1069.357,152.758z"/>
	<path d="M1069.37,152.746c-0.813-0.806-0.725-0.706-0.725-0.706c0.238,0.239,0.475,0.479,0.713,0.718
		C1069.357,152.757,1069.37,152.746,1069.37,152.746z"/>
	<path d="M1310.324,141.319c0,0-0.014-0.015-0.014-0.015C1310.31,141.304,1310.324,141.319,1310.324,141.319z"/>
	<path d="M1067.925,151.324c0.24,0.238,0.48,0.477,0.72,0.715c0,0,0.083,0.071-0.708-0.726
		C1067.936,151.313,1067.925,151.324,1067.925,151.324z"/>
	<path d="M2293.639,199.433c0.145,3.679-5.483,4.423-5.754,0.693c-0.113-1.552,1.493-3.398,3.003-3.453
		C2292.236,196.623,2293.582,197.974,2293.639,199.433z"/>
	<path d="M1112.267,124.142c0.238,0.24,0.477,0.48,0.715,0.72c0.61,1.409,1.31,2.757,1.658,4.298
		c0.952,4.212-1.358,8.093-5.576,9.096C1098.426,140.786,1093.911,122.366,1112.267,124.142z M1106.963,126.507
		c-2.047,0.092-3.87,2.064-3.697,4c0.167,1.873,2.07,3.483,3.932,3.326C1112.206,133.409,1111.39,126.308,1106.963,126.507z"/>
	<path d="M1284.995,132.853c-0.843-6.924,7.795-8.284,10.493-4.286C1300.627,136.181,1285.825,139.675,1284.995,132.853z
		 M1292.747,130.095c-0.091-2.219-3.926-2.781-4.099-0.248C1288.467,132.498,1292.848,132.534,1292.747,130.095z"/>
</g>
</svg>
