<?xml version="1.0" encoding="utf-8"?>

<!DOCTYPE svg PUBLIC "-//W3C//DTD SVG 1.1//EN" "http://www.w3.org/Graphics/SVG/1.1/DTD/svg11.dtd">
<svg version="1.1" id="Layer_1" xmlns="http://www.w3.org/2000/svg" xmlns:xlink="http://www.w3.org/1999/xlink" x="0px" y="0px"
	 viewBox="0 0 1751.102 1654.697" enable-background="new 0 0 1751.102 1654.697" xml:space="preserve">
<g>
	<path fill="#010101" d="M1457.393,29.8c14.408-1.915,29.118-3.823,43.571-1.083c15.657,2.953,32.283,3.324,46.577,11.16
		c18.63,10.165,44.061,29.38,49.273,49.795c2.521,10.796,7.745,21.184,7.344,32.503c-1.067,6.89-3.581,13.492-3.944,20.51
		c40.379-4.909,45.357-17.179,88.286,9.782c23.563,14.83,40.174,57.122,31.178,98.03c-2.518,10.758-11.963,74.343-38.878,99.643
		c-28.449,22.717-61.593,34.78-98.28,28.687c-15.702-2.673-32.018-5.648-45.245-15.119c-0.491,9.794,3.339,49.463-36.803,74.787
		c-7.677,4.724-15.248,10.054-24.121,12.295c-7.813,2.006-15.354,5.55-23.554,5.603c-21.646-1.294-25.421-7.786-33.843-13.166
		c-8.237-4.936-13.863-12.901-21.055-19.064c-33.121-28.264-34.41-33.559-66.936-70.873c-22.52-24.319-53.122-12.148-76.771,7.836
		c-9.129,9.535-22.106,17.499-39.18,35.009c-5.436,6.504-12.591,11.273-18.171,17.633c19.597-4.063,49.197-6.476,55.375-9.267
		c5.717-4.672,22.121-8.948,28.043-4.285c3.505,2.877,5.088,7.238,7.2,11.114c61.637,18.361,50.486,17.286,70.335,24.924
		c4.376,1.658,42.619,20.601,55.526,29.277c40.77,21.204,91.038,56.046,121.682,90.611c1.787-2.741,4.24-5.073,5.845-7.942
		c1.097-4.683-2.402-21.545,28.376-14.885c2.476-4.649,4.081-10.569,9.615-12.538c6.822-3.816,15.937,0.31,18.784,7.283
		c3.104,6.095-0.03,13.015-0.765,19.268c4.217,0.371,10.448,0.273,11.811,5.232c0.825,7.677-3.006,14.953-8.184,20.374
		c2.195,3.513,1.779,7.707,1.166,11.622c13.755,4.54,21.265,11.427,16.24,25.212c-2.362,3.324-5.943,5.572-9.002,8.215
		c7.165,9.816,7.97,9.537,0.197,19.639c52.585,73.91,68.291,167.191,59.652,217.547c-10.392,76.425-50.878,144.286-90.096,183.977
		c-15.104,15.468-35.516,23.713-55.011,32.063c-21.307,5.762-19.631-1.942-31.359-3.967c-12.703-3.162-16.364-10.745-20.449-4.853
		c-0.962,2.688-1.613,5.489-2.279,8.268c11.198,9.328,21.472,19.889,29.898,31.814c12.833,17.565,28.664,32.828,40.18,51.377
		c2.57,4.168,18.115,13.859,28.316,15.612c27.695,5.739,73.912-18.259,96.599-17.875c14.114-1.898,52.803,13.184,41.982,35.168
		c-3.483,9.668-12.485,15.248-19.632,21.971c-9.108,6.708-16.376,15.407-24.53,23.16c-14.203,13.219-28.52,27.256-36.478,45.29
		c-2.945,6.867-7.064,13.878-6.163,21.653c0.625,9.038,13.191,31.89,19.867,58.736c2.924,12.01,10.401,33.536,11.644,72.243
		c2.463,54.09-19.658,101.901-20.639,108.107c9.6,1.181,17.535,7.389,26.158,11.235c38.044,18.11,41.663,50.355,36.311,67.708
		c-1.158,8.192-11.387,10.637-18.231,10.486c-13.281-2.079-67.725-23.589-71.539-25.265c-88.565-34.54-143.017,5.614-180.563,18.534
		c-13.753,4.569-50.078-12.05-19.541-71.797c20.854-35.315,66.453-19.496,92.753-51.036c21.225-25.106,21.11-60.357,7.7-89.884
		c-4.017-11.575-21.568-36.697-28.013-42.413c-6.322-5.383-1.637,2.484-56.147,1.113c-20.896,0.815-65.295-7.449-78.33-37.727
		c-2.786-6.769,0.273-16.338,7.685-18.481c21.461-7.893,28.464-5.342,49.939-21.161c-13.716-5.723-45.269-7.593-102.005-68.109
		c-18.081-16.742-46.974-38.66-69.298-49.651c-7.17-3.907-15.589-6.609-20.472-13.567c-11.693-13.705,0.297-25.92,14.824-28.823
		c-35.58-32.967-69.041-82.467-22.584-93.086c9.948-1.885,19.798,1.181,29.618,2.408c24.17,2.91,26.868,12.271,66.633,13.461
		c4.406,0.462,8.457-1.492,12.22-3.483c41.531-24.354,85.016-22.817,97.273-17.254c7.601,3.293,15.051,6.965,22.214,11.137
		c1.143,0.553,2.286,1.325,3.604,1.476c5.504-1.575,10.395-4.588,15.15-7.7c-45.951-50.424-98.351-95.676-165.329-105.17
		c-8.124,8.139-16.141,16.407-24.984,23.781c-5.681,5.915-53.942,52.104-90.482,63.862c-6.913,1.952-21.222,9.65-65.679,10.584
		c-23.035,0.604-104.18-11.527-98.068-32.646c0.757-0.59,77.439-58.134,85.084-69.131c-11.384,0.135-55.544,10.468-74.212,18.617
		c-10.206,3.922-20.843,10.191-32.154,7.351c2.483-10.289,3.165-21.191,7.813-30.844c10.529-26.913,47.307-69.18,70.502-81.768
		c9.403-6.791,20.283-10.978,30.466-16.422c23.631-11.615,42.504-14.099,57.177-16.24c70.134-3.78,70.756,4.559,107.608,11.97
		c5.996,1.317,11.402,5.421,17.822,4.444c8.767-1.817,16.921-6.11,25.999-6.541c3.157-0.056,90.188-20.418,187.535,58.941
		c11.524-28.033,11.216-28.229,0.598-73.984c-5.382-25.641-23.005-42.231-32.192-109.129c-11.056-0.791-11.036-0.072-15.309-9.699
		c-6.14,3.46-13.749,6.064-20.518,2.809c-4.777-1.529-4.762-7.776-4.83-11.841c0.136-3.96,2.302-7.435,3.755-11.008
		c-5.103-2.143-10.872-4.232-14.037-9.047c-1.635-5.421,3.543-9.487,6.776-12.992c5.201-4.861,12.53-3.884,19.057-3.551
		c6.069-11.878,7.984-10.057,16.558-13.749c-8.065-7.155-24.014-23.684-56.329-29.83c-9.456-1.832-18.405-5.777-28.005-6.882
		c-23.123-2.803-33.759-7.973-79.481-5.254c-4.505,13.552-6.14,28.445-15.021,40.165c-5.285,8.533-11.682,17.232-21.441,20.889
		c-35.496,11.853-62.612-10.331-69.979-14.355c-7.798,10.97-20.147,19.851-33.971,20.026c-2.483,0.326-5.799-0.56-7.73,1.59
		c-7.243,7.604-25.814,36.888-75.9,81.601c-57.824,46.55-89.508,51.553-112.029,72.576c9.917,29.899,7.396,62.261,0.969,80.556
		c-6.603,19.238-27.564,37.681-32.775,29.187c-2.551-3.558-2.604-8.124-2.907-12.295c-5.746,8.57-11.75,17.232-20.003,23.614
		c-23.427,16.431-36.351,6.754-26.976-11.046c3.566-7.018,5.474-14.748,9.365-21.608c3.846-7.041,5.89-14.862,7.866-22.577
		c-17.086,24.068-31.898,31.759-37.818,31.193c-7.155,1.408-13.363-4.633-15.861-10.736c3.252-9.17,15.749-21.438,21.911-42.322
		c2.044-10.266,1.052-20.843,1.597-31.216c-21.699-10.373-42.057,2.273-58.615-7.155c-3.153-1.848-10.284-11.452,14.43-21.684
		c24.05-10.582,59.633-8.484,80.155-12.295c86.367-22.085,150.242-71.003,191.457-143.146c-1.189-0.681-2.362-1.348-3.536-2.006
		c-48.096,29.004-46.186,53.657-82.88,55.276c-5.925-0.166-28.676-9.499-30.739-20.608c-1.257-8.003-4.081-15.892-3.059-24.099
		c7.738-38.08,34.32-48.451,15.846-71.63c-42.749,3.429-27.447,4.307-110.795,2.748c-46.924-1.075-161.266-48.678-202.504-69.094
		c-2.771,7.246-3.013,15.899-9.169,21.388c-10.854,9.201-28.055-4.135-36.72,18.526c-0.136,4.55,2.536,8.608,3.013,13.09
		c0.484,11.213,3.324,22.501,0.939,33.691c-20.077,106.944-133.601,104.669-170.114,143.684
		c-33.332,36.171-59.922,72.289-57.919,120.569c1.748,46.271,33.158,95.109,48.379,102.088c9.374-1.886,9.461-15.13,28.672-28.603
		c7.473-5.383,14.082-11.917,22.176-16.414c9.358-4.967,17.012-12.432,25.939-18.042c64.225-38.38,64.446-40.464,135.492-56.927
		c24.588-5.323,47.499,2.503,55.133,11.591c15.278,21.911,13.226,26.125-11.281,63.317c-3.992,6.905-38.435,53.576-47.448,75.279
		c-6.872,19.296-8.764,14.484-13,53.368c0.863,9.699,0.129,19.617,2.014,29.187c12.284,12.737,33.934,10.332,50.999,5.201
		c41.202-13.529,79.059-33.39,107.017-74.689c8.265-11.183,14.322-38.016,33.578-25.265c16.671,9.526,28.233,46.258,27.422,59.652
		c-2.163,44.853-20.232,62.069-31.314,75.219c7.342,1.268,48.473,10.619,57.29,14.764c27.516-34.948,35.116-132.906,38.302-148.31
		c1.348-4.535,2.499-11.099,7.972-12.469c14.507-4.671,20.321,34.975,21.479,50.772c-0.182,5.095,3.445,9.063,4.558,13.84
		c2.408,12.81,1.143,25.863,1.56,38.787c0.939,8.199-2.188,16.141-2.059,24.326c-0.539,28.397-0.813,11.574-8.146,38.658
		c4.352,6.548,6.021,4.76,2.234,20.631c50.461,17.789,72.744,42.248,104.837,86.87c5.646,7.646,22.024,42.06,22.07,60.576
		c6.224-0.089,61.352,4.896,94.161,27.627c26.596,15.958,25.404,48.05,4.497,64.846c-22.898,16.721-82.365,30.538-112.264,33.676
		c-35.592,1.228-11.526,3.488-97.629-0.901c22.219,52.939,21.103,37.853,37.795,82.919c4.968,14.742,6.478,37.967-8.631,41.33
		c-14.082,2.997-37.547-7.12-48.334-14.022c-26.872-17.617-30.674-25.227-42.292-31.2c-17.123-9.576-12.392-16.409-62.454-42.686
		c-50.086-30.267-105.466-40.249-162.839-52.21c-26.678-7.924-133.594-29.634-156.948-21.562
		c1.128,16.308,0.485,32.715-0.182,49.038c-0.704,21.285,9.125,70.005,0.999,82.752c-7.589,16.138-30.976,12.206-37.477,9.267
		c-12.318-5.648-23.379-13.673-33.706-22.38c-40.023-31.722-58.14-35.071-91.519-114.391
		c-15.828-46.682-12.272-41.364-16.111-67.368c-3.672-3.96-8.684-6.458-13.242-9.29c-12.682-7.215-23.622-17.088-36.311-24.288
		c-12.288-7.314-22.69-17.232-34.274-25.537c-130.263-106.437-108.625-282.811-87.976-336.587
		c9.637-25.012,9.438-34.341,36.841-82.926c1.107-1.778,20.671-35.856,41.527-58.35c8.322-9.688,29.036-20.948,26.983-52.929
		c-5.742-23.488-27.304-37.38-45.366-42.981c-36.005-10.458-106.712-4.791-158.311-43.935c-7.647-5.898-17.111-10.07-22.592-18.345
		c-4.051-5.739-8.517-11.758-9.153-18.996c-0.712-4.543-2.037-9.426,0-13.794c2.968-6.223,8.116-11.334,14.196-14.536
		c6.014-2.957,32.685-11.69,53.717-15.097c8.608-1.65,17.345-0.462,26.014-0.765c80.273-1.324,183.891,60.15,231.758,52.498
		c32.894-4.323,67.328-15.836,81.964-45.245c8.563-16.482,15.559-35.569,10.774-54.254c-2.483-9.297-3.089-18.973-5.943-28.172
		c-4.025-12.338-15.574-35.05,5.027-38.537c21.232-2.702,55.144-0.002,81.934,11.712c1.529-3.733,1.764-9.524,6.549-10.501
		c8.381-2.203,16.157,3.18,24.386,3.823c-10.35-7.882-21.896-14.733-34.903-16.914c-11.461-1.485-30.779,1.203-30.511-12.719
		c-1.76-10.402,3.768-30.994,28.929-20.586c35.313,13.87,15.234,8.649,42.549,23.917c-9.529-22.132-25.845-27.062-24.402-41.838
		c1.567-4.073,5.64-8.056,10.456-6.753c22.502,3.808,40.114,41.995,51.975,54.709c4.777,3.71,11.288,3.952,16.437,7.064
		c8.699,3.763,12.19,14.022,21.313,17.141c12.686,3.155,139.998,56.934,230.206,55.064c-3.551-3.475-8.631-4.679-12.954-6.829
		c-7.586-0.681-15.195,3.399-22.743,1.06c-17.035-4.595-27.673-20.818-17.769-35.963c-9.831-22.175-5.364-32.273-11.16-37.166
		c-4.664-4.043-9.517-7.844-14.15-11.924c-4.005,2.567-7.972,5.618-12.856,6.133c-7.745,1.113-17.255,3.452-23.395-2.877
		c-8.199-8.684-15.392-18.723-26.257-24.356c-7.669-3.558-14.468-8.752-22.357-11.834c-20.785-9.088-31.342-32.804-30.171-53.982
		c1.769-36.808,50.479-35.529,75.302-57.177c8.594-7.845,11.779-10.162,31.253-57.313c3.551-9.275,11.697-15.907,14.801-25.363
		c23.05-52.895,82.828-98.807,116.034-104.261c15.955-4.297,51.332,0.593,63.658,27.998c10.501,28.267,1.642,58.166,8.162,69.851
		c3.945,6.042,9.403,11.864,16.603,13.772c5.731,0.477,12.371,1.408,17.497-1.908c79.503-83.888,69.653-78.269,112.514-102.414
		c39.156-17.007,84.695,0.082,110.462,28.732c3.301,2.544,4.467,8.54,9.267,8.957c7.754,1.122,14.127-4.426,45.252-43.92
		c44.217-42.908,82.964-49.877,98.969-54.61c6.496-1.438,12.674-4.512,19.458-4.49C1437.413,34.842,1447.15,31.034,1457.393,29.8
		 M1408.318,51.128c-33.228,6.98-51.594,19.076-52.362,19.473c-13.808,6.447-44.47,33.873-56.73,50.908
		c-22.828,28.556-16.687,26.232-32.881,32.336c1.393,5.186,6.753,8.828,12.136,6.685c7.934-3.377,12.84-10.94,18.632-16.936
		c1.673-1.968,5.557-0.485,5.126,2.135c-5.036,15.567-34.208,34.536-40.96,16.808c-14.446-38.312-29.812-48.327-70.032-54.852
		c-44.119-3.542-70.206,20.46-92.829,40.119c-12.364,8.873-23.97,19.011-33.07,31.284c-2.163,2.997-29.59,44.552-43.185,44.639
		c-8.162,0.666-15.967-3.876-20.745-10.289c-4.452-5.883-9.297-11.546-12.848-18.042c-7.06-20.288-3.129-23.058-2.218-39.907
		c0.022-3.79-1.38-28.033-10.986-37.121c-16.62-17.107-22.448-14.178-40.233-12.583c-25.104,1.899-42.086,13.628-45.548,15.619
		c-46.306,26.44-78.202,71.888-70.964,94.896c-5.997,3.251-5.113,3.323-11.311-0.212c-4.777,9.426-10.774,18.239-14.43,28.217
		c-9.924,26.588-15.927,36.839-33.994,48.508c-5.962,3.799-81.337,31.271-50.438,81.124c8.696,11.316,26.402,15.657,45.184,29.739
		c12.37,7.668,26.374,26.901,44.473,16.179c-25.24-38.036-3.866-84.047,8.798-94.192c-2.309-12.507-3.006-25.719,1.416-37.855
		c5.383-16.528,9.895-33.744,20.071-48.152c6.329-8.389,11.349-19.261,22.123-22.675c0.787,2.476,1.385,5.239-0.008,7.647
		c-5.984,11.749-22.812,32.506-26.484,55.254c-1.81,10.062-7.639,19.246-7.495,29.671c1.397,13.482,3.123,21.047,15.188,13.749
		c16.806-12.367,19.761-42.523,32.419-53.906c8.517-5.784,19.942-0.818,24.924,7.215c12.227,21.031,24.902,47.829,47.546,56.912
		c18.378,7.265,31.705-9.726,49.295,5.216c7.806,7.389,10.35,18.966,19.132,25.499c20.554,15.22,30.688,8.017,49.674-5.769
		c3.15-2.476,7.283-2.461,11.046-3.112c0.31,1.976,1.007,4.323-0.666,5.928c-7.556,7.564-17.883,11.137-27.21,15.914
		c-4.437,2.302-9.524,2.544-14.264,3.861c2.188,8.608,3.945,17.307,5.285,26.09c12.793,0.53,72.153,8.538,85.75-15.907
		c7.476-18.763-4.15-29.865,0.068-47.751c3.903-12.72,15.916-9.362,30.034-4.603c7.624,2.657,13.166,10.039,21.706,10.168
		c29.477,5.936,23.655-41.041,43.541-48.75c20.203-7.681,31.875,6.636,33.638,12.326c1.62,4.505-2.93,6.996-6.186,8.676
		c-2.983-4.717-4.641-11.394-10.698-12.962c-17.303-4.523-28.081,28.769-34.516,36.25c-6.383,9.35-18.39,16.497-29.898,13.015
		c-5.741-2.313-25.901-17.061-33.358-11.213c-8.479,8.443-3.414,23.634-4.815,40.028c-3.439,24.603-42.188,30.798-67.178,30.193
		c-9.123-0.061-18.201-1.9-27.332-0.757c2.211,8.858,0.734,17.898-0.197,26.817c59.278,3.739,49.869-26.186,125.278-23.107
		c21.057,1.456,46.052-18.689,59.668-33.903c6.337-6.276,13.318-11.871,19.73-18.087c37.032-27.17,51.412-52.504,88.4-32.328
		c23.677,14.784,60.911,88.137,118.404,102.633c12.64,3.239,43.761-0.668,59.516-14.476c17.864-14.51,31.195-38.242,28.641-63.847
		c-0.447-4.005-4.179-6.466-6.223-9.608c-5.171-5.587-7.17-13.908-14.37-17.489c-16.973-9.929-39.007,11.056-48.682,28.331
		c-6.613,11.89-5.132,33.338,6.095,40.725c13.187,10.304,29.325-0.682,34.456-14.483c6.773-13.296-5.666-26.46-13.56-20.465
		c-8.305,3.914-7.041,14.582-9.57,22.092c-2.612-0.803-5.497-2.067-6.345-4.921c-5.483-18.864,9.326-32.462,20.578-31.92
		c7.859,1.787,18.943,5.126,18.92,15.074c2.302,47.491-53.111,66.332-66.459,26.256c-7.963-19.143,13.48-54.55,44.654-70.237
		c5.868-3.013,12.628-2.18,18.829-0.803c-3.488-26.446,22.485-58.199,37.636-72.175c20.974-16.937,30.724-14.821,58.691-21.434
		c17.733-0.481,52.995,9.314,56.336,24.25c1.469,9.638,3.74,19.972-0.227,29.361c-6.579,22.312-26.309,39.635-48.962,44.276
		c-12.494,2.255-30.076,11.214-47.766-2.324c-14.009-17.803,10.433-49.017,29.149-43.481c-0.046,1.037-0.136,3.119-0.182,4.156
		c-6.753,5.368-16.384,6.852-21.615,14.075c-2.847,3.127-1.643,7.586-1.075,11.334c2.811,13.515,47.335,18.884,70.017-9.759
		c15.517-16.837,4.533-46.194-17.466-55.731c-39.599-19.035-92.064,16.851-97.137,44.965c-5.51,23.802,2.464,43.983,14.589,54.353
		c14.37,13.318,30.587,27.074,50.832,29.353c43.572,1.106,81.091-12.549,102.081-51.832
		c25.681-67.717,18.555-141.531-17.481-167.465c-37.435-28.936-70.924,8.452-80.034-9.312c-3.293-5.186,0.802-11.228-0.704-16.815
		c-2.376-15.309-22.618-56.026-61.735-73.765c-27.286-10.721-62.644-12.504-64.354-12.674
		C1447.596,39.15,1427.806,46.169,1408.318,51.128 M866.479,279.222c-5.351,2.518-25.66,62.848-41.876,61.916
		c-5.966,0.356-10.728-3.649-15.203-6.973c-9.487,12.083-13.075,27.491-14.09,42.527c-0.689,14.067,6.034,27.029,13.408,38.506
		c5.663,8.994,15.657,14.355,20.699,23.788c2.816,10.388,1.741,21.949,7.139,31.609c9.07-0.356,18.216,0.28,27.226-1.052
		c6.329-1.06,10.327-6.776,15.559-9.933c1.87-0.204,3.589,1.03,5.307,1.666c-1.968,7.541-9.562,11.129-16.081,13.976
		c-10.758,4.346-22.653,1.423-33.669,4.126c-8.712,2.595,2.341,17.878,12.091,19.344c10.736,1.151,22.085-2.271,29.656-10.153
		c4.883-4.172,5.724-10.796,7.306-16.634c1.726,0.515,3.452,1.06,5.186,1.613c-0.931,15.52-3.335,19.896-12.947,30.087
		c10.917,3.839,21.479,8.843,32.957,10.917c16.442,2.358,57.093,14,72.236,7.579c6.693-5.232,10.736-12.969,14.491-20.412
		c24.705-46.28,27.855-75.868,19.526-121.94c-21.916-5.227-29.338-34.757-39.665-38.393c-19.621-0.984-44.627,15.644-56.533-2.559
		C894.084,304.926,884.787,277.074,866.479,279.222 M558.23,389.199c2.698,11.486,8.807,8.122,33.139,51.112
		c2.264,2.4,0.053,5.012-1.333,7.094c-11.81-4.571-45.85-26.388-61.447-32.063c-6.632-2.756-15.93,0.659-17.444,8.222
		c7.866,2.938,16.429,3.119,24.296,6.087c3.377,1.484,6.617,3.301,10.221,4.263c26.302,7.729,55.982,39.602,49.28,43.382
		c-9.358,0.481-17.268-12.179-35.357-15.241c-3.49-0.727-7.526-0.341-10.357,1.961c-6.362,9.285-0.569,18.341-12.061,39.491
		c-10.14,19.85,28.471,13.296,27.756-13.325c-0.674-3.43-2.135-6.685-2.733-10.138c17.275-1.736,45.157,13.923,43.39,21.328
		c-2.468,4.353-9.29,4.815-10.668,9.956c-1.522,3.614,5.894,6.166,13.658,21.547c19.724-23.285,31.87-8.099,42.459-30.663
		c0.538-2.93-0.916-5.83-1.333-8.714c0.787-0.765,1.582-1.522,2.377-2.279c12.048,2.695,37.534,16.852,48.349,21.737
		c16.861,8.275,35.342,12.295,52.702,19.329c8.911,3.074,17.058,8.003,26.067,10.827c83.241,26.139,104.599,17.81,132.433,20.578
		c38.968,3.37,112.33-5.093,159.326-32.011c-7.594-19.189-29.968-25.856-41.633-29.959c-6.845,5.437-12.315,5.356-27.263,12.439
		c-7.291,3.354-9.123,12.507-16.3,16.111c-10.186,4.522-42.127-1.505-54.845-0.121c-14.644-0.485-86.463,1.88-120.668-10.425
		c-71.079-19.484-157.75-49.409-158.508-49.697c-10.978-4.051-18.004-14.34-28.634-18.988c-3.786-1.946-8.252-2.529-11.69-5.073
		c-15.528-14.554-23.73-39.791-46.017-55.39C563.31,389.32,560.365,389.706,558.23,389.199 M1264.331,410.898
		c7.877,54.393,3.382,52.408-10.63,92.117c-9.805,25.73-26.124,38.518-35.902,48.114c-15.663,16.217-33.875,21.717-43.617,27.642
		c-3.073,1.867-3.259,6.604-10.176,23.273c14.129,13.246,20.256,35.858,58.025,34.274c15.951,0.779,33.174-13.554,38.703-22.509
		c11.512-21.041,12.894-44.886,7.147-65.581c-1.802-6.806-7.42-11.712-9.979-18.118c-1.247-13.551,42.722-61.49,20.851-119.32
		C1273.916,410.867,1269.146,411.14,1264.331,410.898 M1249.969,415.016c-36.786,5.594-0.483,2.243-63.037,15.051
		c-22.489,6.241-38.036-1.336-51.12-2.392c-30.901,1.575-47.299,37.255-107.509,21.608c-10.201,33.963-10.962,28.557-15.089,42.095
		c7.563,1.227,15.566,0.825,22.728,3.914c41.102,16.911,53.861,32.278,40.392,78.724c-1.984,5.989-1.492,12.371-1.264,18.579
		c6.64-0.954,13.242-2.052,19.904-2.968c1.825-0.833,4.891-0.167,6.367-1.999c5.762-10.978,8.76-23.077,13.075-34.63
		c12.556-47.689-0.162-56.387-6.39-66.845c-10.798-19.484-0.295-48.367,14.362-50.9c0.379,8.268-8.078,12.984-8.54,21.002
		c-1.43,24.432,15.878,42.285,14.9,67.458c0.874,22.115-13.669,52.008-15.975,57.904c-39.23,95.83-76.967,130.884-128.89,165.655
		c-5.75,3.874-43.466,19.234-50.173,22.441c-70.743,29.246-128.75,14.186-137.112,34.729c8.51,1.772,17.209,0.666,25.802,1.333
		c45.122,2.934,37.508,11.933,37.288,27.097c-4.497,36.692-6.869,26.467-22.781,57.207c7.147,4.459,15.823,0.098,21.025-5.323
		c20.483-23.128,14.713-46.486,21.948-57.533c1.734-1.893,4.83-4.081,7.321-2.165c8.699,13.102,5.322,46.192-5.413,68.306
		c-6.82,16.403-12.979,20.218-9.002,29.406c3.982,4.194,9.668-1.06,13.015-3.324c28.88-26.048,24.18-63.319,25.484-80.617
		c0.484-4.8,3.884-8.828,7.828-11.357c17.793,18.082,7.57,53.262,1.136,79.284c17.536-6.658,31.695-42.499,14.559-94.623
		c-1.189-3.627-3.975-6.731-4.187-10.637c1.582-4.005,6.352-5.042,9.699-7.064c4.764-2.292,68.121-37.166,84.925-49.742
		c91.336-70.69,142.91-161.396,149.673-201.118c3.654-16.723,9.587-42.427,3.21-87.877c1.643-1.09,3.248-2.249,4.815-3.468
		c6.413,8.69,11.806,49.48,2.779,83.448c-3.006,11.084-4.815,22.524-9.123,33.229c10.081-5.567,18.342-6.571,30.64-20.041
		c21.585-21.716,34.652-37.466,45.29-68.329c8.495-26.468,7.987-30.938,2.847-62.317
		C1255.034,415.622,1252.278,414.517,1249.969,415.016 M1291.572,421.437c4.827,39.986,4.378,38.329-5.421,76.899
		c-3.596,9.926-8.904,19.147-14.06,28.316c-1.484,2.294,0.363,4.747,1.264,6.867c6.314,12.47,8.676,26.665,7.806,40.558
		c28.327-4.402,81.168-2.186,131.971,17.262c24.436,9.037,35.61,26.972,42.905,33.502c5.769,3.066,9.146,8.904,11.167,14.93
		c3.861-1.015,7.851-0.856,11.803-0.742c2.688,0.273,4.202-2.445,6.125-3.801c4.359-4.423,19.151-12.618,38.06-2.953
		c1.931-1.355,3.74-3.15,6.102-3.71c3.21,0.356,6.329,1.401,9.365,2.514c0.507-2.18,0.977-4.361,1.37-6.557
		c-6.08-0.803-12.871-0.992-17.656-5.353c-13.053-10.185,6.427-31.021,27.877-25.545c-1.658-19.223-114.938-123.46-225.474-163.02
		C1314.292,425.707,1302.671,424.321,1291.572,421.437 M460.026,466.666c0.273,10.145,4.876,19.541,5.625,29.633
		c0.742,11.263,1.757,54.19-5.383,70.328c-1.961,4.74-2.476,10.032-5.239,14.43c-1.84,3.543-4.656,6.405-6.92,9.653
		c-4.013,6.867-11.985,9.721-17.618,14.976c-5.702,5.244-25.456,18.304-62.514,25.204c-81.08,14.369-102.624-71.768-277.858-46.017
		c-16.333,3.416-49.403,12.955-42.224,27.952c9.281,19.789,41.416,37.887,60.887,45.873c58.512,19.979,96.892,17.122,123.484,21.759
		c17.959,1.836,45.961,26.04,49.136,39.491c9.426,38.802,4.635,34.261-22.153,67.322
		c-112.981,110.616-126.226,340.296-13.537,446.103c0.695,0.757,14.963,18.06,31.375,27.718
		c10.518,6.228,49.457,36.703,65.936,45.358c3.172-6.367,4.346-14.029,9.933-18.897c1.885-1.605,3.793-4.035,6.526-3.808
		c2.551,1.863,3.384,5.898,0.992,8.283c-5.837,5.754-6.239,14.544-8.29,22.039c-4.391,16.961,3.057,48.977,10.819,68.533
		c2.143,6.415,24.998,47.295,34.903,58.994c6.027,6.594,11.864,13.348,17.694,20.124c8.21,10.405,64.022,57.204,87.06,59.289
		c11.854,1.569,8.724-19.193,6.867-32.866c-8.229-58.496-5.347-88.812,2.809-146.402c2.246-19.071,20.152-57.905,26.817-43.67
		c-3.117,6.622-14.58,18.076-17.383,43.163c-1.272,11.379-3.293,22.827-2.362,34.32c17.174-0.408,62.451,4.142,71.198,4.232
		c16.205-0.268,61.143,10.655,73.704,12.015c8.987,0.946,17.716,3.346,26.34,5.989c11.811,2.975,24.031,4.278,35.592,8.283
		c11.184,3.244,55.672,19.965,61.167,21.578c20.823,6.419,68.166,29.604,86.212,41.013c8.651,6.575,56.814,52.858,93.934,64.21
		c6.496,1.953,13.333,1.219,20.01,0.855c5.157-10.121,6.86-6.153-5.292-39.703c-7.246-22.062-17.429-42.973-25.363-64.771
		c-2.799-6.193-0.996-6.447-20.003-9.252c14.937,20.406,13.704,9.24,23.576,39.513c2.014,6.178,2.9,12.984,6.874,18.352
		c10.446,14.643,15.998,35.633,7.965,39.9c-5.08,3.498-11.508,2.059-16.785-0.076c-54.974-22.039-74.88-55.19-143.76-134.871
		c-8.525-10.978-20.692-18.171-30.739-27.582c-3.717-3.786-7.866-7.117-12.341-9.956c3.181,12.008,5.978,14.942,2.029,17.164
		c-4.933,0.66-16.242-17.537-12.833-31.942c4.118-14.179,22.334-9.451,29.08-9.131c4.959,1.007,10.486,0.53,15.036,3.074
		c2.9,1.28,1.825,7.314-1.605,7.018c-7.83-0.788-9.023-4.229-26.211,0.575c55.358,71.139,211.985,91.885,259.332,84.183
		c18.778-2.471,48.688-0.04,76.642-10.403c13.242-4.861,27.074-9.517,37.848-19.011c8.631-8.699,17.141-19.306,17.073-32.207
		c1.139-21.533-21.957-31.12-41.588-38.128c-18.95-6.473-39.014-7.745-58.82-9.275c-1.817-5.845-2.529-12.068-5.368-17.535
		c-22.097-40.536-11.658-34.951-58.047-86.522c-16.483-16.586-41.773-31.784-62.681-43.466c-5.08,4.702-9.971,10.463-16.937,12.235
		c-37.215,5.79-54.521-9.7-57.071-24.265c-0.242-5.625,3.998-9.774,6.572-14.378c-32.471-11.313-59.235-22.012-188.126-39.551
		c-11.452-0.722-43.629-9.536-48.129-10.085c1.302,6.935,5.815,12.583,7.919,19.231c-2.188,0.363-5.065,2.226-6.776-0.061
		c-7.647-8.381-12.606-19.132-14.393-30.314c-6.192-29.279-0.817-43.225,6.254-66.61c2.627-8.268,5.163-16.702,9.986-24.016
		c5.966-9.736,10.191-20.381,15.93-30.239c3.322-6.869,31.584-49.08,34.123-52.104c5.428-6.837,11.273-14.082,12.311-23.054
		c-7.837-25.139-59.487-33.13-91.451-20.548c-69.463,27.079-109.19,48.388-162.006,106.767c-6.586,7.772-21.927,2.905-26.552-6.004
		c-24.771-39.972-46.516-64.39-38.59-136.347c3.444-31,23.327-60.613,26.203-66.156c44.431-84.052,165.798-30.524,191.276-163.747
		c0.992-13.446,2.15-27.316-1.545-40.467c-3.521-9.903-5.428-20.578-11.69-29.27c-5.201-6.663-9.131-14.302-15.188-20.26
		c-3.228,10.822-5.541,17.585-21.146,24.508c-12.568,4.914-28.558-7.942-24.296-21.426c2.806-7.713,10.721-10.29,10.933-31.829
		c-4.982-2.688-9.744-6.11-15.46-7.034c-12.606-2.665-25.409-5.383-38.378-4.641C476.591,460.261,467.256,461.124,460.026,466.666
		 M575.909,491.787c3.475,4.172,6.905,8.487,11.023,12.03c2.627-0.371,3.316-3.793,4.732-5.693
		C586.394,496.034,581.14,493.945,575.909,491.787 M1580.734,532.474c-5.217,5.913-4.649,14.438-5.996,21.774
		c-1.696-0.038-3.982,0.522-4.846-1.393c-1.184-2.165-4.839-17.051-19.223-12.015c-0.167,2.044-0.742,3.929-0.772,6.026
		c3.059,2.915,8.192,5.671,7.442,10.562c-2.983,4.073-8.184-0.318-11.894-0.121c-4.285-0.106-4.823,5.852-3.044,8.654
		c2.574,5.057,6.148,9.547,9.176,14.347c15.505-26.797,42.361,7.222,50.295-24.364c-12.86,1.545-13.916,8.502-22.017,8.343
		c-0.023-3.384-1.189-7.427,1.279-10.213c4.081-5.126,9.562-10.115,10.122-17.012
		C1593.551,530.687,1584.004,528.499,1580.734,532.474 M1022.511,561.524c1.181,4.27,4.27,8.268,2.801,12.939
		c-2.988,12.008-26.06,34.467-23.175,48.553c1.113,3.96,5.875,4.717,9.146,6.208c-4.373,9.679-12.596,2.21-14.476-8.237
		c-0.169-18.359,27.668-42.919,22.804-53.111c-2.783-6.549-0.883-4.975-35.985,1.06c4.391,3.77,9.153,9.085,7.76,15.422
		c-1.808,15.51-25.433,40.91-25.991,59.584c-0.697,8.23,3.551,15.702,8.162,22.115c8.616,8.404,22.304,8.888,32.661,3.634
		c24.483-8.411,25.375-21.099,61.364-44.124c-14.255-24.072-1.706-29.325-3.679-35.387c-3.831-14.317,1.953-28.551,5.216-42.368
		C1053.825,553.12,1038.274,557.845,1022.511,561.524 M1559.103,582.761c-3.49,3.869-2.105,9.608,0.916,13.272
		c2.256,2.491,1.491,5.875,0.825,8.851c-5.603-1.514-11.576-3.452-17.3-1.423c-5.708,1.219-11.75,5.799-11.182,12.265
		c8.427,0.189,16.846-0.333,25.189-1.59c0.735,1.711,0.894,3.263,1.325,5.171c-3.725,2.582-8.116,4.732-10.834,8.442
		c-1.098,3.293,1.802,6.276,3.361,8.957c14.811-3.154,17.668-4.09,24.455-16.52c1.825,0.939,3.725,1.81,5.519,2.93
		c1.666,3.861-0.386,8.389,1.173,12.326c5.017,4.12,19.451-2.453,20.154-11.977c-5.58-2.4-14.544-0.204-16.513-7.405
		c18.6-9.247,17.046-7.266,20.184-17.641c-5.769-5.731-14.604-4.232-21.328-1.242c-2.763-3.695-0.696-8.366-1.113-12.515
		C1582.189,580.41,1569.114,574.289,1559.103,582.761 M1071.208,604.815c2.695,7.283,5.678,14.491,10.327,20.805
		c7.389-7.972,11.107-18.572,16.323-27.975C1088.773,599.152,1079.718,601.242,1071.208,604.815 M1150.038,625.719
		c-3.127,4.83-6.647,9.426-9.222,14.589c12.907-2.959,17.531-3.857,26.166-19.564c-2.574-3.354-4.974-6.822-7.336-10.304
		C1156.11,615.324,1153.203,620.609,1150.038,625.719 M1435.732,639.483c-0.03,4.747,4.338,7.556,7.185,10.728
		c1.772,1.87-0.038,4.49-0.439,6.564c-6.443-2.029-11.016-8.025-17.959-8.722c-4.883-1.105-9.396,1.249-13.817,2.892
		c1.098,1.938,1.991,4.384,4.376,5.103c5.345,1.719,11.342,0.038,16.581,2.4c2.181,0.78,2.9,3.165,3.793,5.073
		c-4.596,2.347-10.584,3.006-13.575,7.647c-3.157,2.726-1.787,6.799-0.802,10.1c8.674-1.089,11.717,1.222,22.456-15.907
		c4.811,2.545,5.599,0.545,2.461,18.012c1.855,1.136,3.664,2.991,6.004,2.869c1.885-1.378,3.165-3.415,4.982-4.876
		c1.817-1.65,4.164-3.195,4.815-5.693c-0.22-3.081-1.31-6.004-2.059-8.964c8.207-3.823,19.609-7.518,19.753-18.42
		c-8.167-1.05-7.021-5.078-19.034,5.428c-3.203,2.869-7.14,4.694-10.683,7.071c-0.992-1.09-2.052-2.128-2.794-3.384
		c-0.845-2.7,6.831-7.733,10.425-12.787c2.771-4.066,0.765-10.251-3.884-11.871C1447.362,630.603,1438.125,632.685,1435.732,639.483
		 M1498.474,635.728c-13.246,5.701-5.94,13.876-1.666,15.793c4.505,2.18,9.593,3.112,13.673,6.17
		c-0.167,1.537-0.651,3.013-1.113,4.49c-7.377-1.369-20.552-4.867-29.05,10.668c-1.37,2.604,0.454,6.753,3.672,6.632
		c16.601,0.082,22.543-10.069,33.646-11.766c0.182,5.936-2.506,11.569-1.673,17.565c3.678,5.752,19.638,5.185,24.455,0.795
		c1.317-1.832,2.067-3.997,3.074-6.004c-1.923-1.719-3.362-3.831-5.58-5.08c-2.226-1.355-5.481-2.355-4.02-6.042
		c4.02-2.014,8.677-0.469,12.977-0.969c20.712,1.443,24.733-22.228,7.23-19.821c-5.224,0.295-8.502,5.004-13.287,6.314
		c-1.416-0.454-2.657-1.264-3.914-1.984c1.56-10.009,3.248-13.076-6.155-16.005c-1.946,4.997,0.409,9.805,0.765,14.748
		c-1.658,1.196-4.066,1.567-5.769,2.392c-1.931-4.686-2.635-9.948-5.512-14.181C1514.199,634.683,1505.735,634.131,1498.474,635.728
		 M1564.35,640.793c10.982,12.505,6.191,11.37,9.426,19.511c7.846,7.929,26.475,24.762,37.166,23.66
		c5.332-3.461,1.472-29.805-8.631-42.337c-8.305,3.263-17.716,6.314-26.484,2.862c-2.764-1.688-2.423-5.36-3.089-8.162
		C1569.96,637.848,1567.151,639.324,1564.35,640.793 M1555.575,675.999c0,5.11-2.498,9.487-6.451,12.515
		c17.775,18.178,18.93,16.613,23.546,6.988c3.074-10.645,3.687-22.88-1.545-32.942
		C1567.045,668.178,1561.988,673.107,1555.575,675.999 M1615.288,662.666c0.75,8.737,3.377,19.67-3.861,26.514
		c4.936,8.207,11.758,16.762,21.653,18.882c0.909-3.346,2.332-6.912,0.682-10.327C1629.93,685.001,1622.465,673.72,1615.288,662.666
		 M1578.144,669.639c0.759,7.28,0.047,25.713-7.647,37.128c5.618,7.185,11.296,15.074,20.351,18.148
		c2.521,1.249,6.595,0.606,7.026-2.688c6.094-32.846,1.504-36.958-4.671-40.679C1587.691,678.24,1582.914,673.902,1578.144,669.639
		 M1462.572,689.551c-0.553,7.367,0.076,14.824,1.416,22.085c-0.583,2.915,1.969,4.293,3.771,5.731
		c11.044-19.012,6.241-25.213,1.597-38.582C1467.342,682.51,1464.177,685.622,1462.572,689.551 M1507.415,688.892
		c-0.469-2.839-1.272-5.61-2.264-8.298C1504.584,683.577,1505.818,686.439,1507.415,688.892 M1474.799,683.941
		c10.718,28.075,10.376,32.551,24.235,39.188c7.654-11.682,3.407-25.87,1.499-38.506
		C1485.571,689.472,1486.855,688.393,1474.799,683.941 M1603.462,687.863c0.689,12.591,0.265,25.416-3.316,37.59
		c-0.56,1.56-0.394,3.24,0.545,4.626c13.275,22.35,8.253,18.366,17.421,27.604c2.173-0.954,4.611-1.741,6.171-3.657
		c6.678-12.197,6.67-26.673,5.444-40.134c-0.591-3.475-4.891-4.429-7.056-6.557c-7.193-4.694-11.955-12.106-16.089-19.443
		C1605.521,687.878,1604.484,687.863,1603.462,687.863 M1507.476,689.21c3.167,7.463,13.48,26.192,21.191,28.952
		c8.949-3.445,9.57-14.726,11.024-22.857C1519.863,698.876,1522.4,699.04,1507.476,689.21 M1544.983,690.467
		c-2.968,4.755-2.574,10.675-3.907,15.96c-0.802,4.921-3.846,9.017-6.322,13.204c6.212,10.425,24.295,29.738,28.346,15.475
		c2.862-8.866,2.302-18.421,2.521-27.589C1557.513,703.55,1551.812,696.145,1544.983,690.467 M1506.795,696.834
		c0.53,10.774,0.795,22.827-7.443,31.117c4.201,7.221,9.522,22.414,18.087,24.894c11.527,5.315,11.622-17.34,10.569-29.822
		C1522.371,720.415,1520.098,719.164,1506.795,696.834 M1477.608,703.732c-1.567,7.208-5.164,13.976-11.077,18.564
		c1.219,3.793,2.014,8.252,5.708,10.569c5.323,3.982,9.441,10.123,16.24,11.69c3.135-5.542,4.474-11.766,6.004-17.875
		C1482.109,717.255,1482.926,715.232,1477.608,703.732 M1635.079,714.755c2.15,10.221,6.92,20.063,14.483,27.385
		c-1.605-12.356-6.935-23.667-11.455-35.122C1636.381,709.236,1633.428,711.431,1635.079,714.755 M1569.763,712.522
		c-0.946,6.133-1.234,12.348-1.847,18.526c-1.305,9.186-9.694,6.099,9.706,35.819c2.173,2.521,5.285,6.488,8.608,2.779
		c10.346-4.827,9.421-28.226,8.101-39.536C1578.058,725.366,1576.988,719.274,1569.763,712.522 M1531.529,721.198
		c2.73,30.174-4.014,32.882-6.685,36.447c17.534,31.191,14.059,27.384,24.863,24.72c7.53-6.881,10.578-26.186,10.849-37.552
		C1554.555,743.37,1547.68,744.261,1531.529,721.198 M1633.3,722.538c-0.666,13.03-0.969,27.619-10.441,37.764
		c9.541,27.638,13.924,28.728,19.284,30.103c7.776-2.503,9.041-34.808,6.784-42.655
		C1642.302,740.292,1636.775,731.911,1633.3,722.538 M1496.672,731.661c-0.691,12.064-13.444,12.794,4.649,45.502
		c2.65,5.088,5.86,10.796,11.728,12.583c7.888,2.998,7.786-28.735,7.972-31.844C1513.525,755.199,1508.935,757.756,1496.672,731.661
		 M1597.678,732.396c-2.108,30.711,0.502,29.802-9.123,39.847c6.343,17.258,8.983,27.689,17.391,31.465
		c6.186-0.666,7.798-7.283,8.752-12.371c1.545-9.88,4.452-19.617,4.111-29.709C1607.694,755.434,1604.681,742.155,1597.678,732.396
		 M1471.93,738.907c5.958,11.985,12.129,23.872,18.685,35.546c-0.447-8.177-1.446-16.323-2.9-24.379
		C1481.583,747.667,1476.919,742.98,1471.93,738.907 M1556.635,777.179c-2.521,4.815,0.53,9.956,1.931,14.597
		c3.983,9.942,9.404,30.799,19.178,17.83c6.943-9.895,6.92-22.531,6.935-34.092c-5.433-1.325-8.899-0.194-21.161-24.977
		C1561.98,759.583,1560.549,768.79,1556.635,777.179 M1653.181,757.183c-1.022,9.169-0.136,18.769-3.399,27.566
		c-1.787,4.989-7.261,8.116-7.495,13.688c-0.373,12.974,6.326,31.791,10.486,30.67c1.545-0.227,3.059-0.674,4.588-1.06
		C1658.572,814.989,1657.669,776.052,1653.181,757.183 M1524.359,767.101c-3.21,24.585-3.658,16.133-5.86,26.68
		c2.015,8.663,8.074,28.594,16.959,29.52c11.675-3.734,13.277-18.506,15.983-37.416c-4.187,1.098-8.457,1.862-12.765,2.203
		C1534.126,780.941,1529.175,774.059,1524.359,767.101 M1622.155,771.629c-5.84,18.953-3.642,31.646-14.817,35.455
		c6.154,28.585,5.536,26.185,14.521,31.094c10.775-8.975,13.502-29.317,14.877-43.17
		C1630.014,788.452,1627.167,779.336,1622.155,771.629 M1494.772,773.181c-0.129,3.558-1.968,7.306-0.871,10.872
		c4.232,10.69,5.459,22.251,8.033,33.404c-0.363,4.634,4.194,6.042,7.624,7.124c4.588-9.517,4.936-20.298,3.627-30.61
		C1503.304,791.632,1499.246,781.123,1494.772,773.181 M1588.555,783.75c-1.598,6.647-1.855,13.545-3.725,20.139
		c-1.643,4.686-5.027,8.502-7.321,12.825c0.263,10.52,3.072,32.77,13.461,31.45c9.354-0.684,12.606-31.355,12.606-39.067
		c-1.779-3.627-5.148-6.011-7.306-9.35C1592.514,795.039,1590.962,789.148,1588.555,783.75 M1554.008,792.109
		c-4.255,19.262-2.47,21.573-11.894,31.534c2.445,10.592,4.225,22.138,11.826,30.504c2.355,1.984,4.717,5.603,8.48,3.755
		c7.746-1.36,9.89-31.525,10.183-39.241C1558.349,815.346,1559.079,803.771,1554.008,792.109 M1511.776,828.707
		c1.878,13.741,5.012,27.71,11.826,39.945c6.27-6.007,8.893-6.854,13.999-41.149c-10.306-1.283-13.21-4.096-19.397-20.215
		C1517.106,814.731,1514.146,821.659,1511.776,828.707 M1639.689,808.863c-1.908,7.246-4.959,14.12-7.359,21.207
		c-1.325,4.3-4.762,7.344-7.351,10.857c-1.711,2.021-0.204,4.823,0.129,7.155c2.703,8.782,4.028,18.277,9.524,25.916
		c2.43-1.128,5.194-2.196,6.542-4.702c5.133-10.062,9.214-20.722,11.364-31.836c0.704-2.067-1.34-3.255-2.552-4.505
		C1642.725,827.132,1641.878,817.26,1639.689,808.863 M1114.583,823.476c-68.643,32.284-74.12,51.733-89.634,66.27
		c-14.058,13.025-27.767,38.177-30.186,49.447c23.352-9.723,79.353-22.315,83.115-22.986c79.053-12.661,83.446-5.679,121.432-6.511
		c-2.052-11.001,2.544-21.396,4.838-31.927c-30.429-5.37-63.037-3.367-92.382,1.045c24.153-9.702,93.286-4.053,94.048-4.05
		c2.385-4.172,4.732-8.374,6.784-12.727c-8.813,0.053-17.693-0.454-26.385,1.196c-4.088,0.651-8.252,1.332-12.394,0.825
		c5.885-2.413,31.815-5.431,39.9-5.3c3.982,0.878,6.503-2.627,9.343-4.671c-11.797-5.634-58.051-6.053-58.858-6.072
		c15.801-1.355,31.693-0.522,47.425,1.242c5.103,0.53,10.115,2.423,15.316,1.696c3.278-1.651,6.329-3.755,9.153-6.102
		c-35.649-15.538-78.82-10.574-93.147-11.614c25.716-3.736,63.243-1.786,95.002,8.283c4.959,1.976,8.623-3.24,12.583-5.444
		c-10.942-8.646-45.714-23.127-67.102-21.608C1160.35,815.435,1136.334,814.36,1114.583,823.476 M1606.309,820.932
		c-2.453,11.167-3.649,24.485-13.901,31.549c6.484,31.736,5.382,23.11,16.573,38.878c0.969-0.265,1.946-0.53,2.968-0.765
		c4.013-14.643,7.518-30.012,5.315-45.252c0.235-3.982-2.998-6.458-4.921-9.418C1609.049,831.509,1608.035,826.02,1606.309,820.932
		 M1329.556,826.02c-2.741,1.31-5.989,2.074-8.101,4.406c-0.477,2.748,0.114,5.534,0.265,8.321
		c6.738,2.559,14.014,4.55,21.267,3.982c4.702-2.635,8.548-7.957,14.589-7.208c7.881-0.606,15.619,1.378,23.425,1.938
		c2.65-0.939,4.936-2.816,7.321-4.338C1378.05,829.518,1338.747,821.893,1329.556,826.02 M1304.352,829.003
		c3.604,0.136,7.177,0.31,10.796,0.485c-0.008,0.53-0.023,1.597-0.03,2.128c-23.362,3.731-16.685,2.238-34.085,12.583
		c5.905,8.828,17.573,10.085,27.218,11.046c8.97-4.446,3.984-5.724,22.842-10.327c-4.406-0.893-9.365-1.832-12.659-5.118
		c-2.309-4.399-1.613-9.721-0.439-14.355C1313.414,826.504,1308.872,827.753,1304.352,829.003 M1503.743,827.049
		c0.114,11.531-0.401,23.061-1.143,34.577c5.262-9.956,5.489-21.615,5.549-32.616C1506.658,828.367,1505.197,827.7,1503.743,827.049
		 M1570.967,853.616c-1.492,3.354-4.634,5.474-6.504,8.54c0.863,13.658,5.921,26.908,13.484,38.272
		c6.94-8.543,10.212-17.667,9.434-48.387c-6.89-4.664-10.592-12.394-11.561-20.487
		C1574.457,838.958,1573.73,846.552,1570.967,853.616 M1255.556,846.355c-10.804,5.164-20.184,12.742-28.868,20.873
		c2.362,1.492,5.436,2.544,6.723,5.307c-3.816-0.318-7.563-0.787-11.296-1.507c-2.938,4.323-7.261,8.495-6.594,14.15
		c7.06-3.689,8.641-6.606,19.39-5.974c-0.03,0.53-0.076,1.59-0.099,2.12c-5.02,1.295-9.63,3.589-13.931,6.435
		c0.348,1.847,0.644,3.945,1.454,5.769c3.634,2.203,8.381,1.825,12.288,0.56c6.663-2.158,13.605-3.248,20.298-5.3
		c-7.859-4.043-18.897-6.844-20.866-16.884c4.687-5.148,11.417-7.177,18.072-8.381c-1.772-2.317-4.247-4.777-3.195-8.048
		c0.795-10.583,18.095-10.099,26.241-11.304c3.755-4.527,8.411-8.199,13.552-11.054
		C1277.671,837.573,1266.065,840.647,1255.556,846.355 M1540.281,833.787c-5.068,22.315-4.089,24.633-7.253,28.831
		c-1.355,2.801-4.081,5.118-4.664,8.215c2.997,14.408,8.208,29.9,22.342,31.382c6.662-10.607,7.48-23.819,8.79-35.955
		c0.629-4.512-4.543-5.943-7.215-8.298C1544.642,852.268,1542.924,842.305,1540.281,833.787 M1655.952,834.378
		C1654.196,836.96,1658.92,834.953,1655.952,834.378 M1385.885,840.132c1.749,10.721,12.606,14.938,18.95,22.463
		c-0.704,0.795-1.385,1.613-2.052,2.438c-10.357-2.445-21.933-5.247-32.094-0.492c-2.059,1.113-4.959,3.399-3.566,6.027
		c7.553,15.369,18.047,16.465,23.478,25.863c-10.471,1.03-21.494-6.345-31.276-0.462c0.666,12.335,16.867,12.934,20.82,20.896
		c-8.956-0.493-19.81-8.367-30.451,0.151c9.246,18.558,11.868,17.594,18.791,27.052c-11.067-2.878-11.836-12.101-20.911-22.077
		c-6.382-0.424-14.037-2.18-19.533,2.097c-3.468,2.847-1.28,7.541-0.621,11.076c12.833,5.572,26.294,9.873,38.022,17.731
		c-0.492-7.518,6.867-14.468,14.332-12.522c5.05,0.908,9.979,2.544,14.9,4.073c-0.038,1.075-0.053,2.173-0.053,3.278
		c-11.24-2.933-23.404-9.594-25.492,6.958c9.1,4.104,15.634,11.962,24.174,16.952c2.574,1.484,5.413-0.462,8.003-1.007
		c4.3-1.597,8.911-0.666,13.333-0.061c-6.042-7.367-14.37-13.87-16.111-23.735c1.219-3.891,6.216-4.664,9.343-6.45
		c6.307-0.954,12.212,2.059,17.959,4.217c-6.582-7.191-13.556-7.799-15.786-24.879c-7.465-2.112-15.12-3.581-22.903-3.407
		c-7.296,15.729,9.288,15.212,9.873,25.34c-8.476-4.462-21.805-17.977-13.212-26.173c5.769-5.103,14.059-2.029,20.957-1.696
		c-3.808-2.892-7.806-5.731-10.766-9.509c-6.217-9.753-1.543-16.884,5.209-17.232c8.381-1.098,16.914-0.644,25.287,0.432
		c-12.887-9.649-27.184-26.658-11.675-30.072c8.389-1.537,16.77,0.621,25.159,0.901c-10.592-6.594-20.76-14.203-32.631-18.375
		c-3.604-1.211-6.814-3.627-10.607-4.149C1391.495,836.513,1388.777,838.633,1385.885,840.132 M1655.195,837.406
		C1653.439,839.988,1658.163,837.982,1655.195,837.406 M1351.088,840.405c-2.915,2.377-6.897,4.846-7.798,8.669
		c2.938,6.549,9.714,10.16,15.362,14.06c3.99,2.862,7.662-1.772,11.069-3.301c8.745-3.68,18.42-1.651,27.453-0.409
		c-4.618-3.377-9.373-6.806-12.371-11.788c-1.946-2.256-2.824-6.027-6.117-6.663C1369.743,839.14,1359.726,835.711,1351.088,840.405
		 M1643.43,871.575c-1.544,2.377-4.316,4.096-4.876,7.018c-3.232,17.573-4.328,11.948,0.364,33.79
		c4.021-7.395,11.525-33.575,15.384-65.755C1650.751,854.964,1648.616,864.019,1643.43,871.575 M1257.691,852.291
		c-2.763,0.946-3.475,4.005-4.331,6.435c15.782,6.356,18.248,1.155,44.662-0.909c-7.715-1.605-14.173-6.223-21.032-9.752
		C1270.365,847.748,1263.748,849.717,1257.691,852.291 M1313.573,855.842c-10.778,8.251,4.862,15.62,17.784,18.92
		c5.285-8.464,16.126-8.775,24.992-9.434c-6.852-4.164-13.158-9.464-16.687-16.831
		C1330.616,848.967,1320.66,849.452,1313.573,855.842 M1510.186,848.233c-1.544,7.389-4.527,14.324-8.563,20.692
		c-0.954,28.336,15.341,42.675,22.516,4.898C1514.699,867.778,1515.966,860.757,1510.186,848.233 M1621.542,850.247
		c0.061,11.887-1.575,23.728-4.278,35.289c-0.856,3.384-3.369,6.428-3.013,10.054c1.614,17.523-4.479,28.194,2.9,34.426
		c13.822-11.078,15.219-32.682,18.799-51.476C1624.659,872.138,1627.711,861.325,1621.542,850.247 M1409.96,864.481
		c0.833,9.267,9.305,15.528,16.49,20.23c4.081,3.611,10.107,1.62,14.718,4.126c6.496,3.452,12.825,7.23,19.579,10.198
		c-3.551-5.587-8.101-10.524-10.963-16.528c-3.263-5.527-1.666-12.182-2.93-18.186
		C1439.608,861.48,1414.454,858.097,1409.96,864.481 M1276.626,864.935c1.529,5.731,7.291,8.555,12.507,10.251
		c5.141,1.567,10.342,4.944,15.922,3.059c4.815-1.756,9.812-2.763,14.938-3.263c-5.519-3.505-11.591-7.185-13.938-13.613
		C1296.19,861.944,1286.257,862.671,1276.626,864.935 M1591.091,864.67c-1.794,10.751-0.53,22.463-6.375,32.154
		c-2.748,3.823-1.779,8.601-1.802,13.007c0.432,8.714-1.56,17.512-0.038,26.181c5.232-1.408,10.69-3.604,13.355-8.699
		c4.74-8.76,8.457-18.125,10.925-27.771c-0.984-1.794,1.734-3.513,0.311-5.103C1594.733,875.073,1601.304,890.711,1591.091,864.67
		 M1244.699,870.257c-2.34,0.75-6.943,3.24-4.543,6.155c6.95,7.132,17.27,8.661,26.378,11.516c4.56-6.502,3.346-6.479,20.154-9.123
		c-5.981-2.968-11.046-7.442-15.475-12.371C1262.332,867.305,1253.307,867.857,1244.699,870.257 M1450.64,867.759
		c-1.694,14.944,8.713,23.527,16.52,33.229c6.284-4.081,13.643-1.999,20.26-0.03C1477.972,887.216,1464.45,876.806,1450.64,867.759
		 M1338.679,871.862c-5.179,2.521-5.633,10.501-1.234,13.991c4.929,3.884,10.168,7.844,16.179,9.835
		c3.573-1.083,5.602-5.534,9.691-5.436c6.246,0.242,12.401,1.688,18.663,1.976c-7.783-5.981-14.112-13.416-19.344-21.683
		C1354.699,869.879,1346.053,867.501,1338.679,871.862 M1491.312,883.802c5.103,6.049,9.206,12.871,14.128,19.056
		c0.795-0.878,1.545-1.802,2.309-2.71c-9.434-11.695-7.703-15.392-9.487-27.574C1496.104,876.405,1493.651,880.069,1491.312,883.802
		 M1562.934,874.845c-2.968,10.539-2.839,23.251-11.675,30.966c-3.15,2.597-1.787,7.147-2.317,10.675
		c-0.407,18.855-3.108,25.259,1.809,26.461c-0.288,0.886-0.605,1.757-0.84,2.673c14.927-2.759,23.726-22.784,28.142-37.272
		c0.954-2.423-1.59-4.134-2.71-5.951C1568.983,894.326,1566.25,884.362,1562.934,874.845 M1308.788,880.546
		c-5.341,1.358-13.334,15.453,19.253,20.813c4.772-6.923,3.979-5.174,15.294-7.155c-5.209-3.664-10.312-7.806-12.81-13.848
		C1323.348,879.903,1315.837,878.555,1308.788,880.546 M1519.317,895.121c-4.043,4.27-1.65,10.516-0.727,15.445
		c0.644,6.034,4.755,10.622,8.389,15.15c4.431-2.592,5.767,1.127,16.376-20.609c-15.521-15.521-10.65-12.725-16.573-25.242
		C1524.359,884.991,1522.716,890.502,1519.317,895.121 M1271.675,886.225c-0.078,4.578-1.998,9.854,7.018,14.574
		c4.619,3.244,8.103-0.947,18.519,7.018c4.018-5.6,3.434-5.278,14.953-7.495c-7.284-5.225-12.418-5.421-11.66-17.86
		C1290.837,883.348,1280.942,882.818,1271.675,886.225 M1213.393,887.693c-0.946,2.953-1.613,5.974-2.226,9.017
		c2.68-0.045,5.118-0.242,7.874-0.144c-1.764,2.794-4.755,4.323-7.495,5.973c0.008,0.379,0.038,1.151,0.053,1.537
		c1.809,1.007,3.642,2.037,5.481,3.096c-1.514,0.946-4.058,1.068-5.194,2.279c1.098,3.589,2.635,7.011,4.126,10.471
		c-0.333-3.649-0.56-7.51,0.734-11.001c3.748-4.467,9.789-5.792,15.097-7.654c0-0.507,0-1.537,0-2.052
		c-16.054-3.173-11.909-1.585-15.362-10.562C1215.437,888.329,1214.4,888.004,1213.393,887.693 M1395.666,893.281
		c-1.87,3.21-0.613,7.829,2.181,10.176c4.83,4.263,9.532,8.851,15.294,11.887c6.694,0.823,5.694-8.837,36.069,13.333
		c-9.044-14.073-16.622-13.65-23.841-36.311C1419.943,888.953,1400.32,888.379,1395.666,893.281 M1429.698,896.627
		c2.854,10.993,11.773,18.905,19.283,26.885c3.324,4.331,9.002,2.892,13.59,4.225c4.285,1.325,8.29,3.498,12.303,5.519
		c-5.474-8.094-12.848-16.679-10.955-27.195c-8.806-6.576-23-13.986-28.551-15.074
		C1432.288,890.094,1428.646,893.553,1429.698,896.627 M1239.074,897.354c-3.46,1.113-4.861,6.859-1.295,8.692
		c6.322,3.839,13.575,5.921,20.646,7.972c4.497-7.647,14.271-7.397,22.017-8.245c-9.848-6.548-9.749-6.907-13.257-14.468
		C1257.623,892.236,1248.273,894.697,1239.074,897.354 M1339.519,898.732c-6.034-0.84-7.881,5.057-9.282,9.464
		c4.467,3.422,9.804,5.285,14.817,7.73c8.209-8.873,7.743-6.308,19.291-7.177C1351.522,897.399,1357.086,900.535,1339.519,898.732
		 M1511.913,901.208c-1.408,1.87-2.976,3.642-4.126,5.693c2.514,7.488,7.337,13.969,10.842,21.017
		c0.469-0.598,0.969-1.173,1.484-1.734C1516.016,918.334,1514.335,909.627,1511.913,901.208 M1470.453,904.479
		c-2.014,1.726-4.156,4.323-3.498,7.162c2.037,9.403,8.517,17.255,16.096,22.902c4.929-6.201,13.598-6.345,20.268-9.29
		c-0.803-4.081-4.838-7.73-6.587-11.697C1494.485,909.131,1479.764,899.25,1470.453,904.479 M1603.492,920.219
		c-13.388,26.937-15.351,8.938-23.909,32.715c-1.832,7.208-4.777,14.468-4.331,22.047c9.391-2.815,14.545-2.476,26.627-22.373
		c3.952-7.132,8.041-14.764,8.593-23.046c-1.908-8.881-0.818-17.921-0.167-26.87
		C1608.247,908.612,1606.135,914.533,1603.492,920.219 M1295.97,918.061c17.823,12.695,4.896,8.914,26.469,14.491
		c1.453-10.096-0.912-11.886,15.46-15.543c-5.285-1.969-9.275-5.686-12.182-10.41c-4.361-2.779-10.13-2.075-15.074-2.097
		C1302.618,903.373,1297.311,911.194,1295.97,918.061 M1220.722,909.846c-1.242,2.006-1.545,4.414-2.074,6.678
		c2.294,1.12,4.543,2.627,7.162,2.832c10.448,0.416,20.851-1.522,31.299-0.818c-7.14-4.543-15.884-5.602-22.797-10.607
		C1230.049,904.834,1224.484,907.128,1220.722,909.846 M1633.035,907.227c-8.129,25.557-8.502,18.291-17.8,26.953
		c-4.338,10.758-6.716,22.41-6.852,34.039c8.631-1.946,13.575-10.388,17.012-17.86
		C1636.438,922.029,1638.617,922.948,1633.035,907.227 M1268.881,911.103c-3.679,0.681-6.557,3.755-5.209,7.882
		c12.591,1.136,24.553,5.686,37.182,6.693c-2.801-2.271-5.799-4.459-7.601-7.654c-0.644-2.733-0.045-5.459,0.174-8.177
		C1285.25,910.164,1276.982,910.013,1268.881,911.103 M1527.766,929.069c-2.582,0.909-6.011,0.424-7.533,3.203
		c-4.119,6.473-10.842,12.447-10.607,20.677c11.652,0.507,22.675-3.566,33.328-7.783c1.143-11.425,1.658-22.918,1.378-34.38
		C1539.305,917.243,1536.632,926.904,1527.766,929.069 M1562.495,942.765c-3.998,4.845-10.539,5.27-15.763,7.775
		c-5.209,8.858-10.365,18.11-12.364,28.316c19.631,1.801,38.296-21.543,46.38-38.65c-5.459-7.238-1.953-16.505-2.173-24.719
		C1574.518,925.231,1569.884,935.066,1562.495,942.765 M1419.924,917.592c-2.718,0.644-4.74,2.779-6.996,4.24
		c1.476,4.755,3.422,9.646,7.336,12.962c6.39,5.686,12.538,11.781,19.662,16.573c5.247,1.537,10.917,1.643,16.058,3.732
		c4.883,1.931,9.676,4.111,14.597,5.996c-32.439-38.144-4.708-20.868-37.341-39.256
		C1429.168,919.537,1424.754,917.236,1419.924,917.592 M1153.786,920.9c-0.757,0.041-44.232,2.585-51.93,7.927
		c-8.66,6.099-88.093,67.579-88.301,67.753c72.507,50.144,192.599-0.323,258.015-67.314c-5.917-1.134-28.791-4.542-33.714-0.734
		c-0.765,0.618-29.546,26.566-46.396,34.85c14.476-11.364,29.679-22.077,42.163-35.713c-3.657,0.083-7.957-0.303-10.721,2.544
		c-18.747,15.767-56.544,41.558-75.34,45.23c10.317-5.058,46.925-20.563,71.577-46.585c-2.703-0.802-5.368-2.12-8.222-2.112
		c-3.869,1.862-6.761,5.269-10.123,7.866c-15.392,13.492-33.184,23.932-51.551,32.775c8.036-5.699,34.895-19.335,59.524-42.92
		c-1.052-0.901-3.157-2.695-4.209-3.596c-9.275,5.247-18.155,11.296-28.051,15.362c8.396-5.86,17.345-10.88,25.34-17.323
		C1185.781,917.523,1169.806,920.158,1153.786,920.9 M1487.072,934.793c1.885,6.655,8.639,10.842,15.142,11.917
		c3.293,1.136,4.952-1.885,6.572-3.929c1.196-2.392,3.445-4.437,3.823-7.17c-1.582-2.597-3.566-5.118-6.095-6.814
		C1499.632,929.032,1493.129,931.734,1487.072,934.793 M1455.932,931.689c0.333,2.309,0.303,4.8,1.332,6.981
		c4.83,8.896,12,16.27,20.003,22.388c8.495-3.452,17.307-6.186,26.393-7.624c-0.046-0.871-0.068-1.734-0.076-2.582
		c-4.096-1.37-8.48-2.211-11.932-4.929c-3.679-2.892-7.51-5.731-12.121-6.859C1471.46,937.057,1464.699,930.341,1455.932,931.689
		 M1401.738,947.618c2.154,6.694,14.506,22.196,27.922,29.452c6.837-1.06,13.825-0.538,20.283,2.105
		c-10.516-13.378-12.571-13.636-13.333-23.788C1414.898,944.961,1414.645,940.457,1401.738,947.618 M1524.397,954.728
		c-10.1,3.059-21.139,0.591-31.042,4.459c-5.724,2.135-12.424,2.854-16.838,7.488c-0.855,6.233,14.925,17.333,54.118,11.97
		c0.742-11.182,8.631-19.571,12.409-29.679C1536.806,950.829,1530.606,952.782,1524.397,954.728 M1592.03,970.014
		c-2.877,2.983-6.859,4.399-10.441,6.269c-3.793,1.597-4.497,6.178-6.738,9.184c-6.072,8.313-15.286,15.294-17.042,25.999
		c12.478,3.709,30.843-15.08,37.28-20.23c6.405-5.11,11.584-11.743,14.726-19.336c-1.908-0.757-4.807-1.075-5.035-3.604
		c-0.856-5.27,0.681-10.63,0.757-15.907C1601.418,958.536,1597.231,964.714,1592.03,970.014 M1439.836,957.007
		c2.915,10.168,10.721,17.815,19.026,23.902c6.64-3.77,14.552-4.634,22.077-4.058c-2.355-1.87-5.126-3.172-6.943-5.542
		c-1.81-2.741-2.96-6.39-6.466-7.397C1458.733,960.535,1449.678,954.22,1439.836,957.007 M1574.692,958.082
		c-7.738,6.852-14.385,15.051-23.334,20.412c-5.254,3.157-11.531,3.68-17.164,5.769c-13.468,9.08-15.115,18.262-8.578,17.89
		c17.118,0.28,31.836-9.6,44.586-19.927c1.37-1.249,3.142-2.907,2.15-4.929C1570.18,970.831,1572.799,964.275,1574.692,958.082
		 M929.129,971.089c-1.295,3.339-1.741,6.897-1.885,10.471c-0.659,11.137-3.051,22.055-4.671,33.07
		c-0.871,8.469,10.538,8.849,15.983,12.803c-0.719,0.886-1.423,1.794-2.127,2.703c-4.429-1.052-8.805-2.082-13.211-3.157
		c-0.426,1.136-8.754,27.871-8.268,30.769c7.988,9.92,22.76,9.848,29.224,11.205c-0.795,0.818-1.272,2.173-2.445,2.514
		c-8.926,0.174-18.337-0.644-25.976-5.716c-6.377,21.506-7.967,22.469-6.519,24.243c10.882,15.853,25.343,12.152,33.033,11.644
		c1.666-12.318,6.36-24.409,4.088-37c1.348-13.613,2.741-28.452-3.816-41.028C941.514,1013.74,938.776,980.897,929.129,971.089
		 M1397.726,974.996c0.635,0.757,27.098,28.405,29.739,30.716c5.644-6.493,4.545-5.038,14.4-4.694
		c-6.216-5.186-13.953-10.63-14.582-19.435C1409.031,971.448,1409.319,971.108,1397.726,974.996 M1463.102,983.142
		c2.362,7.442,10.728,9.441,17.179,12.038c11.818,4.906,24.788,4.679,37.333,4.406c3.92-11.574,6.138-11.207,12.053-16.982
		C1477.516,984.749,1506.722,975.522,1463.102,983.142 M1430.418,981.484c1.943,10.345,22.382,23.877,28.505,26.544
		c3.437-7.162,12.598-7.859,19.231-10.115c-5.08-1.847-10.123-4.051-14.241-7.617c-3.998-3.362-9.577-3.778-13.961-6.466
		C1444.129,980.076,1436.967,980.909,1430.418,981.484 M1607.369,985.436c-17.869,14.088-18.871,15.73-20.412,18.867
		c-2.112,4.225-4.845,8.192-6.087,12.803C1589.626,1013.789,1589.032,1020.186,1607.369,985.436 M809.408,995.975
		c-11.117,10.578-34.037,40.971-39.619,46.706c-25.894,25.841-47.708,32.147-79.61,42.383c0,0,99.779,17.188,122.28,22.138
		c5.875-7.995,11.834-16.157,15.294-25.545c13.903-38.387,14.608-39.274,13.068-61.871c-1.149-11.306-14.499-26.97-21.297-28.641
		C815.253,989.956,812.156,993.401,809.408,995.975 M1527.638,1005.234c-3.089,0.318-6.435-1.696-9.335,0.03
		c-6.148,3.407-13.832,5.746-16.982,12.659c17.754,7.639,38.302,5.428,55.738-1.968c-1.65-2.756-3.611-6.057-1.832-9.328
		c1.143-5.853,5.754-9.888,9.229-14.408C1553.273,998.913,1541.122,1005.772,1527.638,1005.234 M1480.901,1000.412
		c-6.08,1.348-12,3.324-17.557,6.11c-1.931,7.859,5.126,13.567,10.834,17.535c4.528,3.203,10.206,3.134,15.392,4.444
		c2.415,1.696,3.596,4.853,6.95,5.277c-0.075-7.906-0.89-7.095,3.619-12.364c-0.689-2.355-1.438-4.8-1.946-7.162
		c4.384-4.777,10.047-7.919,15.354-11.523c-6.693-0.106-13.408,0.023-19.98-1.249
		C1489.366,1000.904,1485.141,999.427,1480.901,1000.412 M1431.97,1007.96c2.205,7.885,16.348,20.099,23.372,24.356
		c2.362-0.182,4.467-1.438,6.662-2.249c3.642-1.598,7.67-1.787,11.599-2.09c-10.609-6.788-12.164-18.269-36.591-23.402
		C1434.612,1002.85,1430.925,1005.34,1431.97,1007.96 M1564.055,1017.06c-7.586,5.777-17.088,9.85-21.57,18.837
		c21.956,5.185,20.89,2.705,39.665-14.249c-2.036-1.295-3.876-2.839-5.678-4.406c0.734-2.582,1.431-5.171,2.15-7.753
		C1573.7,1011.889,1568.453,1013.729,1564.055,1017.06 M1499.413,1027.039c2.368,8.745,1.282,11.076,16.49,12.81
		c7.685,0.977,15.369-0.515,22.986-1.514c-0.669-5.441-2.534-3.226,7.2-14.355c-12.159,2.991-25.03,3.165-37.166-0.023
		C1505.348,1022.655,1502.358,1025.464,1499.413,1027.039 M1462.489,1037.722c2.279,4.172,5.08,8.29,9.449,10.554
		c4.649-1.81,7.223-7.2,9.668-11.357C1475.246,1035.882,1468.765,1036.465,1462.489,1037.722 M1491.902,1035.776
		c-2.4,4.679-4.853,9.335-7.215,14.037c5.474,3.619,11.455,6.466,17.694,8.502c2.863-8.762,0.579-7.833,19.639-14.309
		c-7.647-1.098-16.157-1.083-22.471-6.087C1497.452,1036.14,1494.476,1035.95,1491.902,1035.776 M1438.11,1048.821
		c-10.918,6.933-4.385,11.256,5.625,18.473c4.747,3.384,10.668,3.407,16.248,3.634c1.219-2.181,2.567-4.278,3.914-6.375
		c-6.35-5.231-17.376-8.322-16.641-16.293c5.08,2.635,8.798,7.374,14.067,9.653c3.899-0.606,7.049-3.399,9.812-6.049
		c-5.073-3.46-9.562-7.677-13.174-12.644C1451.314,1042.363,1444.644,1045.475,1438.11,1048.821 M1329.594,1049.828
		c-9.093,3.013-17.822,6.965-26.809,10.244c-25.241,8.537-101.153-23.238-112.521-5.754c-4.543,5.057-5.118,13.053-1.34,18.685
		c6.504,11.166,86.117,106.108,142.329,117.435c-8.805-11.155-6.32-7.856-5.603-14.658c2.726,0.068,5.852,0.326,7.654,2.703
		c17.229,20.556,9.782,32.413,0.78,30.504c-4.914,0.023-8.737-3.218-12.606-5.708c0.818-2.355,1.968-4.512,3.195-6.655
		c-53.432-19.302-85.001-53.811-95.115-59.016c-9.797-1.3-26.645,9.618-8.025,20.873c12.035,6.698,44.887,27.311,45.646,27.839
		c9.535,7.023,70.373,59.87,71.13,60.568c38.765,30.323,47.472,28.401,60.818,34.698c2.589,0.689,6.239,3.521,8.586,0.787
		c9.532-10.259,19.541-21.176,23.334-35.016c1.302-3.468,1.931-8.411,6.973-8.245c0.666,8.116-1.28,16.202-2.468,24.189
		c-15.169,34.848-56.878,46.739-82.04,58.131c0.983,7.518-0.405,11.365,11.72,19.715c26.955,19.235,83.116,19.477,114.959,9.911
		c30.843-7.711,34.679-20.572,42.231-16.141c-2.309,4.02-3.998,9.093-8.495,11.137c-11.061,4.618-21.002,11.584-32.563,15.051
		c18.364,24.506,10.19,5.172,36.629,55.844c7.941,17.167,11.843,42.96,2.393,61.341c-13.957,28.326-19.475,32.085-49.121,45.563
		c-7.397,2.445-13.439,7.571-20.654,10.387c-7.193,3.453-15.066,5.497-21.638,10.168c-23.681,16.691-31.827,41.549-28.437,52.96
		c0.804,2.098,9.315,11.74,28.142,8.684c8.593-2.491,17.61-3.634,25.84-7.299c44.845-18.714,81.11-29.836,126.664-14.105
		c15.631,4.398,102.482,44.802,104.254,30.746c4.407-25.271-21.396-47.297-40.286-62.795c-4.53-3.845-26.74-10.63-22.07-17.928
		c2.226-7.018,6.284-13.363,8.109-20.555c7.461-21.636,12.199-82.924-1.863-143.661c-3.99-15.354-7.987-30.716-11.084-46.267
		c-2.241-10.085-6.912-19.647-7.442-30.05c-0.151-8.192,4.588-15.013,7.556-22.266c7.121-17.863,45.878-54.046,55.708-62.363
		c19.189-18.983,25.041-17.527,21.986-30.307c-1.333-5.497-5.943-9.207-9.941-12.833c-13.709-12.169-38.871-1.437-52.475,1.969
		c-64.297,16.891-51.142,13.616-69.374,12.356c-5.133,0.288-9.032-3.195-12.878-5.966c-5.996-4.52-12.757-8.396-17.202-14.597
		c-3.437-5.133-14.442-22.173-41.217-48.182c-37.603-39.667-31.573-30.414-41.421-31.556c-10.35-0.939-19.564-7.609-25.954-15.415
		c-4.255-4.202-1.234-12.114-6.715-15.195C1392.056,1035.442,1358.135,1040.057,1329.594,1049.828 M1537.889,1042.999
		c-8.548,4.702-18.761,4.823-27.536,8.957c-2.718,1.242-3.157,4.497-4.111,6.996c22.929,5.723,40.34-7.204,51.43-16.55
		C1538.706,1040.749,1547.186,1038.48,1537.889,1042.999 M890.426,1132.277c-4.134,4.845-9.199,8.79-13.31,13.666
		c7.409,14.846,8.544,17.284,33.434,19.246c17.674,1.003,27.997-11.53,28.096-27.619c-12.659,7.91-26.498,9.446-36.485-2.4
		c5.913,0.394,11.061,3.975,17.042,3.892c17.986,0.73,17.325-5.877,24.962-33.903c-12.167,2.082-27.831,2.37-36.122-8.48
		C903.115,1108.958,898.557,1121.662,890.426,1132.277 M825.239,1381.994c3.386,5.447,30.869,36.85,37.386,43.806
		c47.189,53.91,49.443,57.029,83.698,77.513c18.657-28.707-4.437-62.294-29.451-85.591c-3.929-4.194-9.396-5.625-14.764-6.829
		c5.815,7.208,14.468,11.758,18.913,20.162c6.806,9.911,12.795,24.288,4.838,35.334c-4.134-2.021-3.869-6.875-4.497-10.781
		c-1.118-17.98-22.182-40.529-36.091-47.864c-11.977-6.064-25.015-9.615-37.325-14.892
		C839.987,1390.049,832.886,1385.454,825.239,1381.994 M964.978,1489.359c-2.604,6.375-4.982,12.848-8.76,18.685
		c12.003,0.327,11.053-1.922,11.319-3.839C967.689,1499.194,968.014,1493.629,964.978,1489.359z"/>
	<path fill="#010101" d="M222.991,47.691c24.859-2.125,22.324,25.314,7.791,29.747C202.545,84.848,205.401,49.725,222.991,47.691
		 M218.804,73.182c6.345,3.914,14.711-0.659,17.482-6.905c1.817-3.558,0.962-7.601,0.848-11.41
		C217.814,41.025,204.791,67.937,218.804,73.182z"/>
	<path fill="#010101" d="M229.078,58.457c1.31,0.613,2.62,1.234,3.937,1.832c-0.318,4.058-2.256,8.154-6.632,8.835
		C227.268,65.566,228.26,62.03,229.078,58.457z"/>
	<path fill="#010101" d="M189.67,76.453c6.261-1.658,14.552,4.929,10.834,11.629c-1.749,7.102-12.023,9.842-17.05,4.52
		C179.389,87.037,182.584,77.498,189.67,76.453 M188.671,81.329c-2.983,0.84-3.059,4.247-2.983,6.625
		c1.756,2.589,5.527,4.293,8.192,1.794c3.187-1.174,3.172-5.163,3.884-7.813C194.803,81.556,191.283,78.316,188.671,81.329z"/>
	<path fill="#010101" d="M231.326,99.939c4.217-1.098,10.925-0.416,11.955,4.815c3.627,9.04-6.746,19.935-15.831,15.755
		C219.084,115.338,222.521,102.119,231.326,99.939 M228.48,103.906c-1.143,3.309-4.119,7.662-1.507,11.023
		c2.392,3.574,8.056,2.453,10.63-0.432c2.877-2.862,1.863-7.056,1.938-10.698C235.854,103.52,232.159,103.769,228.48,103.906z"/>
	<path fill="#010101" d="M597.66,104.315c2.892-0.522,5.444,1.688,7.541,3.415c3.081,2.551-0.273,6.685-2.286,8.692
		c-3.346,4.58-10.524-0.038-10.66-4.649C593.171,108.895,594.594,105.42,597.66,104.315 M597.236,107.525
		c-0.348,1.885-2.286,4.596-0.023,5.921c2.014,1.408,4.141-0.939,5.928-1.764C601.196,110.25,599.22,108.88,597.236,107.525z"/>
	<path fill="#010101" d="M123.658,114.922c22.936-8.775,45.787,17.482,60.463,36.833c5.921,6.518,12.328,28.603,24.303,30.807
		c9.365,0.363,18.383-2.983,27.263-5.504c19.906-7.725,28.843-28.586,44.397-25.166c7.087,6.148,8.48,16.338,9.623,25.181
		c0.949,38.553-26.466,71.304-22.456,81.601c8.403,13.849,64.409,61.893,45.669,75.779c-11.235,9.797-27.089,9.562-41.081,10.206
		c-15.475,1.302-30.534-2.922-45.154-7.397c-19.44,52.668-54.056,72.252-68.003,64.884c-23.955-9.219,3.806-59.857-6.473-96.584
		c-5.845,2.582-11.432,5.958-17.807,7.102c-9.199,1.984-18.39,4.861-27.915,3.839c-4.974-0.772-10.531-0.447-14.847-3.415
		c-4.255-3.793-5.58-10.448-3.377-15.687c10.579-33.5,18.649-30.811,30.648-50.226c30.463-45.988,3.5-93.766-1.946-118.381
		C114.376,123.167,119.229,117.791,123.658,114.922 M142.707,195.872c-1.352,50.6-27.328,66.651-45.661,101.377
		c-1.544,3.172,0.591,7.026,3.831,8.131c12.916,0.825,25.28-4.172,38.151-4.179c6.905-0.485,12.871-5.11,19.935-4.694
		c8.119,20.987-0.347,59.87,1.87,89.165c0.871,2.332-0.227,6.625,2.824,7.639c12.208,5.091,27.821-13.79,33.934-20.495
		c35.164-42.822,14.51-51.978,36.735-41.921c24.004,10.604,87.461,6.682,71.781-12.629c-9.903-14.983-21.214-29.126-34.32-41.444
		c-5.489-5.625-11.765-10.857-15.331-17.989c-0.689-5.3,1.802-10.425,4.77-14.673c17.514-26.528,29.298-80.512,8.51-80.798
		c-7.342,3.979-27.53,27.416-46.63,29.739c-7.745,1.302-17.103,3.377-23.803-1.999c-9.765-5.404-23.068-48.35-49.083-62.31
		C110.209,107.586,139.679,146.248,142.707,195.872z"/>
	<path fill="#010101" d="M643.851,130.919c9.782-0.273,18.761,9.456,16.467,19.39c-1.522,10.902-13.757,18.496-24.326,16.028
		C617.121,164.541,618.692,131.95,643.851,130.919 M637.143,136.355c-8.767,1.37-12,12.099-8.979,19.541
		c4.187,6.776,14.037,9.381,20.926,5.194c8.483-7.271,11.614-19.375,0.136-24.765C645.29,135.356,641.088,135.848,637.143,136.355z"
		/>
	<path fill="#010101" d="M575.053,139.376c11.765-2.4,25.378,3.142,30.125,14.582c5.164,14.726-6.17,32.851-22.039,33.646
		c-13.416,2.143-28.27-8.048-29.156-22.047C553.415,153.307,562.864,141.269,575.053,139.376 M558.328,160.401
		c-3.833,22.097,30.601,33.874,41.172,11.69C615.199,145.634,565.121,127.917,558.328,160.401z"/>
	<path fill="#010101" d="M645.169,143.154c3.551,2.059,4.406,6.806,6.057,10.266c-2.983,1.658-5.921,3.574-9.441,3.816
		c-0.151-0.621-0.454-1.862-0.613-2.483c1.158-1.083,2.324-2.15,3.505-3.21C644.737,148.742,644.533,145.903,645.169,143.154z"/>
	<path fill="#010101" d="M586.796,155.018c13.15,5.658,7.315,24.947-8.442,17.974c2.256-3.293,6.133-5.398,7.427-9.32
		C586.674,160.878,586.417,157.895,586.796,155.018 M586.72,169.418c1.045-0.56,2.097-1.136,3.15-1.703
		c-0.098-1.128-0.189-2.256-0.273-3.369C588.476,165.943,587.545,167.654,586.72,169.418z"/>
	<path fill="#010101" d="M486.169,164.876c5.057-0.666,11.273-1.204,15.294,2.635c4.096,3.945,7.2,9.774,6.042,15.574
		c-3.374,13.473-13.058,42.44,1.007,45.616c5.443,1.198,34.15,3.547,44.314,14.68c1.484,4.633-0.371,10.213-4.187,13.302
		c-19.356,17.06-23.661,16.488-36.53,18.655c11.164,25.284,6.862,40.549-1.287,50.317c-11.742,9.693-32.116-21.77-37.499-36.5
		c-14.414,3.062-36.233,33.444-54.073,11.334c-4.926-9.287-5.624-17.434,8.669-39.15c-61.887-12.907-27.215-38.395-15.051-41.906
		c10.38-3.43,21.328-4.641,32.169-5.686c3.664-12.333,7.397-25.378,16.884-34.675C468.838,172.863,476.326,165.443,486.169,164.876
		 M468.059,186.703c-17.067,23.515-14.6,30.347-15.407,35.478c-7.541,1.401-15.498-0.977-23.054,0.969
		c-10.176,2.514-22.304,4.512-28.543,13.969c-5.686,10.475,31.202,17.14,38.703,19.889c-4.683,12.277-15.081,21.018-11.288,39.665
		c1.572,7.913,24.74-4.343,34.827-11.743c-2.529-2.044-4.891-4.285-7.17-6.594c0.379-0.341,1.128-1.03,1.507-1.37
		c3.112-3.77,7.541,2.067,11.432-0.008c4.134-0.538,7.162-6.413,11.523-3.748c1.62,2.074,0.151,4.656-0.507,6.814
		c2.406,4.928,13.465,35.496,22.812,36.773c9.375,0.513,7.431-13.322,6.98-20.669c-1.121-10.592-6.186-20.525-13.673-28.028
		c2.143-2.044,4.989-4.346,8.063-2.68c17.193,7.714,37.38-8.268,37.643-19.609c-15.011-9.776-19.631-5.839-36.765-10.123
		c-21.616-8.814-7.042-38.042-13.969-58.646C488.884,171.818,472.685,179.882,468.059,186.703z"/>
	<path fill="#010101" d="M194.372,202.693c3.278,0.023,6.549,0.356,9.736,1.128c-0.606,1.658-1.227,3.316-1.862,4.967
		c-3.044-0.992-6.08-2.021-9.176-2.832C193.501,204.866,193.933,203.776,194.372,202.693z"/>
	<path fill="#010101" d="M173.983,209.893c1.264-1.666,3.589-0.901,5.36-1.03c-1.666,3.717-3.71,7.306-6.398,10.38
		C173.226,216.298,171.855,212.498,173.983,209.893z"/>
	<path fill="#010101" d="M201.701,225.482c1.022-3.619,6.269-2.771,8.457-0.621c6.027,7.321,8.676,17.777,5.966,26.938
		c-2.264-1.09-5.913-1.045-7.018-3.876C205.63,240.912,201.58,233.545,201.701,225.482 M206.682,227.678
		c0.394,2.589,1.249,5.073,2.286,7.48c0.621-0.159,1.855-0.469,2.468-0.621C209.968,232.167,208.356,229.896,206.682,227.678z"/>
	<path fill="#010101" d="M187.013,228.389c1.219-1.454,2.302-4.005,4.52-3.975c5.98,4.063,13.878,19.344,10.168,32.548
		C193.243,255.585,186.662,239.936,187.013,228.389 M191.904,232.311c0.81,3.907,2.256,7.76,4.982,10.751
		C196.219,239.087,194.296,235.499,191.904,232.311z"/>
	<path fill="#010101" d="M473.601,233.886c0.946-3.218,6.435-1.923,6.163,1.317c0.159,6.996-1.181,13.953-2.029,20.889
		c-0.787,0.363-1.56,0.734-2.332,1.113c-1.529-1.068-3.028-2.18-4.512-3.301C471.541,247.211,471.662,240.344,473.601,233.886z"/>
	<path fill="#010101" d="M462.971,233.174c1.302-0.098,3.899-0.303,5.201-0.401c0.129,6.799,0.757,14.264-2.703,20.412
		c-2.279-0.212-4.316-1.052-6.345-1.968C459.897,245.099,461.555,239.155,462.971,233.174z"/>
	<path fill="#010101" d="M239.844,242.01c1.393,1.068,3.134,1.923,3.982,3.543c5.966,22.811,0.668,56.544-16.702,63.635
		c-9.6,2.612-20.283,2.059-29.27-2.408c-16.692-8.568-19.212-13.181-26.249-30.867c-2.218,3.498-3.437,8.699-8.888,8.146
		c-3.385-8.659,2.91-25.677,11.152-21.343c6.481,3.13,15.433,2.919,17.429,15.18c-4.172,0.522-7.632-2.021-11.145-3.793
		c13.44,34.76,57.493,40.862,59.63-15.566C239.889,253.063,237.716,247.325,239.844,242.01z"/>
	<path fill="#010101" d="M868.954,350.632c8.851-2.082,16.179,5.179,23.167,9.335c-0.326,1.802-0.651,3.604-0.969,5.413
		c-5.33-0.121-9.668-3.43-14.476-5.171c-6.488-0.628-8.729,7.745-14.809,8.813C859.037,362.4,856.037,356.559,868.954,350.632z"/>
	<path fill="#010101" d="M931.37,374.428c0.424-2.597,2.173-5.595,5.004-5.951c3.134,1.734,4.384,5.436,5.436,8.631
		c-2.082,1.461-4.096,2.983-6.133,4.49C933.467,379.788,929.765,378.175,931.37,374.428 M935.171,373.504
		c-0.219,0.954-0.409,1.923-0.598,2.892c0.795,0,1.605,0.008,2.423,0.015c0.114-0.485,0.341-1.454,0.454-1.938
		C936.678,374.148,935.921,373.822,935.171,373.504z"/>
	<path fill="#010101" d="M950.465,376.169c0.871-2.763,3.536-4.27,5.716-5.898c2.461,2.226,5.799,5.11,4.217,8.843
		c-0.379,3.869-4.959,4.384-7.935,4.815C951.562,381.431,950.086,378.895,950.465,376.169 M954.152,376.313
		c0.394,1.333,0.787,2.642,1.227,3.982c0.628-1.408,1.128-2.869,1.446-4.376C956.151,376.018,954.818,376.215,954.152,376.313z"/>
	<path fill="#010101" d="M828.146,382.567c-1.045,2.211-1.045,6.39-4.255,6.473c-1.991,0.341-4.346-0.008-5.951,1.446
		c-2.415,4.929-3.074,10.463-4.74,15.657c-6.39-1.34-6.216-8.699-6.557-13.893C805.25,387.508,808.786,376.498,828.146,382.567z"/>
	<path fill="#010101" d="M981.037,395.831c2.4,2.15-0.204,5.012-1.272,7.109c-4.626-2.612-9.35-5.285-14.877-5.186
		c1.295,2.004,20.737,24.552,17.209,51.642c-1.082,36.127-41.508,63.169-74.363,50.772c-3.566-1.696-7.238-4.285-7.291-8.722
		c3.632,0.09,33.846,7.272,51.529-4.777c23.458-17.519,29.251-55.871,1.726-82.502c-4.982,0.477-5.784,7.147-8.919,10.266
		c-2.188,2.726-6.413-1.809-4.285-4.429C940.369,395.503,961.039,372.129,981.037,395.831z"/>
	<path fill="#010101" d="M925.934,392.523c1.446-3.316,5.398-4.278,8.51-5.194c5.963,15.002-4.947,14.036-8.313,11.932
		C923.58,397.747,924.942,394.59,925.934,392.523 M929.584,392.523c-0.545,1.461-1.068,2.93-1.544,4.422
		c1.908-0.772,3.732-1.764,5.421-2.96C932.15,393.484,930.871,393.007,929.584,392.523z"/>
	<path fill="#010101" d="M344.105,404.334c7.064-0.871,16.073,3.543,16.755,11.281c1.711,9.388-5.625,20.245-15.581,20.124
		c-4.989,0.121-11.5-0.719-13.719-5.966C324.3,419.121,332.882,405.584,344.105,404.334 M334.936,413.245
		c-7.988,13.099,4.376,24.148,17.118,15.581c5.837-3.558,6.814-12.159,3.475-17.731
		C352.358,406.889,342.335,405.474,334.936,413.245z"/>
	<path fill="#010101" d="M899.723,406.332c2.165,3.831,2.559,8.245,2.498,12.576c1.613-0.583,3.24-1.128,4.891-1.635
		c-0.469,4.671-2.597,9.456-1.181,14.173c1.999,8.472,5.292,17.875,0.984,26.226c-0.871-0.114-1.734-0.22-2.582-0.318
		c2.461-13.09-0.606-27.4-9.085-37.787c-2.521-3.097-6.276-4.732-9.593-6.799c-8.786,9.796,0.508,27.285,3.422,36.538
		c-9.157-0.527-10.856-23.478-9.615-32.919c0.992-2.703,2.688-5.073,4.187-7.518c4.55,0.666,9.07,2.006,12.818,4.77
		C897.406,411.14,898.398,408.657,899.723,406.332z"/>
	<path fill="#010101" d="M348.754,414.426c1.348,0.31,2.695,0.613,4.066,0.878c-2.714,5.846-0.648,6.615-10.493,9.479
		c0.008-0.636,0.023-1.915,0.03-2.559C345.278,420.354,347.497,417.659,348.754,414.426z"/>
	<path fill="#010101" d="M844.5,427.796c7.269-14.219,29.177,8.954,24.901,30.625c-1.03,0-2.044,0.008-3.051,0.023
		c1.635-12.538-4.944-26.461-16.899-31.518c-5.439,11.844-2.351,11.359,3.475,31.488c-1.12-0.023-2.233-0.038-3.331-0.053
		c-2.816-5.232-4.194-11.031-6.254-16.558c-1.544-2.196-3.96-3.604-5.671-5.663c1.779-0.765,3.581-1.499,5.368-2.256
		c-2.15-1.794-4.406-3.498-6.594-5.224c0.553-0.863,1.128-1.711,1.719-2.551C840.275,426.714,842.334,427.213,844.5,427.796z"/>
	<path fill="#010101" d="M274.489,433.899c9.948-2.127,20.51,2.529,26.635,10.418c8.048,12.568,1.628,31.079-11.834,36.879
		c-19.155,8.318-42.843-8.016-33.79-32.336C259.067,441.348,266.259,435.428,274.489,433.899 M278.956,436.76
		c-10.509,0.401-20.427,8.472-21.721,19.102c-1.643,10.758,6.413,21.858,17.232,23.44c11.841,1.893,25.121-7.049,26.203-19.352
		C303.395,447.451,291.236,435.632,278.956,436.76z"/>
	<path fill="#010101" d="M895.271,446.641c6.89-1.31,7.011,10.948,0.53,10.955C890.017,456.93,889.54,447.754,895.271,446.641z"/>
	<path fill="#010101" d="M274.421,466.666c2.612-6.223,5.852-13.529,12.75-15.778c2.49,10.972,1.212,8.899-3.96,17.61
		C280.258,467.961,277.336,467.355,274.421,466.666 M280.856,464.41c2.551-1.878,3.604-4.906,4.005-7.927
		C282.484,458.482,281.136,461.329,280.856,464.41z"/>
	<path fill="#010101" d="M857.091,454.25c2.96,0.167,6.769,0.636,7.882,3.937c0.409,2.256,0.674,6.617-2.438,7.306
		c-2.256,0.689-4.422-0.75-6.458-1.522C856.371,460.708,856.727,457.49,857.091,454.25z"/>
	<path fill="#010101" d="M1669.027,471.739c8.078-1.333,16.134,3.96,18.731,11.637c6.148,13.159-4.558,28.581-17.815,31.549
		c-18.923,5.891-41.044-20.264-16.467-37.643C1658.193,474.381,1663.47,472.284,1669.027,471.739 M1649.759,484.875
		c-8.011,10.069,1.245,26.958,13.635,26.491c9.282-0.28,19.223-6.345,21.093-15.93
		C1687.562,482.794,1671.839,464.111,1649.759,484.875z"/>
	<path fill="#010101" d="M979.908,481.18c1.809-0.447,3.649,0.038,5.459,0.318c1.344,23.359-13.837,35.914-23.675,32.169
		c-12.111-5.246-9.751-6.333-8.722-11.705c5.398,1.121,12.03,6.057,17.012,1.234C978.107,499.002,977.736,488.819,979.908,481.18z"
		/>
	<path fill="#010101" d="M1670.208,485.67c3.649,0.757,7.412,0.992,10.993,2.067c-6.962,19.204-11.8,16.854-18.39,16.838
		c-1.984-1.014-3.142-3.051-4.437-4.762c3.172-1.317,6.89-1.931,9.403-4.459C1669.807,492.582,1669.391,488.834,1670.208,485.67
		 M1674.047,490.265c-1.514,5.11-5.08,9.078-8.964,12.538c5.376-2.006,9.956-6.102,11.712-11.675
		C1675.834,490.825,1674.948,490.545,1674.047,490.265z"/>
	<path fill="#010101" d="M1676.651,558.057c7.064-2.021,14.529,1.196,18.988,6.678c9.411,18.355-20.977,33.728-30.943,12.825
		C1662.168,569.148,1668.263,559.919,1676.651,558.057 M1677.386,561.744c-3.006,0.432-5.481,2.521-7.722,4.369
		c-2.756,2.551-1.658,6.806-1.416,10.1c2.12,3.195,5.3,5.799,8.941,7.109c4.626,0.182,10.94,0.371,13.492-4.505
		C1698.755,570.199,1687.491,559.378,1677.386,561.744z"/>
	<path fill="#010101" d="M1683.519,567.664c2.65,0.727,5.345,1.628,7.881,2.763c-0.227,4.77-3.854,7.707-7.98,9.1
		c-1.09-0.961-2.173-1.9-3.271-2.816C1685.253,571.155,1683.519,573.381,1683.519,567.664z"/>
	<path fill="#010101" d="M1468.326,599.788c5.837,4.467,12.106,9.206,13.393,17.073c-1.893,0.326-4.111,1.756-5.89,0.432
		c-5.943-4.512-12.636-7.942-18.405-12.651C1452.886,601.478,1454.805,590.664,1468.326,599.788z"/>
	<path fill="#010101" d="M700.566,661.833c10.527-0.181,20.82,8.704,16.997,29.663c-7.43,21.859-37.382,24.152-46.782,5.482
		c-5.101-12.725,0.461-25.672,6.17-29.542C683.577,662.083,692.526,662.25,700.566,661.833 M679.314,670.563
		c-14.398,14.997-3.448,35.596,14.529,35.054c14.695-0.908,25.159-18.276,18.981-31.7
		C704.404,660.846,682.467,666.725,679.314,670.563z"/>
	<path fill="#010101" d="M695.6,689.846c3.369-3.854,2.188-9.835,6.087-13.348c2.703,2.9,6.261,6.004,5.421,10.509
		c-2.588,14.269-8.918,14.946-19.284,9.646C690.262,694.207,693.321,692.443,695.6,689.846 M694.222,697.925
		c4.442-2.734,8.798,1.077,9.676-14.12C700.589,688.453,697.553,693.291,694.222,697.925z"/>
	<path fill="#010101" d="M751.459,701.089c7.882-1.181,17.891,4.785,17.451,13.62c0.068,7.064-4.066,13.969-10.652,16.687
		C732.852,740.626,727.481,703.259,751.459,701.089 M739.656,716.595c-1.143,6.7,5.739,12.636,12.182,11.425
		c8.934,0.659,16.126-10.615,11.576-18.42C756.705,700.985,739.986,703.994,739.656,716.595z"/>
	<path fill="#010101" d="M754.094,710.841c4.467,2.037,5.875,7.957,3.263,12.023c-1.658,2.582-5.05,2.514-7.738,2.877
		c0.348-3.581,4.414-4.497,6.004-7.359c-2.476,0.454-5.277,3.46-7.632,1.855C749.438,716.761,752.383,714.187,754.094,710.841z"/>
	<path fill="#010101" d="M703.595,737.453c26.251-2.977,14.529,38.037-8.215,24.25C688.187,753.474,691.155,739.791,703.595,737.453
		 M702.974,741.155c-6.912,1.37-10.607,11.561-5.095,16.581c5.287,5.286,20.115-0.902,16.437-12.613
		C712.165,741.299,706.986,740.171,702.974,741.155z"/>
	<path fill="#010101" d="M707.426,748.355c0.81,0.31,1.628,0.628,2.453,0.961c-1.052,3.119-2.544,6.064-4.263,8.866
		c-1.06-0.628-2.135-1.257-3.187-1.847C704.162,753.716,705.957,751.142,707.426,748.355z"/>
	<path fill="#010101" d="M47.326,760.931c23.334-2.586,26.594,29.337,3.15,34.842c-7.124,2.62-15.71-0.583-19.594-7.026
		C24.75,777.065,33.948,760.939,47.326,760.931 M33.244,783.326c1.022,4.838,5.595,8.056,10.304,8.676
		c10.713,2.817,21.222-9.002,18.519-19.268C54.602,759.134,29.655,763.713,33.244,783.326z"/>
	<path fill="#010101" d="M738.596,765.443c5.05-1.575,11.349,3.187,10.327,8.76c0.03,4.717-3.861,10.123-9.184,9.063
		C726.542,784.63,728.674,768.784,738.596,765.443 M734.674,774.4c-1.242,3.324,3.187,6.61,6.276,4.732
		c4.157-0.644,5.315-5.497,5.557-8.979C743.758,769.413,738.275,766.798,734.674,774.4z"/>
	<path fill="#010101" d="M52.089,772.121c2.574,1.219,6.345,2.748,4.823,6.617c-0.159,4.694-5.519,6.943-9.54,7.177
		C46.91,780.654,52.111,777.353,52.089,772.121z"/>
	<path fill="#010101" d="M88.195,814.633c14.751-2.986,26.558,7.946,28.096,12.962c10.937,37.333-39.971,48.391-48.356,20.238
		C62.862,833.681,73.22,816.344,88.195,814.633 M76.066,825.134c-10.092,12.213-5.717,26.756,6.488,32.374
		c15.267,7.847,35.016-8.492,30.474-25.159C108.085,815.275,85.469,815.235,76.066,825.134z"/>
	<path fill="#010101" d="M96.902,829.411c1.052-0.015,2.105-0.015,3.157-0.008c2.112,3.513,5.103,6.92,4.543,11.387
		c-0.681,8.411-10.319,13.408-18.034,11.682C88.877,844.198,97.303,838.527,96.902,829.411 M92.435,848.634
		c7.771-4.667,7.205-1.212,7.972-11.796C97.598,840.662,95.123,844.712,92.435,848.634z"/>
	<path fill="#010101" d="M1138.833,833.416c0.643-0.833,2.203-0.833,2.877,0C1141.717,834.719,1138.803,834.719,1138.833,833.416z"
		/>
	<path fill="#010101" d="M1163.091,847.695c1.136,0.326,0.326,2.044-0.674,1.613C1161.251,848.96,1162.084,847.294,1163.091,847.695
		z"/>
	<path fill="#010101" d="M1158.291,848.483c0.326-0.977,2.143-0.583,1.817,0.5C1159.744,849.929,1157.935,849.543,1158.291,848.483z
		"/>
	<path fill="#010101" d="M1148.35,867.706c8.487-1.961,17.08-3.823,25.848-3.907C1169.845,866.535,1150.983,867.598,1148.35,867.706
		z"/>
	<path fill="#010101" d="M1139.999,869.5c2.703-0.666,5.436-1.28,8.199-1.84C1145.48,868.395,1142.785,869.152,1139.999,869.5z"/>
	<path fill="#010101" d="M1138.099,868.758c2.529-0.409,0.015,3.225-0.621,0.856C1137.637,869.402,1137.939,868.97,1138.099,868.758
		z"/>
	<path fill="#010101" d="M1102.848,880.857c2.915-0.931,5.913-1.582,8.949-2.059
		C1108.851,879.683,1105.884,880.456,1102.848,880.857z"/>
	<path fill="#010101" d="M1169.685,939.934c2.112-1.257,4.3-2.445,6.541-3.505C1174.106,937.716,1171.881,938.828,1169.685,939.934z
		"/>
	<path fill="#010101" d="M1168.383,940.047c0.977,0.5,0.969,1.007-0.015,1.537C1167.368,941.062,1167.376,940.555,1168.383,940.047z
		"/>
	<path fill="#010101" d="M1164.696,941.501c2.415-0.651,1.045,2.211-0.575,1.923C1162.462,943.47,1163.643,941.456,1164.696,941.501
		z"/>
	<path fill="#010101" d="M1189.529,964.404c1.249,0.401,0.204,2.211-0.848,1.847
		C1187.409,965.827,1188.446,964.017,1189.529,964.404z"/>
	<path fill="#010101" d="M1185.819,966.569c1.885-0.212,0.636,2.551-0.719,2.052
		C1183.941,968.182,1184.903,966.622,1185.819,966.569z"/>
	<path fill="#010101" d="M1142.263,970.324c2.127-1.264,4.429-2.203,6.829-2.854C1146.979,968.78,1144.663,969.719,1142.263,970.324
		z"/>
	<path fill="#010101" d="M1181.193,969.787c1.461,0.78-0.818,2.703-1.734,1.658C1178.914,970.46,1180.292,969.506,1181.193,969.787z
		"/>
	<path fill="#010101" d="M1177.733,972.951c-1.976,1.09-4.043,2.029-6.08,2.938C1173.614,974.799,1175.651,973.845,1177.733,972.951
		z"/>
	<path fill="#010101" d="M1142.308,977.85c1.703-0.757,3.452-1.416,5.232-1.991C1145.851,976.676,1144.095,977.32,1142.308,977.85z"
		/>
	<path fill="#010101" d="M1168.406,977.184C1171.426,976.487,1167.709,980.204,1168.406,977.184z"/>
	<path fill="#010101" d="M1038.387,1061.45c6.95-2.082,16.248,0.984,17.921,8.737c1.87,8.797-5.921,18.981-15.218,18.246
		c-6.958,0.924-13.537-5.232-12.878-12.212C1026.978,1069.475,1032.081,1063.168,1038.387,1061.45 M1031.975,1070.164
		c-2.726,5.58,1.211,13.355,7.624,13.62c7.041,1.257,14.544-6.049,12.371-13.083
		C1048.509,1063.369,1035.693,1062.155,1031.975,1070.164z"/>
	<path fill="#010101" d="M1401.784,1075.343c1.389-12.838,31.628-1.702,13.015,24.053c-2.362-4.558-3.907-9.418-5.746-14.158
		C1407.507,1081.324,1403.146,1079.325,1401.784,1075.343z"/>
	<path fill="#010101" d="M1346.621,1082.883c-1.022-8.502,9.055-14.234,16.316-11.152c17.307,10.198-1.737,19.352-4.262,21.426
		C1353.912,1090.901,1347.848,1088.668,1346.621,1082.883 M1354.578,1081.331c1.741-0.106,3.513-0.204,5.277-0.341
		c-0.053-0.802-0.167-2.408-0.22-3.218C1357.826,1078.78,1356.092,1079.915,1354.578,1081.331z"/>
	<path fill="#010101" d="M1618.332,1071.284c13.826-3.12,19.993,13.844,10.274,19.344c-5.769,5.171-16.391,2.968-19.223-4.293
		C1606.483,1079.953,1611.586,1072.004,1618.332,1071.284 M1617.567,1075.032c-3.687,0.765-5.943,5.224-4.853,8.714
		c1.802,6.822,13.295,7.215,15.74,0.666C1631.271,1078.53,1622.791,1073.147,1617.567,1075.032z"/>
	<path fill="#010101" d="M1040.386,1079.408c1.522-3.331,3.846-6.261,6.685-8.563c0.939,2.37,2.302,5.489-0.046,7.548
		C1045.482,1080.627,1042.589,1079.529,1040.386,1079.408z"/>
	<path fill="#010101" d="M1375.073,1081.18c2.181-4.793,7.897-6.405,12.742-6.428c5.148,0.507,8.593,5.042,12.015,8.457
		c27.662,37.582-46.275,95.611-72.569,51.347c-6.952-12.163,1.579-41.65,16.005-46.441c-1.277,9.651-8.292,6.354-12.25,31.314
		c-2.491,14.385,13.022,29.096,27.309,24.28c35.578-5.665,53.125-50.365,28.164-61.401
		C1382.682,1081.573,1378.881,1081.521,1375.073,1081.18z"/>
	<path fill="#010101" d="M1581.233,1075.88c8.328-2.529,18.125,1.613,21.116,9.971c1.522,6.36-0.992,13.749-6.489,17.467
		c-9.04,7.776-24.689,1.794-27.422-9.373C1567.711,1086.056,1573.14,1077.258,1581.233,1075.88 M1573.322,1090.606
		c-0.803,7.564,7.95,13.28,14.839,11.031c7.23-0.893,13.476-9.827,8.692-16.361
		C1591.682,1074.849,1570.751,1077.767,1573.322,1090.606z"/>
	<path fill="#010101" d="M1619.134,1086.321c1.325-2.468,2.536-5.057,4.369-7.2c1.567,0.545,3.566,1.741,2.597,3.695
		C1625.494,1086.056,1621.625,1085.881,1619.134,1086.321z"/>
	<path fill="#010101" d="M1582.785,1094.717c4.141-2.097,6.829-5.709,8.699-9.888c1.06,2.711,2.15,6.118-0.371,8.419
		C1589.266,1096.231,1585.587,1095.936,1582.785,1094.717z"/>
	<path fill="#010101" d="M1078.522,1094.785c8.359-2.181,18.269,5.459,16.656,14.332c-1.052,11.682-15.907,16.846-25,10.675
		C1062.433,1111.79,1066.885,1096.004,1078.522,1094.785 M1078.484,1099.191c-12.239-0.345-11.781,20.785,2.998,18.504
		c7.405-0.348,12.091-10.448,7.079-16.217C1085.616,1099.525,1082.042,1098.177,1078.484,1099.191z"/>
	<path fill="#010101" d="M1079.922,1115.34c0.469-3.937,1.734-7.723,3.104-11.417c1.302,0.681,2.627,1.378,3.96,2.067
		c-0.863,2.09-0.106,5.459-2.196,7.094C1083.322,1114.129,1081.55,1114.636,1079.922,1115.34z"/>
	<path fill="#010101" d="M1014.925,1110.707c12.235-3.543,25.356,9.32,22.41,21.57c-2.143,4.527-4.52,9.615-9.1,12.129
		c-8.336,5.678-20.601,2.188-26.188-5.701C995.437,1128.105,1002.349,1112.335,1014.925,1110.707 M1004.908,1121.783
		c-6.215,15.628,9.27,21.877,15.778,20.298c8.003-1.067,15.097-9.214,12.182-17.466
		C1026.061,1108.271,1007.885,1113.759,1004.908,1121.783z"/>
	<path fill="#010101" d="M1028.076,1124.539c1.037,1.015,2.097,2.006,3.21,2.983c-0.606,3.717-0.712,8.919-5.315,10.077
		c-3.619,1.923-7.45-0.462-10.282-2.665C1019.861,1131.52,1023.639,1127.636,1028.076,1124.539 M1022.92,1135.003
		c1.855-1.31,3.324-3.081,4.149-5.201C1025.494,1131.369,1024.116,1133.125,1022.92,1135.003z"/>
	<path fill="#010101" d="M887.17,1185.509c5.747,0.227,10.433,4.406,14.279,8.26c-0.144,1.681-0.31,3.778-0.825,5.512
		c-19.84-3.214-28.158-5.19-41.906,11.054c-3.68,4.331-6.375,9.449-8.162,14.839c-1.756-0.908-4.179-1.62-4.52-3.876
		c-1.696-5.489,2.067-10.107,4.528-14.567C860.314,1191.12,868.691,1184.397,887.17,1185.509z"/>
	<path fill="#010101" d="M1009.277,1232.018c-1.696,0.545-3.399,0.977-5.118,1.287c-3.582-8.437-5.164-13.063-16.618-17.928
		c-6.329-2.87-13.234,2.551-19.397-1.03C979.421,1180.387,1007.925,1215.107,1009.277,1232.018z"/>
	<path fill="#010101" d="M907.075,1226.37c-9.922,3.371-22.146-8.973-31.685,20.571c-2.377,6.329-1.234,13.219-1.287,19.844
		c0,17.732,16.475,36.752,33.729,33.532c18.902-2.108,15.373-36.271,15.536-47.319c0.886-0.182,1.794-0.333,2.71-0.477
		c14.075,37.731-7.609,65.976-36.901,51.309c-29.356-15.947-25.74-58.087-12.053-75.044
		C884.588,1218.096,903.911,1215.503,907.075,1226.37z"/>
	<path fill="#010101" d="M914.896,1226.469c5.667-0.444,13.763,9.411,9.623,17.103c-3.769,11.291-23.525,10.488-21.123-7.488
		C904.493,1230.587,909.369,1226.696,914.896,1226.469 M913.192,1234.441c-0.015,1.143-0.053,3.437-0.068,4.58
		c1.386-0.023,4.149-0.068,5.534-0.091c-0.371-1.227-0.734-2.438-1.098-3.642C916.099,1234.994,914.638,1234.714,913.192,1234.441z"
		/>
	<path fill="#010101" d="M981.105,1242.595c1.741-1.075,3.422,0.712,4.959,1.416c-30.913,32.741,18.774,85.467,20.207,38.946
		c0.53-7.314-0.522-14.589-2.339-21.646c-6.224,7.094-21.517,3.884-19.655-7.117c-0.727-6.806,7.912-12.386,13.643-8.359
		c4.497,2.582,6.261,7.654,5.86,12.621c15.862,7.392,11.425,62.243-15.157,48.167c-6.867-1.779-9.88-8.654-13.06-14.264
		c-4.005-6.761-3.732-14.817-5.012-22.32C969.306,1263.103,972.419,1247.568,981.105,1242.595 M993.408,1250.81
		c-0.356,1.34-0.681,2.695-0.992,4.073c1.325-0.091,3.967-0.265,5.292-0.356C996.353,1253.179,994.907,1251.945,993.408,1250.81z"/>
	<path fill="#010101" d="M1272.856,1314.709c4.111-1.666,8.366-3.339,12.863-3.475c40.714,5.507,18.481,51.685-6.897,40.619
		c-12.303-3.301-17.928-19.564-11.273-30.125c0.311,6.534-0.878,14.067,3.687,19.511c6.148,9.365,21.237,10.766,28.46,1.946
		c13.13-16.194-4.773-35.56-27.006-26.317C1272.735,1316.322,1272.818,1315.247,1272.856,1314.709z"/>
	<path fill="#010101" d="M1292.563,1324.658c2.521,1.264,4.777,2.975,7.064,4.633c-1.513,9.283-3.024,13.528-12.507,14.832
		c-1.794,0.204-2.468-1.855-3.483-2.922C1290.73,1336.751,1289.19,1338.415,1292.563,1324.658z"/>
	<path fill="#010101" d="M1273.091,1381.706c6.398-2.158,17.073,2.423,14.423,10.547c-1.711,9.805-15.846,12.318-21.986,5.481
		C1261.378,1391.624,1266.027,1382.66,1273.091,1381.706 M1271.955,1384.621c-1.741,2.862-3.475,5.754-4.982,8.752
		c3.354,1.711,6.526,5.391,10.751,3.558c3.679-0.772,7.003-5.186,4.967-8.805
		C1280.578,1384.469,1275.362,1385.385,1271.955,1384.621z"/>
	<path fill="#010101" d="M172.166,1405.093c12.33-1.789,20.352,25.495,4.535,34.055c-3.922,2.022-7.17-1.257-9.85-3.498
		c-4.868-4.906-10.259-11.023-8.374-18.579C159.303,1410.203,165.42,1405.282,172.166,1405.093 M162.619,1415.291
		c-2.09,6.027,2.112,12.015,6.632,15.695c7.52,1.962,17.51-7.689,7.7-19.859C174.257,1407.786,164.313,1408.929,162.619,1415.291z"
		/>
	<path fill="#010101" d="M175.308,1415.564c2.377,3.914,1.31,8.427-0.318,12.379c-1.325-0.644-2.635-1.264-3.96-1.87
		C172.332,1422.514,173.514,1418.903,175.308,1415.564z"/>
	<path fill="#010101" d="M266.168,1421.182c7.056-2.438,16.664,2.786,15.574,10.933c3.383,17.093-29.506,24.476-26.945,0.538
		C255.735,1426.936,260.482,1422.166,266.168,1421.182 M266.161,1424.922c-7.329,1.295-10.993,11.962-4.656,16.755
		C274.83,1450.284,290.073,1420.96,266.161,1424.922z"/>
	<path fill="#010101" d="M265.971,1438.565c0.772-3.059,2.741-5.61,5.716-6.746c-0.462,1.999,0.575,5.512-2.074,6.201
		C268.447,1438.444,267.183,1438.391,265.971,1438.565z"/>
	<path fill="#010101" d="M306.015,1451.049c4.329-11.487,25.353-13.529,25.991,3.157c-0.106,6.647-5.118,12.53-11.334,14.461
		c-3.99,1.03-7.98-0.348-11.917-0.742C305.318,1463.193,302.956,1456.554,306.015,1451.049 M308.945,1456.304
		c-1.075,4.452,3.119,8.684,7.594,7.579c7.783,0.848,13.318-8.048,10.471-14.991
		C319.229,1442.742,307.627,1448.701,308.945,1456.304z"/>
	<path fill="#010101" d="M319.529,1453.601c0.878-0.167,1.764-0.318,2.65-0.447c0.063,5.413,1.064,4.861-4.588,9.494
		c-0.856-0.901-1.703-1.764-2.551-2.627C316.773,1458.068,318.341,1455.918,319.529,1453.601z"/>
	<path fill="#010101" d="M269.174,1478.593c11.145-2.37,23.258,8.578,20.071,20.101c-1.984,11.107-14.877,17.769-25.25,14.075
		C244.117,1505.447,250.921,1480.799,269.174,1478.593 M255.985,1500.246c0.825,4.422,5.035,6.731,8.586,8.767
		c9.373,3.21,21.843-4.301,20.866-14.862c0.999-4.664-3.309-7.639-6.201-10.365C272.869,1477.845,252.411,1484.005,255.985,1500.246
		z"/>
	<path fill="#010101" d="M130.631,1486.172c12.568-5.39,21.295,28.325-1.007,26.877c-4.475-0.992-3.21-6.814-5.247-9.948
		C120.925,1496.968,123.961,1488.496,130.631,1486.172 M132.713,1505.417c3.006,0.235,5.33-2.37,7.874-3.551
		c-1.113-3.891-2.249-7.866-4.444-11.296C130.726,1484.242,118.921,1496.966,132.713,1505.417z"/>
	<path fill="#010101" d="M273.989,1493.962c1.507-0.757,3.218-0.893,4.868-1.083c0.053,3.566,1.597,7.98-1.189,10.902
		c-3.112,2.074-7.223,1.068-10.758,1.613C269.083,1501.458,271.286,1497.543,273.989,1493.962 M275.859,1497.816
		c-1.015,0.31-1.794,1.84-1.151,2.794C276.041,1501.117,277.26,1498.263,275.859,1497.816z"/>
	<path fill="#010101" d="M347.164,1496.105c17.685-3.257,37.924,14.885,20.692,36.515c-16.207,18.991-50.951,1.469-39.862-23.273
		C331.635,1502.101,339.153,1497.066,347.164,1496.105 M333.823,1507.689c-10.165,12.282,1.366,36.165,25.038,26.536
		c10.991-6.064,17.053-21.478,3.074-31.692C352.491,1494.884,338.085,1500.479,333.823,1507.689z"/>
	<path fill="#010101" d="M352.933,1511.504c10.998,6.581,5.907,18.747-0.825,19.768c-3.642,2.264-6.201-1.938-9.047-3.301
		c2.4-2.498,5.958-4.02,7.283-7.404C351.426,1517.584,351.79,1514.442,352.933,1511.504 M349.874,1528.426
		c4.081-0.803,5.86-4.891,5.451-8.798C353.425,1522.482,351.403,1525.322,349.874,1528.426z"/>
	<path fill="#010101" d="M1320.046,1524.829c10.108-1.961,21.737,4.603,23.561,15.074c3.271,12.666-8.215,27.211-21.585,25.348
		C1295.347,1565.143,1293.942,1526.38,1320.046,1524.829 M1315.496,1527.843c-2.657,0.795-4.641,2.877-6.526,4.793
		c-2.748,3.218-7.2,6.579-5.262,11.493c0.439,10.418,11.296,19.511,21.706,16.989c10.622-1.363,18.216-13.545,14.635-23.697
		c-2.097-3.399-5.86-5.398-9.025-7.586C1326.558,1526.601,1320.599,1527.275,1315.496,1527.843z"/>
	<path fill="#010101" d="M1327.602,1536.375c2.801,1.9,5.595,3.74,8.434,5.633c-2.515,12.615-7.591,16.945-17.807,9.82
		c2.37-1.696,5.292-2.71,7.223-4.966C1327.36,1543.734,1327.05,1539.866,1327.602,1536.375 M1331.433,1541.622
		c-1.416,3.172-2.93,6.345-4.126,9.623C1330.116,1548.853,1332.213,1545.438,1331.433,1541.622z"/>
	<path fill="#010101" d="M1230.693,1561.178c7.298-1.862,16.278,0.242,19.919,7.389c3.71,8.639-1.575,19.821-10.721,22.342
		c-8.692,2.052-19.465-2.355-22.289-11.341C1216.065,1571.248,1222.728,1562.882,1230.693,1561.178 M1226.597,1566.864
		c-6.837,4.278-5.761,16.543,2.234,18.95c7.238,4.035,17.535-1.151,18.572-9.426
		C1249.419,1566.646,1234.682,1560.012,1226.597,1566.864z"/>
	<path fill="#010101" d="M1245.941,1573.262c-2.619,7.539-0.63,8.297-13.34,8.184c0.038-0.977,0.091-1.931,0.167-2.862
		C1242.308,1573.748,1235.864,1573.262,1245.941,1573.262z"/>
	<path fill="#010101" d="M1270.683,1581.431c5.307-4.225,14.377-4.27,18.754,1.31c3.96,8.01-4.013,16.709-12.136,15.869
		c-4.126,0.59-7.117-2.506-10.289-4.429C1266.655,1589.63,1267.503,1584.914,1270.683,1581.431 M1276.112,1582.271
		c-3.642,0.924-5.247,5.088-4.694,8.547c1.946,4.02,7.155,4.581,10.925,2.983c2.794-1.756,3.816-5.095,4.921-7.965
		C1283.895,1583.816,1280.442,1580.492,1276.112,1582.271z"/>
	<path fill="#010101" d="M1275.218,1589.797c1.908-2.029,3.823-5.232,7.079-4.603
		C1285.31,1590.796,1278.489,1591.621,1275.218,1589.797z"/>
</g>
</svg>
