<?xml version="1.0" encoding="UTF-8" standalone="no"?>
<svg id="svg4354" xmlns:rdf="http://www.w3.org/1999/02/22-rdf-syntax-ns#" xmlns="http://www.w3.org/2000/svg" height="1737" viewBox="0 0 1933 1737" width="1933" version="1.1" xmlns:cc="http://creativecommons.org/ns#" xmlns:dc="http://purl.org/dc/elements/1.1/">
<path id="path4366" d="m886 1736c-188.75-7.5712-271.97-50.305-238.03-122.23l2.2404-4.7471-11.723-18.015c-6.4479-9.9081-12.094-18.244-12.547-18.524-0.45318-0.2801-9.0641 4.5914-19.135 10.826-10.071 6.2342-18.811 11.632-19.422 11.994-0.71014 0.4215-3.7475-5.6608-8.4194-16.859-8.753-20.981-3.9031-18.541-32.373-16.29-13.147 1.0395-24.021 1.7713-24.165 1.6262-0.14393-0.1451-5.5365-11.289-11.983-24.764-6.447-13.475-11.902-24.704-12.123-24.954-0.22056-0.2497-9.9506 9.0878-21.622 20.75-23.527 23.508-22.218 22.725-32.765 19.593-26.128-7.7591-61.816-39.195-104.89-92.389-5.1213-6.325-9.6059-11.618-9.9659-11.761-0.35993-0.1438-7.7415 8.5144-16.403 19.24l-15.749 19.502-19.661-13.133-19.661-13.133-6.724 1.744-6.724 1.744-30.658-25.102c-16.87-13.8-31.26-25.1-31.99-25.1-0.72822 0-7.9704 1.5901-16.094 3.5336-11.66 2.7897-14.943 3.2634-15.594 2.25-0.45349-0.706-8.9977-16.134-18.987-34.284-9.9894-18.15-18.682-33.574-19.316-34.275-0.91522-1.0118-5.5463 1.2205-22.442 10.817-11.709 6.6506-21.397 11.949-21.529 11.775-0.13211-0.1745-4.4025-10.762-9.4898-23.528l-9.2496-23.21-18.745 9.3824-18.745 9.3824-5.2278-6.9859c-2.8753-3.8422-5.0874-7.4055-4.9158-7.9185 0.50989-1.5239 47.181-27.974 47.948-27.174 0.38761 0.4039 6.6426 12.209 13.9 26.234s13.495 25.83 13.862 26.232c0.36661 0.4028 11.002-5.0715 23.634-12.165 12.632-7.0936 23.252-12.598 23.599-12.232 0.34716 0.3658 6.3799 16.316 13.406 35.446l12.775 34.78 11.498-0.2804 11.498-0.2804 5.4207-18c27.5-91.316 43.185-190.03 56.723-357 1.3824-17.05 2.7373-32.908 3.0107-35.24 0.48631-4.1476 0.40487-4.2871-3.7324-6.3912-43.921-22.338-72.611-58.253-72.712-91.021-0.0231-7.5214 15.325-48.999 19.111-51.649 53.88-37.7 131.35-116.11 183.49-185.7 20.47-27.32 160.4-219.03 162.31-222.38 0.64803-1.1324 1.9372-1.1768 7.2591-0.25 23.49 4.0906 36.936-5.0789 38.511-26.262 0.53321-7.1688-6.0724-67.424-7.5314-68.699-0.37002-0.32351-4.0937-1.8074-8.2748-3.2975-36.118-12.872-45.864-31.864-37.425-72.932l4.8398-23.553 29.594-10.091c16.276-5.5498 32.352-11.068 35.724-12.263l6.1306-2.1721 0.56559-5.48c1.5255-14.78 27.828-53.701 57.614-85.254l7.9013-8.3699-0.8972 4c-1.4122 6.2959-1.0942 20.507 0.60474 27.029l1.5496 5.9495-7.2996 6.717-7.2996 6.7171 16.713 0.0435c14.62 0.0381 17.375-0.21653 22-2.0333 7.7919-3.0608 25.571-13.913 28.779-17.566l2.7844-3.1712 3.1031 1.8871c1.7067 1.0379 6.8929 7.0089 11.525 13.269 24.846 33.578 56.974 31.931 90.467-4.6389l2.3707-2.5885 6.7155 5.7799c37.433 32.218 46.023 32.316 83.532 0.95732 46.87-39.184 53.725-63.107 22.191-77.441l-6.38-2.926-0.57-10c-2.1-36.714-22.95-55.576-63.21-57.181-33.268-1.3261-47.284 7.8116-64.781 42.233-16.603 32.663-14.012 30.753-28.53 21.031-27.53-18.436-48.415-8.5298-60.585 28.736-0.70334 2.1538-1.9242 1.8834-12.104-2.6806-5.8062-2.6032-8.1512-3.1146-13.75-2.9989-3.7125 0.07669-6.75-0.0449-6.75-0.27019 0-1.3793 16.318-10.696 21.581-12.322 5.5166-1.7039 8.8318-4.0114 25.862-18.001 10.75-8.825 20.09-16.046 20.77-16.046 0.67544 0 8.3798 2.3625 17.121 5.25 15.64 5.1665 15.915 5.2182 17.316 3.25 0.783-1.1 4.7339-6.725 8.7797-12.5 56.115-80.098 140.57-56.66 169.16 46.942l3.4326 12.442-2.6656 4.0581c-43.867 66.783-81.279 88.262-127.12 72.982-8.7692-2.9232-8.0211-2.9078-8.4094-0.17382-0.89304 6.288-31.069 11.75-64.916 11.75-19.357 0-33.476-7.3282-40.384-20.961l-2.6209-5.172-2.7219 1.8163c-1.497 0.99895-4.3938 2.9413-6.4372 4.3163s-3.7209 3.1347-3.7277 3.9105c-0.0114 1.2961 9.4216 55.911 10.479 60.673 0.41678 1.8764 1.1851 2.0844 7.7355 2.0944 35.708 0.0542 69.595 36.547 67.465 72.653-1.9137 32.446-12.281 41.931-55.932 51.176-6.0018 1.2711-11.036 2.4644-11.186 2.6518-1.396 1.7347-5.5341 46.293-4.3957 47.332 0.727 0.66338 10.866 7.1468 22.532 14.408l21.21 13.202 22.79-2.5328c194.8-21.65 304.19-18.963 388.02 9.5312 68.691 23.347 110.26 63.704 200.26 194.4 65.433 95.026 117.75 162.86 175.46 227.49 22.835 25.575 27.43 30.008 31.096 30.008 34.23 0 72.488 29.118 79.085 60.191 9.4807 44.655-23.123 76.397-89.635 87.266-5.225 0.8539-11.03 1.8084-12.901 2.1211l-3.4012 0.5687 0.6867 24.176c2.6164 92.111 15.468 199.12 39.499 328.88 5.7886 31.258 4.606 28.35 11.836 29.106 25.25 2.6422 58.58 21.217 87.939 49.008 4.6207 4.3739 8.5755 7.7781 8.7886 7.565 2.7364-2.7364 28.07-91.876 27.266-95.94l-0.9278-4.6923-16.143-0.5283c-19.126-0.6259-71.724-18.416-81.965-27.723-0.4524-0.4111 8.5476-10.52 20-22.465s20.931-22.014 21.064-22.378c0.1326-0.3631-5.1757-3.514-11.796-7.002-8.4408-4.447-11.768-6.6879-11.136-7.5 6.4431-8.2828 40.995-53.531 41.497-54.344 0.4245-0.6869-2.4002-2.3146-7.5641-4.3586-4.5329-1.7942-8.6022-3.5763-9.0429-3.9603s7.9603-10.309 18.669-22.055l19.47-21.357-4.169-4.8712c-2.2929-2.6792-4.7547-5.688-5.4707-6.6862-1.1338-1.5809 74.358-76.162 78.766-77.816 0.4239-0.1591 7.6583 9.0659 16.076 20.5 35.678 48.46 74.871 97.886 90.809 114.52 2.4915 2.5998 4.3322 4.9034 4.0903 5.1191-0.2418 0.2157-6.5966 3.6793-14.122 7.6969l-13.682 7.3047 3.6819 4.1652c2.0251 2.2909 12.6 14.138 23.5 26.326l19.818 22.161-7.2346 11.66c-8.8517 14.266-9.3919 10.24 4.5202 33.687 6.465 10.896 11.478 20.088 11.141 20.425-0.3377 0.3378-9.1842 4.2843-19.659 8.7701l-19.045 8.1561-18.657-5.3487c-22.795-6.535-19.215-6.7241-34.163 1.8048l-12.538 7.1537-10.319-1.751c-5.6757-0.963-10.444-1.5947-10.598-1.4036-0.153 0.191-3.1931 14.522-6.7558 31.847l-6.4776 31.5 3.6438 10.94c4.3961 13.198 3.9433 13 15.034 6.5986 12.808-7.3918 18.542-7.8507 24.076-1.9266l2.7997 2.997 20.501-13.048 20.501-13.048 15.006 9.4317 15.006 9.4318 16.541-2.7817c9.0976-1.5299 16.541-2.681 16.541-2.5579 0 0.4607-30.914 22.493-32.314 23.031-0.8692 0.3335-7.8022-3.9141-17.114-10.485l-15.653-11.046-20.409 13.982c-11.225 7.6902-20.672 13.982-20.994 13.982-0.3215 0-4.2081-2.0561-8.6369-4.5691l-8.0523-4.569-21.408 12.069c-25.54 14.399-19.08 14.711-40.063-1.9334l-17.653-14.002-29.601 29.253c-28.552 28.215-59.218 57.209-75.34 71.23l-7.7381 6.73-43.262-15.622c-23.794-8.592-43.867-15.614-44.607-15.604-1.1105 0.015-21.778 18.107-36.234 31.72l-3.5792 3.3703-8.3876-10.248c-8.2551-10.087-8.3972-10.202-8.9972-7.2861-2.4742 12.022-22.092 20.268-30.796 12.944l-2.9928-2.5183-13.334 21.689c-26.119 42.485-34.394 46.473-63.251 30.483-19.496-10.803-14.991-10.298-32.555-3.6509l-14.472 5.4769-33.164-17.481c-18.1-9.5-33.5-17.4-34.1-17.4-0.5426 0-7.4121 7.9875-15.266 17.75-7.8534 9.7625-14.886 18.409-15.629 19.215-1.1675 1.267-2.1019 0.7262-6.9118-4l-5.5618-5.4651-2.1875 2.5716c-1.2031 1.4144-7.6612 9.3063-14.351 17.538-57.323 70.526-63.672 74.465-124.84 77.432-11.55 0.5603-29.325 1.4628-39.5 2.0055-25.931 1.3832-112.24 1.9675-138 0.9343zm162.5-20.4c45.115-5.5147 73.056-16.158 92.038-35.06 8.0342-8.0005 15.576-18.719 14.165-20.13-0.2723-0.2723-49.48 0.3629-109.35 1.4115l-108.85 1.9066-94-8.3298c-109.86-9.7354-99.192-9.2783-110.77-4.7463-13.862 5.4255-24.464 3.5357-54.112-9.6449-15.495-6.8887-18.311-5.2763-17.4 9.9619 2.1217 35.503 50.174 51.137 166.28 54.101 38.417 0.9806 49.876 1.8276 94.813 7.0078 54.805 6.3179 95.173 7.4361 127.19 3.5229zm11.5-71.607c56.093-4.0765 80.241-6.3196 77.837-7.2304-3.7236-1.4109-48.127-0.9896-74.337 0.7053-36.931 2.3881-41.634 2.2288-53.804-1.8233l-10.196-3.3948-35-1.1327c-38.436-1.2438-67.407-2.8039-122-6.5692-99.607-6.8702-167.39-9.6351-157-6.4039 20.568 6.3935 197.09 22.87 303 28.282 12.366 0.6319 44.26-0.4534 71.5-2.433zm82 1.9875c0-0.5825-0.45-0.7809-1-0.441s-1 0.8165-1 1.059c0 0.2426 0.45 0.441 1 0.441s1-0.4766 1-1.059zm46.72-13.445c17.662-15.661 15.211-14.652 21.836-8.9922l5.2714 4.5034 15.785-19.503c8.6816-10.727 16.033-19.493 16.336-19.479 0.3035 0.013 6.5802 5.6474 13.948 12.52 7.3681 6.8727 13.615 12.278 13.881 12.011 0.2665-0.2665 1.693-6.475 3.17-13.797l2.6854-13.312-10.274-19.473-10.274-19.473 20.761-20.801 20.761-20.8 8.2869 3.7346c6.3043 2.8412 8.684 3.4883 9.9465 2.705 0.9128-0.5663 6.4122-3.9642 12.221-7.551l10.561-6.5214 12.245 3.7723 12.245 3.7722 14.565-6.4053c29.35-12.907 38.995-5.1509 50.943 40.969 3.0067 11.606 6.3968 24.164 7.5335 27.906l2.0668 6.8046 2.6397-1.7171c1.4518-0.9443 7.7227-5.0967 13.935-9.2274l11.296-7.5104 9.5241 9.4348 9.5242 9.4347 3.9632-4.4159c7.8402-8.7356 16.633-25.014 28.306-52.404 17.6-41.297 28.722-55.733 51.091-66.314 3.3-1.5611 6.1422-2.9119 6.3161-3.0017 0.1739-0.09-2.1615-10.221-5.1898-22.514-17.474-70.935-23.711-119.44-35.214-273.85-4.2406-56.925-7.7556-103.57-7.8112-103.65-0.056-0.082-15.401-0.6447-34.101-1.2506-37.252-1.2071-47.675-0.8306-97.5 3.5215-71.54 6.249-102.36 1.8256-150.79-21.644-46.9-23-69.4-40.41-125.5-97.2-162.83-164.8-174.96-175.84-213.71-194.46-48.3-23.22-64.16-13.07-153.91 98.46-68.723 85.4-73.807 90.832-98.087 104.82-49.209 28.347-150.63 53.406-239.38 59.147-26.385 1.7068-35.982 1.2698-98.062-4.4661-32.74-3.025-59.961-5.5-60.491-5.5-0.55872 0-0.9638 4.5253-0.9638 10.767 0 45.785-11.111 140.79-27.569 235.73-8.3702 48.285-30.472 161.01-32.108 163.76-0.34257 0.5756 44.297 53.742 45.123 53.742 0.0961 0 3.0454-1.125 6.554-2.5 8.6564-3.3924 7.4847-3.734 25.874 7.5433 9.0058 5.5228 16.479 9.9099 16.606 9.7491 0.12756-0.1608 7.5165-9.6156 16.42-21.011 8.9033-11.395 16.506-20.914 16.894-21.154 0.38824-0.2396 7.1961 6.5084 15.128 14.996 7.9324 8.4873 14.734 15.082 15.114 14.654 0.38031-0.4276 1.2318-3.0051 1.8923-5.7279 9.9414-40.984 40.204-57.236 75.648-40.627 10.696 5.0122 6.9934 5.5009 30.109-3.9737 15.92-6.5251 19.868-7.8042 20.838-6.75 0.65773 0.7155 10.964 18.46 22.902 39.433l21.706 38.132-7.5255 15.026-7.5255 15.026 12.156 22.468 12.156 22.468 14.054-5.0058c7.73-2.7531 14.986-5.2095 16.125-5.4586 1.713-0.3746 4.0291 2.2824 13.406 15.38 6.2343 8.7078 11.681 16.226 12.103 16.706 0.42233 0.4806 7.3212-3.2319 15.331-8.25 21.531-13.489 26.462-12.194 35.838 9.4076 4.8474 11.168 10.091 19.469 12.299 19.469 1.2622 0 1.452-17.934 1.452-137.24v-137.24l-7.6555-19.188-7.6555-19.187 9.3502-46.864 9.3502-46.864-7.126-12.459c-18.212-31.844-19.51-44.618-7.1011-69.929 14.812-30.214 34.506-37.249 110.6-39.51 28.454-0.8454 56.314-1.7993 61.91-2.1198l10.175-0.5826-8.8363-7.4138c-64.69-54.2-70.54-137.42-13.61-193.8 62.904-62.292 150.52-51.989 193.53 22.757 39.4 68.47-3.1868 167.57-77.088 179.39-5.8251 0.9315-5.4529 1.9733 1.1704 3.2764 13.656 2.6867 24.415 3.2063 83.502 4.033 79.608 1.1137 103.15 3.6983 133.71 14.682 58.452 21.004 72.112 70.15 31.876 114.69l-3.4549 3.8245-2.7326 54.676c-1.5028 30.072-3.4534 72.45-4.3345 94.176-4.751 117.14-9.3639 178.36-18.141 240.76-3.1431 22.346-4.4126 18.308 11.374 36.183 15.873 17.973 11.652 17.753 29.921 1.5543zm78.3-174.7c-41.443-4.1596-80.638-20.617-92.926-39.019-17.716-26.53-1.8517-58.732 33.231-67.452 4.9259-1.2244 6.6598-2.07 6.2791-3.0623-8.2672-21.544-8.7693-84.39-0.9772-122.32 32.442-157.91 193.58-189.36 256.37-50.041 20.474 45.432 28.632 112.21 19.341 158.32l-1.618 8.0301 16.902 16.574c47.62 46.698 25.772 81.995-58.848 95.069-25.87 3.9973-149.7 6.7119-177.75 3.8967zm102.5-20.913c61.277-2.9714 104.3-10.585 131.92-23.344 4.1716-1.9274 7.5603-3.8711 7.5305-4.3194-0.03-0.4483-1.2685-6.3196-2.7528-13.047l-2.6987-12.232-4.205 5.4346c-43.772 56.571-278.58 48.016-310.2-11.303-2.9611-5.5542-7.8019 5.0448-6.6784 14.622 2.6893 22.925 29.208 37.048 80.094 42.656 23.548 2.595 71.066 3.2761 107 1.5335zm25-27.407c40.767-7.2466 74.565-21.052 86.148-35.187 6.8866-8.4042 1.1569-6.7643-18.006 5.1537-19.121 11.892-15.61 11.13-57.142 12.388-19.8 0.5994-49.5 1.5899-66 2.201-75.172 2.7841-106.44-3.5182-121.67-24.527-3.6734-5.0652-3.6061-3.4886 0.1291 3.0238 12.489 21.775 51.485 34.77 115.06 38.341 21.538 1.2098 50.539 0.5526 61.485-1.3932zm-11-30.614c83.742-5.6494 108.9-49.892 87.944-154.68-18.561-92.82-98.075-142.39-170.44-106.25-84.02 41.952-112.08 245.93-35.892 260.89 6.226 1.2227 100.38 1.2535 118.39 0.039zm-0.3273-17.862c-26.203-9.0496-25.094-58.694 1.5683-70.214 12.228-5.2834 33.896-6.3461 43.428-2.1298 25.049 11.08 25.721 65.324 0.8995 72.647-8.2191 2.4248-38.578 2.2245-45.896-0.3027zm31.077-16.65 11.75-0.7023v-19.511-19.511l-5.75 0.602c-3.1625 0.3311-13.175 1.1187-22.25 1.7501-9.075 0.6315-17.062 1.3094-17.75 1.5065-0.9143 0.2622-1.25 3.7183-1.25 12.869v12.51l5.0075 6.8631 5.0075 6.8631 6.7425-1.268c3.7084-0.6975 12.03-1.5841 18.492-1.9704zm-141.23 9.0075c-32.351-9.0238-37.6-57.415-7.6993-70.98 19.559-8.8732 47.028-7.3285 65.307 3.6724l5.5739 3.3546-0.4671 15.5c-1.1908 39.515-26.011 58.691-62.714 48.453zm40.358-22.203c3.8109-20.97 4.7254-34.215 2.3676-34.29-0.6875-0.022-7.4226-0.8381-14.967-1.8141l-13.717-1.7746-11.783 5.7667c-6.4807 3.1717-12.356 6.1583-13.055 6.6368-2.5631 1.7531 4.7123 20.417 11.684 29.975l3.1002 4.25h17.39 17.39l1.5902-8.75zm-46.204-60.298c-6.3078-5.8766-16.213-33.642-16.929-47.452-2.0291-39.163 37.605-70.858 69.004-55.183 18.399 9.1851 18.172 8.418 14.172 47.824-3.0146 29.701-3.0776 48.694-0.1761 53.119 0.9625 1.468 1.75 2.9099 1.75 3.2042 0 1.9197-65.71 0.4537-67.821-1.513zm48.7-21.5c0-2.5408 1.1661-11.878 2.5913-20.75 6.8283-42.505-5.6555-59.539-33.857-46.198-20.945 9.9086-26.845 47.234-10.632 67.266l3.3979 4.1984 19.25 0.052 19.25 0.052v-4.6197zm80.951 22.623c-28.724-4.5609-42.21-32.329-34.382-70.795 9.8711-48.508 70.988-44.915 82.12 4.8274 10.194 45.547-9.0316 72.114-47.738 65.968zm20.832-19.556c19.023-7.9463 15.666-56.108-4.6463-66.66-25.054-13.016-44.862 15.426-35.705 51.267 3.9674 15.53 22.814 22.719 40.351 15.393zm-1059.2 133c-33.042-5.9649-65.403-26.113-75.136-46.779-9.6274-20.442-7.0601-29.364 17.204-59.787l9.3153-11.68-2.4721-4.423c-15.708-28.104-13.232-101.94 5.0699-151.22 26.688-71.863 69.745-97.136 136.15-79.92 67.943 17.614 98.941 76.367 108.38 205.42l1.2065 16.5 10.192 10c51.628 50.656 28.031 106.1-51.752 121.6-13.016 2.5284-144.42 2.7669-158.16 0.2871zm109.95-14.4c69.962-5.0843 106.12-22.54 111.64-53.895 2.3487-13.334-7.6499-17.402-30.643-12.469-2.9558 0.6342-2.9411 0.5995 1-2.3593 5.97-4.4819 10.204-9.2854 12.018-13.633 2.9429-7.0553 0.58577-6.3747-16.156 4.6645-22.307 14.709-33.914 20.234-51.235 24.389-17.022 4.0832-117.03 2.8291-134.69-1.6891-18.206-4.6562-39.475-20.305-43.681-32.138-2.059-5.7924-3.342 6.8622-1.3146 12.966 7.6421 23.008 34.927 31.037 109.06 32.092 40.65 0.5785 41.855 0.6511 37.5 2.2605-2.475 0.9145-14.4 5.1336-26.5 9.3757l-22 7.7129-15-1.1215c-33.579-2.5106-60.991-11.968-88.366-30.487l-11.366-7.6888 0.70153 3.773c8.4624 45.513 66.945 65.666 169.03 58.248zm1.5242-42.276c2.5888-2.8653 70.124-23.499 73.331-22.404 3.3369 1.1385-32.106 15.451-47.743 19.279-9.433 2.3095-26.764 4.4262-25.588 3.1251zm13.48-24.7c56.133-6.4248 71.397-54.56 48.946-154.35-28.115-124.97-157.69-150.07-204.12-39.555-36.167 86.086-16.563 171.41 43.871 190.93 11.817 3.8177 86.504 5.8156 111.3 2.9774zm-14.737-22.93c-32.063-5.7826-33.7-14.91-16.265-90.693 0.92504-4.0207 17.125-7.7527 31.121-7.1695 25.952 1.0813 37.84 19.083 37.868 57.339 0.0245 34.272-16.589 47.041-52.724 40.524zm38.197-22.003c13.717-7.3414-4.5352-54.978-22.629-59.059-17.46-4-27.33 10.2-27.33 39.1v12.976l2.75 1.0462c14.134 5.3772 41.757 8.8442 47.211 5.9254zm-135.65 15.09c-15.94-5.8972-24.445-18.426-27.853-41.033-5.2688-34.951 3.3634-52.914 25.899-53.892 15.182-0.6587 56.239 7.2658 55.226 10.66-0.58895 1.9743-4.2294 38.687-5.1717 52.154-1.9939 28.498-21.916 41.798-48.1 32.111zm33.895-21.361c-0.91091-6.8037-0.89833-27.833 0.0263-44l0.72921-12.75h-19.907-19.907l-3.064 6.4849c-1.6852 3.5667-3.7912 9.1006-4.6801 12.298l-1.6161 5.8127 4.9771 13.452c2.7374 7.3987 5.747 15.815 6.6881 18.702l1.7109 5.25h17.873 17.873l-0.70288-5.25zm-37.793-82.884c-26.849-6.0401-28.28-45.772-2.8176-78.213 19.922-25.383 56.165-15.82 62.461 16.481 8.4859 43.54-18.117 71.074-59.643 61.732zm33.532-22.652c19.888-9.9365 11.437-51.168-10.496-51.208-17.287-0.032-38.319 44.036-24.265 50.84 9.9718 4.8273 25.506 4.9917 34.761 0.3678zm55.502 21.467c-20.113-9.5806-28.38-63.771-12.128-79.497 22.675-21.941 62.684 4.2851 62.684 41.089 0 23.405-31.62 47.428-50.556 38.408zm17.756-18.811c13.179-2.811 19.41-18.664 14.832-37.735-3.9559-16.48-24.426-21.244-38.955-9.0658-2.3952 2.0076-2.4082 2.1137-1.1897 9.7305 0.67755 4.2354 1.498 13.684 1.8233 20.997 0.66601 14.973 0.52735 14.728 9.1597 16.187 6.7943 1.1481 8.479 1.1348 14.329-0.113zm917.93 481.98c3.2492-1.7318 8.8337-5.8299 12.41-9.1068l6.5021-5.958-3.3306-3.6867c-3.4531-3.8221-7.1366-10.617-8.6879-16.026l-0.8955-3.1227 12.937-6.4828 12.937-6.4828v-3.7429c-0.013-11.888-6.7271-48.795-10.099-55.514-9.3856-18.701-24.43-15.694-43.42 8.6769l-3.0237 3.8807-8.1218-8.0783c-11.976-11.911-16.575-11.794-32.094 0.8152l-6.2632 5.089-10.929-5.6783c-33.794-17.558-44.131 19.226-13.633 48.512 4.6384 4.4542 4.5135 6.2939-0.9191 13.53-5.59 7.4464-6.9106 11.312-6.0588 17.733 3.5251 26.573 35.466 29.777 50.088 5.0237 2.621-4.4369 2.8057-4.3669 14.566 5.5203 24.104 20.264 26.536 21.229 38.04 15.098zm-51.788-41.286c-21.945-6.8632-20.522-41.772 1.8375-45.079 19.087-2.8226 33.191 7.9688 33.191 25.395 0 17.371-15.169 25.894-35.029 19.684zm18.7-16.1c0-3.1743-9.6875-13.45-12.68-13.45-0.726 0-1.32 0.1714-1.32 0.3809 0 0.2096-1.1211 3.3596-2.4914 7l-2.4914 6.6191h9.4914c5.2203 0 9.4914-0.2473 9.4914-0.5497zm-253.18 42.032c7.7766-1.8371 16.064-5.6699 18.987-8.7812 9.3139-9.9142 25.189-155.08 25.189-230.33v-25.242l-8.373 3.9238c-12.896 6.0431-23.171 8.1255-43.606 8.8375l-17.48 0.609-9.2245 124c-5.0734 68.2-9.2452 125.31-9.2705 126.91l-0.046 2.9079 18.75-0.6697c10.68-0.3814 21.472-1.3127 25.074-2.1635zm-63.028-25.233c52.465-268.88 14.539-364.74-144.3-364.75-70.519 0-90.782 10.086-92.593 46.1-2.0648 41.062-12.643 60.354-33.112 60.389-7.0832 0.012-4.8702-17.934-16.279 132.01-5.2519 69.025-9.7995 127.57-10.106 130.1l-0.55696 4.6001 7.8232 0.6349c87.478 7.0989 243.74 17.149 272.36 17.517l11.538 0.1483 5.2196-26.75zm-129.8 4.1c-31.777-6.2296-33.957-6.5239-54.5-7.3569-36.956-1.4985-37.722-2.2016-40.508-37.162-0.62917-7.8957-1.7848-18.74-2.568-24.099-7.2968-49.926 10.92-70.823 63.576-72.929 104.14-4.1651 123.76 11.199 108.01 84.604-8.6528 40.351-39.112 63.785-74.014 56.943zm25.335-21.857c30.151-6.3883 44.592-41.596 34.257-83.517-1.4238-5.775-2.5893-11.707-2.59-13.183-0.003-5.6095-83.264-9.4857-108.73-5.0619-24.534 4.2621-30.986 12.879-32.006 42.744-0.56468 16.528 2.5668 48.952 5.1344 53.162 0.22183 0.3637 36.133 4.483 50.099 5.7467 20.718 1.8746 45.265 1.9241 53.835 0.1084zm-146.17-117c-16.741-14.087-17.783-47.623-1.5546-50.056 23.144-3.4706 39.474 15.076 32.866 37.328-3.4527 11.626-23.12 19.622-31.312 12.729zm67.937-35.03c-42.263-11.676-47.735-84.129-10.646-140.96 51.259-78.54 159.08-9.6067 147.66 94.404-3.3013 30.067-10.862 40.573-32.978 45.823-9.7955 2.3252-96.07 2.931-104.03 0.7305zm74.89-21c12.375-0.7946 26.845-1.4571 32.156-1.4723l9.6562-0.028 0.65493-5.25c0.36021-2.8875 1.6311-10.875 2.8241-17.75 10.234-58.971-27.433-113.84-78.323-114.09-34.857-0.1733-67.945 59.973-60.892 110.69 3.976 28.586 18.077 32.776 93.924 27.906zm-209.12 182.75c16.293-67.403 24.078-141.06 24.111-228.11l0.0101-26.361-3.25 0.5889c-19.029 3.4478-51.924 4.0868-64.019 1.2435-7.0167-1.6494-6.0405-3.4172-9.6481 17.471-11.494 66.551-12.122 104.31-3.4418 206.92 1.4657 17.325 3.006 32.436 3.4229 33.581 0.87309 2.3964 25.032 8.0849 48.101 11.326 0.36563 0.051 2.4868-7.4441 4.7136-16.657zm906.61-11.091c14.946-6.7639 17.832-20.938 7.5086-36.876-3.4295-5.2947 5.0298-11.066 18.004-12.283 15.847-1.4865 19.501-5.2021 19.497-19.823-0.01-18.719-9.6237-25.932-26.377-19.782l-4.3801 1.608-12.459-11.752c-24.955-23.538-24.366-23.187-28.924-17.256-8.73 11.359-16.338 14.682-27.775 12.134l-8.551-1.9053-6.3842 6.7675c-16.82 17.83-34.647 47.997-34.647 58.63 0 14.103 20.68 28.378 41.111 28.378 13.204 0 13.248-0.023 15.815-8.1291 1.6775-5.2979 4.5523-7.7139 5.9876-5.032 1.4822 2.7695 4.0535 13.996 4.0714 17.776 0.046 9.8039 22.519 14.325 37.502 7.5443zm-53.554-41.983c-3.0614-1.0154-6.9989-2.6924-8.75-3.7267l-3.1837-1.8807v-14.034c0-24.701 11.762-32.072 34.127-21.391 34.59 16.519 14.71 53.272-22.195 41.033zm13.422-10.719c3.3793-0.8483 6.6786-1.7234 7.3317-1.9446 0.7493-0.2538-0.6343-3.4331-3.75-8.6172-2.7156-4.5183-4.9374-8.5932-4.9374-9.0554 0-6.6573-5.6288 5.7643-6.5296 14.41-0.8033 7.7088-1.1546 7.4769 7.8853 5.2076zm-1125.3 20.404c10.538-3.5283 14.957-11.572 15.822-28.801l0.57741-11.505 3.9495-2.2117c2.1722-1.2164 6.2222-2.5193 9-2.8954 9.3284-1.2627 15.451-6.7316 19.853-17.732l2.4291-6.0714-4.9844-4.0728c-9.7602-7.9752-14.455-9.3136-22.649-6.4572-4.5534 1.5873-4.5895 1.0624-0.53262-7.7338l3.6352-7.8818-1.7516-14.25-1.7516-14.25h-13.58-13.58l-9.0929 9.0551-9.0929 9.0551-7.9259-4.7078c-23.519-13.97-37.685-12.812-56.726 4.6356l-6.6998 6.1392v10.358 10.358l5.54-1.9061 5.54-1.906 0.96001 2.525c1.5422 4.0563 1.1243 9.2627-1.5425 19.217-7.7763 29.026 5.4358 40.726 34.642 30.678 14.078-4.8436 12.732-5.5815 17.786 9.75 6.9832 21.182 14.051 26.01 30.175 20.612zm-20.745-44.372c-2.7704-1.3805-7.8087-5.0183-11.196-8.0839l-6.06-5.5v-9.8361-9.8361l5.5547-4.9509c18.049-16.087 38.536-15.004 43.326 2.2909 7.0412 25.422-11.122 46.157-31.525 35.99zm14.141-13.946c3.1567-1.9008 6.1177-3.5883 6.58-3.75 0.46237-0.1616-0.37833-4.4554-1.8682-9.5416s-3.1589-9.0635-3.7089-8.8383-5.609 1.9117-11.242 3.7477c-13.137 4.2819-13.566 10.683-1.2695 18.942 5.308 3.5649 4.6022 3.5992 11.509-0.5597zm1309.5-0.7c5.5152-26.532 11.125-63.216 11.125-72.749 0-4.5129-0.7418-4.473-12.165 0.6547-9.1541 4.1091-13.686 3.8725-18.649-0.9736l-3.9103-3.8183-0.6666 5.3183c-0.3667 2.9251-2.4776 14.24-4.6911 25.144-6.4406 31.727-5.9723 35.811 5.3736 46.854 3.9747 3.8687 18.511 14.72 19.811 14.789 0.3314 0.017 2.0291-6.8307 3.7726-15.218zm1.6249-91.153c2.75-0.7586 9.1637-3.0102 14.253-5.0037 14.138-5.538 20.074-5.8328 24.682-1.2254 5.8522 5.8521 9.3529 5.2637 17.284-2.9052 10.001-10.301 12.543-10.385 29.281-0.9675 14.121 7.945 41 10.903 41 4.5115 0-3.8559-4.4978-16.033-9.9752-27.006-11.848-23.736-11.438-26.186 5.8554-34.954l4.3802-2.2208-4.9552-5.1632c-11.027-11.49-23.344-27.102-35.375-44.837l-6.8547-10.105 3.2122-4.4944c1.7667-2.4719 5.1154-5.9528 7.4416-7.7353l4.2294-3.2409-13.663-15.376c-7.5145-8.4565-19.265-21.45-26.112-28.876-24.369-26.427-38.269-47.71-44.637-68.347l-2.1127-6.8468-14.842 16.674c-8.163 9.1708-20.139 22.07-26.613 28.664-11.205 11.413-11.62 11.982-8.625 11.821 21.724-1.1669 11.707 16.409-23.237 40.772l-12.383 8.6336 6.233 1.2714c12.617 2.5737 16.516 8.9062 11.415 18.539-3.6881 6.9644-31.839 35.388-39.145 39.523l-5.2626 2.979 6.239 4.9016c3.4315 2.696 9.2969 6.5108 13.034 8.4774l6.7952 3.5757-5.9057 7.93c-9.1283 12.258-19.088 23.389-26.332 29.43-7.9742 6.6505-8.3572 6.3776 11.945 8.5096 20.564 2.1595 26.249 6.0564 26.249 17.992 0 2.7678 0.4505 3.565 2.25 3.9818 1.2375 0.2865 9.9 2.3547 19.25 4.5959 34.222 8.2029 41.514 9.1349 51 6.5181zm-659.68-43.118c30.976-7.3025 46.821-39.778 47.316-96.979 0.1319-15.24-0.5953-19.284-5.3432-29.708-3.7589-8.2528 2.9569-7.2601-62.798-9.2827-138.49-4.2599-142.67-4.3675-291-7.5045-42.424-0.8972-42.536-0.9052-62.5-4.4559-56.341-10.02-69.623-1.9213-76.053 46.375-7.0512 52.962 7.0352 71.713 56.053 74.615 48.27 2.8576 60.567-5.5358 76.972-52.538 10.395-29.782 11.978-32.937 19.521-38.9 35.761-28.268 153.19-21.271 204.25 12.17 18.466 12.094 15.205 7.1019 45.555 69.73 15.524 32.034 27.69 41.274 48.03 36.479zm43.2-157.4c12.187-4.0189 19.99-11.751 24.174-23.954 17.399-50.745-36.815-75.604-172.67-79.174-249.76-6.5632-290.65-6.1994-313.81 2.7918-47.661 18.507-50.667 81.988-4.3502 91.875 19.527 4.1682 455.69 12.076 466.66 8.4604zm-250.99-138.5c88.883-15.737 128.64-98.192 79.403-164.68-31.47-42.52-60.73-55.46-103.91-46-139.48 30.56-115.64 235.48 24.51 210.68zm-35.01-35.1c-55.43-11.1-71.17-92.69-25.04-129.74 46.21-37.12 109.2-20.47 127.63 33.74 18.8 55.3-38.46 108.9-102.59 96zm18.96-17.25c11.679-41.411 8.7589-47.441-21.489-44.375-6.1 0.61-16.12 1.12-22.28 1.12-6.15 0-11.19 0.38-11.19 0.84 0 4.4562 18.668 29.844 28.83 39.208l7.5448 6.9521h8.7656 8.7656l1.0576-3.75zm32.93-5.5003c10.774-5.3231 22.824-16.529 31.131-28.947 9.4425-14.117 9.3522-14.172-21.678-13.199l-22.34 0.7v23.415 23.415l2.25-0.61894c1.2375-0.34041 6.0271-2.4852 10.643-4.7661zm-26.12-83.5-0.27-24.75l-4.7988-0.30678c-21.213-1.3561-58.173 26.106-60.396 44.875l-0.58 4.94h33.157 33.157l-0.26747-24.75zm63.034 16.365c-0.95051-11.462-11.214-24.595-28.283-36.189l-8.4196-5.7192-3.5628 3.1282c-1.9595 1.7205-4.9067 3.8231-6.5493 4.6725l-2.9865 1.5444v18.974 18.974h25.124 25.124l-0.44659-5.3854zm615.2 98.98c54.136-10.815 76.534-36.6 61.031-70.261-11.541-25.059-36.008-28.752-102.03-15.401-61.691 12.475-91.296 11.24-144.74-6.0382-88.1-28.47-175.3-86.2-353.8-234.38-110.6-91.8-149.83-114.47-175.88-101.65-16.34 8.04-40.88 30.17-76.68 69.13-100.99 109.93-179.87 163.87-287.38 196.51-57.75 17.54-132.47 28.47-194.73 28.49h-15.66l-35.75-16.5c-19.658-9.075-36.082-16.5-36.496-16.5-0.41458 0-7.4627 9.2239-15.663 20.497l-14.909 20.497 0.79517 6.605c6.07 50.41 116.94 78.27 264.85 66.56 165.3-13.1 233.05-54.92 323.78-199.85 42.69-68.19 85.62-87.18 138.72-61.35 27.974 13.606 51.628 32.789 108.74 88.194 94.384 91.557 141.3 134.46 165.76 151.58 65.184 45.626 132.26 71.141 197.81 75.241 26.2 1.6389 182.72 0.5313 192.19-1.36zm-14-98.095c0-0.33092-93.496-115.49-98.463-121.27-0.1226-0.14286-4.9061 1.2604-10.63 3.1185-36.036 11.698-74.434 4.4267-104.52-19.791-8.2431-6.635-7.1724-6.5588-11.114-0.79165-14.672 21.464-45.778 42.31-73.521 49.27-6.1072 1.5322-6.0359 1.8292 2.0007 8.3224 35.711 28.853 148.66 71.324 213.02 80.1 9.3371 1.2731 83.225 2.2021 83.225 1.0464zm-1202.7-63.97c78.97-6.5153 151.35-23.635 224.51-53.098 24.116-9.7129 23.743-9.4088 10.725-8.7527-31.29 1.577-58.286-10.298-87.711-38.581l-11.862-11.402-25.713 12.557c-58.092 28.368-55.309 28.188-113.53 7.3377-16.913-6.0572-14.772-6.6652-30.647 8.6996-29.139 28.201-54.291 48.008-75.043 59.096l-7.9722 4.2597 2.7397 2.5733c20.171 18.945 46.483 22.923 114.51 17.311zm907.23-39.53c15.852-3.8473 31.834-16.544 56.053-44.528 3.8211-4.4153 8.4303-9.7418 10.243-11.837l3.2955-3.8087 5.2045 3.9784c41.42 31.662 105.46 45.863 111.36 24.695 0.1532-0.55-17.184-22.15-38.526-48l-38.805-47-5.7657 0.2031c-3.3472 0.11791-12.749 2.2152-22.413 5-26.432 7.6163-37.039 6.7048-74.147-6.372-27.322-9.6283-49.196-22.071-51.487-29.289-0.7828-2.4661 2.9003-4.1011-55.513 24.643l-48.5 23.866-6-0.78926c-3.3-0.4341-10.725-0.67073-16.5-0.52585l-10.5 0.26342 22 17.578c22.613 18.068 49.748 39.402 73.5 57.788 43.369 33.57 60.68 40.401 86.5 34.135zm-655.32-34.47c39.808-6.0006 71.167-32.797 95.053-81.224 4.0829-8.2776 6.7059-14.72 6.1807-15.18-0.5-0.44-5.19-2.29-10.41-4.11-37.21-12.93-54.95-22.09-70.78-36.52l-6.2837-5.729-9.2875 8.9848c-34.957 33.818-76.562 39.567-115.01 15.894-4.4735-2.7543-11.636-7.143-15.916-9.7526l-7.7823-4.7447-5.7177 1.8729c-3.1447 1.0301-16.713 5.3098-30.151 9.5104l-24.433 7.6376-10.111 9.3756c-11.007 10.207-31.153 31.825-40.025 42.951-6.5001 8.1506-17.858 24.487-17.348 24.951 3.3207 3.0186 35.522 13.175 50.85 16.038 34.671 6.4764 49.016 1.2915 79.684-28.801l12.184-11.955 6.3159 5.8814c3.4737 3.2347 11.792 11.145 18.485 17.578 33.427 32.129 59.84 42.564 94.51 37.338zm512.32-91.23c27.656-4.7873 53.028-18.334 76.25-40.713l11.75-11.323 7.3908 6.8331c40.229 37.193 113.53 53.157 135.86 29.591l3-3.19-32-45.5c-17.571-25.025-32.27-46.054-32.664-46.73-0.5639-0.96834-3.2576-0.9151-12.65 0.25-49.693 6.1645-92.851-5.8616-119.98-33.433-9.1084-9.2562-9.6119-9.0512-34.041 13.854-41.399 38.816-106.33 24.722-158.51-34.404l-8.3046-9.4115-4.0877 2.0806c-5.5793 2.8399-25.695 14.273-33.321 18.939-42.118 25.768-98.039 24.874-124.86-1.9972l-7.3387-7.3527-12.785 8.4677c-73.259 48.522-119.28 50.287-153.42 5.885l-2.5779-3.3527-10.044 7.4752c-46.407 34.537-87.695 43.195-133.59 28.012-6.4049-2.1189-11.114-3.1978-11.5-2.6348-16.073 23.436-27.275 43.96-36.051 66.056-1.048 2.6384-2.8294 7.1246-3.9588 9.9695l-2.0534 5.1726 7.2049-3.2558c9.382-4.2396 19.528-7.8491 33.562-11.94l11.357-3.3105 4.7475 4.5806c12.877 12.424 32.264 18.932 63.099 21.183 33.612 2.4527 52.021-6.3044 71.404-33.965 3.136-4.4754 6.1574-8.1371 6.7142-8.1371 3.3224 0 15.858 11.076 26.031 23 36.588 42.885 69.374 37.78 128.29-19.978 37.226-36.493 57.095-48.631 91-55.59 44.342-9.1008 74.834 5.3734 137.42 65.231 59.224 56.643 78.846 66.511 118.58 59.632zm-575.35-124.37c15.646-6.454 34.673-19.667 59.248-41.144l13.896-12.144 2.6036 2.9896c1.432 1.6443 8.588 10.026 15.902 18.626 7.3143 8.6 14.064 15.875 15 16.167 2.6055 0.81194 22.883 4.0917 40.723 6.5866l16.022 2.2406 16.978-10.746c22.332-14.134 41.186-27.417 48.411-34.105 8.4181-7.7937 13.416-6.1768 29.034 9.392 32.395 32.293 96.192 22.755 142.97-21.375l7.014-6.6166 3.8601 3.3485c2.123 1.8417 13.046 11.728 24.274 21.971 32.607 29.745 37.41 33.355 52.279 39.292 21.244 8.4832 50.398 8.1302 69.039-0.83582 8.5533-4.114 9.4514-4.9766 27.789-26.692l14.029-16.614 11.639 11.641c22.982 22.987 44.548 35.664 69.148 40.648 13.468 2.729 59.99 1.0805 59.99-2.1258 0-7.6708-32.158-56.871-48.585-74.333-48.3-51.29-72.3-54.46-284.5-37.59-171.39 13.621-197.76 13.668-277.5 0.48905-91.138-15.061-123.37-13.488-151.12 7.3742-8.9429 6.7225-9.8675 8.2353-31.492 51.529l-19.78 39.6 2.5559 2.6691c12.362 12.909 50.165 18.146 70.486 9.7632zm97.655-140.05c20.517-0.623 40.767-1.4142 45-1.7582l7.7-0.62 0.26529-4c3.2686-49.283 8.767-70.793 21.455-83.929 6.622-6.8561 6.5645-7.1361-2.3934-11.658-14.785-7.4635-53.801-12.806-94.164-12.893l-8.84-0.02-9.6627 5.986c-5.3145 3.2923-10.206 6.3298-10.87 6.75-0.93715 0.59312-0.85446 4.1186 0.36975 15.764 2.8276 26.898 2.2159 68.511-1.2602 85.724l-0.55014 2.7244 7.8238-0.46621c4.3031-0.25642 24.611-0.97595 45.128-1.5989zm114.07-99.589 8.3759-0.60976 1.8581-4.2005c12.922-29.213-6.7401-47.886-70.474-66.931-102.08-30.504-155.91-23.001-158.39 22.078l-0.50247 9.1313 4.195 4.5511c12.706 13.784 33.674 19.275 50.435 13.208 10.471-3.7904 20.061-4.9228 65.63-7.75 58.478-3.6281 81.5 3.7562 81.5 26.141v7.7408l4.5-1.3746c2.475-0.756 8.2691-1.6489 12.876-1.9843zm-78.835-95.9c2.9719-0.88256 7.3286-2.9292 9.6815-4.548l4.2781-2.9434v-17.961-17.961l-5.75 0.75873c-10.24 1.3512-41.048 0.72352-49.25-1.0035-8.6953-1.8308-9.047-1.6275-13.567 7.8433-6.2798 13.158-2.839 27.477 7.9654 33.149 8.3152 4.3652 35.656 5.9274 46.642 2.665zm-15.04-121.83c0-2.3193 5.2765-9.4774 8.6868-11.785 2.8983-1.9608 10.85-5.4682 8.2839-3.6541-0.29111 0.20583-4.2286 3.9637-8.75 8.3508-4.52 4.39-8.22 7.58-8.22 7.09z"/>
</svg>
